<?xml version="1.0" standalone="no"?>
 <!DOCTYPE svg PUBLIC "-//W3C//DTD SVG 1.1//EN" 
 "http://www.w3.org/Graphics/SVG/1.1/DTD/svg11.dtd"> 
<svg
  xmlns:svg="http://www.w3.org/2000/svg"
  xmlns="http://www.w3.org/2000/svg"
  xmlns:xlink="http://www.w3.org/1999/xlink"
  version="1.1"
  width="179.5780mm" height="94.9706mm" viewBox="0.0000 0.0000 179.5780 94.9706">
<title>SVG Image created as longhorn_leds-F_Silkscreen.svg date 2023/06/12 13:52:58 </title>
  <desc>Image generated by PCBNEW </desc>
<g style="fill:#000000; fill-opacity:1.0000;stroke:#000000; stroke-opacity:1.0000;
stroke-linecap:round; stroke-linejoin:round;"
 transform="translate(0 0) scale(1 1)">
</g>
<g style="fill:#000000; fill-opacity:0.0; 
stroke:#000000; stroke-width:0.0000; stroke-opacity:1; 
stroke-linecap:round; stroke-linejoin:round;">
</g>
<g style="fill:#F2EDA1; fill-opacity:0.0; 
stroke:#F2EDA1; stroke-width:0.0000; stroke-opacity:1; 
stroke-linecap:round; stroke-linejoin:round;">
</g>
<g style="fill:#F2EDA1; fill-opacity:0.0; 
stroke:#F2EDA1; stroke-width:0.1530; stroke-opacity:1; 
stroke-linecap:round; stroke-linejoin:round;">
<g transform="rotate(-45.000000 91.9451 34.6622)">
<text x="91.9451" y="35.1622"
textLength="2.1349" font-size="1.3333" lengthAdjust="spacingAndGlyphs"
text-anchor="middle" opacity="0">C7</text>
</g>
<g class="stroked-text"><desc>C7</desc>
<path d="M92.0870 35.0398
L92.0870 35.1071
" />
<path d="M92.0870 35.1071
L92.0197 35.2418
" />
<path d="M92.0197 35.2418
L91.9524 35.3092
" />
<path d="M91.9524 35.3092
L91.8177 35.3765
" />
<path d="M91.8177 35.3765
L91.6830 35.3765
" />
<path d="M91.6830 35.3765
L91.5820 35.3428
" />
<path d="M91.5820 35.3428
L91.4136 35.2418
" />
<path d="M91.4136 35.2418
L91.3126 35.1408
" />
<path d="M91.3126 35.1408
L91.2116 34.9724
" />
<path d="M91.2116 34.9724
L91.1779 34.8714
" />
<path d="M91.1779 34.8714
L91.1779 34.7367
" />
<path d="M91.1779 34.7367
L91.2452 34.6021
" />
<path d="M91.2452 34.6021
L91.3126 34.5347
" />
<path d="M91.3126 34.5347
L91.4473 34.4674
" />
<path d="M91.4473 34.4674
L91.5146 34.4674
" />
<path d="M91.6830 34.1643
L92.1544 33.6929
" />
<path d="M92.1544 33.6929
L92.5584 34.7031
" />
</g><text x="96.7994" y="27.7506"
textLength="2.1349" font-size="1.3333" lengthAdjust="spacingAndGlyphs"
text-anchor="middle" opacity="0">C3</text>
<g class="stroked-text"><desc>C3</desc>
<path d="M96.6327 27.6180
L96.5851 27.6656
" />
<path d="M96.5851 27.6656
L96.4423 27.7132
" />
<path d="M96.4423 27.7132
L96.3470 27.7132
" />
<path d="M96.3470 27.7132
L96.2042 27.6656
" />
<path d="M96.2042 27.6656
L96.1089 27.5704
" />
<path d="M96.1089 27.5704
L96.0613 27.4751
" />
<path d="M96.0613 27.4751
L96.0137 27.2846
" />
<path d="M96.0137 27.2846
L96.0137 27.1418
" />
<path d="M96.0137 27.1418
L96.0613 26.9513
" />
<path d="M96.0613 26.9513
L96.1089 26.8561
" />
<path d="M96.1089 26.8561
L96.2042 26.7608
" />
<path d="M96.2042 26.7608
L96.3470 26.7132
" />
<path d="M96.3470 26.7132
L96.4423 26.7132
" />
<path d="M96.4423 26.7132
L96.5851 26.7608
" />
<path d="M96.5851 26.7608
L96.6327 26.8085
" />
<path d="M96.9661 26.7132
L97.5851 26.7132
" />
<path d="M97.5851 26.7132
L97.2518 27.0942
" />
<path d="M97.2518 27.0942
L97.3946 27.0942
" />
<path d="M97.3946 27.0942
L97.4899 27.1418
" />
<path d="M97.4899 27.1418
L97.5375 27.1894
" />
<path d="M97.5375 27.1894
L97.5851 27.2846
" />
<path d="M97.5851 27.2846
L97.5851 27.5227
" />
<path d="M97.5851 27.5227
L97.5375 27.6180
" />
<path d="M97.5375 27.6180
L97.4899 27.6656
" />
<path d="M97.4899 27.6656
L97.3946 27.7132
" />
<path d="M97.3946 27.7132
L97.1089 27.7132
" />
<path d="M97.1089 27.7132
L97.0137 27.6656
" />
<path d="M97.0137 27.6656
L96.9661 27.6180
" />
</g><g transform="rotate(-90.000000 94.9139 52.1970)">
<text x="94.9139" y="52.6970"
textLength="1.9920" font-size="1.3333" lengthAdjust="spacingAndGlyphs"
text-anchor="middle" opacity="0">Y1</text>
</g>
<g class="stroked-text"><desc>Y1</desc>
<path d="M94.9003 52.6732
L95.3765 52.6732
" />
<path d="M94.3765 53.0065
L94.9003 52.6732
" />
<path d="M94.9003 52.6732
L94.3765 52.3399
" />
<path d="M95.3765 51.4827
L95.3765 52.0541
" />
<path d="M95.3765 51.7684
L94.3765 51.7684
" />
<path d="M94.3765 51.7684
L94.5194 51.8637
" />
<path d="M94.5194 51.8637
L94.6146 51.9589
" />
<path d="M94.6146 51.9589
L94.6622 52.0541
" />
</g><text x="67.3862" y="62.1112"
textLength="3.2301" font-size="1.3333" lengthAdjust="spacingAndGlyphs"
text-anchor="middle" opacity="0">SW1</text>
<g class="stroked-text"><desc>SW1</desc>
<path d="M66.0529 62.0262
L66.1957 62.0738
" />
<path d="M66.1957 62.0738
L66.4338 62.0738
" />
<path d="M66.4338 62.0738
L66.5291 62.0262
" />
<path d="M66.5291 62.0262
L66.5767 61.9786
" />
<path d="M66.5767 61.9786
L66.6243 61.8833
" />
<path d="M66.6243 61.8833
L66.6243 61.7881
" />
<path d="M66.6243 61.7881
L66.5767 61.6929
" />
<path d="M66.5767 61.6929
L66.5291 61.6452
" />
<path d="M66.5291 61.6452
L66.4338 61.5976
" />
<path d="M66.4338 61.5976
L66.2433 61.5500
" />
<path d="M66.2433 61.5500
L66.1481 61.5024
" />
<path d="M66.1481 61.5024
L66.1005 61.4548
" />
<path d="M66.1005 61.4548
L66.0529 61.3595
" />
<path d="M66.0529 61.3595
L66.0529 61.2643
" />
<path d="M66.0529 61.2643
L66.1005 61.1691
" />
<path d="M66.1005 61.1691
L66.1481 61.1214
" />
<path d="M66.1481 61.1214
L66.2433 61.0738
" />
<path d="M66.2433 61.0738
L66.4814 61.0738
" />
<path d="M66.4814 61.0738
L66.6243 61.1214
" />
<path d="M66.9576 61.0738
L67.1957 62.0738
" />
<path d="M67.1957 62.0738
L67.3862 61.3595
" />
<path d="M67.3862 61.3595
L67.5767 62.0738
" />
<path d="M67.5767 62.0738
L67.8148 61.0738
" />
<path d="M68.7195 62.0738
L68.1481 62.0738
" />
<path d="M68.4338 62.0738
L68.4338 61.0738
" />
<path d="M68.4338 61.0738
L68.3386 61.2167
" />
<path d="M68.3386 61.2167
L68.2433 61.3119
" />
<path d="M68.2433 61.3119
L68.1481 61.3595
" />
</g><text x="94.6404" y="63.3650"
textLength="1.9920" font-size="1.3333" lengthAdjust="spacingAndGlyphs"
text-anchor="middle" opacity="0">A1</text>
<g class="stroked-text"><desc>A1</desc>
<path d="M93.9261 63.0419
L94.4023 63.0419
" />
<path d="M93.8309 63.3276
L94.1642 62.3276
" />
<path d="M94.1642 62.3276
L94.4975 63.3276
" />
<path d="M95.3547 63.3276
L94.7833 63.3276
" />
<path d="M95.0690 63.3276
L95.0690 62.3276
" />
<path d="M95.0690 62.3276
L94.9737 62.4705
" />
<path d="M94.9737 62.4705
L94.8785 62.5657
" />
<path d="M94.8785 62.5657
L94.7833 62.6133
" />
</g><g transform="rotate(-45.000000 99.6637 44.9521)">
<text x="99.6637" y="45.4521"
textLength="2.1349" font-size="1.3333" lengthAdjust="spacingAndGlyphs"
text-anchor="middle" opacity="0">C6</text>
</g>
<g class="stroked-text"><desc>C6</desc>
<path d="M99.8057 45.3298
L99.8057 45.3971
" />
<path d="M99.8057 45.3971
L99.7383 45.5318
" />
<path d="M99.7383 45.5318
L99.6710 45.5991
" />
<path d="M99.6710 45.5991
L99.5363 45.6665
" />
<path d="M99.5363 45.6665
L99.4016 45.6665
" />
<path d="M99.4016 45.6665
L99.3006 45.6328
" />
<path d="M99.3006 45.6328
L99.1322 45.5318
" />
<path d="M99.1322 45.5318
L99.0312 45.4308
" />
<path d="M99.0312 45.4308
L98.9302 45.2624
" />
<path d="M98.9302 45.2624
L98.8965 45.1614
" />
<path d="M98.8965 45.1614
L98.8965 45.0267
" />
<path d="M98.8965 45.0267
L98.9639 44.8920
" />
<path d="M98.9639 44.8920
L99.0312 44.8247
" />
<path d="M99.0312 44.8247
L99.1659 44.7573
" />
<path d="M99.1659 44.7573
L99.2332 44.7573
" />
<path d="M99.7720 44.0839
L99.6373 44.2186
" />
<path d="M99.6373 44.2186
L99.6036 44.3196
" />
<path d="M99.6036 44.3196
L99.6036 44.3870
" />
<path d="M99.6036 44.3870
L99.6373 44.5553
" />
<path d="M99.6373 44.5553
L99.7383 44.7237
" />
<path d="M99.7383 44.7237
L100.0077 44.9930
" />
<path d="M100.0077 44.9930
L100.1087 45.0267
" />
<path d="M100.1087 45.0267
L100.1761 45.0267
" />
<path d="M100.1761 45.0267
L100.2771 44.9930
" />
<path d="M100.2771 44.9930
L100.4118 44.8584
" />
<path d="M100.4118 44.8584
L100.4454 44.7573
" />
<path d="M100.4454 44.7573
L100.4454 44.6900
" />
<path d="M100.4454 44.6900
L100.4118 44.5890
" />
<path d="M100.4118 44.5890
L100.2434 44.4206
" />
<path d="M100.2434 44.4206
L100.1424 44.3870
" />
<path d="M100.1424 44.3870
L100.0750 44.3870
" />
<path d="M100.0750 44.3870
L99.9740 44.4206
" />
<path d="M99.9740 44.4206
L99.8393 44.5553
" />
<path d="M99.8393 44.5553
L99.8057 44.6563
" />
<path d="M99.8057 44.6563
L99.8057 44.7237
" />
<path d="M99.8057 44.7237
L99.8393 44.8247
" />
</g><g transform="rotate(-90.000000 97.5614 21.1996)">
<text x="97.5614" y="21.6996"
textLength="2.1349" font-size="1.3333" lengthAdjust="spacingAndGlyphs"
text-anchor="middle" opacity="0">R4</text>
</g>
<g class="stroked-text"><desc>R4</desc>
<path d="M98.0240 21.3663
L97.5478 21.6996
" />
<path d="M98.0240 21.9377
L97.0240 21.9377
" />
<path d="M97.0240 21.9377
L97.0240 21.5567
" />
<path d="M97.0240 21.5567
L97.0716 21.4615
" />
<path d="M97.0716 21.4615
L97.1193 21.4139
" />
<path d="M97.1193 21.4139
L97.2145 21.3663
" />
<path d="M97.2145 21.3663
L97.3574 21.3663
" />
<path d="M97.3574 21.3663
L97.4526 21.4139
" />
<path d="M97.4526 21.4139
L97.5002 21.4615
" />
<path d="M97.5002 21.4615
L97.5478 21.5567
" />
<path d="M97.5478 21.5567
L97.5478 21.9377
" />
<path d="M97.3574 20.5091
L98.0240 20.5091
" />
<path d="M96.9764 20.7472
L97.6907 20.9853
" />
<path d="M97.6907 20.9853
L97.6907 20.3663
" />
</g><g transform="rotate(-90.000000 94.5134 22.9108)">
<text x="94.5134" y="23.4108"
textLength="2.1825" font-size="1.3333" lengthAdjust="spacingAndGlyphs"
text-anchor="middle" opacity="0">U3</text>
</g>
<g class="stroked-text"><desc>U3</desc>
<path d="M93.9760 23.6727
L94.7855 23.6727
" />
<path d="M94.7855 23.6727
L94.8808 23.6251
" />
<path d="M94.8808 23.6251
L94.9284 23.5775
" />
<path d="M94.9284 23.5775
L94.9760 23.4822
" />
<path d="M94.9760 23.4822
L94.9760 23.2918
" />
<path d="M94.9760 23.2918
L94.9284 23.1965
" />
<path d="M94.9284 23.1965
L94.8808 23.1489
" />
<path d="M94.8808 23.1489
L94.7855 23.1013
" />
<path d="M94.7855 23.1013
L93.9760 23.1013
" />
<path d="M93.9760 22.7203
L93.9760 22.1013
" />
<path d="M93.9760 22.1013
L94.3570 22.4346
" />
<path d="M94.3570 22.4346
L94.3570 22.2918
" />
<path d="M94.3570 22.2918
L94.4046 22.1965
" />
<path d="M94.4046 22.1965
L94.4522 22.1489
" />
<path d="M94.4522 22.1489
L94.5474 22.1013
" />
<path d="M94.5474 22.1013
L94.7855 22.1013
" />
<path d="M94.7855 22.1013
L94.8808 22.1489
" />
<path d="M94.8808 22.1489
L94.9284 22.1965
" />
<path d="M94.9284 22.1965
L94.9760 22.2918
" />
<path d="M94.9760 22.2918
L94.9760 22.5775
" />
<path d="M94.9760 22.5775
L94.9284 22.6727
" />
<path d="M94.9284 22.6727
L94.8808 22.7203
" />
</g><text x="98.0839" y="58.3670"
textLength="2.1349" font-size="1.3333" lengthAdjust="spacingAndGlyphs"
text-anchor="middle" opacity="0">C4</text>
<g class="stroked-text"><desc>C4</desc>
<path d="M97.9172 58.2344
L97.8696 58.2820
" />
<path d="M97.8696 58.2820
L97.7268 58.3296
" />
<path d="M97.7268 58.3296
L97.6315 58.3296
" />
<path d="M97.6315 58.3296
L97.4887 58.2820
" />
<path d="M97.4887 58.2820
L97.3934 58.1868
" />
<path d="M97.3934 58.1868
L97.3458 58.0915
" />
<path d="M97.3458 58.0915
L97.2982 57.9010
" />
<path d="M97.2982 57.9010
L97.2982 57.7582
" />
<path d="M97.2982 57.7582
L97.3458 57.5677
" />
<path d="M97.3458 57.5677
L97.3934 57.4725
" />
<path d="M97.3934 57.4725
L97.4887 57.3772
" />
<path d="M97.4887 57.3772
L97.6315 57.3296
" />
<path d="M97.6315 57.3296
L97.7268 57.3296
" />
<path d="M97.7268 57.3296
L97.8696 57.3772
" />
<path d="M97.8696 57.3772
L97.9172 57.4249
" />
<path d="M98.7744 57.6630
L98.7744 58.3296
" />
<path d="M98.5363 57.2820
L98.2982 57.9963
" />
<path d="M98.2982 57.9963
L98.9172 57.9963
" />
</g><text x="94.8162" y="15.0034"
textLength="1.8968" font-size="1.3333" lengthAdjust="spacingAndGlyphs"
text-anchor="middle" opacity="0">J1</text>
<g class="stroked-text"><desc>J1</desc>
<path d="M94.4829 13.9660
L94.4829 14.6803
" />
<path d="M94.4829 14.6803
L94.4352 14.8232
" />
<path d="M94.4352 14.8232
L94.3400 14.9184
" />
<path d="M94.3400 14.9184
L94.1972 14.9660
" />
<path d="M94.1972 14.9660
L94.1019 14.9660
" />
<path d="M95.4829 14.9660
L94.9114 14.9660
" />
<path d="M95.1972 14.9660
L95.1972 13.9660
" />
<path d="M95.1972 13.9660
L95.1019 14.1089
" />
<path d="M95.1019 14.1089
L95.0067 14.2041
" />
<path d="M95.0067 14.2041
L94.9114 14.2517
" />
</g><text x="97.9639" y="46.9530"
textLength="2.1349" font-size="1.3333" lengthAdjust="spacingAndGlyphs"
text-anchor="middle" opacity="0">C5</text>
<g class="stroked-text"><desc>C5</desc>
<path d="M97.7972 46.8204
L97.7496 46.8680
" />
<path d="M97.7496 46.8680
L97.6068 46.9156
" />
<path d="M97.6068 46.9156
L97.5115 46.9156
" />
<path d="M97.5115 46.9156
L97.3687 46.8680
" />
<path d="M97.3687 46.8680
L97.2734 46.7728
" />
<path d="M97.2734 46.7728
L97.2258 46.6775
" />
<path d="M97.2258 46.6775
L97.1782 46.4870
" />
<path d="M97.1782 46.4870
L97.1782 46.3442
" />
<path d="M97.1782 46.3442
L97.2258 46.1537
" />
<path d="M97.2258 46.1537
L97.2734 46.0585
" />
<path d="M97.2734 46.0585
L97.3687 45.9632
" />
<path d="M97.3687 45.9632
L97.5115 45.9156
" />
<path d="M97.5115 45.9156
L97.6068 45.9156
" />
<path d="M97.6068 45.9156
L97.7496 45.9632
" />
<path d="M97.7496 45.9632
L97.7972 46.0109
" />
<path d="M98.7020 45.9156
L98.2258 45.9156
" />
<path d="M98.2258 45.9156
L98.1782 46.3918
" />
<path d="M98.1782 46.3918
L98.2258 46.3442
" />
<path d="M98.2258 46.3442
L98.3210 46.2966
" />
<path d="M98.3210 46.2966
L98.5591 46.2966
" />
<path d="M98.5591 46.2966
L98.6544 46.3442
" />
<path d="M98.6544 46.3442
L98.7020 46.3918
" />
<path d="M98.7020 46.3918
L98.7496 46.4870
" />
<path d="M98.7496 46.4870
L98.7496 46.7251
" />
<path d="M98.7496 46.7251
L98.7020 46.8204
" />
<path d="M98.7020 46.8204
L98.6544 46.8680
" />
<path d="M98.6544 46.8680
L98.5591 46.9156
" />
<path d="M98.5591 46.9156
L98.3210 46.9156
" />
<path d="M98.3210 46.9156
L98.2258 46.8680
" />
<path d="M98.2258 46.8680
L98.1782 46.8204
" />
</g><g transform="rotate(-90.000000 87.8480 53.0040)">
<text x="87.8480" y="53.5040"
textLength="2.1349" font-size="1.3333" lengthAdjust="spacingAndGlyphs"
text-anchor="middle" opacity="0">D3</text>
</g>
<g class="stroked-text"><desc>D3</desc>
<path d="M88.3106 53.7421
L87.3106 53.7421
" />
<path d="M87.3106 53.7421
L87.3106 53.5040
" />
<path d="M87.3106 53.5040
L87.3582 53.3611
" />
<path d="M87.3582 53.3611
L87.4535 53.2659
" />
<path d="M87.4535 53.2659
L87.5487 53.2183
" />
<path d="M87.5487 53.2183
L87.7392 53.1707
" />
<path d="M87.7392 53.1707
L87.8820 53.1707
" />
<path d="M87.8820 53.1707
L88.0725 53.2183
" />
<path d="M88.0725 53.2183
L88.1678 53.2659
" />
<path d="M88.1678 53.2659
L88.2630 53.3611
" />
<path d="M88.2630 53.3611
L88.3106 53.5040
" />
<path d="M88.3106 53.5040
L88.3106 53.7421
" />
<path d="M87.3106 52.8373
L87.3106 52.2183
" />
<path d="M87.3106 52.2183
L87.6916 52.5516
" />
<path d="M87.6916 52.5516
L87.6916 52.4088
" />
<path d="M87.6916 52.4088
L87.7392 52.3135
" />
<path d="M87.7392 52.3135
L87.7868 52.2659
" />
<path d="M87.7868 52.2659
L87.8820 52.2183
" />
<path d="M87.8820 52.2183
L88.1201 52.2183
" />
<path d="M88.1201 52.2183
L88.2154 52.2659
" />
<path d="M88.2154 52.2659
L88.2630 52.3135
" />
<path d="M88.2630 52.3135
L88.3106 52.4088
" />
<path d="M88.3106 52.4088
L88.3106 52.6945
" />
<path d="M88.3106 52.6945
L88.2630 52.7897
" />
<path d="M88.2630 52.7897
L88.2154 52.8373
" />
</g><g transform="rotate(-90.000000 91.8962 21.2344)">
<text x="91.8962" y="21.7344"
textLength="2.1349" font-size="1.3333" lengthAdjust="spacingAndGlyphs"
text-anchor="middle" opacity="0">R3</text>
</g>
<g class="stroked-text"><desc>R3</desc>
<path d="M92.3588 21.4011
L91.8826 21.7344
" />
<path d="M92.3588 21.9725
L91.3588 21.9725
" />
<path d="M91.3588 21.9725
L91.3588 21.5915
" />
<path d="M91.3588 21.5915
L91.4064 21.4963
" />
<path d="M91.4064 21.4963
L91.4541 21.4487
" />
<path d="M91.4541 21.4487
L91.5493 21.4011
" />
<path d="M91.5493 21.4011
L91.6922 21.4011
" />
<path d="M91.6922 21.4011
L91.7874 21.4487
" />
<path d="M91.7874 21.4487
L91.8350 21.4963
" />
<path d="M91.8350 21.4963
L91.8826 21.5915
" />
<path d="M91.8826 21.5915
L91.8826 21.9725
" />
<path d="M91.3588 21.0677
L91.3588 20.4487
" />
<path d="M91.3588 20.4487
L91.7398 20.7820
" />
<path d="M91.7398 20.7820
L91.7398 20.6392
" />
<path d="M91.7398 20.6392
L91.7874 20.5439
" />
<path d="M91.7874 20.5439
L91.8350 20.4963
" />
<path d="M91.8350 20.4963
L91.9302 20.4487
" />
<path d="M91.9302 20.4487
L92.1683 20.4487
" />
<path d="M92.1683 20.4487
L92.2636 20.4963
" />
<path d="M92.2636 20.4963
L92.3112 20.5439
" />
<path d="M92.3112 20.5439
L92.3588 20.6392
" />
<path d="M92.3588 20.6392
L92.3588 20.9249
" />
<path d="M92.3588 20.9249
L92.3112 21.0201
" />
<path d="M92.3112 21.0201
L92.2636 21.0677
" />
</g><g transform="rotate(-90.000000 99.7390 63.1444)">
<text x="99.7390" y="63.6444"
textLength="1.8968" font-size="1.3333" lengthAdjust="spacingAndGlyphs"
text-anchor="middle" opacity="0">J2</text>
</g>
<g class="stroked-text"><desc>J2</desc>
<path d="M99.2016 63.4777
L99.9159 63.4777
" />
<path d="M99.9159 63.4777
L100.0588 63.5254
" />
<path d="M100.0588 63.5254
L100.1540 63.6206
" />
<path d="M100.1540 63.6206
L100.2016 63.7634
" />
<path d="M100.2016 63.7634
L100.2016 63.8587
" />
<path d="M99.2969 63.0492
L99.2492 63.0015
" />
<path d="M99.2492 63.0015
L99.2016 62.9063
" />
<path d="M99.2016 62.9063
L99.2016 62.6682
" />
<path d="M99.2016 62.6682
L99.2492 62.5730
" />
<path d="M99.2492 62.5730
L99.2969 62.5254
" />
<path d="M99.2969 62.5254
L99.3921 62.4777
" />
<path d="M99.3921 62.4777
L99.4873 62.4777
" />
<path d="M99.4873 62.4777
L99.6302 62.5254
" />
<path d="M99.6302 62.5254
L100.2016 63.0968
" />
<path d="M100.2016 63.0968
L100.2016 62.4777
" />
</g><g transform="rotate(-90.000000 100.2030 17.2052)">
<text x="100.2030" y="17.7052"
textLength="2.1349" font-size="1.3333" lengthAdjust="spacingAndGlyphs"
text-anchor="middle" opacity="0">R1</text>
</g>
<g class="stroked-text"><desc>R1</desc>
<path d="M100.6656 17.3719
L100.1894 17.7052
" />
<path d="M100.6656 17.9433
L99.6656 17.9433
" />
<path d="M99.6656 17.9433
L99.6656 17.5623
" />
<path d="M99.6656 17.5623
L99.7132 17.4671
" />
<path d="M99.7132 17.4671
L99.7609 17.4195
" />
<path d="M99.7609 17.4195
L99.8561 17.3719
" />
<path d="M99.8561 17.3719
L99.9990 17.3719
" />
<path d="M99.9990 17.3719
L100.0942 17.4195
" />
<path d="M100.0942 17.4195
L100.1418 17.4671
" />
<path d="M100.1418 17.4671
L100.1894 17.5623
" />
<path d="M100.1894 17.5623
L100.1894 17.9433
" />
<path d="M100.6656 16.4195
L100.6656 16.9909
" />
<path d="M100.6656 16.7052
L99.6656 16.7052
" />
<path d="M99.6656 16.7052
L99.8085 16.8004
" />
<path d="M99.8085 16.8004
L99.9037 16.8957
" />
<path d="M99.9037 16.8957
L99.9513 16.9909
" />
</g><g transform="rotate(-90.000000 97.1560 24.9264)">
<text x="97.1560" y="25.4264"
textLength="2.1349" font-size="1.3333" lengthAdjust="spacingAndGlyphs"
text-anchor="middle" opacity="0">D2</text>
</g>
<g class="stroked-text"><desc>D2</desc>
<path d="M97.6186 25.6645
L96.6186 25.6645
" />
<path d="M96.6186 25.6645
L96.6186 25.4264
" />
<path d="M96.6186 25.4264
L96.6662 25.2835
" />
<path d="M96.6662 25.2835
L96.7615 25.1883
" />
<path d="M96.7615 25.1883
L96.8567 25.1407
" />
<path d="M96.8567 25.1407
L97.0472 25.0931
" />
<path d="M97.0472 25.0931
L97.1900 25.0931
" />
<path d="M97.1900 25.0931
L97.3805 25.1407
" />
<path d="M97.3805 25.1407
L97.4758 25.1883
" />
<path d="M97.4758 25.1883
L97.5710 25.2835
" />
<path d="M97.5710 25.2835
L97.6186 25.4264
" />
<path d="M97.6186 25.4264
L97.6186 25.6645
" />
<path d="M96.7139 24.7121
L96.6662 24.6645
" />
<path d="M96.6662 24.6645
L96.6186 24.5693
" />
<path d="M96.6186 24.5693
L96.6186 24.3312
" />
<path d="M96.6186 24.3312
L96.6662 24.2359
" />
<path d="M96.6662 24.2359
L96.7139 24.1883
" />
<path d="M96.7139 24.1883
L96.8091 24.1407
" />
<path d="M96.8091 24.1407
L96.9043 24.1407
" />
<path d="M96.9043 24.1407
L97.0472 24.1883
" />
<path d="M97.0472 24.1883
L97.6186 24.7597
" />
<path d="M97.6186 24.7597
L97.6186 24.1407
" />
</g><g transform="rotate(-90.000000 81.8144 56.5564)">
<text x="81.8144" y="57.0564"
textLength="2.1349" font-size="1.3333" lengthAdjust="spacingAndGlyphs"
text-anchor="middle" opacity="0">R5</text>
</g>
<g class="stroked-text"><desc>R5</desc>
<path d="M82.2770 56.7231
L81.8008 57.0564
" />
<path d="M82.2770 57.2945
L81.2770 57.2945
" />
<path d="M81.2770 57.2945
L81.2770 56.9135
" />
<path d="M81.2770 56.9135
L81.3246 56.8183
" />
<path d="M81.3246 56.8183
L81.3723 56.7707
" />
<path d="M81.3723 56.7707
L81.4675 56.7231
" />
<path d="M81.4675 56.7231
L81.6104 56.7231
" />
<path d="M81.6104 56.7231
L81.7056 56.7707
" />
<path d="M81.7056 56.7707
L81.7532 56.8183
" />
<path d="M81.7532 56.8183
L81.8008 56.9135
" />
<path d="M81.8008 56.9135
L81.8008 57.2945
" />
<path d="M81.2770 55.8183
L81.2770 56.2945
" />
<path d="M81.2770 56.2945
L81.7532 56.3421
" />
<path d="M81.7532 56.3421
L81.7056 56.2945
" />
<path d="M81.7056 56.2945
L81.6580 56.1993
" />
<path d="M81.6580 56.1993
L81.6580 55.9612
" />
<path d="M81.6580 55.9612
L81.7056 55.8659
" />
<path d="M81.7056 55.8659
L81.7532 55.8183
" />
<path d="M81.7532 55.8183
L81.8484 55.7707
" />
<path d="M81.8484 55.7707
L82.0865 55.7707
" />
<path d="M82.0865 55.7707
L82.1818 55.8183
" />
<path d="M82.1818 55.8183
L82.2294 55.8659
" />
<path d="M82.2294 55.8659
L82.2770 55.9612
" />
<path d="M82.2770 55.9612
L82.2770 56.1993
" />
<path d="M82.2770 56.1993
L82.2294 56.2945
" />
<path d="M82.2294 56.2945
L82.1818 56.3421
" />
</g><g transform="rotate(-135.000000 90.5055 42.7777)">
<text x="90.5055" y="43.2777"
textLength="2.1825" font-size="1.3333" lengthAdjust="spacingAndGlyphs"
text-anchor="middle" opacity="0">U1</text>
</g>
<g class="stroked-text"><desc>U1</desc>
<path d="M90.6643 43.6964
L91.2367 43.1240
" />
<path d="M91.2367 43.1240
L91.2704 43.0230
" />
<path d="M91.2704 43.0230
L91.2704 42.9556
" />
<path d="M91.2704 42.9556
L91.2367 42.8546
" />
<path d="M91.2367 42.8546
L91.1020 42.7199
" />
<path d="M91.1020 42.7199
L91.0010 42.6863
" />
<path d="M91.0010 42.6863
L90.9336 42.6863
" />
<path d="M90.9336 42.6863
L90.8326 42.7199
" />
<path d="M90.8326 42.7199
L90.2602 43.2924
" />
<path d="M90.2602 41.8782
L90.6643 42.2822
" />
<path d="M90.4622 42.0802
L89.7551 42.7873
" />
<path d="M89.7551 42.7873
L89.9235 42.7536
" />
<path d="M89.9235 42.7536
L90.0582 42.7536
" />
<path d="M90.0582 42.7536
L90.1592 42.7873
" />
</g><g transform="rotate(-90.000000 86.3636 21.6408)">
<text x="86.3636" y="22.1408"
textLength="2.1349" font-size="1.3333" lengthAdjust="spacingAndGlyphs"
text-anchor="middle" opacity="0">C2</text>
</g>
<g class="stroked-text"><desc>C2</desc>
<path d="M86.7310 21.8075
L86.7786 21.8551
" />
<path d="M86.7786 21.8551
L86.8262 21.9979
" />
<path d="M86.8262 21.9979
L86.8262 22.0932
" />
<path d="M86.8262 22.0932
L86.7786 22.2360
" />
<path d="M86.7786 22.2360
L86.6834 22.3313
" />
<path d="M86.6834 22.3313
L86.5881 22.3789
" />
<path d="M86.5881 22.3789
L86.3976 22.4265
" />
<path d="M86.3976 22.4265
L86.2548 22.4265
" />
<path d="M86.2548 22.4265
L86.0643 22.3789
" />
<path d="M86.0643 22.3789
L85.9691 22.3313
" />
<path d="M85.9691 22.3313
L85.8738 22.2360
" />
<path d="M85.8738 22.2360
L85.8262 22.0932
" />
<path d="M85.8262 22.0932
L85.8262 21.9979
" />
<path d="M85.8262 21.9979
L85.8738 21.8551
" />
<path d="M85.8738 21.8551
L85.9215 21.8075
" />
<path d="M85.9215 21.4265
L85.8738 21.3789
" />
<path d="M85.8738 21.3789
L85.8262 21.2837
" />
<path d="M85.8262 21.2837
L85.8262 21.0456
" />
<path d="M85.8262 21.0456
L85.8738 20.9503
" />
<path d="M85.8738 20.9503
L85.9215 20.9027
" />
<path d="M85.9215 20.9027
L86.0167 20.8551
" />
<path d="M86.0167 20.8551
L86.1119 20.8551
" />
<path d="M86.1119 20.8551
L86.2548 20.9027
" />
<path d="M86.2548 20.9027
L86.8262 21.4741
" />
<path d="M86.8262 21.4741
L86.8262 20.8551
" />
</g><g transform="rotate(-90.000000 91.7702 25.0374)">
<text x="91.7702" y="25.5374"
textLength="2.1349" font-size="1.3333" lengthAdjust="spacingAndGlyphs"
text-anchor="middle" opacity="0">D1</text>
</g>
<g class="stroked-text"><desc>D1</desc>
<path d="M92.2328 25.7755
L91.2328 25.7755
" />
<path d="M91.2328 25.7755
L91.2328 25.5374
" />
<path d="M91.2328 25.5374
L91.2804 25.3945
" />
<path d="M91.2804 25.3945
L91.3757 25.2993
" />
<path d="M91.3757 25.2993
L91.4709 25.2517
" />
<path d="M91.4709 25.2517
L91.6614 25.2041
" />
<path d="M91.6614 25.2041
L91.8042 25.2041
" />
<path d="M91.8042 25.2041
L91.9947 25.2517
" />
<path d="M91.9947 25.2517
L92.0900 25.2993
" />
<path d="M92.0900 25.2993
L92.1852 25.3945
" />
<path d="M92.1852 25.3945
L92.2328 25.5374
" />
<path d="M92.2328 25.5374
L92.2328 25.7755
" />
<path d="M92.2328 24.2517
L92.2328 24.8231
" />
<path d="M92.2328 24.5374
L91.2328 24.5374
" />
<path d="M91.2328 24.5374
L91.3757 24.6326
" />
<path d="M91.3757 24.6326
L91.4709 24.7279
" />
<path d="M91.4709 24.7279
L91.5185 24.8231
" />
</g><text x="92.7862" y="27.7760"
textLength="2.1349" font-size="1.3333" lengthAdjust="spacingAndGlyphs"
text-anchor="middle" opacity="0">C1</text>
<g class="stroked-text"><desc>C1</desc>
<path d="M92.6195 27.6434
L92.5719 27.6910
" />
<path d="M92.5719 27.6910
L92.4291 27.7386
" />
<path d="M92.4291 27.7386
L92.3338 27.7386
" />
<path d="M92.3338 27.7386
L92.1910 27.6910
" />
<path d="M92.1910 27.6910
L92.0957 27.5958
" />
<path d="M92.0957 27.5958
L92.0481 27.5005
" />
<path d="M92.0481 27.5005
L92.0005 27.3100
" />
<path d="M92.0005 27.3100
L92.0005 27.1672
" />
<path d="M92.0005 27.1672
L92.0481 26.9767
" />
<path d="M92.0481 26.9767
L92.0957 26.8815
" />
<path d="M92.0957 26.8815
L92.1910 26.7862
" />
<path d="M92.1910 26.7862
L92.3338 26.7386
" />
<path d="M92.3338 26.7386
L92.4291 26.7386
" />
<path d="M92.4291 26.7386
L92.5719 26.7862
" />
<path d="M92.5719 26.7862
L92.6195 26.8339
" />
<path d="M93.5719 27.7386
L93.0005 27.7386
" />
<path d="M93.2862 27.7386
L93.2862 26.7386
" />
<path d="M93.2862 26.7386
L93.1910 26.8815
" />
<path d="M93.1910 26.8815
L93.0957 26.9767
" />
<path d="M93.0957 26.9767
L93.0005 27.0243
" />
</g><g transform="rotate(-90.000000 89.8134 16.4940)">
<text x="89.8134" y="16.9940"
textLength="2.1349" font-size="1.3333" lengthAdjust="spacingAndGlyphs"
text-anchor="middle" opacity="0">R2</text>
</g>
<g class="stroked-text"><desc>R2</desc>
<path d="M90.2760 16.6607
L89.7998 16.9940
" />
<path d="M90.2760 17.2321
L89.2760 17.2321
" />
<path d="M89.2760 17.2321
L89.2760 16.8511
" />
<path d="M89.2760 16.8511
L89.3236 16.7559
" />
<path d="M89.3236 16.7559
L89.3713 16.7083
" />
<path d="M89.3713 16.7083
L89.4665 16.6607
" />
<path d="M89.4665 16.6607
L89.6094 16.6607
" />
<path d="M89.6094 16.6607
L89.7046 16.7083
" />
<path d="M89.7046 16.7083
L89.7522 16.7559
" />
<path d="M89.7522 16.7559
L89.7998 16.8511
" />
<path d="M89.7998 16.8511
L89.7998 17.2321
" />
<path d="M89.3713 16.2797
L89.3236 16.2321
" />
<path d="M89.3236 16.2321
L89.2760 16.1369
" />
<path d="M89.2760 16.1369
L89.2760 15.8988
" />
<path d="M89.2760 15.8988
L89.3236 15.8035
" />
<path d="M89.3236 15.8035
L89.3713 15.7559
" />
<path d="M89.3713 15.7559
L89.4665 15.7083
" />
<path d="M89.4665 15.7083
L89.5617 15.7083
" />
<path d="M89.5617 15.7083
L89.7046 15.7559
" />
<path d="M89.7046 15.7559
L90.2760 16.3273
" />
<path d="M90.2760 16.3273
L90.2760 15.7083
" />
</g><path d="M91.4616 33.8092
L91.0922 34.1787
" />
<path d="M90.4222 32.7698
L90.0527 33.1392
" />
<path d="M96.5381 28.1956
L97.0607 28.1956
" />
<path d="M96.5381 29.6656
L97.0607 29.6656
" />
<path d="M95.7139 54.8970
L100.2139 54.8970
" />
<path d="M100.2139 54.8970
L100.2139 49.4970
" />
<path d="M70.1362 58.8612
L70.1362 56.8612
" />
<path d="M69.1362 60.1612
L68.6862 60.6112
" />
<path d="M69.1362 55.5612
L68.6862 55.1112
" />
<path d="M68.6862 60.6112
L66.0862 60.6112
" />
<path d="M68.6862 55.1112
L66.0862 55.1112
" />
<path d="M65.6362 60.1612
L66.0862 60.6112
" />
<path d="M65.6362 55.5612
L66.0862 55.1112
" />
<path d="M64.6362 58.8612
L64.6362 56.8612
" />
<path d="M103.6604 61.7250
L103.6604 59.0550
" />
<path d="M103.6604 56.5150
L103.6604 18.2850
" />
<path d="M103.6604 18.2850
L98.5804 18.2850
" />
<path d="M100.9904 59.0550
L103.6604 59.0550
" />
<path d="M100.9904 56.5150
L103.6604 56.5150
" />
<path d="M100.9904 56.5150
L100.9904 59.0550
" />
<path d="M100.9904 56.5150
L100.9904 20.9550
" />
<path d="M100.9904 20.9550
L103.6604 20.9550
" />
<path d="M88.2904 59.0550
L88.2904 20.9550
" />
<path d="M88.2904 59.0550
L85.6204 59.0550
" />
<path d="M88.2904 20.9550
L85.6204 20.9550
" />
<path d="M85.6204 61.7250
L103.6604 61.7250
" />
<path d="M85.6204 18.2850
L90.7004 18.2850
" />
<path d="M85.6204 18.2850
L85.6204 61.7250
" />
<path d="M99.1803 44.0992
L98.8108 44.4687
" />
<path d="M98.1408 43.0597
L97.7713 43.4292
" />
<path d="M99.8204 20.9565
L99.8204 21.4107
" />
<path d="M98.3504 20.9565
L98.3504 21.4107
" />
<path d="M96.9464 22.9958
L96.9464 19.5458
" />
<path d="M96.9464 22.9958
L96.9464 24.9458
" />
<path d="M91.8264 22.9958
L91.8264 21.0458
" />
<path d="M91.8264 22.9958
L91.8264 24.9458
" />
<path d="M98.3452 56.9220
L97.8226 56.9220
" />
<path d="M98.3452 55.4520
L97.8226 55.4520
" />
<path d="M99.3962 15.9044
L99.3962 13.9844
" />
<path d="M99.3962 10.2694
L99.3962 11.9744
" />
<path d="M90.2362 13.9844
L90.2362 15.9044
" />
<path d="M90.2362 11.9744
L90.2362 10.2694
" />
<path d="M90.2362 10.2694
L99.3962 10.2694
" />
<path d="M97.7026 47.3980
L98.2252 47.3980
" />
<path d="M97.7026 48.8680
L98.2252 48.8680
" />
<path d="M88.6980 59.9140
L88.6980 48.6040
" />
<path d="M95.1980 59.9140
L88.6980 59.9140
" />
<path d="M95.1980 59.9140
L95.1980 48.6040
" />
<path d="M90.9812 21.0073
L90.9812 21.4615
" />
<path d="M89.5112 21.0073
L89.5112 21.4615
" />
<path d="M98.7390 60.5444
L98.7390 61.8744
" />
<path d="M97.4090 60.5444
L98.7390 60.5444
" />
<path d="M96.1390 60.5444
L90.9990 60.5444
" />
<path d="M96.1390 60.5444
L96.1390 63.1444
" />
<path d="M90.9990 60.5444
L90.9990 65.7444
" />
<path d="M98.7390 63.1444
L98.7390 65.7444
" />
<path d="M96.1390 63.1444
L98.7390 63.1444
" />
<path d="M98.7390 65.7444
L90.9990 65.7444
" />
<path d="M102.2080 16.2161
L102.2080 16.6703
" />
<path d="M100.7380 16.2161
L100.7380 16.6703
" />
<path d="M97.8460 26.7864
L99.7660 26.7864
" />
<path d="M99.7660 26.7864
L99.7660 23.9264
" />
<path d="M97.8460 23.9264
L97.8460 26.7864
" />
<path d="M82.7294 56.7835
L82.7294 56.3293
" />
<path d="M84.1994 56.7835
L84.1994 56.3293
" />
<path d="M94.7835 43.6262
L94.9426 43.4671
" />
<path d="M94.7835 43.6262
L94.5537 43.3964
" />
<path d="M94.9426 43.4671
L95.9502 44.4747
" />
<path d="M99.9100 38.4997
L99.6802 38.7295
" />
<path d="M99.9100 38.4997
L99.6802 38.2699
" />
<path d="M89.6570 38.4997
L89.8868 38.7295
" />
<path d="M89.6570 38.4997
L89.8868 38.2699
" />
<path d="M94.7835 33.3732
L95.0133 33.6030
" />
<path d="M94.7835 33.3732
L94.5537 33.6030
" />
<path d="M85.4186 21.3795
L85.4186 21.9021
" />
<path d="M83.9486 21.3795
L83.9486 21.9021
" />
<path d="M89.2862 26.8974
L91.2062 26.8974
" />
<path d="M91.2062 26.8974
L91.2062 24.0374
" />
<path d="M89.2862 24.0374
L89.2862 26.8974
" />
<path d="M92.5249 28.2210
L93.0475 28.2210
" />
<path d="M92.5249 29.6910
L93.0475 29.6910
" />
<path d="M88.8984 16.2669
L88.8984 16.7211
" />
<path d="M87.4284 16.2669
L87.4284 16.7211
" />
<g >
</g>
<g >
</g>
<g >
</g>
<g >
</g>
<g >
</g>
<g >
</g>
<g >
</g>
<g >
</g>
<g >
</g>
<g >
</g>
<g >
</g>
<g >
</g>
<g >
</g>
<g >
</g>
<g >
</g>
<g >
</g>
<g >
</g>
<g >
</g>
<g >
</g>
<g >
</g>
<g >
</g>
<g >
</g>
<g >
</g>
<g >
</g>
<g >
</g>
</g>
<g style="fill:#000000; fill-opacity:0.0; 
stroke:#000000; stroke-width:0.1530; stroke-opacity:1; 
stroke-linecap:round; stroke-linejoin:round;">
</g>
<g style="fill:#D0D2CD; fill-opacity:0.0; 
stroke:#D0D2CD; stroke-width:0.1530; stroke-opacity:1; 
stroke-linecap:round; stroke-linejoin:round;">
</g>
<g style="fill:#D0D2CD; fill-opacity:0.0; 
stroke:#D0D2CD; stroke-width:0.6000; stroke-opacity:1; 
stroke-linecap:round; stroke-linejoin:round;">
<path style="fill:#D0D2CD; fill-opacity:0.0; 
stroke:#D0D2CD; stroke-width:0.6000; stroke-opacity:1; 
stroke-linecap:round; stroke-linejoin:round;fill:none"
d="M 95.7270,11.1036
96.0923,11.1151
96.4570,11.1357
96.8209,11.1652
97.1839,11.2037
97.5458,11.2511
97.9063,11.3075
98.2655,11.3727
98.6230,11.4468
98.9788,11.5297
99.3326,11.6214
99.6843,11.7220
100.0337,11.8313
100.3807,11.9493
100.7328,12.1470
101.0867,12.3720
101.4395,12.6203
101.7881,12.8875
102.1296,13.1697
102.4610,13.4625
102.7793,13.7620
103.0816,14.0638
103.3649,14.3640
103.6263,14.6582
103.8627,14.9424
104.0712,15.2124
104.2488,15.4641
104.3925,15.6932
104.4994,15.8957
104.5382,15.9857
104.5666,16.0674
104.6223,16.4782
104.6806,16.8583
104.7412,17.2094
104.8039,17.5326
104.8682,17.8295
104.9340,18.1016
105.0009,18.3501
105.0687,18.5766
105.1370,18.7824
105.2056,18.9690
105.2741,19.1377
105.3424,19.2901
105.4100,19.4275
105.4766,19.5513
105.5421,19.6630
105.6061,19.7640
105.6683,19.8556
105.7284,19.9394
105.8412,20.0890
105.9422,20.2241
105.9876,20.2898
106.0291,20.3561
106.0664,20.4244
106.0994,20.4962
106.1276,20.5729
106.1509,20.6559
106.1688,20.7466
106.1811,20.8465
106.1876,20.9570
106.1879,21.0794
106.1081,21.7686
105.9849,22.4417
105.8264,23.1015
105.6403,23.7507
105.2175,25.0278
104.7800,26.2948
104.5756,26.9313
104.3914,27.5734
104.2352,28.2237
104.1151,28.8852
104.0389,29.5603
104.0198,29.9039
104.0146,30.2519
104.0244,30.6047
104.0502,30.9626
104.0929,31.3260
104.1535,31.6951
104.2885,32.4859
104.4547,33.2637
104.8715,34.7842
105.3848,36.2648
105.9754,37.7134
106.6242,39.1380
107.3119,40.5466
108.7278,43.3474
109.4176,44.7556
110.0697,46.1797
110.6650,47.6276
111.1843,49.1073
111.6084,50.6268
111.7789,51.4039
111.9183,52.1940
112.0244,52.9980
112.0947,53.8169
112.1268,54.6518
112.1184,55.5036
112.1505,55.5484
112.1846,55.5912
112.2207,55.6322
112.2588,55.6710
112.2986,55.7078
112.3403,55.7425
112.3835,55.7750
112.4284,55.8052
112.4747,55.8331
112.5224,55.8586
112.5714,55.8818
112.6216,55.9024
112.6729,55.9205
112.7252,55.9360
112.7785,55.9488
112.8326,55.9589
112.8872,55.9663
112.9418,55.9708
112.9964,55.9724
113.0507,55.9713
113.1049,55.9675
113.1586,55.9608
113.2119,55.9515
113.2647,55.9395
113.3167,55.9249
113.3680,55.9076
113.4184,55.8877
113.4678,55.8653
113.5161,55.8402
113.5632,55.8127
113.6090,55.7827
113.6535,55.7502
115.1476,55.0308
115.9290,54.6858
116.7293,54.3590
117.5457,54.0571
118.3752,53.7864
119.2148,53.5533
120.0618,53.3644
120.9130,53.2260
121.7657,53.1447
122.6169,53.1268
123.4636,53.1789
123.8844,53.2331
124.3029,53.3073
124.7189,53.4021
125.1320,53.5185
125.5417,53.6572
125.9478,53.8190
126.3498,54.0047
126.7475,54.2151
128.1934,54.8197
128.5676,54.9829
128.9392,55.1549
129.3045,55.3375
129.6596,55.5329
130.0008,55.7428
130.1649,55.8538
130.3242,55.9692
130.4781,56.0892
130.6261,56.2142
130.7678,56.3442
130.9027,56.4795
131.0302,56.6205
131.1500,56.7673
131.2616,56.9202
131.3645,57.0794
131.4582,57.2453
131.5422,57.4179
131.6161,57.5976
131.6793,57.7845
131.6466,58.0811
131.5954,58.3564
131.5264,58.6115
131.4404,58.8474
131.3383,59.0653
131.2210,59.2660
131.0891,59.4507
130.9436,59.6204
130.7852,59.7761
130.6149,59.9188
130.4333,60.0496
130.2413,60.1696
129.8295,60.3809
129.3860,60.5610
128.9174,60.7183
128.4302,60.8609
127.4262,61.1352
126.9226,61.2835
126.4266,61.4502
125.9448,61.6435
125.4837,61.8718
125.2837,61.9831
125.0871,62.0990
124.8950,62.2181
124.7090,62.3393
124.5303,62.4612
124.3605,62.5826
124.2008,62.7022
124.0527,62.8189
123.9175,62.9313
123.7966,63.0381
123.6915,63.1382
123.6033,63.2303
123.5337,63.3131
123.5062,63.3506
123.4839,63.3853
123.4669,63.4171
123.4553,63.4457
123.4494,63.4712
123.4493,63.4931
125.0226,64.0329
126.5632,64.6525
128.0739,65.3448
129.5577,66.1030
132.4555,67.7892
135.2791,69.6553
146.2829,77.8086
149.0741,79.7411
151.9265,81.5202
153.3827,82.3348
154.8627,83.0902
156.3692,83.7794
157.9052,84.3955
159.4734,84.9316
161.0767,85.3807
162.7178,85.7358
164.3996,85.9900
166.1249,86.1364
167.8966,86.1680
169.7174,86.0779
171.5902,85.8590
171.6681,85.8751
171.7434,85.8956
171.8164,85.9202
171.8869,85.9488
171.9552,85.9811
172.0213,86.0170
172.0853,86.0563
172.1472,86.0987
172.2072,86.1440
172.2653,86.1922
172.3762,86.2959
172.4805,86.4084
172.5789,86.5279
172.6720,86.6529
172.7605,86.7818
172.8450,86.9130
172.9261,87.0450
173.0809,87.3046
173.2300,87.5482
173.2427,87.6498
173.2497,87.7503
173.2512,87.8494
173.2475,87.9472
173.2386,88.0437
173.2249,88.1388
173.2065,88.2325
173.1836,88.3247
173.1564,88.4155
173.1252,88.5048
173.0900,88.5926
173.0512,88.6788
173.0089,88.7635
172.9634,88.8465
172.9147,88.9279
172.8632,89.0077
172.7524,89.1620
172.6324,89.3093
172.5050,89.4494
172.3718,89.5820
172.2342,89.7068
172.0940,89.8237
171.9528,89.9323
171.8121,90.0326
170.7388,90.2896
169.6411,90.4869
168.5228,90.6279
167.3877,90.7154
166.2394,90.7527
165.0817,90.7429
163.9183,90.6891
162.7530,90.5943
161.5893,90.4618
160.4311,90.2946
159.2821,90.0959
158.1459,89.8687
157.0264,89.6162
155.9272,89.3415
153.8048,88.7380
151.8503,88.0630
149.9286,87.3082
148.0362,86.4821
146.1698,85.5931
144.3259,84.6499
142.5013,83.6608
138.8960,81.5791
131.7667,77.2391
128.1885,75.1166
126.3842,74.0970
124.5652,73.1164
123.5760,72.7279
122.5478,72.3825
121.4867,72.0827
120.3990,71.8309
119.2910,71.6297
118.1689,71.4815
117.0390,71.3888
115.9075,71.3540
114.7807,71.3798
113.6649,71.4684
112.5662,71.6226
111.4911,71.8446
110.4457,72.1370
109.4362,72.5024
108.4690,72.9431
107.5503,73.4616
107.4408,73.5333
107.3264,73.5973
107.2076,73.6538
107.0851,73.7033
106.9594,73.7461
106.8310,73.7825
106.7004,73.8131
106.5683,73.8380
106.4351,73.8576
106.3015,73.8724
106.0348,73.8887
105.7728,73.8898
105.5198,73.8785
105.2801,73.8578
105.0582,73.8305
104.8584,73.7995
104.6851,73.7676
104.4356,73.7130
104.3446,73.6897
104.2212,73.7843
104.0928,73.8697
103.9598,73.9458
103.8228,74.0125
103.6822,74.0698
103.5386,74.1175
103.3925,74.1556
103.2443,74.1841
103.0946,74.2028
102.9439,74.2116
102.7925,74.2105
102.6412,74.1994
102.4903,74.1782
102.3403,74.1469
102.1918,74.1053
102.0452,74.0534
101.8207,73.9031
101.5957,73.7771
101.3702,73.6739
101.1442,73.5919
100.9178,73.5295
100.6908,73.4852
100.4635,73.4575
100.2356,73.4448
100.0073,73.4455
99.7786,73.4581
99.3198,73.5128
98.8593,73.5965
98.3972,73.6966
97.4682,73.8970
97.0014,73.9723
96.5333,74.0144
96.2987,74.0192
96.0637,74.0110
95.8285,73.9884
95.5929,73.9497
95.3570,73.8934
95.1208,73.8179
94.8842,73.7218
94.6474,73.6034
94.4100,73.7223
94.1729,73.8190
93.9362,73.8948
93.6997,73.9514
93.4636,73.9904
93.2278,74.0133
92.9923,74.0217
92.7572,74.0170
92.5225,74.0009
92.2882,73.9750
91.8207,73.8997
90.8908,73.6990
90.4284,73.5984
89.9680,73.5144
89.5096,73.4593
89.2811,73.4465
89.0532,73.4456
88.8258,73.4582
88.5989,73.4857
88.3726,73.5299
88.1468,73.5921
87.9217,73.6740
87.6971,73.7772
87.4731,73.9031
87.2497,74.0534
87.1031,74.1053
86.9546,74.1469
86.8046,74.1782
86.6537,74.1994
86.5023,74.2105
86.3510,74.2116
86.2002,74.2028
86.0505,74.1841
85.9023,74.1556
85.7562,74.1175
85.6126,74.0698
85.4721,74.0125
85.3351,73.9458
85.2021,73.8697
85.0736,73.7843
84.9502,73.6897
84.6097,73.7676
84.2366,73.8305
84.0147,73.8578
83.7750,73.8785
83.5220,73.8898
83.2600,73.8887
82.9934,73.8724
82.7265,73.8380
82.4639,73.7825
82.3354,73.7461
82.2097,73.7033
82.0872,73.6538
81.9685,73.5973
81.8541,73.5333
81.7445,73.4616
80.8258,72.9441
79.8586,72.5041
78.8492,72.1393
77.8038,71.8472
76.7286,71.6253
75.6300,71.4712
74.5142,71.3823
73.3874,71.3563
72.2559,71.3907
71.1260,71.4831
70.0039,71.6309
68.8958,71.8318
67.8081,72.0832
66.7471,72.3828
65.7188,72.7280
64.7297,73.1164
62.9042,74.0970
61.0941,75.1166
57.5068,77.2392
50.3665,81.5799
46.7585,83.6623
44.9331,84.6519
43.0887,85.5958
41.2219,86.4854
39.3294,87.3123
37.4076,88.0680
35.4531,88.7441
33.3306,89.3457
32.2314,89.6195
31.1119,89.8713
29.9758,90.0979
28.8268,90.2961
27.6686,90.4629
26.5049,90.5951
25.3395,90.6896
24.1761,90.7432
23.0184,90.7529
21.8701,90.7155
20.7350,90.6279
19.6168,90.4870
18.5191,90.2896
17.4457,90.0326
17.3051,89.9323
17.1639,89.8237
17.0238,89.7068
16.8866,89.5821
16.7538,89.4496
16.6270,89.3097
16.5081,89.1625
16.3985,89.0084
16.3000,88.8476
16.2142,88.6803
16.1765,88.5944
16.1427,88.5068
16.1129,88.4178
16.0873,88.3273
16.0661,88.2354
16.0495,88.1421
16.0377,88.0474
16.0310,87.9513
16.0296,87.8540
16.0335,87.7553
16.0432,87.6554
16.0587,87.5543
16.3642,87.0381
16.4450,86.9055
16.5290,86.7744
16.6167,86.6463
16.7090,86.5225
16.8065,86.4046
16.8575,86.3483
16.9099,86.2940
16.9640,86.2419
17.0199,86.1921
17.0775,86.1449
17.1371,86.1005
17.1987,86.0590
17.2623,86.0205
17.3281,85.9854
17.3961,85.9537
17.4664,85.9256
17.5392,85.9014
17.6145,85.8812
17.6923,85.8652
19.5629,86.0835
21.3816,86.1731
23.1513,86.1410
24.8747,85.9942
26.5548,85.7395
28.1943,85.3840
29.7960,84.9346
31.3628,84.3981
32.8974,83.7817
34.4026,83.0922
35.8814,82.3365
37.3364,81.5217
40.1866,79.7422
42.9757,77.8093
48.4607,73.7057
51.2015,71.6461
53.9714,69.6554
56.7926,67.7892
59.6878,66.1030
61.1702,65.3448
62.6794,64.6525
64.2185,64.0329
65.7900,63.4931
65.7900,63.4712
65.7841,63.4457
65.7557,63.3853
65.7062,63.3131
65.6369,63.2303
65.5491,63.1382
65.4443,63.0381
65.3238,62.9313
65.1890,62.8189
65.0411,62.7022
64.8816,62.5826
64.7117,62.4612
64.5330,62.3393
64.3466,62.2181
64.1541,62.0990
63.9566,61.9831
63.7556,61.8718
63.5276,61.7528
63.2935,61.6434
63.0543,61.5428
62.8108,61.4499
62.3139,61.2829
61.8096,61.1343
60.8045,60.8592
60.3169,60.7163
59.8479,60.5587
59.6225,60.4719
59.4042,60.3783
59.1938,60.2770
58.9922,60.1669
58.8002,60.0469
58.6185,59.9161
58.4481,59.7734
58.2897,59.6178
58.1441,59.4483
58.0123,59.2637
57.8949,59.0632
57.7928,58.8457
57.7068,58.6100
57.6378,58.3553
57.5865,58.0805
57.5539,57.7845
57.6215,57.5976
57.6993,57.4179
57.7868,57.2454
57.8836,57.0797
57.9892,56.9206
58.1030,56.7678
58.2248,56.6212
58.3539,56.4804
58.6327,56.2154
58.9355,55.9708
59.2589,55.7448
59.5990,55.5352
59.9523,55.3401
60.3151,55.1576
60.6838,54.9856
61.0545,54.8223
62.4857,54.2151
62.8834,54.0041
63.2857,53.8179
63.6922,53.6557
64.1025,53.5167
64.5162,53.4001
64.9329,53.3050
65.3523,53.2307
65.7739,53.1763
66.1975,53.1410
66.6225,53.1241
67.4756,53.1420
68.3301,53.2235
69.1830,53.3621
70.0312,53.5513
70.8716,53.7847
71.7012,54.0558
72.5169,54.3582
73.3157,54.6852
74.0944,55.0306
75.5797,55.7502
75.6242,55.7831
75.6702,55.8134
75.7174,55.8413
75.7659,55.8666
75.8155,55.8894
75.8660,55.9096
75.9175,55.9271
75.9698,55.9420
76.0227,55.9542
76.0763,55.9636
76.1303,55.9704
76.1847,55.9744
76.2394,55.9756
76.2942,55.9740
76.3491,55.9695
76.4040,55.9622
76.4584,55.9520
76.5119,55.9391
76.5645,55.9236
76.6161,55.9054
76.6665,55.8846
76.7158,55.8613
76.7637,55.8356
76.8102,55.8075
76.8552,55.7771
76.8986,55.7443
76.9404,55.7094
76.9804,55.6723
77.0185,55.6331
77.0547,55.5919
77.0889,55.5487
77.1209,55.5036
77.1137,54.6518
77.1469,53.8169
77.2183,52.9980
77.3254,52.1940
77.4659,51.4039
77.6372,50.6268
78.0633,49.1073
78.5843,47.6276
79.1813,46.1797
79.8349,44.7556
80.5262,43.3474
81.9448,40.5466
82.6339,39.1380
83.2839,37.7134
83.8757,36.2648
84.3902,34.7842
84.8082,33.2637
84.9750,32.4859
85.1105,31.6951
85.1711,31.3259
85.2138,30.9623
85.2396,30.6041
85.2494,30.2509
85.2442,29.9023
85.2251,29.5582
85.1489,28.8817
85.0288,28.2188
84.8726,27.5669
84.6884,26.9233
84.4840,26.2855
84.0465,25.0169
83.6237,23.7403
83.4377,23.0924
83.2791,22.4347
83.1559,21.7645
83.0761,21.0794
83.0829,20.8465
83.1132,20.6557
83.1646,20.4957
83.2349,20.3552
83.6579,19.7617
83.7874,19.5487
83.9217,19.2874
84.0584,18.9662
84.1953,18.5740
84.3300,18.0993
84.4601,17.5308
84.5834,16.8573
84.6974,16.0674
84.7647,15.8957
84.8720,15.6932
85.0163,15.4641
85.1945,15.2124
85.4036,14.9424
85.6407,14.6582
85.9025,14.3640
86.1862,14.0638
86.4887,13.7620
86.8070,13.4625
87.1379,13.1697
87.4785,12.8875
87.8258,12.6203
88.1767,12.3720
88.5282,12.1470
88.8772,11.9493
89.2241,11.8313
89.5736,11.7220
89.9253,11.6214
90.2791,11.5297
90.6348,11.4468
90.9924,11.3727
91.3515,11.3075
91.7121,11.2511
92.0740,11.2037
92.4369,11.1652
92.8009,11.1357
93.1656,11.1151
93.5309,11.1036
93.8967,11.1011
94.2627,11.1076
94.6289,11.1232
94.9951,11.1076
95.3612,11.1011
Z" /> 
<g >
</g>
<g >
</g>
<g >
</g>
<g >
</g>
<g >
</g>
<g >
</g>
<g >
</g>
<g >
</g>
<g >
</g>
<g >
</g>
<g >
</g>
<g >
</g>
<g >
</g>
<g >
</g>
<g >
</g>
<g >
</g>
<g >
</g>
<g >
</g>
<g >
</g>
<g >
</g>
<g >
</g>
<g >
</g>
<g >
</g>
<g >
</g>
<g >
</g>
</g> 
</svg>
