<svg xmlns="http://www.w3.org/2000/svg" xmlns:xlink="http://www.w3.org/1999/xlink" id="Layer_1" x="0" y="0" version="1.1" viewBox="0 0 288.6 131.9" xml:space="preserve" style="enable-background:new 0 0 288.6 131.9"><style type="text/css">.st0{fill:#fff;stroke-miterlimit:10}.st0,.st1{stroke:#000;stroke-width:3}.st1,.st2{stroke-miterlimit:10}.st1{fill:#e42d40}.st2{fill:#fff;stroke:#fff;stroke-width:.25}</style><path d="M3.3,1c0,0-5.7,55.3,2,75.7s20,21.3,20,21.3s61-41,60.7-39.7s-1-5-8-16.7S70.3,6.7,70.3,1" class="st0"/><path d="M86.3,59.5c0,0-9.1-11.2-38.4,6C18.6,82.7,22,95.6,25.4,97.9c3.4,2.3,11.1,5.6,41.1-6.6S86.3,59.5,86.3,59.5z" class="st0"/><path d="M45.4,100c0,0,74.4-61,75.9-61.7s4.7,0,4.7,0l-76,63.1L45.4,100z" class="st0"/><path d="M53.7,98c0,0-2-9.7-6.3-12.3s4,0,6.3,0S66,91.3,64.3,96.3s-10,6.7-16,3.7S53.7,98,53.7,98z" class="st0"/><path d="M74.7,70.3c0.7,1.7,7.5,8.6,3.8,9.6s-2.4,9.5,4.9,7.6S93,76,86,72S74.7,70.3,74.7,70.3z" class="st0"/><path d="M66.7,90.3c0,0-1-3.7-3.7-9.7s7,0,7,0S82,86,77.3,93c-4.7,7-11,1.8-12.8,0C62.7,91.2,62.3,88.7,66.7,90.3z" class="st0"/><path d="M129.7,30c0,0,23.6-6.1,58.9,35.7c35.3,41.7,94.3,31.8,95,31.6c0.7-0.2-16.3,11.5-16.3,11.5s9.1,6.7,18.7,8.5	c9.5,1.8-56.4,26.4-100.5,5.7c-23.9-10.4-41.3-25.9-52.8-41c-4.1-5-16.9-22-34.7-24.8L129.7,30z" class="st1"/><path d="M136.7,41.6c-1.8,2.3-4.9,6.2-9.7,10.8c-8.5,7-1.3,8.9,2.4,6.1c2.2-1.5,4.5-3.1,4.5-3.1l4.6,5.2	c0,0-1.9,2.3-3.4,4.2c-4.7,4.6,0.9,6.8,4.5,3.3c1.8-1.8,9.5-9,12.9-13.3c2.9-2.4,0-7.3-4.5-3.5c-2,1.3-5.7,4.2-5.7,4.2	s-3.8-4.3-3.7-4.5c0.1-0.6,1.3-1.5,1.9-2.7C144.3,40.4,139.2,38.5,136.7,41.6z" class="st2"/><path d="M157.7,60.7c2.8-2.4,4.8-2.1,6-1.4c0.5,0.3,0.8,1.7,0.9,3.1c-1.3,8-10.6,19.6-11.5,20.3	c-3.5,2.4-6.9,0.2-3.9-2.9c1.6-1.9,3.3-3.6,3.3-3.6l-4.4-2.6c-6.9,5.5-8.8,1.1-5.5-1.2C145.9,69.8,153.9,63.8,157.7,60.7z M152,69.2	l4.3,2.8c0,0,5-7.6,3.1-7.3L152,69.2z" class="st2"/><path d="M178.6,78.2c1.4-1.5,1.9-5.9-3-7.2c-6.6-2.9-13.9,7.4-13.9,7.4c0,0-3.5,5-3.5,9.4c-0.1,4.3,3.7,6,4.4,6.4	c4.8,0.7,4.6-2.9,4-3.2c-0.9-0.5-2.2-0.9-2.9-2.1c-1.1-2.2,0.7-5.5,2-7.2c2.3-2.8,7.1-8.2,9.5-5.3C176,79.4,177.8,79,178.6,78.2z" class="st2"/><path d="M182.6,79.8c-2.7,3-2.9,7.2-8.7,12.6c-1.4,1.3-4.4,3.5-4.8,3.9c-2.9,2.3-0.5,5.4,5.4,1.9	c1.4-0.8,3.7-3.4,3.7-3.4l1.6,0.5c0,0-1.3,6.5-2.1,9.1c-0.8,2.6,3,5.9,5.2,1.1c0.6-1.7,1-4.2,1.2-7.5c0,0,0.2-2.4-0.4-3	c0,0,7-2.6,8.4-4.3c1.3-1.7,1.1-3.5-4.2-2c-5.2,1.5-6.1,2.3-6.1,2.3s2.7-3.6,3.9-6.7C187.4,81.4,184.9,77.5,182.6,79.8z" class="st2"/><path d="M200,93.4c-2.3,0.8-4.7,3.3-6.5,7.9c-2.8,6.8-1.6,11.8,3.5,13.1c5.1,1.4,5.5-2.5,5.2-2.8	c-0.3-0.3-0.3-0.7-2.5-0.8c-2.3-0.1-3.4-1.6-3.3-5.1c0.1-2.3,1.4-6.5,3.8-7.9c0.7-0.4,1.2-0.5,1.5-0.5c1.1-0.1,1.8,0.7,1.9,1	c1.7,2.9,3.1,1.1,2.9-1C205.7,94.1,203.6,92.6,200,93.4z" class="st2"/><path d="M209.7,100c1.1-2.5,4.6-3.4,3.1,2.7c-0.5,4.2-2,11.8-2.5,12.9c0,0,1.2,1.4,5.8,2.4c0,0,2,0.7,1.1,1.6	c-0.9,1-2,0.6-2.2,0.6c-0.3,0-10.6-2.3-10.2-3.7c0.4-1.4,1-1.9,2.3-6.2C208.2,104.6,208.6,102.5,209.7,100z" class="st2"/><path d="M220.9,104.1c0.6-1.9,3-2.2,3.2,0.2c0.2,1.9-1.8,9-1.7,12.4c0.3,1.4,1.8,2.3,2.9,1.6c1.6-1.3,2.7-5.3,3.5-8.8	c0.3-1.7,0.7-2.9,1.2-3.7c1.5-2.7,3.6-1,3.4,2.4c-0.6,3.6-2.4,9.1-3.6,10.7c-1.2,1.6-2.7,3.6-5.3,3.1c-0.7-0.1-6-1.6-5.3-7.9	C220,108,220.3,106,220.9,104.1z" class="st2"/><path d="M239.4,105.2c3.9-0.4,6.5-0.1,8.1,1.4c0.8,1.1,0.6,3.2-0.3,4.6c-0.9,1.1-2,2-2,2c1.7,1,1.6,2.9,1.6,2.9	c-0.1,7.3-4,6.9-8.8,6.3c-1.5-0.3-3.1-0.9-2.9-1.5c0.3-1,1.9-13.9,1.9-13.9C237,106.3,237,105.3,239.4,105.2z M239.7,107.8l-0.1,4.3	c0,0,4.5,0.2,4.9-2C245,107.8,242.1,107.9,239.7,107.8z M239,115.1c0,0-1,4.9-0.8,4.6c0.1-0.3,5.7,0.6,5.8-2.7	C244,113.7,239,115.1,239,115.1z" class="st2"/></svg>