<svg xmlns="http://www.w3.org/2000/svg" xmlns:xlink="http://www.w3.org/1999/xlink" id="Layer_1" x="0" y="0" version="1.1" viewBox="0 0 288.7 163" xml:space="preserve" style="enable-background:new 0 0 288.7 163"><style type="text/css">.st0{fill:#fff;stroke-miterlimit:10}.st0,.st1{stroke:#000;stroke-width:3}.st1,.st2{stroke-miterlimit:10}.st1{fill:#e42d40}.st2{fill:#fff;stroke:#fff;stroke-width:.25}</style><path d="M1.1,136.2c0,0,17.8,10.4,33.9,17.5c16.1,7.1,34.3,7.2,34.3,7.2S92,91,92.5,92.3c0.1,0.2-1-3.2-18.4-6.4	c-8.6-1.6-18.5-3.6-27.5-6.2C37.4,77,1.8,58.8,1.8,58.8" class="st0"/><path d="M93.5,93c0,0-14.1-3.2-26.5,28.4c-12.4,31.6-1.8,39.7,2.2,39.4c4.1-0.3,12.2-2.4,28.3-30.6	C113.5,102.1,93.5,93,93.5,93z" class="st0"/><path d="M86.3,150.1c0,0,20.9-93.9,21.6-95.4c0.7-1.4,3.7-2.9,3.7-2.9l-20.8,96.6L86.3,150.1z" class="st0"/><path d="M91.6,143.5c0,0-7.5-6.4-12.6-5.8c-5.1,0.6,3.1-2.5,5-3.9c1.8-1.4,13.2-3.2,15,1.8c1.8,5-3.8,11.4-10.3,12.8	C82,149.7,91.6,143.5,91.6,143.5z" class="st0"/><path d="M91,108.7c1.6,0.9,11.2,2.1,8.9,5.2c-2.3,3.2,3.9,9,8.5,3c4.6-6,0.5-15.1-7.5-13.9S91,108.7,91,108.7z" class="st0"/><path d="M97.1,129.4c0,0-3-2.3-8.9-5.3c-5.8-3.1,5.5-4.3,5.5-4.3s12.7-3.2,13.4,5.2c0.7,8.4-7.5,8.2-10.1,7.9	C94.5,132.5,92.6,130.8,97.1,129.4z" class="st0"/><path d="M109.4,43c0,0,14.8-19.3,68.4-8.3c53.6,11,93.9-33.2,94.3-33.8c0.4-0.6-5.8,19.1-5.8,19.1s11.3-0.4,19.9-4.9	c8.6-4.5-28.1,55.6-75.6,66.5c-25.2,6.6-48.5,5.2-66.9,0.3c-6.3-1.4-26.9-6.8-42.6,1.9L109.4,43z" class="st1"/><path d="M122.1,47.8c0,2.9-0.1,7.9-1,14.5c-2.4,10.7,4.4,7.8,5.7,3.3c0.8-2.5,1.6-5.2,1.6-5.2l6.8,1.3c0,0,0,3-0.1,5.5	c-0.9,6.6,4.8,4.8,5.6-0.1c0.3-2.5,1.9-13,1.9-18.4c0.8-3.6-4.5-5.8-5.7,0c-0.8,2.2-1.9,6.9-1.9,6.9s-5.6-1-5.7-1.2	c-0.3-0.5,0.1-2-0.1-3.3C127.3,42.2,122.1,43.9,122.1,47.8z" class="st2"/><path d="M150.4,49.9c0.8-3.6,2.5-4.6,3.9-4.8c0.6-0.1,1.7,0.9,2.6,1.9c3.9,7.1,3.8,22,3.4,23.1	c-1.3,4.1-5.3,4.4-4.8,0.2c0.1-2.5,0.3-4.8,0.3-4.8l-5.1,0.7c-2,8.6-6.3,6.3-5.1,2.5C146.8,64.3,149.3,54.7,150.4,49.9z M151.2,60.1	l5.1-0.4c0,0-0.8-9-2.1-7.7L151.2,60.1z" class="st2"/><path d="M177.6,50.8c0.2-2-2.2-5.8-6.8-3.9c-6.9,1.8-6.3,14.4-6.3,14.4c0,0,0.3,6.1,3.1,9.6c2.6,3.4,6.6,2.4,7.4,2.3	c4.2-2.5,1.9-5.1,1.1-5c-1,0.2-2.3,0.7-3.6,0.1c-2.2-1-2.8-4.8-2.9-6.9c0.1-3.6,0.5-10.8,4.2-10C176.4,53.4,177.5,51.9,177.6,50.8z" class="st2"/><path d="M181.8,49.6c-0.3,4,2.2,7.5,0.9,15.3c-0.3,1.9-1.3,5.5-1.4,6c-0.9,3.6,3,4.6,5.4-1.9c0.6-1.5,0.8-5,0.8-5	l1.6-0.6c0,0,3,5.9,4,8.5c1,2.5,6,2.8,4.8-2.3c-0.6-1.7-1.8-3.9-3.7-6.6c0,0-1.3-2-2.1-2.1c0,0,3.9-6.4,3.9-8.5c0-2.2-1.3-3.4-4.5,1	c-3.2,4.4-3.4,5.6-3.4,5.6s-0.1-4.5-1-7.7C186.6,47.8,182.1,46.3,181.8,49.6z" class="st2"/><path d="M203.9,49.6c-1.3,2.1-1.6,5.5-0.3,10.2c2,7,6,10.3,10.9,8.2c4.9-2.1,2.8-5.4,2.3-5.4c-0.4,0-0.6-0.4-2.5,0.9	c-1.9,1.3-3.7,0.8-5.8-2c-1.4-1.9-2.9-5.9-1.9-8.6c0.3-0.8,0.7-1.1,0.9-1.3c0.8-0.8,1.9-0.5,2.1-0.4c3.1,1.2,3.1-1,1.7-2.6	C208.8,46.5,206.2,46.6,203.9,49.6z" class="st2"/><path d="M215.6,48.7c-0.7-2.7,1.6-5.5,4.1,0.3c2.2,3.6,5.7,10.5,6,11.6c0,0,1.8,0.4,6-1.7c0,0,2-0.7,1.8,0.6	c-0.1,1.3-1.2,1.7-1.4,1.9c-0.2,0.2-9.8,4.7-10.3,3.4c-0.6-1.3-0.4-2.1-2-6.3C217.2,53.3,216.3,51.4,215.6,48.7z" class="st2"/><path d="M226.9,45.1c-0.7-1.9,1-3.6,2.7-1.8c1.3,1.4,4.1,8.2,6.3,10.8c1.1,1,2.8,0.8,3.3-0.5c0.5-1.9-1.2-5.9-2.6-9.1	c-0.8-1.5-1.2-2.7-1.4-3.6c-0.4-3.1,2.2-3,4.1-0.2c1.8,3.2,3.8,8.6,3.8,10.7c0,2,0.1,4.5-2.2,5.7c-0.6,0.3-5.7,2.4-9-2.9	C228.6,48.6,227.6,47,226.9,45.1z" class="st2"/><path d="M242.1,34.5c2.8-2.8,5.1-4.1,7.2-3.9c1.3,0.4,2.5,2.1,2.6,3.8c0,1.5-0.3,2.8-0.3,2.8c2-0.3,3,1.3,3,1.3	c4.4,5.8,1.1,7.8-3,10.4c-1.4,0.8-3,1.2-3.2,0.7c-0.3-1-7.1-12.1-7.1-12.1C241,36.8,240.4,36.1,242.1,34.5z M244,36.3l2.6,3.4	c0,0,3.6-2.6,2.6-4.6C248.2,33.1,246,35,244,36.3z M247.9,42.5c0,0,2.3,4.4,2.2,4.2c-0.1-0.3,4.9-3,2.9-5.7	C251,38.3,247.9,42.5,247.9,42.5z" class="st2"/></svg>