<?xml version="1.0" encoding="UTF-8" standalone="no"?>
<!-- Generator: Adobe Illustrator 20.0.0, SVG Export Plug-In . SVG Version: 6.00 Build 0)  -->

<svg
   xmlns:dc="http://purl.org/dc/elements/1.1/"
   xmlns:cc="http://creativecommons.org/ns#"
   xmlns:rdf="http://www.w3.org/1999/02/22-rdf-syntax-ns#"
   xmlns:svg="http://www.w3.org/2000/svg"
   xmlns="http://www.w3.org/2000/svg"
   xmlns:sodipodi="http://sodipodi.sourceforge.net/DTD/sodipodi-0.dtd"
   xmlns:inkscape="http://www.inkscape.org/namespaces/inkscape"
   version="1.1"
   id="Layer_1"
   x="0px"
   y="0px"
   viewBox="0 0 533.2 206.3"
   style="enable-background:new 0 0 533.2 206.3;"
   xml:space="preserve"
   sodipodi:docname="banner_plain_flag_no_year.svg"
   inkscape:version="0.92.2 2405546, 2018-03-11"
   inkscape:export-filename="/home/sven/Pictures/hackclubNoYearFlagFixedSpike.png"
   inkscape:export-xdpi="96"
   inkscape:export-ydpi="96"><metadata
   id="metadata933"><rdf:RDF><cc:Work
       rdf:about=""><dc:format>image/svg+xml</dc:format><dc:type
         rdf:resource="http://purl.org/dc/dcmitype/StillImage" /><dc:title></dc:title></cc:Work></rdf:RDF></metadata><defs
   id="defs931" /><sodipodi:namedview
   pagecolor="#ffffff"
   bordercolor="#666666"
   borderopacity="1"
   objecttolerance="10"
   gridtolerance="10"
   guidetolerance="10"
   inkscape:pageopacity="0"
   inkscape:pageshadow="2"
   inkscape:window-width="1600"
   inkscape:window-height="845"
   id="namedview929"
   showgrid="false"
   inkscape:zoom="1.4136831"
   inkscape:cx="218.00233"
   inkscape:cy="-2.9701023"
   inkscape:window-x="0"
   inkscape:window-y="27"
   inkscape:window-maximized="1"
   inkscape:current-layer="Layer_1" />
<style
   type="text/css"
   id="style894">
	.st0{fill:#E42D40;stroke:#000000;stroke-width:6;stroke-miterlimit:10;}
	.st1{fill:#F1F2F2;stroke:#F1F2F2;stroke-width:0.25;stroke-miterlimit:10;}
</style>
<path
   class="st0"
   d="m 529.5,151.2 c 0,0 -43.8,-30.7 -60.8,-36.7 -8,-2.6 -43.4,-20.5 -99,0 0,0 -27.4,10.7 -65.6,20.4 l -5.2,3.2 c 0.1,33.1 0.1,32.8 1.6,43.9 3.1,11.3 7.4,27.9 40.7,18.2 33.3,-9.6 66.7,-26.8 108.4,-12.9 41.7,13.9 70.1,18 79.9,14.9 0,0 -52.01145,-27.203 -28.6,-34.2 0,0.1 23.8,-6.9 28.6,-16.8 z"
   id="path896"
   inkscape:connector-curvature="0"
   style="fill:#e42d40;stroke:#000000;stroke-width:6;stroke-miterlimit:10"
   sodipodi:nodetypes="cccccccsccc" />




<path
   class="st0"
   d="M301.2,182.6c0,0,0.7-9.7,16.3-14.6c18.9-6.3,25.2-5.5,26.5-13.4c1.3-7.9,2.7-66.6,1.4-70.6  c-1.4-4-11.1,16.1-33.4,23.7c0,0-12.6,0.6-12.9,15.3c-0.3,12.7-0.1,50.8,0.8,55.8C300.6,182.2,301.2,182.6,301.2,182.6z"
   id="path906" />
<path
   class="st0"
   d="M0.4,37.6c0,0,107-36.5,188.7-34.5c55.3,3.4,99.9,17.9,126.1,32.5c4.4,2.4,24.4,13.5,29,22.2  c3.6,4.1,1.1,83.7,0.1,90.6c-0.1,4.5,0.1,3.1-1.1,0.4c-7.1-13.9-47.5-27.3-68-33.5c-20.8-6-51-14.4-101.6-11.4  c-52.6,3.1-101.4,13.6-133.7,20.4c-19.9,4.2-38,5.7-38,5.7"
   id="path908" />
<path
   class="st1"
   d="M87.4,46.4c1,3,2.8,8.4,6.6,19.9c1.7,5,3.5,12.3,3.5,12.3s3.5,11.7,0.9,13.4c-1.6,2.2-5.4,1.1-7-0.8  c-2.2-3.1-4-10.1-4.9-14c-0.4-1.6-1-3.2-1.4-3.5c-1.6-0.9-4.6,0.2-6.4,0.8c-2.4,0.9-4.9,2.1-5.8,2.6c-2.1,8.7,0.7-4.1-2.1,8.7  c-1.2,5.7-1.5,8.4-2,10c-0.6,1.9-6,8.3-9.4,0.5c-0.2-2.2,0.3-4.8,0.3-4.8s1.7-20.4,7.1-40.2c5.4-19.8,11.5-17,11.5-17  C80.3,34.3,82.8,35,87.4,46.4z M72.5,67c0,0,9.5-1.9,10.5-3.5c1-1.6-2.9-17.5-4.8-18.1C76.4,44.9,73.5,52.4,72.5,67z"
   id="path910" />
<path
   class="st1"
   d="M150.4,23.4c0,0-5.5-3.1-7.1,1.7c-0.7,5-0.6,31.1-0.6,35.1c-0.4,2.3-0.7,14.3-1.2,23.6c0.5,1.5,1.3,2.5,2.6,2.5  c6.3,0.5,6.4-2.7,7-4s1-15.7,1.7-15.9c0.6-0.2,4.6-2.8,5.4-3.9c0.7-0.9,4.7,12.7,10.1,18.6c4.3,4.5,10.1,3,7.5-3.1  c-0.7-2-1.7-4.1-2.3-5.7c-1.8-4.5-7.4-14.5-7.3-14.9c0.1-0.2,2.4-4.2,2.4-4.2s4.7-9.5,5.8-11.2c1.7-2.7,7.9-16.1,7.1-19.2  c-0.8-3.1-1.8-4.1-4-3.7c-2.2,0.4-2.8,1.3-5.3,6.5c-2.5,5.2-7.8,15.4-11.3,20.8c0,0-4.8,7.1-8.7,9.4c0,0,1.1-9.7,1.1-19.9  C152.7,24.4,150.4,23.4,150.4,23.4z"
   id="path912" />
<path
   class="st1"
   d="M170.7,113.8"
   id="path914" />
<path
   class="st1"
   d="M231.3,38.2c0,0,4.1-1.9-2.9-11.2s-16.2-4.5-16.2-4.5s-9.8,3.7-10.9,22.7c-0.7,13.1-1.1,23.6,0.3,30.3  c1.9,6,6.5,8.5,8.1,9.1c7.6,2.8,15.7,0.9,19.1-3.3c0,0,3.4-2.4,3.4-10.5c-1.2-4.6-3.8-5.2-6.5-3.2c-2.7,1.9-1.4,10.7-6.7,10  c-3.3-0.6-4.9-2.3-5.6-4.4c-1.3-3.4-1.8-12.2-1.6-19.5c0.1-4,0.3-13.2,2-17.3c0.6-1.9,1.3-3.5,2.3-4.5c3.1-1.3,4.3,0.1,4.9,2  c0.4,1.4,1.7,5,2.4,5.4C225.7,40.4,229.2,41.2,231.3,38.2z"
   id="path916" />
<path
   class="st1"
   d="M246.9,28.4c-1.8-0.2-4.4,1.9-4.9,20.3c-0.7,24.5-2,30.6-2,30.6s-4.3,9.1,8.3,10.8c12.7,1.7,13,3.6,15,1.9  c2-1.7,2.3-4.6,0-6.6c-2.3-2-8.9-2.2-11.2-4.5c0,0,1.5-30.9,1.5-35.6c0-3.8,1.5-9.4,0-12.6C253.4,32,251.2,29.1,246.9,28.4z"
   id="path918" />
<path
   class="st1"
   d="M270.2,44.9c-1,10.6-1.7,40.2,1.7,46.3c2.7,4.9,6.3,7.5,9.1,9.2c7.5,3.4,14.8,2.2,18.6-7  c3.3-8.3,3.7-20.3,4.5-34.5c1.5-14.3-7.5-14.5-7.5-7.5c-0.7,11.4-0.7,38.7-8.4,42c-7.7,3.3-9-12.8-9-29.2c0-16.4,0-19.6-0.3-23.6  C278.6,36.4,271.2,34.3,270.2,44.9z"
   id="path920" />
<path
   class="st1"
   d="M329.8,66c1.2,2.4,1.8,5.6,1.3,11.1c-0.9,10.6-4.4,11.7-4.4,11.7c4.2,2.5,4.7,8.6,0.6,19.7  c-4.1,11.1-17.4,2-18.4,1.6c-1-0.4,1.1-16.6,1-38.5c0-10.7,0.7-15.4,1.4-17.3c0.7-2,2.7-0.9,3.2-0.8c1.3,0.3,2.6,0.8,3.9,1.5  c4.2,2.1,7.1,4.9,8.9,7.2C328.6,63.8,329.4,65.1,329.8,66z M319.1,62.9c0,0-1.6,4.6-1.4,20.8c0,0,8,2.3,7.3-9.1  C324.3,63.2,319.1,62.9,319.1,62.9z M317.7,89.2c-1.5-0.6-0.9,15.9-0.9,15.9s5,4.4,5.9-3.5C323.6,93.7,323.8,91.8,317.7,89.2z"
   id="path922" />
<path
   class="st1"
   d="M23.5,53.5c-0.4,8.5,0.1,23.6-0.3,27.8c-0.4,3.9-0.4,14-0.3,20.8c-0.6,9.2,8.2,8.2,8.6,2.2c0.3-6,1-14.4,1-14.4  s10.4-4.6,10.1-5.4s-1,18.4,1.1,19.2s8.1,1.2,8.6-6.2c0.5-7.4,1.4-21.1,1.4-22.8c0-1.7,2.3-28,0.8-30.6c-1.7-6.7-9.6-4.3-10,2.5  c-0.6,3.2,0.1,6.8-0.3,10.5c-0.7,6-0.4,16.2-1.2,18.3c0,0-7.5,2.2-9.9,4.3c0,0,1.2-17.6,0.8-22.2c-0.3-3.4,0.5-6.4-1-9  C32.4,47.5,25.6,42.6,23.5,53.5z"
   id="path924" />
<path
   class="st1"
   d="M131.4,41.4c0,0,3.8-5-5-12.2c-8.8-7.2-15.3-1.9-17.8,0c-2.5,1.9-6.6,15.4-6.3,39.9c0,0-0.2,22.3,14.9,20.9  c15.1-1.4,16.3-9.9,17.3-14c0.9-4.1-1.3-6.3-3.4-6.3s-4.1,0.9-5.6,5.1c-1.6,4.2-6.6,10.3-11.3,4.5c0,0-3.8-9.6-1.3-28.1  c2.5-18.4,7.4-19.5,11-11C123.9,40.2,127.9,45.6,131.4,41.4z"
   id="path926" />
</svg>