<svg xmlns="http://www.w3.org/2000/svg" xmlns:xlink="http://www.w3.org/1999/xlink" id="Layer_1" x="0" y="0" version="1.1" viewBox="0 0 533.2 206.3" xml:space="preserve" style="enable-background:new 0 0 533.2 206.3"><style type="text/css">.st0,.st1{fill:#e42d40;stroke:#000;stroke-width:6;stroke-miterlimit:10}.st1{fill:#f1f2f2;stroke:#f1f2f2;stroke-width:.25}</style><path d="M529.5,151.2c0,0-43.8-30.7-60.8-36.7c-8-2.6-43.4-20.5-99,0c0,0-27.4,10.7-65.6,20.4l-5.2,3.2	c0.1,33.1,0.1,32.8,1.6,43.9c3.1,11.3,7.4,27.9,40.7,18.2c33.3-9.6,66.7-26.8,108.4-12.9s70.1,18,79.9,14.9c0,0-21.5-19.2-28.6-34.2	C500.9,168.1,524.7,161.1,529.5,151.2z" class="st0"/><path d="M354.1,144.6c0,0-1.5-4.7,5.9-11.8c7.4-7.1,15-3.4,16.4-0.7c1.5,2.7,4.1,8.3-1.4,20.8c-2.5,5.5-4,8-7.5,13.9	c-2.8,5.8,5.1-2.6,14.2-2.6c9.1,0,6.5,8.1,3.9,8.2c-23.2,4.7-26.6,12.3-29.5,7c-2.9-5.2-0.1-10.5,1.8-13.8c2-3.3,16.4-22.9,9.8-26.3	c-2.1-1.2-4.1,1.1-5.7,3.4c-1.3,2-1.8,3.8-3.8,5C356.3,148,354.8,146.6,354.1,144.6z" class="st1"/><path d="M417.3,128.7c3.9,7,3,21-1,32.4c-4,11.5-18.1,9.4-22.2,4.7c-4.2-4.7-7.8-20.6-5.6-32.9	c2.3-12.4,11.3-13.1,13.6-13.7C408,118.9,413.4,121.6,417.3,128.7z M402.3,128.2c-6.2,1.1-5.7,10.2-5.1,16	c1.5,10.5,3.3,14.9,4.8,16.6c2,1.8,3.6,1.6,5.8-1c1.1-1.6,1.7-4.4,2-8.1c0.3-3.7,0.1-7.1,0.1-7.1S409.7,127.3,402.3,128.2z" class="st1"/><path d="M436.2,118.2c-1.9-0.4-4.6,0.1-7.2,4.2c-4.9,7.9-6.2,5.3-4.1,10.8c0,0,3.8,3.5,6.3,0.2c0,0-0.6,1.8-0.5,14.6	s-3,23.2,3.9,22.1c6.9-1.1,6-2.8,6.4-12.4s-0.4-32.7-0.6-34.9C440.2,120.5,439,118.8,436.2,118.2z" class="st1"/><path d="M469.1,134.8c-10.6,1.7-8.4,13.3-8.4,13.3c3.8-3.1,6.9-3.3,10.3-0.8c3.9,3,4.8,10,4.8,13.1	c-0.1,10.5-4,20.6-15.8,17.5c-14.6-6.9-10.4-34.6-9.3-39.6c1.2-5,6.5-11,13.8-12.3c3.4-0.6,5.6,0.1,7.1,1.1c1.6,0.9,2.4,2.1,2.5,3.2	C474.2,131.6,474.2,133.6,469.1,134.8z M460.9,154.2c0,0-1.6,13.7,3.7,15.6c5.4,1.9,4.4-4.8,4.5-7.7	C469.5,154.1,467.4,150.7,460.9,154.2z" class="st1"/><path d="M301.2,182.6c0,0,0.7-9.7,16.3-14.6c18.9-6.3,25.2-5.5,26.5-13.4c1.3-7.9,2.7-66.6,1.4-70.6	c-1.4-4-11.1,16.1-33.4,23.7c0,0-12.6,0.6-12.9,15.3c-0.3,12.7-0.1,50.8,0.8,55.8C300.6,182.2,301.2,182.6,301.2,182.6z" class="st0"/><path d="M0.4,37.6c0,0,107-36.5,188.7-34.5c55.3,3.4,99.9,17.9,126.1,32.5c4.4,2.4,24.4,13.5,29,22.2	c3.6,4.1,1.1,83.7,0.1,90.6c-0.1,4.5,0.1,3.1-1.1,0.4c-7.1-13.9-47.5-27.3-68-33.5c-20.8-6-51-14.4-101.6-11.4	c-52.6,3.1-101.4,13.6-133.7,20.4c-19.9,4.2-38,5.7-38,5.7" class="st0"/><path d="M87.4,46.4c1,3,2.8,8.4,6.6,19.9c1.7,5,3.5,12.3,3.5,12.3s3.5,11.7,0.9,13.4c-1.6,2.2-5.4,1.1-7-0.8	c-2.2-3.1-4-10.1-4.9-14c-0.4-1.6-1-3.2-1.4-3.5c-1.6-0.9-4.6,0.2-6.4,0.8c-2.4,0.9-4.9,2.1-5.8,2.6c-2.1,8.7,0.7-4.1-2.1,8.7	c-1.2,5.7-1.5,8.4-2,10c-0.6,1.9-6,8.3-9.4,0.5c-0.2-2.2,0.3-4.8,0.3-4.8s1.7-20.4,7.1-40.2c5.4-19.8,11.5-17,11.5-17	C80.3,34.3,82.8,35,87.4,46.4z M72.5,67c0,0,9.5-1.9,10.5-3.5c1-1.6-2.9-17.5-4.8-18.1C76.4,44.9,73.5,52.4,72.5,67z" class="st1"/><path d="M150.4,23.4c0,0-5.5-3.1-7.1,1.7c-0.7,5-0.6,31.1-0.6,35.1c-0.4,2.3-0.7,14.3-1.2,23.6c0.5,1.5,1.3,2.5,2.6,2.5	c6.3,0.5,6.4-2.7,7-4s1-15.7,1.7-15.9c0.6-0.2,4.6-2.8,5.4-3.9c0.7-0.9,4.7,12.7,10.1,18.6c4.3,4.5,10.1,3,7.5-3.1	c-0.7-2-1.7-4.1-2.3-5.7c-1.8-4.5-7.4-14.5-7.3-14.9c0.1-0.2,2.4-4.2,2.4-4.2s4.7-9.5,5.8-11.2c1.7-2.7,7.9-16.1,7.1-19.2	c-0.8-3.1-1.8-4.1-4-3.7c-2.2,0.4-2.8,1.3-5.3,6.5c-2.5,5.2-7.8,15.4-11.3,20.8c0,0-4.8,7.1-8.7,9.4c0,0,1.1-9.7,1.1-19.9	C152.7,24.4,150.4,23.4,150.4,23.4z" class="st1"/><path d="M170.7,113.8" class="st1"/><path d="M231.3,38.2c0,0,4.1-1.9-2.9-11.2s-16.2-4.5-16.2-4.5s-9.8,3.7-10.9,22.7c-0.7,13.1-1.1,23.6,0.3,30.3	c1.9,6,6.5,8.5,8.1,9.1c7.6,2.8,15.7,0.9,19.1-3.3c0,0,3.4-2.4,3.4-10.5c-1.2-4.6-3.8-5.2-6.5-3.2c-2.7,1.9-1.4,10.7-6.7,10	c-3.3-0.6-4.9-2.3-5.6-4.4c-1.3-3.4-1.8-12.2-1.6-19.5c0.1-4,0.3-13.2,2-17.3c0.6-1.9,1.3-3.5,2.3-4.5c3.1-1.3,4.3,0.1,4.9,2	c0.4,1.4,1.7,5,2.4,5.4C225.7,40.4,229.2,41.2,231.3,38.2z" class="st1"/><path d="M246.9,28.4c-1.8-0.2-4.4,1.9-4.9,20.3c-0.7,24.5-2,30.6-2,30.6s-4.3,9.1,8.3,10.8c12.7,1.7,13,3.6,15,1.9	c2-1.7,2.3-4.6,0-6.6c-2.3-2-8.9-2.2-11.2-4.5c0,0,1.5-30.9,1.5-35.6c0-3.8,1.5-9.4,0-12.6C253.4,32,251.2,29.1,246.9,28.4z" class="st1"/><path d="M270.2,44.9c-1,10.6-1.7,40.2,1.7,46.3c2.7,4.9,6.3,7.5,9.1,9.2c7.5,3.4,14.8,2.2,18.6-7	c3.3-8.3,3.7-20.3,4.5-34.5c1.5-14.3-7.5-14.5-7.5-7.5c-0.7,11.4-0.7,38.7-8.4,42c-7.7,3.3-9-12.8-9-29.2c0-16.4,0-19.6-0.3-23.6	C278.6,36.4,271.2,34.3,270.2,44.9z" class="st1"/><path d="M329.8,66c1.2,2.4,1.8,5.6,1.3,11.1c-0.9,10.6-4.4,11.7-4.4,11.7c4.2,2.5,4.7,8.6,0.6,19.7	c-4.1,11.1-17.4,2-18.4,1.6c-1-0.4,1.1-16.6,1-38.5c0-10.7,0.7-15.4,1.4-17.3c0.7-2,2.7-0.9,3.2-0.8c1.3,0.3,2.6,0.8,3.9,1.5	c4.2,2.1,7.1,4.9,8.9,7.2C328.6,63.8,329.4,65.1,329.8,66z M319.1,62.9c0,0-1.6,4.6-1.4,20.8c0,0,8,2.3,7.3-9.1	C324.3,63.2,319.1,62.9,319.1,62.9z M317.7,89.2c-1.5-0.6-0.9,15.9-0.9,15.9s5,4.4,5.9-3.5C323.6,93.7,323.8,91.8,317.7,89.2z" class="st1"/><path d="M23.5,53.5c-0.4,8.5,0.1,23.6-0.3,27.8c-0.4,3.9-0.4,14-0.3,20.8c-0.6,9.2,8.2,8.2,8.6,2.2c0.3-6,1-14.4,1-14.4	s10.4-4.6,10.1-5.4s-1,18.4,1.1,19.2s8.1,1.2,8.6-6.2c0.5-7.4,1.4-21.1,1.4-22.8c0-1.7,2.3-28,0.8-30.6c-1.7-6.7-9.6-4.3-10,2.5	c-0.6,3.2,0.1,6.8-0.3,10.5c-0.7,6-0.4,16.2-1.2,18.3c0,0-7.5,2.2-9.9,4.3c0,0,1.2-17.6,0.8-22.2c-0.3-3.4,0.5-6.4-1-9	C32.4,47.5,25.6,42.6,23.5,53.5z" class="st1"/><path d="M131.4,41.4c0,0,3.8-5-5-12.2c-8.8-7.2-15.3-1.9-17.8,0c-2.5,1.9-6.6,15.4-6.3,39.9c0,0-0.2,22.3,14.9,20.9	c15.1-1.4,16.3-9.9,17.3-14c0.9-4.1-1.3-6.3-3.4-6.3s-4.1,0.9-5.6,5.1c-1.6,4.2-6.6,10.3-11.3,4.5c0,0-3.8-9.6-1.3-28.1	c2.5-18.4,7.4-19.5,11-11C123.9,40.2,127.9,45.6,131.4,41.4z" class="st1"/></svg>