<svg fill="none" height="158" viewBox="0 0 280 158" width="280" xmlns="http://www.w3.org/2000/svg" xmlns:xlink="http://www.w3.org/1999/xlink"><clipPath id="a"><path d="m0 0h280v157.5h-280z"/></clipPath><mask id="b" fill="#fff"><path clip-rule="evenodd" d="m94.7941 27.3061c1.435-.9649 22.3739-13.7884 71.5199 10.038 46.422 22.507 93.441-3.3937 101.893-8.5759.28-.1725.747.2754.595.5662l-8.543 16.4547c-.135.2594.047.5692.339.5741 2.203.0402 9.886.162 18.489.0854.356-.004.557.4035.296.6472-5.801 5.4274-46.742 42.6258-78.758 42.488-34.536-.1493-53.204-8.2972-75.262-14.4927-21.721-6.1005-34.0477-8.243-47.363-6.0911 0 0 13.2111-32.1645 16.1411-39.9741.409-1.0911.646-1.715.653-1.7198z" fill="#fff" fill-rule="evenodd"/></mask><g clip-path="url(#a)"><path clip-rule="evenodd" d="m-36 79.7371s1.6975 2.1272 4.5572 5.5441c10.188 12.173 23.81312 33.3678 39.3022 40.4058 19.8369 9.013 40.4323 8.349 40.4323 8.349s13.8834-71.8646 14.5917-70.7345c.7084 1.1301-24.3221-9.8658-37.5151-13.2188-13.1931-3.3531-28.13685-16.0522-32.16731-20.0827" fill="#fff" fill-rule="evenodd"/><path d="m-36 79.8845s24.1374 36.8225 44.0068 45.8025c19.8695 8.981 40.5331 8.107 40.5331 8.107l17.2529-69.9522s-41.6301-8.0517-72.44441-33.8418" stroke="#17171d" stroke-linecap="square" stroke-linejoin="round" stroke-width="3"/><g clip-rule="evenodd" fill-rule="evenodd"><path d="m63.9957 63.0942c-4.5837-.3295-14.3541-1.4849-22.9099 31.3951-8.5559 32.8797 2.9699 39.5977 7.0003 38.8197 4.0305-.778 11.8086-3.889 24.3948-33.7285 12.5863-29.8395-3.9014-36.1568-8.4852-36.4863z" fill="#fff" stroke="#17171d" stroke-linecap="round" stroke-linejoin="round" stroke-width="3"/><path d="m94.7941 27.3061c1.435-.9649 22.3739-13.7884 71.5199 10.038 46.422 22.507 93.441-3.3937 101.893-8.5759.28-.1725.747.2754.595.5662l-8.543 16.4547c-.135.2594.047.5692.339.5741 2.203.0402 9.886.162 18.489.0854.356-.004.557.4035.296.6472-5.801 5.4274-46.742 42.6258-78.758 42.488-34.536-.1493-53.204-8.2972-75.262-14.4927-21.721-6.1005-34.0477-8.243-47.363-6.0911 0 0 13.2111-32.1645 16.1411-39.9741.409-1.0911.646-1.715.653-1.7198z" fill="#ec3750" mask="url(#b)" stroke="#17171d" stroke-width="6"/><path d="m107.087 35.7931c-.537 2.9609-1.565 8.0469-3.708 14.6156-4.4366 10.472 3.061 8.7929 5.224 4.4435 1.282-2.4012 2.601-5.0075 2.601-5.0075l6.719 2.6098s-.555 3.0629-1.12 5.596c-2.142 6.5687 4.025 5.806 5.751.9538.77-2.4957 4.35-12.9142 5.349-18.4276 1.485-3.5245-3.532-6.7702-5.834-1.0744-1.226 2.0951-3.221 6.6862-3.221 6.6862s-5.548-2.0767-5.613-2.2996c-.215-.5668.473-2.0232.508-3.3879-.297-9.4447-5.934-8.6898-6.656-4.7079z" fill="#fff"/><path d="m137.292 42.8295c1.728-3.4034 3.697-3.9666 5.159-3.8048.632.0546 1.484 1.3417 2.135 2.5775 2.113 8.1283-1.802 23.044-2.487 24.0441-2.359 3.775-6.468 3.0412-4.888-1.0411.74-2.4811 1.531-4.7358 1.531-4.7358l-5.32-.6171c-4.217 8.1066-7.962 4.6883-5.78 1.188 2.335-4.1017 7.313-13.0823 9.65-17.6108zm-1.804 10.4348 5.243.9181s1.497-9.2323-.146-8.2645z" fill="#fff"/><path d="m164.057 50.746c.702-1.9536-.722-6.3846-5.769-5.6685-7.306.0213-9.889 12.8105-9.889 12.8105s-1.242 6.1944.656 10.4276c1.724 4.0815 5.949 4.1127 6.769 4.2196 4.801-1.421 3.173-4.6232 2.353-4.7292-1.043-.0584-2.46.1071-3.599-.8308-1.933-1.5712-1.57-5.5366-1.139-7.6684 1.006-3.5839 3.22-10.7002 6.693-8.9416 2.077 2.6781 3.548 1.4583 3.925.3808z" fill="#fff"/><path d="m168.318 50.4456c-1.302 3.9172.29 8.0561-2.953 15.5096-.775 1.8205-2.667 5.1576-2.892 5.6314-1.793 3.3632 1.811 5.3649 5.816-.5076.971-1.3426 2.048-4.7866 2.048-4.7866l1.732-.1871s1.484 6.6637 1.82 9.5172c.36 2.7539 5.229 4.3404 5.322-1.0607-.166-1.852-.8-4.3579-1.999-7.5426 0 0-.783-2.3325-1.549-2.6381 0 0 5.463-5.3865 5.99-7.4836.553-2.1968-.431-3.7299-4.701-.1599-4.268 3.57-4.767 4.7164-4.767 4.7164s1.031-4.5193.946-7.9465c.384-3.6231-3.688-6.2798-4.813-3.0619z" fill="#fff"/><path d="m195.897 57.549c-1.833 1.8018-2.996 5.1927-2.89 10.3323.221 7.6719 3.38 12.0929 8.81 11.2394 5.431-.8548 4.17-4.776 3.671-4.9071-.4-.106-.499-.5662-2.727.2605-2.23.8272-3.901-.1571-5.29-3.5678-.916-2.3075-1.399-6.7851.286-9.2778.503-.7382.978-.9387 1.229-1.0907 1.003-.6063 2.026-.0098 2.201.1439 2.793 2.0406 3.351-.2043 2.359-2.2062-1.965-2.8018-4.589-3.3833-7.649-.9265z" fill="#fff"/><path d="m208 57.8567c-.014-2.912 3.002-5.1437 4.03 1.3719 1.288 4.2131.92 12.3464 1.543 13.1023.624.756 5.291-.2751 6.555-.6948 1.263-.4184 3.586.1489 3.056 1.4106-.432 1.2889-1.636 1.4057-1.887 1.5555-.25.1506-10.801 3.2282-11.184 1.147-.382-2.0815-.403-3.0381-.782-6.5814-.379-3.5447-1.317-8.3992-1.331-11.3111z" fill="#fff"/><path d="m221.016 55.1558c-.22-2.1058 1.932-3.3827 3.187-1.1172.952 1.7562 2.036 9.3707 3.59 12.5764.853 1.2992 2.62 1.5409 3.459.3557.992-1.7933.301-6.2855-.292-9.8904-.423-1.7267-.914-3.048-.884-4.0114.391-3.2422 2.989-2.4617 4.189.868.997 3.7089 2.025 9.6989 1.487 11.8248-.513 2.0242-1.053 4.5812-3.682 5.1953-.683.1473-6.368.9417-8.34-5.2844-1.896-6.5305-2.494-8.4109-2.714-10.5168z" fill="#fff"/><path d="m238.676 48.3505c3.504-2.0971 6.128-2.8104 8.173-2.0616 1.195.7411 1.962 2.769 1.631 4.5098-.38 1.5144-1.01 2.7475-1.01 2.7475 2.073.2177 3.582 2.2938 3.964 5.0031.383 2.7094-2.179 5.2463-6.929 6.8035-1.6.443-3.297.4304-3.371-.1262-.046-1.0876-4.017-14.0566-4.017-14.0566-.122-.7851-.543-1.6467 1.559-2.8195zm1.439 2.3108 1.733 4.1068s4.251-1.6869 3.761-3.9654c-.492-2.2782-3.168-.933-5.494-.1414zm2.32 7.2704s1.18 5.0387 1.131 4.8111c-.024-.3293 6.195-1.5395 4.883-4.7852-1.312-3.2444-6.014-.0259-6.014-.0259z" fill="#fff"/></g><path d="m94.5 28-36.5 90.327h3.6986l35.2539-88.327z" fill="#17171d"/><path d="m65 86.1225c1.697.707 11.3843.7778 9.4751 4.1012-1.9092 3.3233 5.0204 8.4144 8.8387 1.9091s-1.3435-14.9197-9.1216-12.7985c-7.7781 2.1214-9.1922 6.7882-9.1922 6.7882z" style="fill-rule:evenodd;clip-rule:evenodd;fill:#fff;stroke:#252429;stroke-width:3;stroke-linecap:round;stroke-linejoin:round"/><path d="m59 102.122c1.697.707 11.3843.778 9.4751 4.102-1.9092 3.323 5.0204 8.414 8.8388 1.909 3.8183-6.506-1.3436-14.9199-9.1217-12.7987-7.7781 2.1214-9.1922 6.7877-9.1922 6.7877z" style="fill-rule:evenodd;clip-rule:evenodd;fill:#fff;stroke:#252429;stroke-width:3;stroke-linecap:round;stroke-linejoin:round"/><path d="m55 119.122c1.697.707 11.3842.778 9.4751 4.102-1.9092 3.323 5.0203 8.414 8.8387 1.909 3.8183-6.506-1.3436-14.92-9.1217-12.799-7.778 2.121-9.1921 6.788-9.1921 6.788z" style="fill-rule:evenodd;clip-rule:evenodd;fill:#fff;stroke:#252429;stroke-width:3;stroke-linecap:round;stroke-linejoin:round"/></g></svg>