<svg xmlns="http://www.w3.org/2000/svg" xmlns:svg="http://www.w3.org/2000/svg" xmlns:xlink="http://www.w3.org/1999/xlink" id="svg2" x="0" y="0" version="1.1" viewBox="0 0 477.4 82.6" xml:space="preserve" style="enable-background:new 0 0 477.4 82.6"><style type="text/css">.st0{fill:#e42d40}</style><g id="layer1" transform="translate(-142.43263,-969.56141)"><g id="layer1-9" transform="translate(-132.6018,254.93636)"><path id="text3025-8-94" d="M337.4,714.6l-18.2,3.2v3.4v16.1v13.3h-26 c0.1-5.4,0.1-11.1,0.1-16.3v-19.6l-18.3,3.2v3.3v16.3v58.7h18.3v-32.1h26v32.1h18.2V734v-12.8L337.4,714.6z M474.2,715.9l-17.5,3 v77.3h17.5v-23.8c0,0,0,0,0.1,0c14.7,24.1,0.3,0.5,14.6,23.8h17.7l-18.1-27.7l16.9-28h-17.1l-14.1,23.1v-10.2L474.2,715.9z M622.3,715.9l-17.5,3v63.6c0,7.9,4.5,14.1,14.6,14.1c6.4,0,12.2-1.9,14.4-2.9l-1.7-11c-1.7,0.3-3.9,0.6-5.4,0.6 c-3.3,0-4.5-1.2-4.5-4.8V715.9z M720.1,715.9l-17.5,3v74.8c1.2,0.4,12.9,3.2,22.1,3.2c16.5,0,27.8-12.5,27.8-29.4 c0-16.7-6.8-27.7-20.8-27.7c-5,0-8.8,2-11.5,5.6V715.9z M576,720.2c-22.6,0-33.5,16.5-33.5,39.5c0,23.7,10.1,37.2,32.8,37.2 c9,0,16.1-1.7,20.6-3.6l-4-12.4c-4.1,1.7-9.1,3.1-14.4,3.1c-11.7,0-15.3-10.5-15.3-25.5c0-15.7,4.2-25.3,13.7-25.3 c3.9,0,7.7,1.4,11.8,6.3l10-10.1C593.5,724.7,587.9,720.2,576,720.2z M433.8,739.5c-15.4,0-26.9,10.5-26.9,30.4 c0,16.3,7.5,27.3,25.6,27.3c9.9,0,16.4-3.6,16.5-3.8l-3.2-11.7c-0.3,0.1-5.8,2.2-9.3,2.2c-4.8,0-11-2-11-15.9 c0-14.1,5.8-15.5,9.5-15.5c3,0,4.6,1.6,6.4,3.8l8.6-8.9C446.5,742.7,441,739.5,433.8,739.5z M374.3,739.8 c-16.5,0-27.8,12.6-27.8,29.5c0,16.6,6.8,27.6,21.4,27.6c8,0,12.8-4,15.2-10.8c1.3,7.3,5.3,11,5.3,11l14.1-4.4 c0,0-6.1-5.6-6.1-23.2v-26.5C396.1,743.1,383.5,739.8,374.3,739.8z M640.3,740.6v37c0,11.7,4.4,19.3,16,19.3c7.8,0,15-3.1,18.8-10 c1.6,6.6,5.2,10.2,5.2,10.2l14.1-4.4c0,0-6.1-5.6-6.1-23.2v-28.9h-17.5v27.7c0,9.6-4.3,15.7-8.4,15.7c-3.4,0-4.4-3.4-4.4-8.7 v-34.7L640.3,740.6z M374.3,752.6c1.3,0,3.5,0.5,4.5,0.9v12.8c0,9.3-3.6,17.6-8.2,17.6c-5.3,0-5.6-7.7-5.6-15.9 C365.1,759.2,367.1,752.6,374.3,752.6L374.3,752.6z M728.2,752.6c5.3,0,5.6,7.7,5.6,16c0,8.9-2,15.4-9.2,15.4 c-1.4,0-3.7-0.6-4.5-0.8v-11.8C720.1,761.5,723.4,752.6,728.2,752.6z" class="st0"/></g></g></svg>