<?xml version="1.0" encoding="UTF-8" standalone="no"?>
<!-- Created with Inkscape (http://www.inkscape.org/) -->

<svg
   xmlns:dc="http://purl.org/dc/elements/1.1/"
   xmlns:cc="http://creativecommons.org/ns#"
   xmlns:rdf="http://www.w3.org/1999/02/22-rdf-syntax-ns#"
   xmlns:svg="http://www.w3.org/2000/svg"
   xmlns="http://www.w3.org/2000/svg"
   xmlns:sodipodi="http://sodipodi.sourceforge.net/DTD/sodipodi-0.dtd"
   xmlns:inkscape="http://www.inkscape.org/namespaces/inkscape"
   width="58.358276mm"
   height="10.098264mm"
   viewBox="0 0 206.78129 35.781249"
   id="svg6595"
   version="1.1"
   inkscape:version="0.91 r13725"
   sodipodi:docname="hack_club_full_white.svg">
  <defs
     id="defs6597" />
  <sodipodi:namedview
     id="base"
     pagecolor="#ffffff"
     bordercolor="#666666"
     borderopacity="1.0"
     inkscape:pageopacity="0.0"
     inkscape:pageshadow="2"
     inkscape:zoom="1.979899"
     inkscape:cx="91.833908"
     inkscape:cy="-49.095549"
     inkscape:document-units="px"
     inkscape:current-layer="layer1"
     showgrid="false"
     fit-margin-top="0"
     fit-margin-left="0"
     fit-margin-right="0"
     fit-margin-bottom="0"
     inkscape:window-width="1076"
     inkscape:window-height="930"
     inkscape:window-x="2520"
     inkscape:window-y="1201"
     inkscape:window-maximized="0" />
  <metadata
     id="metadata6600">
    <rdf:RDF>
      <cc:Work
         rdf:about="">
        <dc:format>image/svg+xml</dc:format>
        <dc:type
           rdf:resource="http://purl.org/dc/dcmitype/StillImage" />
        <dc:title></dc:title>
      </cc:Work>
    </rdf:RDF>
  </metadata>
  <g
     inkscape:label="Layer 1"
     inkscape:groupmode="layer"
     id="layer1"
     transform="translate(-213.75221,-480.18586)">
    <path
       inkscape:connector-curvature="0"
       d="m 240.78351,480.18586 -7.875,1.375 0,1.46875 0,6.96875 0,5.75 -11.25,0 c 0.0367,-2.33632 0.023,-4.82717 0.0312,-7.0625 l 0,-8.46875 -7.9375,1.375 0,1.4375 0,7.0625 0,25.4375 7.90625,0 0,-13.90625 11.25,0 0,13.90625 7.875,0 0,-26.9375 0,-5.5625 z m 59.25,0.53125 -7.59375,1.3125 0,33.5 7.59375,0 0,-10.31696 c 0.01,0.002 0.0213,-0.002 0.0312,0 6.35289,10.4308 0.11916,0.23496 6.34375,10.31696 l 7.68398,0 -7.83256,-12.00389 7.30228,-12.11218 -7.40365,0 -6.125,10.01786 0,-4.43304 z m 64.15625,0 -7.59375,1.3125 0,27.5625 c 0,3.408 1.92775,6.125 6.34375,6.125 2.784,0 5.29,-0.818 6.25,-1.25 l -0.71875,-4.75 c -0.72,0.144 -1.67175,0.28125 -2.34375,0.28125 -1.44,0 -1.9375,-0.52651 -1.9375,-2.0625 z m 42.34375,0 -7.59375,1.3125 0,32.40625 c 0.528,0.192 5.5785,1.375 9.5625,1.375 7.15199,0 12.03125,-5.42277 12.03125,-12.71875 0,-7.24799 -2.95201,-12 -9,-12 -2.16,0 -3.8,0.87025 -5,2.40625 z m -62.40625,1.875 c -9.79199,0 -14.5,7.15776 -14.5,17.09375 0,10.27198 4.37876,16.125 14.21875,16.125 3.888,0 6.9695,-0.7465 8.9375,-1.5625 l -1.75,-5.375 c -1.776,0.72 -3.96275,1.34375 -6.21875,1.34375 -5.08799,0 -6.625,-4.53451 -6.625,-11.0625 0,-6.816 1.8095,-10.9375 5.9375,-10.9375 1.68,0 3.31775,0.59 5.09375,2.75 l 4.3125,-4.375 c -1.824,-2.064 -4.27026,-4 -9.40625,-4 z m -61.625,8.375 c -6.67199,0 -11.65625,4.5475 -11.65625,13.1875 0,7.05598 3.26976,11.8125 11.09375,11.8125 4.272,0 7.10825,-1.577 7.15625,-1.625 l -1.40625,-5.0625 c -0.144,0.048 -2.49525,0.96875 -4.03125,0.96875 -2.064,0 -4.75,-0.85826 -4.75,-6.90625 0,-6.096 2.50975,-6.71875 4.09375,-6.71875 1.296,0 2.01325,0.71299 2.78125,1.625 l 3.71875,-3.875 c -1.488,-2.016 -3.88,-3.40625 -7,-3.40625 z m -25.75,0.125 c -7.15199,0 -12.0625,5.43726 -12.0625,12.78125 0,7.19998 2.96201,11.9375 9.25,11.9375 3.456,0 5.53775,-1.7115 6.59375,-4.6875 0.576,3.168 2.3125,4.78125 2.3125,4.78125 l 6.09375,-1.90625 c 0,0 -2.65625,-2.44727 -2.65625,-10.03125 l 0,-11.46875 c -0.096,0 -5.54725,-1.40625 -9.53125,-1.40625 z m 115.21875,0.34375 0,16.03125 c 0,5.08798 1.89751,8.34375 6.9375,8.34375 3.36,0 6.47625,-1.3365 8.15625,-4.3125 0.672,2.87999 2.25,4.40625 2.25,4.40625 l 6.09375,-1.90625 c 0,0 -2.65625,-2.44727 -2.65625,-10.03125 l 0,-12.53125 -7.5625,0 0,12 c 0,4.176 -1.88025,6.78125 -3.65625,6.78125 -1.488,0 -1.90625,-1.49401 -1.90625,-3.75 l 0,-15.03125 z m -115.21875,5.21875 c 0.576,0 1.53675,0.21424 1.96875,0.40625 l 0,5.5625 c 0,4.032 -1.56325,7.625 -3.53125,7.625 -2.304,0 -2.4375,-3.323 -2.4375,-6.875 0,-3.88801 0.88,-6.71875 4,-6.71875 z m 153.28125,0 c 2.304,0 2.4375,3.33749 2.4375,6.9375 0,3.84 -0.84875,6.65625 -3.96875,6.65625 -0.624,0 -1.58475,-0.24775 -1.96875,-0.34375 l 0,-5.125 c 0,-4.27201 1.436,-8.125 3.5,-8.125 z"
       id="text3025-8-56"
       style="font-style:normal;font-weight:normal;font-size:40px;line-height:125%;font-family:Sans;letter-spacing:0px;word-spacing:0px;fill:#ffffff;fill-opacity:1;stroke:none" />
  </g>
</svg>
