<svg xmlns="http://www.w3.org/2000/svg" xmlns:svg="http://www.w3.org/2000/svg" xmlns:xlink="http://www.w3.org/1999/xlink" id="svg2" width="100%" height="100%" version="1.1" viewBox="0 0 223.8 124.633"><defs id="defs4"><linearGradient id="linearGradient3197"><stop style="stop-color:#0ff;stop-opacity:1" id="stop3199" offset="0"/><stop style="stop-color:#0ff;stop-opacity:1" id="stop3201" offset="1"/></linearGradient><linearGradient id="linearGradient4314"><stop id="stop4316" offset="0" stop-color="#ef381f"/><stop id="stop4318" offset="1" stop-color="#e6e83c"/></linearGradient><linearGradient id="linearGradient3763" x1="-40.426" x2="-40.426" y1="196.96" y2="160.3" gradientTransform="translate(154.02635,-85.098357)" gradientUnits="userSpaceOnUse" xlink:href="#linearGradient4314"/><linearGradient id="linearGradient3781" x1="119.35" x2="121.29" y1="-55.627" y2="-9.951" gradientTransform="translate(2.0904424e-4,81.113438)" gradientUnits="userSpaceOnUse" xlink:href="#linearGradient4314"/><filter id="filter3122" width="1" height="1" x="0" y="0" color-interpolation-filters="sRGB"><feColorMatrix id="feColorMatrix3124" in="SourceGraphic" result="result14" type="luminanceToAlpha"/><feComposite id="feComposite3126" in="SourceGraphic" in2="result14" operator="out" result="fbSourceGraphic"/><feBlend id="feBlend3128" in2="fbSourceGraphic" mode="normal" result="result15"/></filter><linearGradient id="linearGradient3781-8" x1="119.35" x2="121.29" y1="-55.627" y2="-9.951" gradientTransform="translate(0,70)" gradientUnits="userSpaceOnUse" xlink:href="#linearGradient4314-5"/><linearGradient id="linearGradient4314-5"><stop id="stop4316-3" offset="0" stop-color="#ef381f"/><stop id="stop4318-9" offset="1" stop-color="#e6e83c"/></linearGradient><linearGradient id="linearGradient3145" x1="119.35" x2="121.29" y1="-55.627" y2="-9.951" gradientTransform="translate(-13.409548,19.130787)" gradientUnits="userSpaceOnUse" xlink:href="#linearGradient4314-5"/><linearGradient id="linearGradient3973" x1="28.561" x2="31.783" y1="-33.577" y2="8.458" gradientUnits="userSpaceOnUse" xlink:href="#linearGradient4314"/><linearGradient id="linearGradient3975" x1="28.561" x2="31.783" y1="-33.577" y2="8.458" gradientTransform="translate(-7.4697643,24.75275)" gradientUnits="userSpaceOnUse" xlink:href="#linearGradient4314"/><linearGradient id="linearGradient3973-9" x1="28.561" x2="31.783" y1="-33.577" y2="8.458" gradientUnits="userSpaceOnUse" xlink:href="#linearGradient4314-3"/><linearGradient id="linearGradient4314-3"><stop id="stop4316-6" offset="0" stop-color="#ef381f"/><stop id="stop4318-4" offset="1" stop-color="#e6e83c"/></linearGradient><linearGradient id="linearGradient3975-8" x1="28.561" x2="31.783" y1="-33.577" y2="8.458" gradientTransform="translate(-7.4697643,24.75275)" gradientUnits="userSpaceOnUse" xlink:href="#linearGradient4314-3"/><linearGradient id="linearGradient3996"><stop id="stop3998" offset="0" stop-color="#ef381f"/><stop id="stop4000" offset="1" stop-color="#e6e83c"/></linearGradient><linearGradient id="linearGradient4004-6" x1="28.561" x2="31.783" y1="-33.577" y2="8.458" gradientTransform="translate(-7.4697643,24.75275)" gradientUnits="userSpaceOnUse" xlink:href="#linearGradient4314-3-5"/><linearGradient id="linearGradient4314-3-5"><stop id="stop4316-6-3" offset="0" stop-color="#ef381f"/><stop id="stop4318-4-4" offset="1" stop-color="#e6e83c"/></linearGradient><linearGradient id="linearGradient4054" x1="28.561" x2="31.783" y1="-33.577" y2="8.458" gradientTransform="translate(-17.915702,-48.665402)" gradientUnits="userSpaceOnUse" xlink:href="#linearGradient4314-3-5"/><linearGradient id="linearGradient3061" x1="28.561" x2="31.783" y1="-33.577" y2="8.458" gradientUnits="userSpaceOnUse" xlink:href="#linearGradient4314-3"/><linearGradient id="linearGradient3068" x1="29.182" x2="31.265" y1="-37.927" y2="11.773" gradientTransform="translate(14.083946,62.973786)" gradientUnits="userSpaceOnUse" xlink:href="#linearGradient4314-3"/></defs><metadata id="metadata7"/><path id="path2830" d="M -4.9557628e-6,124.63344 223.8,109.12714 223.8,19.506293 -4.9557628e-6,0 z" style="fill:#231f20;fill-rule:evenodd"/><path id="path2832" d="m 155.83021,95.719438 0.385,-0.81013 0.37625,-0.81637 0.37125,-0.82375 0.3625,-0.8295 0.35625,-0.8365 0.3475,-0.84325 0.34125,-0.85013 0.33375,-0.85637 0.325,-0.86425 0.31875,-0.87063 0.31,-0.878 0.3025,-0.88475 0.295,-0.8925 0.28625,-0.899 0.28,-0.90712 0.27125,-0.91413 0.2625,-0.92187 0.255,-0.92925 0.24625,-0.937 0.2375,-0.94425 0.23,-0.95262 0.22125,-0.96051 0.43625,-1.9815 1.0912,0 0.0288,4.9e-4 0.0763,5.1e-4 0.1325,5e-4 0.18,0 0.225,5e-4 0.265,4.9e-4 0.30375,0 0.34125,10e-4 0.3725,5e-4 0.4025,8.7e-4 0.4275,10e-4 0.45375,5e-4 0.4725,0.001 0.48875,10e-4 0.505,5e-4 0.51625,0.001 0.52375,5e-4 0.52875,10e-4 0.53125,0.001 0.53125,5e-4 0.5275,0.001 0.51875,8.7e-4 0.51125,0.001 0.49875,5e-4 0.48125,10e-4 0.4625,0.001 0.44125,0.001 0.41625,3.8e-4 0.3875,0.001 0.3575,5e-4 0.3225,5e-4 0.2875,5e-4 0.2625,0.001 0.25875,5e-4 0.2525,0.002 0.25,0.004 0.24375,0.005 0.2425,0.007 0.2375,0.0103 0.23625,0.0128 0.235,0.0176 0.23125,0.0215 0.23125,0.0267 0.22875,0.0327 0.22875,0.0395 0.22875,0.0465 0.22625,0.0541 0.22625,0.0635 0.22625,0.0737 0.2225,0.0825 0.22125,0.0933 0.22,0.104 0.21625,0.11575 0.2125,0.126 0.2075,0.13575 0.20625,0.14837 0.20125,0.15963 0.1975,0.169 0.1925,0.18012 0.19,0.191 0.18625,0.20213 0.18375,0.21187 0.18125,0.22275 0.19125,0.25 0.19875,0.29488 0.18125,0.32275 0.15,0.333 0.12375,0.34037 0.0975,0.34513 0.0725,0.34862 0.05,0.35063 0.0288,0.3525 0.01,0.35362 -0.007,0.353 -0.0225,0.3545 -0.0362,0.354 -0.05,0.3545 -0.0612,0.3545 -0.0713,0.3545 -0.0825,0.35488 -0.09,0.3555 -0.0975,0.3545 -0.105,0.3535 -0.1125,0.3535 -0.11625,0.35162 -0.12125,0.351 -0.12625,0.34875 -0.1275,0.34713 -0.13,0.34525 -0.1325,0.34125 -0.1325,0.33887 -0.1325,0.3345 -0.1325,0.331 -0.13,0.32575 -0.1275,0.32025 -0.1275,0.32175 -0.13375,0.32813 -0.14,0.32525 -0.14375,0.31687 -0.1475,0.30863 -0.15375,0.30075 -0.16,0.293 -0.165,0.28512 -0.17125,0.27788 -0.1775,0.271 -0.185,0.26312 -0.19125,0.25638 -0.1975,0.2485 -0.20625,0.24175 -0.2125,0.23437 -0.22,0.2275 -0.22875,0.22075 -0.235,0.21438 -0.2425,0.207 -0.25125,0.20062 -0.2575,0.19488 -0.265,0.1885 -0.27375,0.18312 -0.28,0.17813 -0.29,0.17337 -0.2975,0.1685 -0.30375,0.164 -0.31375,0.16063 -0.3225,0.15775 -0.0175,0.008 0.10125,0.0733 0.27625,0.21625 0.27125,0.23288 0.2675,0.2495 0.26375,0.26812 0.2525,0.28125 0.22625,0.2695 0.20875,0.26125 0.1975,0.26025 0.18875,0.25788 0.1775,0.25487 0.1675,0.25088 0.1,0.15675 0.35625,-0.61225 0.365,-0.6475 0.35625,-0.65275 0.3475,-0.65875 0.34,-0.6645 0.3325,-0.6705 0.32375,-0.67625 0.31625,-0.68113 0.3075,-0.687 0.30125,-0.69187 0.29125,-0.69775 0.285,-0.70363 0.2775,-0.7085 0.27,-0.71437 0.2625,-0.71925 0.255,-0.72463 0.2475,-0.7295 0.24125,-0.73487 0.23375,-0.74025 0.22625,-0.74413 0.21875,-0.7505 0.21375,-0.75387 0.205,-0.76025 0.19875,-0.76413 0.1925,-0.7695 0.185,-0.774 0.18,-0.77875 0.1725,-0.78275 0.16625,-0.78862 0.16,-0.79188 0.35625,-1.8434 23.049,0.0415 -0.5775,1.8795 -0.0713,0.225 -0.07,0.22412 -0.0713,0.22513 -0.0725,0.22512 -0.0725,0.22363 -0.0738,0.22462 -0.0737,0.22413 -0.075,0.22462 -0.0762,0.22363 -0.0763,0.22312 -0.0775,0.22363 -0.0775,0.22362 -0.0787,0.22313 -0.08,0.22312 -0.0787,0.22325 -0.0825,0.22313 -0.0812,0.22212 -0.0825,0.22263 -0.0825,0.22225 -0.0838,0.22262 -0.085,0.22163 -0.085,0.22225 -0.0863,0.22212 -0.0875,0.22163 -0.0875,0.22225 -0.0888,0.22012 -0.0888,0.22125 -0.09,0.22163 -0.09,0.22025 -0.0925,0.22125 -0.415,0.99262 -10.086,0.16113 -0.0475,0.18212 -0.0687,0.26175 -0.0713,0.26025 -0.0713,0.25975 -0.075,0.26025 -0.0763,0.25975 -0.0187,0.064 6.9088,-0.10987 -0.745,1.9321 -0.065,0.1665 -0.0675,0.17138 -0.0713,0.17725 -0.075,0.18212 -0.0763,0.18513 -0.08,0.18987 -0.0838,0.19388 -0.0863,0.19825 -0.0888,0.20112 -0.0925,0.20413 -0.095,0.2075 -0.0987,0.211 -0.1025,0.21237 -0.10375,0.21588 -0.1075,0.21675 -0.0788,0.15625 -0.0775,0.15087 -0.0763,0.14988 -0.0763,0.146 -0.075,0.14312 -0.0738,0.13913 -0.0737,0.13812 -0.0725,0.13388 -0.0712,0.13175 -0.0713,0.1285 -0.07,0.126 -0.0688,0.122 -0.0687,0.11962 -0.0663,0.11625 -0.065,0.11325 -0.42,0.71925 -6.685,0.229 -0.0487,0.084 -0.14125,0.23875 -0.14375,0.23775 -0.145,0.23688 -0.14875,0.23637 -0.15,0.23525 9.1362,-0.31287 -1.5475,2.2534 -0.11125,0.16063 -0.11,0.16012 -0.1125,0.15925 -0.11125,0.16063 -0.11375,0.15912 -0.1125,0.15975 -0.11375,0.15963 -0.11375,0.15912 -0.11625,0.15975 -0.115,0.15863 -0.115,0.15925 -0.11625,0.15862 -0.1175,0.15875 -0.11625,0.15913 -0.11875,0.15875 -0.11875,0.15812 -0.11875,0.15825 -0.12,0.15913 -0.12,0.15725 -0.12,0.15825 -0.12125,0.15825 -0.1225,0.157622 -0.12125,0.15775 -0.12375,0.15725 -0.12375,0.15813 -0.12375,0.15725 -0.12375,0.15725 -0.125,0.15725 -0.125,0.15675 -0.12625,0.15625 -0.47875,0.59425 -15.142,0.97262 0,5e-4 -14.502,0.93162 1.1788,-2.0712 0.009,-0.0143 0.0163,-0.0298 0.0225,-0.043 0.0288,-0.0528 0.0337,-0.0669 0.04,-0.0786 0.0425,-0.0879 0.045,-0.0976 0.0487,-0.10738 0.0513,-0.11575 0.0525,-0.12262 0.0512,-0.12888 0.0525,-0.13475 0.05,-0.13962 0.0487,-0.14363 0.0463,-0.146 0.0425,-0.14837 0.04,-0.149002 0.035,-0.14938 0.03,-0.14837 0.025,-0.147 0.0188,-0.14363 0.0137,-0.13813 0.006,-0.13287 10e-4,-0.12687 -0.006,-0.11963 -0.0112,-0.10988 -0.0163,-0.10062 -0.0225,-0.0927 -0.025,-0.082 -0.0337,-0.085 -0.0513,-0.105 -0.06,-0.11525 -0.0675,-0.11375 -0.0712,-0.11125 -0.075,-0.10887 -0.08,-0.1085 -0.0838,-0.10588 -0.0875,-0.10163 -0.0888,-0.0996 -0.0925,-0.0971 -0.0937,-0.0933 -0.08,-0.0762 -0.05,0.007 -0.195,0.0249 -0.18625,0.023 -0.18,0.0215 -0.16875,0.0195 -0.16125,0.0181 -0.15125,0.017 -0.0725,0.008 -0.0163,0.0292 -0.115,0.21638 -0.11625,0.21625 -0.1175,0.21587 -0.1175,0.21676 -0.11875,0.21587 -0.12,0.21625 -0.12125,0.21637 -0.12125,0.21575 -0.1225,0.21688 -0.125,0.21625 -0.12375,0.21538 -0.125,0.21674 -0.1275,0.215882 -0.1275,0.21625 -0.12875,0.21638 -0.13,0.21674 -0.13125,0.21538 -0.13125,0.21625 -0.13125,0.21587 -0.13375,0.21625 -0.135,0.21638 -0.135,0.21575 -0.1375,0.21588 -0.1375,0.21625 -0.13875,0.21637 -0.14,0.21575 -0.14,0.21537 -0.14125,0.21576 -0.4925,0.74612 -10.846,0.69675 1.6812,-2.8466 0.43875,-0.76075 0.4325,-0.76662 0.42625,-0.772882 0.41875,-0.77787 0.4125,-0.78512 0.40625,-0.79151 0.39875,-0.79737 0.39125,-0.80325 z m -103.010001,2.7221 -8.8e-4,0.006 -0.001,0.005 -0.002,0.0132 -0.0141,0.0493 -0.004,0.0176 -0.009,0.0346 -0.0156,0.0547 -0.28863,0.86513 -3.1186,0.13725 -0.0425,0.1255 -0.0815,0.24125 -0.0826,0.241122 -0.0825,0.24075 -0.083,0.24025 -0.0195,0.0556 1.7485,-0.12063 1.5845,-0.12149 -0.32962,0.94037 -0.3115,0.96925 -0.0122,0.0356 -0.0131,0.0415 -0.0122,0.0353 -0.0102,0.0331 -0.0116,0.0348 -0.0122,0.037 -0.002,0.005 -5e-4,0.002 -0.002,0.004 -0.001,0.006 -0.003,0.0113 -5e-4,0 -0.0215,0.0659 -0.0122,0.0361 -0.006,0.0195 -0.005,0.0142 -0.0165,0.0488 0,5e-4 -5e-4,0.002 -0.009,0.0264 -0.004,0.0136 -0.004,0.0128 -0.004,0.0136 -0.0161,0.0464 -0.38912,1.1206 -0.0254,0.0713 -0.0489,0.13488 -0.0234,0.0649 -0.0245,0.0669 -0.0249,0.0689 -0.0249,0.0679 -0.024,0.0635 -0.01,0.0274 -0.002,0.004 -0.005,0.0131 -0.20063,0.5005 -0.1015,0.2725 -0.6465,0.0684 -2.8335,0.20062 -0.004,0.009 -0.10413,0.251 -0.104,0.2495 -0.10587,0.2505 -0.1065,0.2505 -0.10738,0.249 -0.0396,0.0923 3.4854,-0.099 -0.88325,1.9824 -0.0542,0.12012 -0.0536,0.11913 -0.0548,0.12012 -0.0546,0.11913 -0.0553,0.12012 -0.0551,0.11963 -0.0553,0.11862 -0.0546,0.11913 -0.0561,0.11912 -0.0566,0.12063 -0.0563,0.11875 -0.0566,0.11912 -0.49213,1.0312 -9.1426,0.6 1.1748,-2.3832 0.19,-0.39262 0.188,-0.39688 0.188,-0.40337 0.186,-0.40675 0.1855,-0.41213 0.18412,-0.4155 0.18363,-0.42087 0.18212,-0.42438 0.18163,-0.42862 0.18062,-0.43263 0.17975,-0.437 0.17825,-0.44 0.17775,-0.44437 0.17675,-0.44775 0.17625,-0.45163 0.17575,-0.45412 0.17388,-0.4575 0.17375,-0.46138 0.17337,-0.46437 0.17188,-0.46638 0.17187,-0.46962 0.17088,-0.47275 0.17,-0.475002 0.16987,-0.47813 0.16888,-0.48 0.169,-0.48187 0.168,-0.48488 0.168,-0.48725 0.16687,-0.48838 0.1665,-0.49012 0.45313,-1.3448 3.3888,-0.0796 4.5044,-0.10688 -0.32662,1.5976 -0.004,0.019 -0.004,0.0176 -0.003,0.0151 -0.004,0.018 -0.0122,0.0581 -0.005,0.0235 -0.006,0.0308 -0.0131,0.064 -0.0108,0.0497 -0.002,0.009 -0.006,0.0361 -0.001,0.004 -10e-4,0.004 -10e-4,0.004 -0.001,0.005 -10e-4,0.004 -0.002,0.0132 -10e-4,0.005 -5e-4,0.004 -0.007,0.0234 -5e-4,0.002 -0.002,0.0103 -0.004,0.018 -0.004,0.0176 -0.003,0.0176 -0.006,0.0277 -0.002,0.009 -0.009,0.0482 -0.008,0.0264 0,0.002 -10e-4,0.006 -0.007,0.0336 -0.0128,0.0558 -0.0118,0.0526 -0.0121,0.0532 -0.0113,0.0528 -0.004,0.02 0,0.0303 -0.0337,0.12113 -5e-4,0.004 -0.002,0.004 -3.8e-4,0.004 -0.008,0.0298 -0.006,0.0254 -0.002,0.0122 -0.007,0.0302 -5e-4,0.002 -0.0151,0.063 -0.0166,0.0747 -0.009,0.0337 -0.006,0.0283 -0.0259,0.11237 -0.0239,0.1005 -0.0143,0.0596 -0.002,0.0146 -0.0136,0.0503 -0.0127,0.0548 -0.007,0.0297 -8.7e-4,0.003 -0.0225,0.0923 -0.006,0.0269 -0.0108,0.0415 -0.003,0.018 -0.005,0.0166 -5e-4,0.005 -0.004,0.0133 -0.002,0.007 -0.008,0.0312 -0.003,0.0132 -10e-4,0.002 -0.005,0.0244 -0.005,0.0166 -0.004,0.0186 -5e-4,0.002 -10e-4,0.003 -0.002,0.009 -0.002,0.0113 -10e-4,0.002 -10e-4,0.005 -0.008,0.0303 -10e-4,0.004 -0.004,0.018 -0.002,0.0117 -8.7e-4,0.002 -5e-4,0.004 -0.004,0.0131 z m -22.0441,-0.242 -0.0528,0.20112 -0.0523,0.19438 -0.0517,0.18837 -0.0517,0.18075 -0.0512,0.17475 -0.0503,0.167 -0.0504,0.16263 -0.31975,1.004402 -2.7412,0.12063 -0.086,0.30962 -0.11813,0.40913 -0.12162,0.40825 -0.12538,0.40812 -0.1295,0.40775 -0.13225,0.40525 -0.13575,0.40525 -0.13962,0.40488 -0.14263,0.40425 -0.1465,0.40237 -0.14887,0.40225 -0.15288,0.40238 -0.15575,0.40087 -0.15912,0.39988 -0.16163,0.3995 -0.16512,0.39887 -0.1675,0.3985 -0.17138,0.39688 -0.17325,0.397 -0.17637,0.396 -0.17913,0.396 -0.18162,0.3945 -0.18463,0.39412 -0.187,0.394 -0.1895,0.39313 -0.19187,0.392 -0.19425,0.39212 -0.19688,0.39163 -0.19912,0.39112 -0.53275,1.0308 -2.6762,0.17575 -2.7632,0 1.1695,-2.2539 0.19337,-0.37938 0.19188,-0.37937 0.189,-0.37988 0.187,-0.38037 0.1845,-0.38038 0.18112,-0.38037 0.17925,-0.38138 0.17675,-0.38087 0.17338,-0.38138 0.17087,-0.38137 0.168,-0.38225 0.165,-0.38238 0.16213,-0.38225 0.15912,-0.38287 0.15675,-0.38375 0.15338,-0.38338 0.14987,-0.38375 0.147,-0.38325 0.1435,-0.38475 0.14063,-0.38525 0.13725,-0.38487 0.13325,-0.38575 0.13037,-0.38613 0.128,-0.38625 0.1235,-0.38675 0.11963,-0.38675 0.0796,-0.26462 -3.4834,0.15337 2.0175,-5.547902 10.63,-0.2515 -0.25487,1.6596 -0.0288,0.16563 -0.0327,0.17425 -0.0366,0.18362 -0.042,0.19338 -0.0464,0.205 -0.0523,0.21637 -0.0571,0.22563 z m 0.81588,-1.0714 0.1275,-0.50137 0.3555,-1.4684 5.1186,-0.1215 -0.4365,1.835 -0.0542,0.21875 -0.0542,0.21913 -0.0556,0.21837 -0.0561,0.21825 -0.0576,0.21875 -0.0591,0.21775 -0.0595,0.21725 -0.0606,0.21725 -0.0615,0.21788 -0.063,0.21912 -0.0639,0.21638 -0.065,0.21675 -0.0659,0.21737 -0.066,0.21675 -0.0674,0.216252 -0.0684,0.21638 -0.0693,0.21575 -0.0709,0.21687 -0.0713,0.21576 -0.0717,0.21587 -0.0733,0.21625 -0.0743,0.21537 -0.0205,0.0596 1.4258,-0.0982 0.0127,-0.0346 0.0742,-0.20213 0.0727,-0.20162 0.0733,-0.20175 0.0727,-0.20263 0.0723,-0.20212 0.0717,-0.20163 0.0708,-0.20213 0.0709,-0.203122 0.0708,-0.20225 0.0699,-0.20262 0.0697,-0.20263 0.0689,-0.20312 0.0694,-0.20363 0.0679,-0.20213 0.0674,-0.20312 0.0674,-0.20362 0.0674,-0.20363 0.0664,-0.20312 0.066,-0.20313 0.0649,-0.204 0.0655,-0.20413 0.0644,-0.20412 0.064,-0.20362 0.0635,-0.20513 0.0635,-0.2045 0.0625,-0.20413 0.062,-0.20412 0.329,-1.0971 5.1436,-0.12162 -0.58687,2.1284 -0.13288,0.46824 -0.13575,0.46838 -0.13912,0.46725 -0.14163,0.46725 -0.1455,0.46637 -0.1485,0.46675 -0.15125,0.465882 -0.15387,0.46575 -0.15775,0.46538 -0.16013,0.46624 -0.1635,0.46488 -0.16562,0.46437 -0.16938,0.46488 -0.17187,0.46475 -0.17488,0.46487 -0.17762,0.46338 -0.18025,0.46387 -0.18313,0.46488 -0.186,0.46388 -0.1885,0.46387 -0.19137,0.46388 -0.19388,0.46337 -0.19725,0.46387 -0.19875,0.46388 -0.20212,0.46375 -0.20413,0.46438 -0.2075,0.46387 -0.209,0.46388 -0.21187,0.46487 -0.21438,0.46438 -0.53662,1.1494 -5.4541,0.35788 0.94588,-2.122 0.08,-0.18113 0.0801,-0.18125 0.08,-0.18162 0.0801,-0.18113 0.0791,-0.18162 0.0796,-0.18163 0.079,-0.18212 0.0791,-0.18213 0.0786,-0.18125 0.0786,-0.18162 0.0781,-0.18163 0.0776,-0.18112 0.0776,-0.18213 0.0776,-0.18162 0.0767,-0.18263 0.0776,-0.18212 0.0766,-0.18113 0.0761,-0.18212 0.0757,-0.18213 0.0766,-0.18175 0.044,-0.10637 -1.4312,0.1015 -0.0111,0.0264 -0.0816,0.18663 -0.0835,0.18787 -0.083,0.18713 -0.0825,0.1855 -0.084,0.1865 -0.0845,0.1865 -0.0854,0.187 -0.0855,0.18612 -0.0854,0.186 -0.087,0.1865 -0.0864,0.186 -0.0874,0.18513 -0.087,0.185 -0.0884,0.18612 -0.0884,0.186 -0.0893,0.1855 -0.0889,0.18563 -0.0909,0.185 -0.0899,0.18512 -0.0902,0.1845 -0.0909,0.18463 -0.0918,0.1845 -0.0919,0.18562 -0.0917,0.1845 -0.0923,0.18363 -0.0932,0.18462 -0.0934,0.185 -0.42475,0.833 -5.4404,0.357 1.228,-2.4321 0.21387,-0.42825 0.21288,-0.42975 0.21087,-0.43213 0.2105,-0.435 0.208,-0.43562 0.206,-0.43838 0.20563,-0.441 0.20262,-0.44337 0.20025,-0.44525 0.19825,-0.44725 0.19625,-0.45025 0.19388,-0.45213 0.19087,-0.45462 0.188,-0.457 0.185,-0.4605 0.18313,-0.46188 0.17925,-0.46487 0.17625,-0.46725 0.17237,-0.47025 0.16888,-0.47213 0.16562,-0.47562 0.16213,-0.478 0.15762,-0.48138 0.15388,-0.484002 0.14987,-0.48675 0.1455,-0.48925 0.14113,-0.49275 0.13675,-0.496 0.13175,-0.49812 z m 21.821,-22.033 0.27875,0.28562 0.24713,0.31488 0.21237,0.34137 0.17525,0.36525 0.13425,0.38525 0.0934,0.40188 0.0488,0.4155 0.004,0.42525 -0.04,0.3955 -0.0336,0.22225 -0.0299,0.18987 -0.0307,0.19 -0.0312,0.18888 -0.0308,0.1895 -0.0317,0.1895 -0.0326,0.18987 -0.0327,0.1895 -0.0333,0.1885 -0.0346,0.18988 -0.0348,0.1895 -0.0346,0.18887 -0.0356,0.189 -0.0361,0.189 -0.0361,0.19038 -0.0376,0.188 -0.0371,0.1885 -0.0385,0.1895 -0.0386,0.18887 -0.039,0.189 -0.0396,0.1885 -0.04,0.189 -0.0405,0.18888 -0.0411,0.1885 -0.041,0.1885 -0.0425,0.1885 -0.0424,0.1885 -0.0425,0.18887 -0.0435,0.188 -0.0439,0.188 -0.0445,0.189 -0.0449,0.188 -0.0455,0.1885 -0.0464,0.18988 -0.0464,0.1905 -0.0474,0.18837 -0.0474,0.1895 -0.0487,0.18988 -0.0494,0.1895 -0.0487,0.188 -0.0494,0.189 -0.0503,0.18887 -0.0504,0.1885 -0.0513,0.1885 -0.0512,0.189 -0.0523,0.1885 -0.0522,0.18888 -0.0528,0.187 -0.0523,0.1875 -0.0536,0.1895 -0.0542,0.1885 -0.0542,0.187 -0.0541,0.1875 -0.0547,0.1875 -0.0551,0.1885 -0.0556,0.187 -0.0553,0.187 -0.0566,0.188 -0.0561,0.187 -0.0566,0.187 -0.0566,0.187 -0.0571,0.1875 -0.0581,0.187 -0.0664,0.21437 -0.13525,0.3775 -0.18125,0.38763 -0.21087,0.36725 -0.23788,0.34712 -0.26062,0.32663 -0.28475,0.30625 -0.30325,0.28312 -0.32175,0.26075 -0.33738,0.23775 -0.354,0.21338 -0.36812,0.1875 -0.38038,0.15925 -0.39312,0.12987 -0.40525,0.0966 -0.415,0.0611 -0.39013,0.02 -7.3335,0 -0.38975,-0.0205 -0.41212,-0.0669 -0.39638,-0.11388 -0.377,-0.16012 -0.35112,-0.20463 -0.32025,-0.248 -0.28325,-0.28612 -0.24313,-0.32075 -0.19775,-0.34775 -0.15337,-0.36863 -0.10688,-0.38525 -0.062,-0.397 -0.0176,-0.40325 0.0249,-0.40725 0.0665,-0.40825 0.0991,-0.38087 0.0654,-0.21188 0.0561,-0.18362 0.0561,-0.1835 0.0558,-0.18363 0.0556,-0.18362 0.0553,-0.184 0.0546,-0.18263 0.0547,-0.18412 0.0551,-0.18413 0.0532,-0.18262 0.063,-0.21525 0.0966,-0.3345 0.0523,-0.18313 0.0523,-0.18312 0.0512,-0.18313 0.0517,-0.1835 0.0508,-0.18312 0.0504,-0.18213 0.0493,-0.18362 0.0499,-0.18313 0.0487,-0.18262 0.0489,-0.18313 0.0918,-0.3515 0.0514,-0.19775 0.0464,-0.18212 0.0459,-0.18313 0.0459,-0.18362 0.0449,-0.18213 0.0445,-0.18212 0.0439,-0.18413 0.044,-0.1825 0.0425,-0.18212 0.0425,-0.18175 0.042,-0.18213 0.042,-0.18262 0.0415,-0.18213 0.0405,-0.18212 0.04,-0.183 0.04,-0.18225 0.0386,-0.18213 0.0391,-0.18212 0.038,-0.18213 0.0386,-0.183 0.0366,-0.18212 0.0405,-0.20125 0.0689,-0.34663 0.0351,-0.18212 0.0346,-0.18263 0.0347,-0.18262 0.0336,-0.18213 0.0337,-0.18162 0.0323,-0.18263 0.0321,-0.18262 0.0322,-0.18313 0.0312,-0.18262 0.0303,-0.18163 0.0299,-0.18212 0.0298,-0.18263 0.0288,-0.18212 0.0284,-0.18163 0.0327,-0.21337 0.0751,-0.3785 0.11675,-0.3955 0.14937,-0.37938 0.17925,-0.36175 0.2085,-0.34425 0.23438,-0.32375 0.25975,-0.30225 0.28362,-0.28025 0.30625,-0.25637 0.32813,-0.2295 0.34762,-0.20163 0.36663,-0.17137 0.38437,-0.13775 0.39938,-0.102 0.41312,-0.064 0.39013,-0.02 7.3384,0 0.39013,0.0205 0.41312,0.0649 0.39738,0.1075 0.37937,0.1465 0.35988,0.1845 0.336,0.22175 0.30812,0.25488 z m -9.6808,9.1786 -0.0551,0.232 -0.0556,0.23288 -0.0571,0.23287 -0.0576,0.23438 -0.0596,0.233 -0.0591,0.23187 -0.0595,0.2325 -0.061,0.23288 -0.0616,0.23137 -0.0615,0.231 -0.0625,0.2315 -0.063,0.23138 -0.0634,0.231 -0.0635,0.23087 -0.0645,0.23 -0.0439,0.15775 3.3471,0 0.042,-0.002 0.018,-0.003 0.0259,-0.006 0.0343,-0.0112 0.04,-0.017 0.0425,-0.022 0.044,-0.0269 0.0454,-0.0333 0.0434,-0.0361 0.0396,-0.0375 0.0351,-0.0391 0.0298,-0.039 0.0245,-0.0381 0.018,-0.0323 0.0122,-0.0279 0.0176,-0.0517 0.0556,-0.19825 0.0635,-0.2255 0.063,-0.22513 0.0615,-0.22612 0.062,-0.2255 0.061,-0.22513 0.0605,-0.22562 0.0596,-0.22563 0.0591,-0.2255 0.0585,-0.22562 0.0576,-0.22513 0.0571,-0.2255 0.0567,-0.22562 0.0561,-0.22512 0.0551,-0.22413 0.0542,-0.226 0.0541,-0.22512 0.0522,-0.22413 0.0523,-0.22413 0.0517,-0.22562 0.0504,-0.22463 0.0498,-0.22462 0.0499,-0.2245 0.0487,-0.22563 0.0479,-0.22512 0.0474,-0.22513 0.0469,-0.2255 0.0454,-0.22562 0.0464,-0.22513 0.044,-0.22562 0.0444,-0.226 0.006,-0.0298 -3.5195,0 -0.0381,0.001 -0.01,0.002 -0.0156,0.004 -0.0195,0.007 -0.024,0.0108 -0.0267,0.0156 -0.0289,0.0185 -0.0283,0.0225 -0.0269,0.0254 -0.0259,0.0284 -0.0235,0.0298 -0.0185,0.0279 -0.0146,0.0267 -0.0113,0.0259 -0.008,0.022 -0.0112,0.0494 -0.0385,0.20063 -0.0459,0.23387 -0.046,0.233 -0.0473,0.23238 -0.0469,0.23337 -0.0494,0.23288 -0.0489,0.2325 -0.0498,0.23187 -0.0498,0.2325 -0.0519,0.23188 -0.0513,0.23237 -0.0527,0.2325 -0.0531,0.23138 -0.0532,0.232 -0.0547,0.23187 z m -4.976,-5.6742 -0.0151,0.13575 -0.0161,0.13675 -0.0161,0.13713 -0.0161,0.13825 -0.0166,0.13525 -0.0161,0.13662 -0.0175,0.13775 -0.0166,0.13675 -0.15925,1.2568 -3.7808,0 -0.0205,0.0826 -0.0541,0.21237 -0.0542,0.21238 -0.0551,0.21187 -0.0547,0.2115 -0.0551,0.21238 -0.0557,0.21287 -0.0566,0.21238 -0.0566,0.2125 -0.0571,0.21287 -0.0576,0.21288 -0.0581,0.21187 -0.0581,0.21238 -0.0595,0.21287 -0.0601,0.21388 -0.0605,0.21287 -0.0605,0.213 -0.0615,0.21288 -0.0625,0.21337 -0.0625,0.21188 -0.063,0.21337 -0.0645,0.21388 -0.0645,0.21287 -0.0654,0.21238 -0.0659,0.21337 -0.0674,0.21388 -0.0679,0.2125 -0.0679,0.21237 -0.0689,0.21438 -0.0709,0.21425 -0.0703,0.2135 -0.0713,0.21375 -0.0719,0.21337 -0.0727,0.2135 -0.0727,0.21338 -0.0737,0.21237 -0.0736,0.21288 -0.0742,0.21337 -0.0753,0.21238 -0.0756,0.21237 -0.0753,0.2115 -0.0766,0.21288 -0.0766,0.21237 -0.0771,0.2105 -0.0768,0.21138 -0.0776,0.2115 -0.0781,0.21187 -0.0786,0.21088 -0.0781,0.211 -0.0791,0.21087 -0.079,0.212 -0.0796,0.21038 -0.0791,0.21 -0.0801,0.21137 -0.08,0.2115 -0.0801,0.20988 -0.08,0.21 -0.0811,0.2115 -0.0805,0.21037 -0.397,1.0322 -6.5991,0 0.751,-1.9511 0.0795,-0.209 0.0801,-0.2085 0.0796,-0.209 0.0795,-0.209 0.0791,-0.208 0.0786,-0.208 0.0791,-0.2095 0.0781,-0.208 0.0786,-0.208 0.0776,-0.208 0.0776,-0.2085 0.0771,-0.2075 0.0763,-0.20713 0.0761,-0.208 0.0756,-0.208 0.0757,-0.2085 0.0752,-0.2065 0.0746,-0.207 0.0738,-0.2075 0.0738,-0.20762 0.0733,-0.2075 0.0751,-0.21525 0.14062,-0.40575 0.0709,-0.20713 0.0697,-0.207 0.0699,-0.207 0.0694,-0.207 0.0679,-0.20712 0.0683,-0.207 0.067,-0.207 0.0659,-0.20613 0.0659,-0.2055 0.064,-0.20462 0.064,-0.205 0.063,-0.20613 0.0625,-0.206 0.062,-0.20562 0.11613,-0.39263 0.0665,-0.227 0.059,-0.206 0.0591,-0.20762 0.0591,-0.2065 0.0576,-0.2065 0.0576,-0.207 0.0571,-0.20813 0.0571,-0.2075 0.0561,-0.207 0.0556,-0.2075 0.0556,-0.208 0.0553,-0.208 0.0546,-0.2075 0.0543,-0.20762 0.0532,-0.20888 0.02,-0.0772 -5.0391,0 0.19875,-1.5761 0.0166,-0.13325 0.0166,-0.13138 0.0156,-0.13337 0.0161,-0.13375 0.0161,-0.13325 0.0151,-0.13188 0.0151,-0.13425 0.0151,-0.13425 0.0151,-0.13237 0.0146,-0.13138 0.0146,-0.13375 0.0142,-0.13325 0.0141,-0.13337 0.0141,-0.13275 0.0138,-0.13338 0.0136,-0.13475 0.0131,-0.13237 0.0132,-0.13175 0.0127,-0.13388 0.0131,-0.13375 0.0127,-0.13275 0.0121,-0.13187 0.0123,-0.13425 0.0117,-0.13425 0.0116,-0.13238 0.0117,-0.13237 0.0113,-0.13325 0.0117,-0.13288 0.021,-0.266 0.1025,-1.3165 15.309,0 -0.11875,1.5191 -0.0108,0.13812 -0.0116,0.13725 -0.0112,0.13713 -0.0118,0.13675 -0.0117,0.13775 -0.0126,0.13712 -0.0123,0.13675 -0.0126,0.13725 -0.0127,0.13675 -0.0131,0.13713 -0.0132,0.13675 -0.0136,0.13675 -0.0137,0.13712 -0.0136,0.13825 -0.0141,0.13675 -0.0142,0.13525 -0.0141,0.13663 -0.0151,0.13775 -0.0146,0.13675 -0.0156,0.13712 -0.0151,0.13675 -0.0156,0.13675 z m 71.440001,23.609002 0.29737,-0.67875 0.291,-0.67825 0.28375,-0.67913 0.27588,-0.678752 0.269,-0.67775 0.26175,-0.67825 0.25487,-0.67812 0.24713,-0.67825 0.24012,-0.67775 0.233,-0.67725 0.2255,-0.67825 0.21825,-0.67725 0.2115,-0.67725 0.20413,-0.67725 0.19675,-0.67775 0.18987,-0.67675 0.18263,-0.67725 0.17487,-0.67675 0.168,-0.67675 0.16113,-0.67725 0.15375,-0.67625 0.1465,-0.67675 0.13912,-0.67625 0.13238,-0.67675 0.0961,-0.5195 -6.2216,0.10737 0.66312,-1.9872 0.0859,-0.26475 0.085,-0.26462 0.083,-0.26513 0.0805,-0.26412 0.0796,-0.26513 0.0776,-0.26462 0.0747,-0.26475 0.0743,-0.26513 0.0717,-0.26412 0.0703,-0.26463 0.0684,-0.26412 0.0669,-0.26475 0.0645,-0.26463 0.063,-0.26462 0.0615,-0.26413 0.0591,-0.26475 0.0581,-0.26412 0.0551,-0.26463 0.0546,-0.26412 0.0523,-0.26425 0.0504,-0.26413 0.0484,-0.26312 0.0469,-0.26513 0.0459,-0.26375 0.0429,-0.26412 0.0415,-0.26413 0.0396,-0.26425 0.0381,-0.26362 0.0361,-0.26413 0.0346,-0.26375 0.17138,-1.3955 23.803,0.043 -0.2875,1.75 -0.045,0.26563 -0.045,0.26562 -0.0488,0.26613 -0.0487,0.26662 -0.05,0.26613 -0.0513,0.2665 -0.0537,0.26662 -0.055,0.26713 -0.0563,0.26712 -0.0588,0.26663 -0.06,0.2675 -0.0613,0.26762 -0.0637,0.2675 -0.065,0.26813 -0.0662,0.268 -0.07,0.26862 -0.07,0.2685 -0.0738,0.26813 -0.075,0.2685 -0.0775,0.26962 -0.0787,0.2685 -0.0813,0.2685 -0.0837,0.27013 -0.0863,0.269 -0.0888,0.269 -0.0913,0.26962 -0.0925,0.2695 -0.0962,0.27 -0.0987,0.27 -0.1,0.27 -0.4125,1.0722 -4.9712,0.086 -0.1225,0.46975 -0.19125,0.71088 -0.19625,0.709 -0.20125,0.708 -0.2075,0.70612 -0.215,0.7045 -0.21875,0.70313 -0.225,0.70212 -0.23,0.69975 -0.23875,0.69875 -0.2425,0.69675 -0.25,0.69538 -0.255,0.69337 -0.2625,0.69188 -0.26875,0.68987 -0.275,0.6885 -0.2825,0.6865 -0.2875,0.68513 -0.29625,0.68262 -0.30125,0.68113 -0.31,0.67912 -0.315,0.677752 -0.3225,0.67488 -0.33,0.67337 -0.3375,0.67138 -0.345,0.66937 -0.35125,0.667 -0.36,0.6655 -0.36625,0.66363 -0.375,0.66062 -0.7225,1.2451 -11.394,0.73187 1.3155,-2.6719 0.32663,-0.67863 0.31987,-0.67925 0.3125,-0.67912 0.30513,-0.67875 z m -51.985001,-17.504002 0.17338,-1.1416 0.15962,-1.1499 0.1475,-1.1592 0.13475,-1.168 0.12213,-1.1768 0.10987,-1.185 0.0976,-1.1939 0.16987,-2.4029 23.187,0.0415 -0.19812,1.7022 -0.0333,0.27675 -0.0346,0.27588 -0.0352,0.2755 -0.0366,0.27587 -0.0375,0.27638 -0.0381,0.27637 -0.04,0.27538 -0.0401,0.27537 -0.042,0.27688 -0.0425,0.27587 -0.0439,0.27638 -0.0445,0.27587 -0.0459,0.27588 -0.0469,0.27637 -0.0482,0.27538 -0.0484,0.27637 -0.0508,0.27638 -0.0514,0.27637 -0.0522,0.27625 -0.0531,0.2755 -0.0547,0.27638 -0.0556,0.27675 -0.0566,0.27587 -0.0581,0.27588 -0.0591,0.27637 -0.06,0.27688 -0.0615,0.27637 -0.0625,0.27588 -0.064,0.27637 -0.065,0.27638 -0.2915,1.2188 -9.5849,0.37262 -0.025,0.17225 -0.0267,0.18313 -0.0274,0.18462 -0.0284,0.1855 -0.0288,0.187 -0.0299,0.1875 -0.0302,0.1875 -0.0308,0.188 -0.0317,0.18851 -0.0323,0.1875 -0.0321,0.18849 -0.0337,0.18851 -0.0341,0.18937 -0.0348,0.1875 -0.0351,0.1875 -0.0361,0.187 -0.0366,0.187 -0.003,0.0161 9.1732,-0.13126 -0.66938,1.9653 -0.0845,0.24562 -0.0864,0.24612 -0.0865,0.24563 -0.0879,0.246 -0.0894,0.24612 -0.0902,0.24613 -0.0914,0.24563 -0.0917,0.24512 -0.0927,0.246 -0.0948,0.24563 -0.0958,0.24612 -0.0956,0.24563 -0.0983,0.24562 -0.0981,0.247 -0.0996,0.24463 -0.1005,0.24512 -0.10213,0.24613 -0.1025,0.24562 -0.104,0.24613 -0.105,0.246 -0.10637,0.24512 -0.1075,0.24713 -0.10888,0.24512 -0.10887,0.24513 -0.11088,0.24562 -0.11175,0.2465 -0.11325,0.24563 -0.11337,0.24512 -0.11563,0.24563 -0.11625,0.247 -0.4405,0.918 -8.414,0.56837 -0.11962,0.2925 -0.14363,0.348132 -0.146,0.34762 -0.14737,0.34725 -0.1485,0.34763 -0.15038,0.34612 -0.15137,0.34625 -0.15325,0.34613 -0.15488,0.34625 -0.15575,0.34575 -0.15762,0.34462 -0.15925,0.34525 -0.16013,0.34475 -0.16112,0.34425 -0.16263,0.34375 -0.16362,0.34425 -0.165,0.34425 -0.1665,0.34275 -0.167,0.34325 -0.16888,0.34325 -0.1695,0.34275 -0.17087,0.34238 -0.17088,0.34175 -0.17287,0.34225 -0.17338,0.34225 -0.17475,0.34137 -0.17537,0.34125 -0.17625,0.34088 -0.17725,0.34175 -0.51163,0.979 -12.962,0.83262 1.6211,-2.9674 0.48487,-0.92425 0.47063,-0.93463 0.45612,-0.94437 0.44288,-0.954 0.42775,-0.96388 0.4135,-0.97312 0.4,-0.984 0.38612,-0.99263 0.37213,-1.002402 0.35787,-1.0122 0.34475,-1.0215 0.3315,-1.0312 0.317,-1.0405 0.30363,-1.0504 0.2905,-1.059 0.27787,-1.0694 0.26325,-1.0771 0.25088,-1.0869 0.23737,-1.0968 0.22463,-1.105 0.21137,-1.1148 0.19825,-1.1235 0.1855,-1.1328 z m 88.430001,-4.6436 -0.14,0.60937 -0.145,0.60838 -0.15375,0.6065 -0.15875,0.6045 -0.165,0.603 -0.17,0.602 -0.1775,0.59962 -0.18125,0.59863 -0.1875,0.59825 -0.1925,0.59612 -0.19875,0.59475 -0.20375,0.59475 -0.2075,0.59225 -0.21125,0.59275 -0.2175,0.59088 -0.22125,0.58975 -0.22625,0.58887 -0.22875,0.58888 -0.23375,0.58837 -0.2375,0.587 -0.24125,0.58688 -0.24375,0.586 -0.2475,0.58587 -0.25125,0.5855 -0.21,0.48575 -0.0675,0.26475 -0.0613,0.30613 -0.0387,0.2685 -0.015,0.22662 0.002,0.18163 0.0138,0.12987 0.0187,0.0796 0.004,0.009 0.0337,0.0102 0.10625,0.0166 0.165,0.006 0.24125,-0.0161 0.215,-0.0254 0.16375,-0.0494 0.20375,-0.0953 0.23875,-0.15225 0.2675,-0.2125 0.29,-0.27487 0.30375,-0.3345 0.31625,-0.3935 0.3225,-0.44725 0.32625,-0.4995 0.32875,-0.54838 0.32875,-0.59425 0.3275,-0.63625 0.325,-0.67675 0.32125,-0.71337 0.3175,-0.7475 0.31,-0.77888 0.30375,-0.80812 0.2975,-0.83438 0.28875,-0.858 0.28,-0.87887 0.27125,-0.8975 0.26125,-0.914 0.25,-0.92775 0.2375,-0.9385 0.2275,-0.94775 0.21375,-0.95363 0.20125,-0.9575 0.18625,-0.958 0.1725,-0.9575 0.1575,-0.95412 0.3075,-2.0518 10.86,0.0195 -0.16125,1.938 -0.0575,0.55912 -0.0662,0.55663 -0.0762,0.55275 -0.0863,0.54925 -0.0937,0.546 -0.1025,0.54187 -0.11125,0.53813 -0.11875,0.53512 -0.125,0.53075 -0.13375,0.52788 -0.14,0.523 -0.14625,0.5205 -0.1525,0.51562 -0.1575,0.51263 -0.16375,0.50837 -0.16875,0.50488 -0.17375,0.5015 -0.1775,0.497 -0.1825,0.49312 -0.185,0.48975 -0.19,0.48638 -0.1925,0.4815 -0.195,0.478 -0.19875,0.47412 -0.19875,0.47013 -0.2025,0.46637 -0.20375,0.46238 -0.205,0.4585 -0.205,0.45462 -0.20625,0.45063 -0.2075,0.44875 -0.5125,1.0855 -0.5,1.0259 -0.48875,0.96575 -0.4775,0.90875 -0.4675,0.8535 -0.46,0.79975 -0.45125,0.74913 -0.44625,0.69962 -0.4425,0.65388 -0.43875,0.607872 -0.43625,0.56538 -0.43625,0.524 -0.43875,0.48487 -0.43875,0.44625 -0.4425,0.41013 -0.4475,0.37412 -0.45125,0.34025 -0.4575,0.30663 -0.4625,0.275 -0.4675,0.24312 -0.47125,0.21338 -0.475,0.1855 -0.48,0.15975 -0.48125,0.13575 -0.48625,0.11475 -0.48875,0.0956 -0.49375,0.0796 -0.4975,0.0659 -0.5025,0.0553 -0.51,0.0464 -0.51875,0.04 -0.52625,0.0351 -8.3588,0.53663 -0.40875,0.0186 -0.4025,0 -0.3875,-0.0181 -0.3725,-0.0376 -0.3575,-0.058 -0.345,-0.0801 -0.33125,-0.10213 -0.315,-0.12587 -0.30125,-0.15138 -0.28375,-0.17825 -0.2625,-0.20412 -0.2375,-0.2285 -0.21125,-0.2495 -0.1825,-0.26813 -0.15125,-0.28125 -0.12,-0.2895 -0.0937,-0.29437 -0.0662,-0.29788 -0.0425,-0.29887 -0.0225,-0.29925 -0.002,-0.29738 0.015,-0.29837 0.03,-0.29788 0.0437,-0.29737 0.0563,-0.29638 0.0687,-0.29787 0.08,-0.29825 0.0888,-0.29838 0.0987,-0.299372 0.10875,-0.30025 0.11625,-0.30025 0.1225,-0.29988 0.32625,-0.75587 0.315,-0.74025 0.31,-0.73775 0.305,-0.73588 0.2975,-0.73387 0.29375,-0.73238 0.2875,-0.731 0.28125,-0.73037 0.275,-0.72863 0.26875,-0.7275 0.2625,-0.727 0.25625,-0.72712 0.25,-0.726 0.2425,-0.72713 0.23625,-0.726 0.23,-0.72712 0.22125,-0.727 0.215,-0.7285 0.2075,-0.729 0.2,-0.7305 0.1925,-0.731 0.185,-0.73338 0.1775,-0.73487 0.16875,-0.73675 0.16125,-0.73875 0.1525,-0.74125 0.145,-0.74413 0.1375,-0.74662 0.1275,-0.7495 0.11875,-0.7525 0.11125,-0.75625 0.2525,-1.8819 11.516,0.021 -0.30125,2.0776 -0.0962,0.62112 -0.105,0.61913 -0.1125,0.61662 -0.11875,0.61576 -0.12625,0.61287 -0.13375,0.61175 z m -63.514001,-5.8906 12.184,0.022 -0.29925,2.1368 -0.0996,0.68263 -0.104,0.68262 -0.108,0.68163 -0.11225,0.68162 -0.11675,0.68063 -0.121,0.68062 -0.1265,0.67975 -0.13087,0.67925 -0.13625,0.67913 -0.14113,0.67775 -0.1465,0.67725 -0.15175,0.67675 -0.15775,0.67675 -0.16362,0.67525 -0.16938,0.67437 -0.17487,0.67425 -0.18213,0.67288 -0.1875,0.67237 -0.19425,0.67138 -0.20075,0.6705 -0.208,0.67038 -0.21487,0.6685 -0.22113,0.66737 -0.229,0.6665 -0.23587,0.66613 -0.24413,0.66499 -0.2515,0.66313 -0.25875,0.6625 -0.26712,0.66113 -0.27488,0.66074 -0.23825,0.55413 -0.0733,0.29837 -0.0611,0.32563 -0.0308,0.27787 -0.007,0.22613 0.0116,0.17225 0.023,0.11675 0.023,0.0659 0.0151,0.0274 0.005,0.008 0.009,0.007 0.0288,0.0171 0.0689,0.0269 0.12012,0.0279 0.17575,0.0195 0.231,0.002 0.29638,-0.0205 0.25737,-0.0312 0.19725,-0.0595 0.23288,-0.11187 0.26762,-0.17375 0.29538,-0.24175 0.31587,-0.30963 0.32963,-0.37587 0.33987,-0.4415 0.34525,-0.50138 0.34813,-0.55912 0.34862,-0.61325 0.34763,-0.66362 0.34475,-0.71088 0.34125,-0.75538 0.336,-0.796 0.331,-0.83487 0.32475,-0.86963 0.31687,-0.90137 0.30963,-0.93025 0.30075,-0.9575 0.292,-0.98 0.28275,-1.0019 0.27137,-1.0195 0.26175,-1.0352 0.2505,-1.0474 0.23825,-1.0576 0.22563,-1.0634 0.21287,-1.0689 0.20025,-1.0709 0.1855,-1.0688 0.17188,-1.0655 0.31987,-2.1635 10.814001,0.0195 -0.15725,1.9892 -0.0566,0.61375 -0.0625,0.61087 -0.0689,0.60788 -0.0757,0.6065 -0.0815,0.6035 -0.0879,0.601 -0.0933,0.59775 -0.0991,0.59462 -0.1045,0.59288 -0.11037,0.58925 -0.11475,0.586 -0.12063,0.583 -0.125,0.57962 -0.12987,0.57613 -0.13425,0.57125 -0.13825,0.56887 -0.1425,0.565 -0.147,0.56101 -0.15088,0.55662 -0.15375,0.55275 -0.15825,0.54887 -0.16062,0.54388 -0.16463,0.53962 -0.167,0.53513 -0.17037,0.53075 -0.17288,0.52587 -0.17525,0.521 -0.17775,0.51563 -0.18012,0.51125 -0.18213,0.50588 -0.18312,0.4995 -0.46238,1.2382 -0.4405,1.1621 -0.42037,1.0899 -0.40238,1.0195 -0.38625,0.95313 -0.373,0.889622 -0.35987,0.82863 -0.35063,0.77 -0.34225,0.71537 -0.33687,0.664 -0.3335,0.61476 -0.3335,0.56787 -0.335,0.52487 -0.34038,0.48438 -0.34862,0.44587 -0.35888,0.40775 -0.371001,0.372 -0.38575,0.3355 -0.4,0.29975 -0.4145,0.26325 -0.42725,0.228 -0.438,0.19288 -0.44675,0.16212 -0.45562,0.13275 -0.46338,0.10888 -0.47262,0.0879 -0.48288,0.0719 -0.49662,0.058 -0.51125,0.0489 -0.52875,0.0415 -0.54938,0.0381 -0.57375,0.0371 -12.653,0.813 -0.44237,0.0214 -0.43075,0.004 -0.41013,-0.0132 -0.39162,-0.0318 -0.3745,-0.0507 -0.35888,-0.0717 -0.34325,-0.0943 -0.32962,-0.11913 -0.31388,-0.1465 -0.29687,-0.17675 -0.27538,-0.2065 -0.24962,-0.23787 -0.21775,-0.26363 -0.18263,-0.28512 -0.1445,-0.29688 -0.11037,-0.30762 -0.0756,-0.31013 -0.0464,-0.30862 -0.0205,-0.30713 10e-4,-0.30562 0.0205,-0.30275 0.0376,-0.30225 0.0517,-0.30025 0.065,-0.30175 0.0771,-0.30375 0.0874,-0.30375 0.0962,-0.30563 0.10587,-0.309 0.11388,-0.31212 0.1205,-0.31388 0.127,-0.3165 0.13287,-0.32025 0.35638,-0.833 0.34037,-0.82125 0.33,-0.822372 0.32038,-0.82463 0.31,-0.82575 0.30087,-0.82662 0.2905,-0.82813 0.28175,-0.82962 0.27238,-0.831 0.26375,-0.832 0.25487,-0.8335 0.24613,-0.835 0.23775,-0.836 0.23,-0.83737 0.22112,-0.83838 0.21388,-0.83988 0.20562,-0.84075 0.19875,-0.84175 0.19138,-0.84375 0.18362,-0.84425 0.17675,-0.84525 0.17038,-0.84675 0.16312,-0.84762 0.15713,-0.84912 0.15087,-0.84963 0.14513,-0.8505 0.13862,-0.85213 0.13325,-0.8525 0.1275,-0.854 0.12213,-0.855 0.11662,-0.8555 0.25838,-1.978 z m 90.136001,-24.266 0.495,0.56375 0.49,0.56625 0.485,0.56625 0.48,0.57 0.475,0.57125 0.47,0.5725 0.465,0.575 0.46125,0.57625 0.45625,0.57875 0.45125,0.58 0.44625,0.5825 0.4425,0.58375 0.4375,0.585 0.4325,0.58625 0.43,0.58875 0.425,0.59 0.42,0.5925 0.41625,0.59375 0.41125,0.59375 0.40875,0.59625 0.40375,0.59875 0.4,0.59875 1.7288,2.6216 -10.468,-0.15625 0.065,0.10013 0.1075,0.165 0.1075,0.16562 0.1075,0.166 0.1075,0.166 0.10625,0.166 0.10625,0.166 0.10625,0.166 0.105,0.166 0.10625,0.16563 0.105,0.1665 0.105,0.1665 0.105,0.16737 0.105,0.1665 0.10375,0.16663 0.10375,0.16687 0.10375,0.167 0.1025,0.1665 0.1025,0.1665 3.77,6.1129 -6.395,-4.9146 -0.8525,-0.64987 -0.8525,-0.644 -0.8525,-0.63825 -0.8525,-0.63125 -0.8525,-0.6255 -0.8525,-0.61875 -0.85125,-0.61275 -0.85125,-0.605 -0.8525,-0.59975 -0.85125,-0.5925 -0.85125,-0.585 -0.85,-0.57875 -0.85125,-0.57125 -0.85125,-0.56375 -0.85,-0.5575 -0.85125,-0.54875 -0.85,-0.54125 -0.85,-0.53375 -0.85,-0.52625 -0.85,-0.51875 -0.84875,-0.51 -0.85,-0.50125 -0.84875,-0.49375 -0.84875,-0.48625 -0.84875,-0.4775 -0.84875,-0.4675 -0.8475,-0.46 -0.84875,-0.45125 -0.8475,-0.4425 -0.8475,-0.43375 -1.8088,-0.90625 3.9525,-13.506 1.6538,1.3712 0.155,0.1275 0.155,0.12875 0.15375,0.12875 0.15375,0.13 0.1525,0.1275 0.1525,0.12875 0.15375,0.13 0.15125,0.13 0.1525,0.12875 0.15125,0.13 0.15125,0.13 0.15,0.13125 0.15,0.12875 0.14875,0.13 0.15125,0.13125 0.14875,0.13 0.14875,0.13125 0.14875,0.13125 0.1475,0.13 0.1475,0.13125 0.1475,0.13125 0.14625,0.1325 0.1475,0.13125 0.14625,0.1325 0.145,0.13125 0.145,0.1325 0.145,0.13125 0.245,0.225 11.996,0.8825 0.8775,0.88125 0.5375,0.54625 0.53125,0.55 0.5275,0.55125 0.52125,0.55375 0.515,0.555 0.51,0.5575 0.50625,0.55875 0.5,0.5625 z m 12.008,15.438 -0.68125,-1.2148 -0.3225,-0.56625 -0.325,-0.56625 -0.3275,-0.565 -0.3325,-0.5625 -0.335,-0.56375 -0.34,-0.56125 -0.3425,-0.56 -0.34625,-0.55875 -0.35,-0.5575 -0.35375,-0.5575 -0.3575,-0.555 -0.36125,-0.555 -0.36625,-0.5525 -0.3675,-0.5525 -0.37375,-0.55125 -0.3775,-0.54875 -0.38125,-0.5475 -0.385,-0.5475 -0.38875,-0.545 -0.39375,-0.545 -0.3975,-0.5425 -0.4025,-0.5425 -0.40625,-0.54 -0.41,-0.53875 -0.41625,-0.53875 -0.41875,-0.53625 -0.42375,-0.53375 -0.42875,-0.535 -0.43375,-0.53125 -0.4375,-0.53125 -2.3838,-2.855 7.8662,0.5775 0.83125,0.86375 0.48875,0.51875 0.48,0.52375 0.47375,0.52625 0.465,0.53 0.45875,0.53375 0.45,0.5375 0.44375,0.54 0.43625,0.54375 0.43,0.545 0.42375,0.55 0.415,0.55125 0.41,0.55375 0.40375,0.55625 0.3975,0.55875 0.3925,0.56125 0.38625,0.5625 0.38,0.565 0.37375,0.56625 0.37,0.56875 0.36375,0.57 0.35875,0.57125 0.35375,0.5725 0.35,0.575 0.34375,0.575 0.34,0.57625 0.33625,0.57625 0.3325,0.57875 0.32625,0.5775 0.325,0.57875 0.32,0.58 1.3688,2.5062 -7.5275,-0.11275 z m 8.0225,0.12012 -0.55375,-1.3349 -0.23625,-0.55 -0.2425,-0.5475 -0.24875,-0.54625 -0.2575,-0.54625 -0.26375,-0.545 -0.27,-0.54375 -0.27875,-0.54125 -0.285,-0.54125 -0.2925,-0.54 -0.29875,-0.53875 -0.30625,-0.53625 -0.3125,-0.535 -0.32,-0.53375 -0.3275,-0.53125 -0.3325,-0.53125 -0.34125,-0.5275 -0.3475,-0.52625 -0.35375,-0.52375 -0.36,-0.5225 -0.3675,-0.52125 -0.375,-0.5175 -0.38,-0.51625 -0.3875,-0.515 -0.39375,-0.51125 -0.4,-0.50875 -0.4075,-0.50625 -0.4125,-0.505 -0.42,-0.50125 -0.42625,-0.49875 -0.4325,-0.4975 -2.5388,-2.86 7.3375,0.53875 0.8125,0.86 0.46625,0.50625 0.46,0.50875 0.4525,0.51375 0.445,0.515 0.43875,0.51875 0.4325,0.52375 0.425,0.525 0.41875,0.5275 0.4125,0.53 0.40625,0.53375 0.40125,0.535 0.39375,0.5375 0.38875,0.54 0.3825,0.54125 0.3775,0.545 0.37125,0.54625 0.36625,0.5475 0.36125,0.54875 0.35625,0.55125 0.3525,0.5525 0.34625,0.55375 0.3425,0.555 0.3375,0.55625 0.33375,0.5575 0.32875,0.5575 0.325,0.56 0.32125,0.55875 0.3175,0.56125 0.31375,0.56 0.31125,0.56125 1.3612,2.4889 -7.7275,-0.11525 z m 8.2325,0.1225 -0.54875,-1.3154 -0.22875,-0.532 -0.235,-0.53 -0.2425,-0.53 -0.2475,-0.52875 -0.25625,-0.5275 -0.2625,-0.5275 -0.2675,-0.525 -0.27625,-0.52375 -0.28125,-0.52375 -0.28875,-0.52125 -0.295,-0.52 -0.3025,-0.51875 -0.3075,-0.5175 -0.315,-0.515 -0.32,-0.515 -0.3275,-0.51125 -0.33375,-0.51125 -0.34,-0.50875 -0.34625,-0.5075 -0.3525,-0.50375 -0.35875,-0.50375 -0.365,-0.50125 -0.37125,-0.5 -0.3775,-0.49625 -0.38375,-0.495 -0.39,-0.4925 -0.395,-0.49 -0.4025,-0.4875 -0.4075,-0.48625 -0.41375,-0.4825 -2.4762,-2.8362 6.65,0.48875 0.77375,0.87 0.425,0.4925 0.41625,0.495 0.40625,0.49875 0.39625,0.5025 0.3875,0.505 0.37875,0.50875 0.37125,0.51125 0.36125,0.51375 0.355,0.51625 0.34625,0.52 0.33875,0.52125 0.33125,0.52375 0.325,0.52625 0.3175,0.52875 0.31125,0.53 0.30375,0.53375 0.3,0.53375 0.2925,0.53625 0.2875,0.5375 0.28125,0.53875 0.27625,0.54125 0.2725,0.5425 0.2675,0.5425 0.26375,0.545 0.25875,0.54625 0.255,0.54625 0.2525,0.54875 0.2475,0.5475 0.245,0.54875 0.24375,0.55125 1.035,2.3715 -5.2575,-0.0791 z m 7.3888,0.11088 -0.53875,-1.3022 -0.21875,-0.516 -0.2275,-0.515 -0.2325,-0.51375 -0.23875,-0.5125 -0.245,-0.5125 -0.25125,-0.51125 -0.25875,-0.50875 -0.26375,-0.50875 -0.27,-0.50875 -0.27625,-0.50625 -0.2825,-0.505 -0.28875,-0.5025 -0.295,-0.5025 -0.30125,-0.5025 -0.30625,-0.49875 -0.31375,-0.4975 -0.31875,-0.49625 -0.32375,-0.495 -0.33125,-0.4925 -0.3375,-0.49125 -0.3425,-0.49 -0.34875,-0.4875 -0.35375,-0.48625 -0.36125,-0.4825 -0.36625,-0.4825 -0.37125,-0.48 -0.3775,-0.4775 -0.38375,-0.475 -0.38875,-0.47375 -0.395,-0.47125 -2.3975,-2.81 5.4962,0.405 0.77625,0.84625 0.42875,0.48 0.4225,0.4825 0.41375,0.485 0.40625,0.48875 0.3975,0.49125 0.39125,0.4925 0.3825,0.49625 0.37625,0.5 0.3675,0.5 0.36,0.505 0.3525,0.50625 0.345,0.51 0.3375,0.51125 0.33,0.51375 0.32375,0.5175 0.315,0.52 0.30875,0.52125 0.3,0.525 0.29375,0.52625 0.28625,0.53 0.28,0.53125 0.27125,0.5325 0.26625,0.53625 0.2575,0.54 0.25125,0.54 0.245,0.5425 0.2375,0.54625 0.23,0.5475 0.22375,0.55 0.21625,0.55125 0.8775,2.3119 -4.5612,-0.0674 z m -106.13,-14.458 0.231,0.525 0.229,0.5225 0.2265,0.51875 0.22462,0.5125 0.22213,0.505 0.21975,0.49625 0.21825,0.48625 0.21387,0.47375 0.21238,0.46 0.20762,0.44625 0.205,0.4275 0.20075,0.41 0.19725,0.39 0.19238,0.36875 0.187,0.345 0.18062,0.3175 0.17438,0.29 0.166,0.25875 0.15675,0.22625 0.1425,0.18875 0.126,0.14875 0.10312,0.1075 0.0697,0.06 0.022,0.015 0.0708,0.035 0.14313,0.0625 0.1475,0.0588 0.15275,0.0563 0.15775,0.0525 0.165,0.05 0.17337,0.0463 0.18063,0.0437 0.191,0.0412 0.19962,0.0375 0.21,0.035 0.22025,0.0325 0.23188,0.03 0.24312,0.0262 0.2545,0.025 0.2675,0.0225 0.28075,0.0188 0.293,0.0175 0.30663,0.015 0.32037,0.0137 0.33438,0.01 0.34875,0.01 0.36425,0.006 0.37987,0.007 0.395,0.004 0.41113,0.004 0.42775,0.004 0.44525,0.001 0.462,0 0.47937,10e-4 1.0152,0 0.521,10e-4 0.50675,0.001 0.49138,0.002 0.47625,0.004 0.46125,0.004 0.445,0.005 0.43,0.006 0.415,0.006 0.4,0.008 0.3825,0.006 0.3675,0.007 0.35125,0.009 0.33625,0.009 0.31875,0.009 0.30375,0.007 0.28625,0.01 0.27125,0.009 0.25375,0.009 10e-4,0 -0.0312,-0.11625 -0.0962,-0.34625 -0.10375,-0.37125 -0.1125,-0.395 -0.12125,-0.4175 -0.12875,-0.4375 -0.13625,-0.45625 -0.14375,-0.4725 -0.1525,-0.49 -0.16,-0.505 -0.1675,-0.5175 -0.17375,-0.52875 -0.1825,-0.53875 -0.18875,-0.54875 -0.195,-0.555 -0.2025,-0.56 -0.20875,-0.565 -0.21625,-0.5675 -0.22125,-0.56875 -0.2275,-0.56875 -0.23375,-0.5675 -0.24,-0.5625 -0.245,-0.55875 -0.25375,-0.55875 -0.2675,-0.57 -0.27875,-0.57625 -0.29125,-0.58375 -0.2975,-0.5875 -0.30713,-0.58875 -0.3135,-0.59125 -0.31737,-0.58875 -0.32175,-0.58625 -0.32325,-0.58 -0.32375,-0.575 -0.32325,-0.565 -0.32125,-0.55375 -0.31738,-0.54375 -0.3125,-0.5275 -0.30562,-0.51375 -0.29838,-0.495 -0.28912,-0.47625 -0.27825,-0.455 -0.26613,-0.4325 -0.25287,-0.4075 -0.23838,-0.38125 -0.22162,-0.3525 -0.20463,-0.32375 -0.185,-0.29 -0.16512,-0.25875 -0.1435,-0.2225 -0.12013,-0.18625 -0.0958,-0.1475 -0.0687,-0.10625 -0.0425,-0.065 -1.4834,-2.2575 13.872,1.3288 0.64875,0.805 0.31125,0.39125 0.30875,0.395 0.3075,0.39875 0.305,0.40125 0.3025,0.405 0.30125,0.41 0.3,0.41125 0.2975,0.4175 0.295,0.41875 0.2925,0.42375 0.29125,0.4275 0.29,0.43 0.28625,0.43375 0.28375,0.43875 0.28375,0.4425 0.28125,0.445 0.2775,0.45 0.27625,0.45375 0.27375,0.4575 0.27125,0.46125 0.27,0.465 0.2675,0.46875 0.265,0.47375 0.2625,0.4775 0.26,0.48125 0.135,0.25625 0.07,-0.20875 0.125,-0.38625 0.12625,-0.38875 0.1225,-0.38875 0.12375,-0.39 0.12125,-0.3925 0.12125,-0.3925 0.11875,-0.39375 0.11875,-0.395 0.11625,-0.39625 0.11625,-0.3975 0.115,-0.39875 0.11375,-0.4 0.11375,-0.4 0.11125,-0.4025 0.11125,-0.40375 0.11,-0.40375 0.10875,-0.405 0.1075,-0.4075 0.1075,-0.40625 0.105,-0.40875 0.105,-0.41 0.105,-0.41 0.1025,-0.41125 0.37,-1.4875 13.256,1.27 -0.4375,1.91 -0.11125,0.4875 -0.11375,0.4875 -0.115,0.4875 -0.115,0.4875 -0.1175,0.48625 -0.1175,0.485 -0.1175,0.48625 -0.12,0.485 -0.12125,0.48375 -0.1225,0.48375 -0.1225,0.48375 -0.125,0.48375 -0.12625,0.4825 -0.1275,0.48125 -0.12875,0.4825 -0.13,0.48 -0.13125,0.48 -0.1325,0.48 -0.135,0.47875 -0.135,0.47875 -0.1375,0.4775 -0.13875,0.4775 -0.14,0.475 -0.1425,0.47625 -0.14375,0.475 -0.14625,0.47375 -0.1475,0.47375 -0.14875,0.4725 -0.09,0.2825 0.755,0.32625 0.925,0.41375 0.9225,0.4275 0.92,0.4425 0.91875,0.45375 0.915,0.46625 0.91375,0.48 0.9125,0.49125 0.90875,0.50375 0.9075,0.51625 0.90625,0.525 0.90375,0.5375 0.90125,0.54875 0.9,0.55875 0.89875,0.56875 0.89625,0.58 0.895,0.58875 0.8925,0.59875 0.8925,0.60625 0.89,0.61625 0.8875,0.625 0.8875,0.63437 0.88625,0.64113 0.88375,0.649 0.88375,0.65712 0.88,0.66413 0.88125,0.67087 0.87875,0.67775 0.87875,0.68463 0.87625,0.69037 3.7588,2.9869 -20.19,-0.0362 -0.96875,-0.62788 -0.6475,-0.42237 -0.645,-0.42188 -0.6425,-0.41987 -0.63625,-0.418 -0.635,-0.4165 -0.63,-0.41313 -0.625,-0.40962 -0.62125,-0.40675 -0.6175,-0.40238 -0.6125,-0.39787 -0.6075,-0.39313 -0.60375,-0.38762 -0.59625,-0.38238 -0.59375,-0.3755 -0.58625,-0.36912 -0.58125,-0.36188 -0.57625,-0.3545 -0.57,-0.34612 -0.56375,-0.33838 -0.5575,-0.32887 -0.55,-0.32 -0.54375,-0.31 -0.5375,-0.3 -0.53,-0.28875 -0.5225,-0.27875 -0.3725,-0.1925 0.065,0.21625 0.10125,0.34375 0.1,0.34375 0.1,0.34625 0.0975,0.34875 0.0987,0.34937 0.0962,0.3505 0.0963,0.353 0.0937,0.3545 0.095,0.3555 0.0925,0.357 0.0925,0.35838 0.0912,0.36125 0.09,0.36137 0.09,0.36325 0.0888,0.36525 0.0875,0.36725 0.0875,0.36813 0.0862,0.36912 0.085,0.37213 0.0838,0.3735 0.0825,0.374 0.0825,0.376 0.41625,1.9311 -36.292,-0.0654 -0.0195,0.003 -0.13775,0.0151 -0.17625,0.0161 -0.21488,0.0141 -0.25237,0.0103 -0.28663,0.003 -0.31787,-0.005 -0.34763,-0.0171 -0.375,-0.0302 -0.40087,-0.0474 -0.42388,-0.0659 -0.44337,-0.0879 -0.46238,-0.11187 -0.4775,-0.13863 -0.490751,-0.168 -0.5005,-0.19925 -0.50875,-0.23437 -0.51275,-0.271 -0.51512,-0.3105 -0.51325,-0.35213 -0.50875,-0.3955 -0.501,-0.44187 -0.49025,-0.48875 -0.4755,-0.53763 -0.46,-0.58887 -0.439,-0.64013 -0.41788,-0.69337 -0.39362,-0.7485 -0.36625,-0.80463 -0.33738,-0.86287 -0.30125,-0.9055 -0.28025,-0.9125 -0.28662,-0.915 -0.29588,-0.93 -0.30475,-0.94375 -0.3115,-0.9525 -0.31887,-0.96 -0.32175,-0.9625 -0.32663,-0.9625 -0.32812,-0.96 -0.32913,-0.95375 -0.32962,-0.94375 -0.32763,-0.9325 -0.32462,-0.91625 -0.32138,-0.8975 -0.31587,-0.87625 -0.30913,-0.85125 -0.30175,-0.82125 -0.2925,-0.79125 -0.28262,-0.75625 -0.271,-0.71875 -0.25788,-0.6775 -0.24462,-0.63375 -0.2285,-0.585 -0.21238,-0.53625 -0.19387,-0.48 -0.17388,-0.42125 -0.15187,-0.3575 -0.12788,-0.29 -0.0894,-0.19 -0.0884,-0.0662 -0.15037,-0.335 -0.0371,-0.0838 -0.0533,-0.12875 -0.0682,-0.1675 -0.0801,-0.2075 -0.0889,-0.2425 -0.0948,-0.2725 -0.0981,-0.30375 -0.0986,-0.33 -0.0962,-0.35375 -0.0902,-0.375 -0.0825,-0.3925 -0.0704,-0.41 -0.0561,-0.4225 -0.0366,-0.43625 -0.0151,-0.4475 0.0118,-0.45375 0.0434,-0.46125 0.0806,-0.46375 0.1245,-0.465 0.17575,-0.4625 0.23238,-0.45 0.295,-0.43 0.36037,-0.3975 0.42325,-0.35375 0.4805,-0.30125 0.53275,-0.24375 0.57963,-0.18375 0.624,-0.125 0.66887,-0.0662 0.71688,-0.01 0.746,0.0462 0.73687,0.0713 0.72413,0.0687 0.7305,0.07 0.73525,0.0712 0.73887,0.07 1.1948,0.115 1.0142,0.0962 0.728,0.07 2.1294,0.20375 0.6845,0.0662 0.669,0.0637 0.650871,0.0625 0.63038,0.06 0.60837,0.0588 0.584,0.055 0.55813,0.0538 0.52925,0.0512 0.499,0.0475 0.46587,0.045 0.43213,0.0412 0.3955,0.0375 0.357,0.035 0.31537,0.03 0.272,0.0263 0.228,0.0212 0.18013,0.0175 0.13137,0.0125 0.65038,0.0613 0.34725,0.43625 0.02,0.0263 0.0327,0.0412 0.0434,0.0563 0.0537,0.0687 0.0625,0.0813 0.0733,0.095 0.0815,0.10625 0.0904,0.12 0.0981,0.12875 0.1045,0.14 0.11175,0.15125 0.11825,0.16 0.124,0.16875 0.12838,0.1775 0.13287,0.185 0.13713,0.1925 0.14062,0.2 0.14413,0.20625 0.1455,0.21125 0.14837,0.2175 0.149,0.22125 0.14988,0.2275 0.14987,0.23 0.14988,0.2325 0.149,0.23625 0.14787,0.23875 0.146,0.24 0.14363,0.2425 0.14062,0.2425 0.13725,0.24375 0.13125,0.24 0.24175,0.45 0.227,0.425 0.21288,0.40125 0.19925,0.37625 0.18462,0.35125 0.17038,0.325 0.15525,0.29875 0.14012,0.27 0.125,0.24125 0.10938,0.21375 0.0933,0.1825 0.0768,0.15125 0.0615,0.12 0.0439,0.0875 0.0269,0.0538 0.97712,1.955 -12.116,-0.4575 -0.0479,-0.005 -0.022,-10e-4 -0.04,-0.004 -0.0596,-0.004 -0.0746,-10e-4 -0.0909,0 -0.1025,10e-4 -0.10987,0.006 -0.11525,0.009 -0.12013,0.015 -0.11962,0.02 -0.11625,0.0238 -0.11025,0.03 -0.10263,0.035 -0.0913,0.0375 -0.0776,0.0387 -0.0645,0.04 -0.0513,0.0387 -0.0395,0.0375 -0.0317,0.0375 -0.0264,0.0413 -0.0245,0.05 -0.0229,0.0687 -0.0195,0.0937 -0.0118,0.125 0.001,0.16375 0.021,0.20375 0.0459,0.24375 0.0756,0.28625 0.11087,0.32875 0.14838,0.36875 0.19637,0.425 0.23388,0.48125 0.24025,0.50625 0.23925,0.51375 0.23725,0.51875 0.23787,0.5225 0.23475,0.52625 0.234,0.5275 0.23188,0.52625 z m -24.420001,-16.83 0.31588,0.53125 0.331,0.56375 0.34475,0.595 0.357,0.62375 0.36912,0.655 0.38088,0.68375 0.39012,0.7125 0.39938,0.74125 0.40775,0.7675 0.4155,0.795 0.42137,0.82125 0.42725,0.84625 0.43163,0.87125 0.43562,0.895 0.43888,0.91875 0.4395,0.94375 0.44187,0.96375 0.44138,0.98875 0.43662,1.0038 0.42575,1.0088 0.413,1.0125 0.4005,1.01 0.38863,1.0075 0.3765,1.0025 0.36325,0.99625 0.35112,0.98375 0.33838,0.97375 0.32562,0.95875 0.3125,0.94125 0.29888,0.9225 0.28612,0.9 0.27238,0.8775 0.25987,0.85 0.245,0.82125 0.2315,0.79025 0.21825,0.75625 0.20413,0.72125 0.1895,0.68262 0.17525,0.64213 0.16112,0.59862 0.146,0.55413 0.13188,0.50487 0.11712,0.45613 0.10163,0.40275 0.0869,0.34875 0.0713,0.2905 0.0557,0.2305 0.04,0.16937 0.0254,0.106 0.37012,1.6099 -12.671,-0.023 -0.27688,-0.92388 -0.0249,-0.0835 -0.0225,-0.0736 -0.0292,-0.0973 -0.0353,-0.11475 -0.041,-0.13575 -0.0474,-0.15625 -0.0528,-0.17475 -0.101,-0.332 -0.0932,-0.30675 -0.0757,-0.249 -0.0815,-0.26663 -0.0869,-0.28412 -0.0924,-0.30175 -0.0976,-0.31838 -0.1025,-0.335 -0.1075,-0.3505 -0.11275,-0.36725 -0.11713,-0.38225 -0.24962,-0.80912 -0.13175,-0.42675 -0.13625,-0.4405 -0.28563,-0.92275 -0.1495,-0.481 -0.15275,-0.495 -0.211,-0.675 -7.4452,-0.15625 0.10063,0.49375 0.0976,0.49375 0.0917,0.48137 0.0874,0.46775 0.0821,0.45363 0.0771,0.44087 0.0727,0.42725 0.0679,0.41163 0.063,0.397 0.059,0.38087 0.0547,0.36613 0.0508,0.34962 0.0469,0.33301 0.0435,0.31649 0.039,0.29876 0.0361,0.28125 0.0323,0.26324 0.0289,0.24513 0.0259,0.2255 0.0229,0.207 0.02,0.18663 0.0171,0.16649 0.0146,0.14601 0.0122,0.12737 0.009,0.105 0.007,0.082 0.005,0.0615 0.003,0.0425 0.0996,1.3921 -13.29,-0.0239 -0.11625,-1.1808 -0.009,-0.0825 -0.0143,-0.13713 -0.0449,-0.42724 -0.0317,-0.28426 -0.0361,-0.33012 -0.042,-0.3725 -0.0474,-0.41212 -0.0528,-0.44975 -0.0576,-0.48476 -0.063,-0.51812 -0.0679,-0.54837 -0.0731,-0.57663 -0.0777,-0.6025 -0.083,-0.6265 -0.0874,-0.647 -0.0923,-0.667 -0.0968,-0.6825 -0.1015,-0.69625 -0.106,-0.70875 -0.11037,-0.7175 -0.11463,-0.725 -0.11925,-0.73 -0.123,-0.7325 -0.127,-0.73125 -0.13175,-0.73 -0.13525,-0.725 -0.13875,-0.71625 -0.1435,-0.7075 -0.146,-0.69625 -0.15037,-0.68125 -0.15525,-0.675 -0.16113,-0.675 -0.16662,-0.6775 -0.17225,-0.6775 -0.17638,-0.67625 -0.18162,-0.675 -0.1845,-0.675 -0.189,-0.6725 -0.19188,-0.67 -0.19537,-0.66875 -0.19675,-0.665 -0.19975,-0.66125 -0.20113,-0.65625 -0.20162,-0.65375 -0.20363,-0.6475 -0.20412,-0.6425 -0.20363,-0.6375 -0.20362,-0.63125 -0.20263,-0.62375 -0.20162,-0.6175 -0.20075,-0.61 -0.19863,-0.60125 -0.19637,-0.59375 -0.19375,-0.58625 -0.191,-0.57625 -0.1875,-0.56625 -0.18313,-0.55625 -0.17962,-0.5475 -0.17488,-0.535 -0.16987,-0.525 -0.165,-0.51375 -0.168,-0.52875 -0.14988,-0.56875 -0.0884,-0.58 -0.0176,-0.56375 0.0566,-0.54625 0.13287,-0.52 0.20413,-0.48375 0.2675,-0.435 0.31737,-0.38375 0.3555,-0.32875 0.37988,-0.27875 0.39887,-0.2325 0.41075,-0.19625 0.41988,-0.16125 0.42425,-0.1325 0.42775,-0.10875 0.42775,-0.0863 0.42675,-0.0687 0.42187,-0.0513 0.41363,-0.0362 0.40425,-0.0238 0.39112,-0.0137 0.375,-0.004 0.356,0.003 0.334,0.009 0.3085,0.0137 0.27988,0.0175 0.247,0.0175 0.21287,0.0175 0.17288,0.0175 0.13037,0.015 0.083,0.01 0.0108,0.001 17.422,1.6688 0.355,0.515 0.044,0.065 0.0707,0.10375 0.0962,0.14375 0.12,0.18125 0.14462,0.22 0.167,0.2575 0.18838,0.2925 0.2095,0.32875 0.2295,0.365 0.2495,0.39875 0.26712,0.4325 0.28413,0.4675 0.30137,0.5 z m -10.747,5.6612 -0.23388,-0.009 -0.24712,-0.007 -0.25875,-0.006 -0.2735,-0.006 -0.287,-0.006 -0.30138,-0.005 -0.31387,-0.004 -0.32913,-0.002 -0.34375,-0.002 -0.32175,0 -0.54687,0.0312 -0.354,0.07 -0.2085,0.0813 -0.0977,0.0625 -0.0375,0.0412 -0.0235,0.04 -0.022,0.07 -0.0156,0.115 0.002,0.15625 0.0234,0.1825 0.042,0.19 0.0533,0.18125 0.0561,0.1575 0.0494,0.11875 0.0318,0.0687 0.008,0.0163 0.006,0.0112 0.0176,0.035 0.0205,0.045 0.0274,0.0587 0.0346,0.075 0.0415,0.0925 0.0484,0.10875 0.0546,0.1275 0.063,0.145 0.0694,0.16625 0.0771,0.18625 0.085,0.2075 0.0917,0.23 0.0996,0.25125 0.10788,0.275 0.11525,0.29875 0.124,0.325 0.13137,0.35 0.13963,0.3775 0.148,0.40375 0.15675,0.43125 0.165,0.46 0.17387,0.49 0.18163,0.52 0.19137,0.5525 0.19925,0.5825 0.2095,0.615 0.21775,0.64875 0.227,0.6825 0.23588,0.71625 0.2265,0.695 6.8785,0.315 -0.107,-0.28875 -0.25725,-0.6825 -0.25838,-0.675 -0.25925,-0.665 -0.25875,-0.65375 -0.25837,-0.64375 -0.25588,-0.63125 -0.25387,-0.61625 -0.2505,-0.6025 -0.246,-0.585 -0.24225,-0.56875 -0.23638,-0.54875 -0.22987,-0.53125 -0.22325,-0.50875 -0.21475,-0.4875 -0.20713,-0.46375 -0.19725,-0.44 -0.1875,-0.41375 -0.17675,-0.3875 -0.1655,-0.36 -0.15237,-0.33 -0.13963,-0.30125 -0.127,-0.27 -0.11175,-0.23625 -0.0156,-0.0337 -0.0343,-0.002 -0.12638,-0.01 -0.13625,-0.01 -0.1465,-0.009 -0.15962,-0.01 -0.17238,-0.01 -0.18362,-0.009 -0.19575,-0.01 -0.20763,-0.009 -0.22112,-0.009 z m 102.594901,47.9228 0.215,-0.0331 0.1775,-0.0455 0.17125,-0.0625 0.165,-0.08 0.165,-0.10013 0.165,-0.1235 0.1675,-0.1495 0.1675,-0.17762 0.17,-0.2085 0.1675,-0.23975 0.16625,-0.273 0.16375,-0.30663 0.15875,-0.33937 0.15375,-0.3735 0.14875,-0.40675 0.13375,-0.41988 0.0275,-0.11387 -0.006,-0.003 -0.0738,-0.0298 -0.0962,-0.0299 -0.11625,-0.0288 -0.1325,-0.0249 -0.14375,-0.021 -0.15375,-0.0156 -0.16375,-0.0112 -0.16625,-0.006 -0.1675,-0.002 -0.17,0.002 -0.165,0.005 -0.16375,0.009 -0.1425,0.0103 -0.045,0.149 -0.0575,0.19387 -0.0575,0.19425 -0.06,0.19538 -0.0613,0.19475 -0.06,0.19287 -0.06,0.19388 -0.0625,0.19487 -0.0625,0.19425 -0.0637,0.19438 -0.0625,0.19387 -0.065,0.19388 -0.065,0.19525 -0.065,0.19437 -0.0662,0.19438 -0.0675,0.19425 -0.0675,0.19487 -0.0687,0.19425 -0.0637,0.17825 0.0788,-0.006 0.1525,-0.0131 0.1275,-0.0127" style="fill:#99def9;fill-rule:evenodd"/><path id="path2840" d="m 106.46021,34.224438 c 0,0 2.1596,2.7175 3.4692,5.1488 1.3095,2.4325 2.0576,3.9288 2.0576,3.9288 l -9.9146,-0.37375 c 0,0 -4.861201,-0.56125 -2.337901,4.5825 2.523001,5.145 5.009301,12.18 6.733901,13.189 1.8706,0.935 4.3028,0.935 9.9146,0.935 5.6121,0 8.6984,0.18625 8.6984,0.18625 0,0 -1.6838,-7.0138 -4.3962,-13.094 -2.7125,-6.08 -7.8608,-13.894 -7.8608,-13.894 l 10.672,1.0225 c 3.2862,4.045 6.2588,8.655 8.8275,13.99 1.475,-4.0575 2.7275,-8.34 3.8212,-12.779 l 10.704,1.025 c -1.1812,5.1862 -2.5062,10.3 -4.1475,15.255 9.7488,3.9712 19.171,10.395 28.46,17.816 l -16.128,-0.02888 c -6.9425,-4.4975 -13.422,-9.02 -18.654,-11.205 1.1488,3.4638 2.1588,7.1791 3.0112,11.177 l -34.794,-0.0625 c 0,0 -7.858401,1.3159 -10.756001,-8.1942 -2.8975,-9.51 -7.8555,-22.729 -8.1372,-22.634 0,0 -3.8276,-8.3462 3.7456,-7.6212 7.5732,0.725 17.010001,1.63 17.010001,1.63 z m -31.542001,-3.0225 -16.845,-1.6138 c 0,0 -8.8115,-1.1812 -7.1631,4.0512 1.648,5.2312 4.3711,12.685 6.0201,19.995 1.6484,7.31 2.6514,17.329 2.6514,17.329 l 10.75,0.01912 c 0,0 -0.29688,-3.9395 -1.5865,-9.6752 l 9.9898,0.21 c 1.7881,5.7274 2.9199,9.4858 2.9199,9.4858 l 10.105,0.018 c 0,0 -2.7236,-11.796 -7.3812,-22.331 -4.6588,-10.535 -9.4605,-17.488 -9.4605,-17.488 z m -8.5112,21.651 c -2.7602,-8.5762 -3.8872,-10.829 -3.8872,-10.829 0,0 -1.791,-3.44 2.15,-3.44 3.9424,0 5.3755,0.215 5.3755,0.215 0,0 3.3808,6.9312 6.0454,14.496 l -9.6836,-0.4425 z m 143.374101,11.431 1.8313,0.02737 c -2.15,-5.7711 -5.4075,-11.172 -10.005,-16.128 l -1.9263,-0.14125 c 4.3838,5.0825 7.8,10.588 10.1,16.241 z m -7.3912,-0.11038 2.4262,0.03612 c -2.5262,-5.8258 -5.4088,-11.484 -9.965,-16.524 l -3.02,-0.22125 c 4.5975,5.21 8.1712,10.879 10.559,16.709 z m -8.2312,-0.12338 4.685,0.07013 c -3.2275,-5.9351 -6.975,-11.794 -11.969,-17.02 l -3.6925,-0.27125 c 4.805,5.3525 8.5225,11.202 10.976,17.221 z m -8.1262,-0.12125 4.5912,0.06875 c -3.3275,-6.1288 -7.2062,-12.176 -12.434,-17.536 l -4.36,-0.32 c 4.8025,5.7088 8.79,11.661 12.202,17.788 z m -35.049,-23.249 -3.105,10.608 c 9.1412,4.53 18.284,10.621 27.425,17.68 -1.085,-1.768 -2.2138,-3.5185 -3.395,-5.249 l 10.485,0.15625 c -4.1612,-6.3525 -8.97,-12.452 -14.722,-18.186 l -11.965,-0.88 c -1.5112,-1.4012 -3.0838,-2.7775 -4.7225,-4.1288 z" clip-rule="evenodd" style="fill:url(#linearGradient3781)"/><path id="path2983" d="m 84.256209,75.304438 c -1.1781,9.2182 -3.1938,18.332 -7.0526,27.215002 -1.3926,3.2974 -1.775,5.7105 2.7236,5.4214 l 12.642,-0.8125 c 6.2383,-0.40037 7.1905,-0.46187 12.221001,-14.020002 1.9389,-5.226 3.5874,-11.344 4.062,-17.76 l -8.3204,-0.0146 c -1.617501,11.425 -5.872501,24.358 -10.129001,24.472 -2.1129,0.226122 -2.8389,-0.86863 -2.1778,-3.2836 3.0024,-6.879 4.6221,-13.989 5.6142,-21.201 l -9.5855,-0.017 z m 52.988001,0.0951 c -1.06,8.2911 -3.68,15.9 -7.1512,23.889 -1.2512,2.965802 -1.2288,5.508802 2.8175,5.248502 l 8.345,-0.53562 c 5.61,-0.36088 8.535,-1.0151 14.016,-12.810002 2.185,-4.7001 4.3275,-9.9809 4.755,-15.75 l -8.3638,-0.0152 c -1.4538,10.275 -5.7225,21.906 -9.5488,22.011 -1.9012,0.20312 -2.3338,-1.0019 -1.7388,-3.1738 2.7,-6.1865 4.8912,-12.359 5.7825,-18.846 l -8.9138,-0.0161 z M 51.185209,109.78754 c 5.5175,-9.905202 8.4844,-21.511002 9.3374,-34.526002 l 20.554,0.0371 c -0.335,2.8935 -0.8365,5.788 -1.5332,8.6821 l -9.6914,0.37638 c -0.2295,1.8071 -0.57325,3.9464 -1.0118,5.7271 l 8.9746,-0.12837 c -0.872,2.5736 -1.916,5.1474 -3.1524,7.7206 l -8.4711,0.57225 c -1.4492,3.665102 -3.1988,7.292002 -5.0874,10.901002 l -9.918,0.63725 z m 58.563001,-3.7622 c 3.6552,-7.352002 6.0644,-14.704002 7.229,-22.055002 l -5.9556,0.10251 c 0.97663,-2.9052 1.6392,-5.811 1.9892,-8.7162 l 21.16,0.038 c -0.45,2.772 -1.095,5.544 -2.1712,8.3165 l -5.085,0.0879 c -1.8625,7.52 -4.6125,14.785 -8.6625,21.681002 l -8.5004,0.54637 z m -66.223001,-30.799002 7.272,0 c 1.5722,0 2.7422,1.3026 2.4995,2.8881 -0.30362,1.9844 -0.69825,3.9668 -1.1709,5.9424 -0.47562,1.9864 -1.0444,3.9659 -1.6552,5.9424 -0.49175,1.5909 -2.2256,2.8862 -3.7949,2.8862 h -7.2691 c -1.5718,0 -2.4111,-1.2954 -1.9194,-2.8862 0.61087,-1.9765 1.1796,-3.9555 1.6552,-5.9424 0.47212,-1.9746 0.86963,-3.9575 1.1709,-5.9424 0.24025,-1.585 1.6401,-2.8881 3.2119,-2.8881 z m 1.2451,3.8427 3.7715,0 c 0.72512,0 1.2188,0.59913 1.0786,1.3276 -0.23437,1.2221 -0.49512,2.4424 -0.78712,3.6601 -0.29338,1.2208 -0.61813,2.4405 -0.96288,3.6578 -0.2075,0.73138 -0.98387,1.3281 -1.7055,1.3281 h -3.7774 c -0.71925,0 -1.128,-0.59675 -0.92088,-1.3281 0.34325,-1.2172 0.67375,-2.4365 0.96525,-3.6578 0.29113,-1.2178 0.55475,-2.4375 0.78763,-3.6601 0.13874,-0.7285 0.82912,-1.3276 1.5508,-1.3276 z m -19.722,-3.8711 6.3652,0 6.3711,0 c -0.11287,1.4409 -0.26412,2.8804 -0.44537,4.3204 h -3.6522 c -0.55275,2.2382 -1.1475,4.4858 -1.8668,6.7142 -0.72462,2.2481 -1.563,4.4766 -2.4214,6.7149 h -3.8516 c 0.85887,-2.2382 1.6969,-4.4678 2.4219,-6.7149 0.71975,-2.2295 1.3135,-4.476 1.8668,-6.7142 h -5.231 c 0.18163,-1.44 0.33013,-2.8795 0.44338,-4.3204 z m 4.7002,35.991002 c 0.98925,-1.942 1.917,-3.8965 2.7519,-5.8634 l 4.2632,-0.30225 c -0.78275,1.9659 -1.6142,3.919 -2.4815,5.8678 l 2.5768,-0.169 c 2.3022,-4.9058 4.1879,-9.7621 5.5278,-14.676002 l -2.4888,0.0586 c -0.6625,2.2188 -1.4112,4.407502 -2.2262,6.580002 l -4.2202,0.291 c 0.856,-2.2398 1.5761,-4.495102 2.1132,-6.766602 l -2.4716,0.0586 c -1.3135,5.544402 -3.4956,10.506002 -5.815,15.086002 l 2.4722,-0.1625 z m -8.1441,-14.651002 8.2251,-0.19488 c -0.0513,0.34713 -0.14163,0.79938 -0.293,1.3852 -0.13475,0.5225 -0.266,0.97025 -0.38863,1.3521 l -2.7886,0.123 c -1.0844,4.272902 -2.8276,8.435002 -4.955,12.534002 l -1.9116,0.1255 h -0.61187 c 2.1388,-4.104 3.8955,-8.2724 4.9928,-12.550002 l -3.3311,0.1465 1.062,-2.9214 z m 25.54,13.509002 -6.1778,0.40525 c 2.0879,-4.2036 3.9419,-9.2236 5.7211,-14.509002 l 2.4907,-0.0586 2.8955,-0.0684 c -0.01,0.0464 -0.0195,0.0927 -0.0292,0.13962 -5e-4,10e-4 -5e-4,0.002 -10e-4,0.003 -0.002,0.0116 -0.005,0.0239 -0.008,0.0356 -0.006,0.0312 -0.0131,0.0625 -0.0195,0.0933 -0.001,0.005 -0.002,0.009 -0.002,0.0136 -0.003,0.0117 -0.005,0.024 -0.008,0.0361 -0.002,0.0118 -0.005,0.0235 -0.007,0.0352 -0.002,0.0121 -0.005,0.0244 -0.008,0.0361 -0.0102,0.0474 -0.0205,0.0946 -0.0307,0.142 -0.003,0.0118 -0.005,0.024 -0.008,0.0361 -5e-4,0.002 -10e-4,0.004 -0.002,0.006 -0.0303,0.13963 -0.062,0.27938 -0.0937,0.4185 v 0.002 c -0.003,0.0122 -0.006,0.0235 -0.009,0.0358 -0.002,0.0121 -0.005,0.0239 -0.008,0.0356 -0.003,0.0116 -0.005,0.0239 -0.008,0.0361 -10e-4,0.006 -0.003,0.0121 -0.004,0.018 -0.002,0.006 -0.002,0.0112 -0.004,0.0166 -10e-4,0.003 -10e-4,0.005 -0.002,0.007 -0.021,0.0898 -0.0415,0.17962 -0.0625,0.269 -0.001,0.003 -0.001,0.005 -0.002,0.009 -0.002,0.0117 -0.005,0.024 -0.008,0.0352 -0.004,0.0121 -0.006,0.0239 -0.009,0.0361 -0.002,0.0116 -0.006,0.0234 -0.009,0.0356 -0.003,0.0117 -0.005,0.0234 -0.008,0.0351 -5e-4,0.003 -10e-4,0.006 -0.002,0.009 -0.002,0.009 -0.004,0.0176 -0.006,0.0264 -0.002,0.0118 -0.005,0.0235 -0.008,0.0356 -0.003,0.0117 -0.005,0.0235 -0.008,0.0352 -0.003,0.0121 -0.006,0.0239 -0.009,0.0356 0,5e-4 0,0.001 -5e-4,0.001 -0.0166,0.0708 -0.0341,0.141 -0.0517,0.21187 -0.002,0.0118 -0.005,0.0234 -0.009,0.0356 -0.003,0.0118 -0.005,0.023 -0.008,0.0351 -0.003,0.0122 -0.006,0.0235 -0.009,0.0352 v 3.8e-4 c -0.003,0.0118 -0.006,0.0235 -0.009,0.0358 -0.004,0.0111 -0.006,0.0234 -0.009,0.0351 -0.003,0.0117 -0.005,0.0234 -0.009,0.0351 -0.002,0.0122 -0.006,0.0239 -0.009,0.0356 -0.003,0.0118 -0.006,0.0235 -0.009,0.0351 -0.003,0.0122 -0.006,0.024 -0.009,0.0362 -0.001,0.004 -0.002,0.009 -0.003,0.0126 -0.002,0.008 -0.003,0.0151 -0.005,0.022 l -3.1191,0.13725 c -0.42088,1.2798 -0.85938,2.546902 -1.3222,3.800802 l 3.2769,-0.22612 0.0746,0.0489 c -0.0302,0.0932 -0.061,0.1865 -0.0917,0.27925 -0.004,0.0118 -0.007,0.0235 -0.0113,0.0351 -0.004,0.0112 -0.008,0.023 -0.0118,0.0348 -0.004,0.0117 -0.008,0.0229 -0.0116,0.0346 -0.004,0.0118 -0.008,0.023 -0.0117,0.0346 -0.004,0.0118 -0.008,0.0235 -0.0118,0.0352 -0.0118,0.0346 -0.0234,0.0698 -0.0351,0.105 l -0.38725,1.1132 c -0.062,0.17337 -0.125,0.34712 -0.189,0.5205 -0.004,0.0118 -0.009,0.0234 -0.0131,0.0346 l -0.0699,0.0323 -3.3999,0.24075 c -0.53125,1.3251 -1.0932,2.6309 -1.6948,3.9145 l 3.495,-0.0991 c -0.27975,0.627 -0.57075,1.2525 -0.8715,1.8765 l 0.001,5e-4 z M 170.03441,83.071938 c -0.57375,2.0348 -1.2475,4.0689 -2.035,6.1035 0.59875,0.0274 1.4588,0.0348 2.37,-0.0615 1.6875,-0.17725 2.93,-1.5981 3.73,-4.2622 0.77,-2.5664 -3.7325,-1.8369 -4.065,-1.7798 z m 9.4825,15.882 c 4.215,-6.9102 6.9188,-14.829 8.5462,-23.465 l 20.256,0.0361 c -0.7225,2.3618 -1.5638,4.7001 -2.535,7.0118 l -10.375,0.1655 0.11,0.10738 c -0.31625,1.3604 -0.70125,2.6992 -1.165,4.0156 l 6.8025,-0.10887 c -0.31125,0.81737 -0.74625,1.8614 -1.3062,2.981 -0.40375,0.80612 -0.78125,1.4908 -1.1088,2.0488 l -6.6938,0.2295 c -0.685,1.2354 -1.4588,2.4439 -2.3325,3.6226 l -0.14875,0.271 9.105,-0.312 c -1.1525,1.6821 -2.3912,3.3456 -3.7238,4.991102 l -15.78,1.0142 -10.93,0.70212 c 0,0 1.5988,-2.761802 0.79875,-4.537602 -0.40625,-0.90425 -1.1138,-1.601 -1.7088,-2.0679 -1.1362,0.16013 -2.0162,0.24513 -2.3762,0.27738 -1.1712,2.2656 -2.5,4.530802 -4.0025,6.796402 l -7.7912,0.5005 c 4.8588,-8.133802 8.5975,-17.285002 10.852,-27.788002 l 0.0588,0.0279 -0.005,-0.0279 c 0,0 9.68,0.0171 12.521,0.0225 2.8425,0.005 4.3538,0.008 6.0388,2.2774 1.6862,2.269 -0.1775,6.394 -1.5088,9.7685 -1.3325,3.3745 -3.1088,4.9731 -6.8388,6.4829 -0.41125,0.1665 -0.8475,0.32038 -1.2975,0.4615 1.0525,0.309 2.4575,0.95213 3.6062,2.2915 1.1038,1.2875 1.7575,2.5318 2.13,3.432602 l 0.80125,-1.229502 z" clip-rule="evenodd" style="fill:url(#linearGradient3763);fill-rule:evenodd"/><path style="font-size:40px;font-style:normal;font-weight:400;text-align:center;line-height:125%;letter-spacing:0;word-spacing:0;text-anchor:middle;fill:url(#linearGradient3068);fill-opacity:1;stroke:#99def9;stroke-width:1.4000001;stroke-miterlimit:4;stroke-opacity:1;stroke-dasharray:none;font-family:Sans" id="path3169-1" d="m 16.152603,25.78949 9.364553,1.025262 c 4.979843,8.787957 7.126574,17.743734 7.126574,17.743734 l 8.08816,0 C 38.388434,35.770529 37.216707,32.233992 34.580319,27.693548 l 10.536282,1.025261 c 2.343456,3.222251 10.714725,26.382507 11.520288,43.006395 l -11.657486,0 c 0,0 -0.846304,-12.275594 -2.55059,-18.530732 l -7.941694,-0.32847 c 0,0 1.514919,7.745557 1.722053,18.56627 l -11.415077,0.146466 c 0,-18.015315 -3.808115,-35.243699 -8.641492,-45.789248"/><g id="g3070" transform="matrix(1.0393992,0.0858498,0.24359592,0.98221421,-53.844767,0.109641)" style="fill:#fff"><g style="font-size:19.91077423000000124px;font-style:normal;font-variant:normal;font-weight:400;font-stretch:normal;text-align:center;line-height:125%;letter-spacing:0;word-spacing:0;writing-mode:lr-tb;text-anchor:middle;fill:#fff;fill-opacity:1;stroke:none;font-family:Six Caps;-inkscape-font-specification:Six Caps" id="text3028"><path style="line-height:125%;font-family:Six Caps;-inkscape-font-specification:Six Caps;fill:#fff" id="path3034" d="m 92.11901,9.2048477 1.244423,0 0,-7.7776462 1.244424,0 0,16.7997155 -1.244424,0 0,-8.088752 -1.244423,0 0,8.088752 -1.244424,0 0,-16.7997155 1.244424,0 0,7.7776462"/><path style="line-height:125%;font-family:Six Caps;-inkscape-font-specification:Six Caps;fill:#fff" id="path3036" d="m 99.274444,18.226917 -1.244423,0 -0.155553,-4.044376 -0.923595,0 -0.165275,4.044376 -1.244424,0 0.933318,-16.7997155 1.866635,0 0.933317,16.7997155 m -1.555529,-8.7109635 -0.311106,-7.4665403 -0.311106,7.4665403 -0.14583,3.7332705 0.923595,0 -0.155553,-3.7332705"/><path style="line-height:125%;font-family:Six Caps;-inkscape-font-specification:Six Caps;fill:#fff" id="path3038" d="m 103.94103,8.2715302 -1.24442,0 0,-5.2887995 c 0,-0.1555375 -0.0195,-0.2819241 -0.0583,-0.3791602 -0.0324,-0.1036862 -0.0778,-0.1814626 -0.13611,-0.2333294 -0.0583,-0.058316 -0.12639,-0.097205 -0.20417,-0.1166647 -0.0713,-0.02591 -0.14583,-0.038872 -0.2236,-0.038888 -0.0778,1.6e-5 -0.15556,0.012979 -0.23333,0.038888 -0.0713,0.01946 -0.13611,0.058348 -0.19444,0.1166647 -0.0583,0.051867 -0.10695,0.1296432 -0.14583,0.2333294 -0.0324,0.097236 -0.0486,0.2236227 -0.0486,0.3791602 l 0,13.6886573 c -1e-5,0.07778 0.003,0.171758 0.01,0.28194 0.006,0.103703 0.0292,0.204164 0.068,0.301383 0.0389,0.09722 0.10046,0.18148 0.18472,0.252774 0.0843,0.06481 0.20416,0.09722 0.35972,0.09722 0.15555,0 0.27545,-0.03241 0.35971,-0.09722 0.0843,-0.07129 0.14583,-0.155552 0.18472,-0.252774 0.0389,-0.09722 0.0616,-0.19768 0.0681,-0.301383 0.006,-0.110182 0.01,-0.204162 0.01,-0.28194 l 0,-6.533223 1.24442,0 0,6.533223 c 0,0.07778 -0.01,0.220368 -0.0292,0.427771 -0.0194,0.200923 -0.0875,0.408327 -0.20417,0.622211 -0.11667,0.213886 -0.30138,0.401845 -0.55415,0.56388 -0.25278,0.168515 -0.6125,0.252773 -1.07915,0.252773 -0.46666,0 -0.82638,-0.08426 -1.07915,-0.252773 -0.25278,-0.162035 -0.43749,-0.349994 -0.55416,-0.56388 -0.11666,-0.213884 -0.18472,-0.421288 -0.20416,-0.622211 -0.0195,-0.207403 -0.0292,-0.349993 -0.0292,-0.427771 l 0,-13.6886573 c 0,-0.2981275 0.0551,-0.5541414 0.16528,-0.7680425 0.11018,-0.2203504 0.25277,-0.398588 0.42777,-0.5347132 0.18147,-0.1360921 0.3824,-0.2365533 0.60277,-0.3013838 0.22036,-0.064797 0.44397,-0.097204 0.67082,-0.097221 0.23981,1.7e-5 0.46989,0.035664 0.69026,0.1069427 0.22685,0.071312 0.42777,0.1782544 0.60277,0.3208279 0.17499,0.1426065 0.31434,0.3208441 0.41805,0.5347132 0.1037,0.213901 0.15555,0.4601929 0.15555,0.7388763 l 0,5.2887995"/><path style="line-height:125%;font-family:Six Caps;-inkscape-font-specification:Six Caps;fill:#fff" id="path3040" d="m 108.91873,18.226917 -1.24443,0 -1.24442,-8.3998576 0,8.3998576 -1.24442,0 0,-16.7997155 1.24442,0 0,7.7776462 1.24442,-7.7776462 1.24443,0 -1.24443,7.1554345 -0.13611,0.9333175 0.13611,0.9333175 1.24443,7.777646"/><path style="line-height:125%;font-family:Six Caps;-inkscape-font-specification:Six Caps;fill:#fff" id="path3042" d="m 115.87972,8.2715302 -1.24442,0 0,-5.2887995 c -1e-5,-0.1555375 -0.0195,-0.2819241 -0.0583,-0.3791602 -0.0324,-0.1036862 -0.0778,-0.1814626 -0.13611,-0.2333294 -0.0583,-0.058316 -0.12639,-0.097205 -0.20416,-0.1166647 -0.0713,-0.02591 -0.14583,-0.038872 -0.22361,-0.038888 -0.0778,1.6e-5 -0.15555,0.012979 -0.23333,0.038888 -0.0713,0.01946 -0.13611,0.058348 -0.19444,0.1166647 -0.0583,0.051867 -0.10694,0.1296432 -0.14583,0.2333294 -0.0324,0.097236 -0.0486,0.2236227 -0.0486,0.3791602 l 0,13.6886573 c 0,0.07778 0.003,0.171758 0.01,0.28194 0.006,0.103703 0.0292,0.204164 0.0681,0.301383 0.0389,0.09722 0.10046,0.18148 0.18472,0.252774 0.0843,0.06481 0.20416,0.09722 0.35971,0.09722 0.15555,0 0.27546,-0.03241 0.35972,-0.09722 0.0842,-0.07129 0.14583,-0.155552 0.18472,-0.252774 0.0389,-0.09722 0.0616,-0.19768 0.068,-0.301383 0.006,-0.110182 0.01,-0.204162 0.01,-0.28194 l 0,-6.533223 1.24442,0 0,6.533223 c -1e-5,0.07778 -0.01,0.220368 -0.0292,0.427771 -0.0194,0.200923 -0.0875,0.408327 -0.20416,0.622211 -0.11667,0.213886 -0.30139,0.401845 -0.55416,0.56388 -0.25277,0.168515 -0.61249,0.252773 -1.07915,0.252773 -0.46666,0 -0.82637,-0.08426 -1.07914,-0.252773 -0.25278,-0.162035 -0.4375,-0.349994 -0.55416,-0.56388 -0.11667,-0.213884 -0.18472,-0.421288 -0.20417,-0.622211 -0.0194,-0.207403 -0.0292,-0.349993 -0.0292,-0.427771 l 0,-13.6886573 c 0,-0.2981275 0.0551,-0.5541414 0.16527,-0.7680425 0.11019,-0.2203504 0.25278,-0.398588 0.42777,-0.5347132 0.18148,-0.1360921 0.3824,-0.2365533 0.60277,-0.3013838 0.22037,-0.064797 0.44397,-0.097204 0.67082,-0.097221 0.23981,1.7e-5 0.4699,0.035664 0.69027,0.1069427 0.22684,0.071312 0.42777,0.1782544 0.60277,0.3208279 0.17499,0.1426065 0.31434,0.3208441 0.41805,0.5347132 0.10369,0.213901 0.15554,0.4601929 0.15555,0.7388763 l 0,5.2887995"/><path style="line-height:125%;font-family:Six Caps;-inkscape-font-specification:Six Caps;fill:#fff" id="path3044" d="m 118.36857,1.4272015 0,15.8663985 1.24442,0 0,0.933317 -2.48885,0 0,-16.7997155 1.24443,0"/><path style="line-height:125%;font-family:Six Caps;-inkscape-font-specification:Six Caps;fill:#fff" id="path3046" d="m 122.10184,16.671388 c -10e-6,0.07778 0.003,0.171758 0.01,0.28194 0.006,0.103703 0.0292,0.204164 0.068,0.301383 0.0389,0.09722 0.10046,0.18148 0.18472,0.252774 0.0843,0.06481 0.20416,0.09722 0.35972,0.09722 0.15555,0 0.27545,-0.03241 0.35971,-0.09722 0.0843,-0.07129 0.14583,-0.155552 0.18472,-0.252774 0.0389,-0.09722 0.0616,-0.19768 0.0681,-0.301383 0.006,-0.110182 0.01,-0.204162 0.01,-0.28194 l 0,-15.2441865 1.24442,0 0,15.2441865 c 0,0.07778 -0.01,0.220368 -0.0292,0.427771 -0.0195,0.200923 -0.0875,0.408327 -0.20417,0.622211 -0.11667,0.213886 -0.30138,0.401845 -0.55415,0.56388 -0.25278,0.168515 -0.6125,0.252773 -1.07915,0.252773 -0.46666,0 -0.82638,-0.08426 -1.07915,-0.252773 -0.25278,-0.162035 -0.43749,-0.349994 -0.55416,-0.56388 -0.11666,-0.213884 -0.18472,-0.421288 -0.20416,-0.622211 -0.0194,-0.207403 -0.0292,-0.349993 -0.0292,-0.427771 l 0,-15.2441865 1.24443,0 0,15.2441865"/><path style="line-height:125%;font-family:Six Caps;-inkscape-font-specification:Six Caps;fill:#fff" id="path3048" d="m 129.56838,16.671388 c -1e-5,0.388884 -0.0713,0.690267 -0.21389,0.904151 -0.14259,0.207405 -0.33055,0.359717 -0.56388,0.456937 -0.23333,0.09722 -0.49907,0.155553 -0.79721,0.174997 -0.29814,0.01296 -0.60276,0.01944 -0.91387,0.01944 l -1.24442,0 0,-16.7997155 1.24442,0 c 0.38888,1.68e-5 0.73563,0.00974 1.04026,0.029166 0.3111,0.01298 0.5736,0.068071 0.78749,0.165275 0.21388,0.097237 0.37591,0.2527898 0.4861,0.4666587 0.11666,0.2074199 0.17499,0.5055627 0.175,0.8944293 l 0,5.2887995 c -1e-5,0.3111154 -0.0778,0.550926 -0.23333,0.7194322 -0.15556,0.1685248 -0.38889,0.2949114 -0.69999,0.3791603 0.3111,0.071304 0.54443,0.1912091 0.69999,0.3597161 0.15555,0.168524 0.23332,0.4083342 0.23333,0.7194322 l 0,6.222117 m -2.48885,-7.7776462 0.93332,0 c 0.0778,9.4e-6 0.1361,-0.016194 0.175,-0.04861 0.0454,-0.038879 0.0778,-0.087489 0.0972,-0.1458309 0.0194,-0.058323 0.0292,-0.1231364 0.0292,-0.1944412 0.006,-0.077767 0.01,-0.155543 0.01,-0.2333293 l 0,-5.2887995 c 0,-0.1555375 -0.0227,-0.2754427 -0.068,-0.3597161 -0.0389,-0.084242 -0.10695,-0.1458151 -0.20416,-0.1847191 -0.0972,-0.038872 -0.22685,-0.061557 -0.38889,-0.068054 -0.15555,-0.00647 -0.34999,-0.00971 -0.58332,-0.00972 l 0,6.5332227 m 1.24442,1.5555292 c 0,-0.07777 -0.003,-0.152304 -0.01,-0.223607 0,-0.07777 -0.01,-0.145823 -0.0292,-0.204163 -0.0194,-0.058325 -0.0519,-0.1036941 -0.0972,-0.1361093 -0.0389,-0.03888 -0.0972,-0.058324 -0.175,-0.058332 l -0.93332,0 0,7.4665406 c 0.23333,10e-7 0.42777,-0.0032 0.58332,-0.0097 0.16204,-0.0065 0.29166,-0.02917 0.38889,-0.06806 0.0972,-0.03889 0.16527,-0.10046 0.20416,-0.184719 0.0454,-0.08426 0.068,-0.204162 0.068,-0.359716 l 0,-6.222117"/></g><g style="font-size:16.50211142999999936px;font-style:normal;font-variant:normal;font-weight:400;font-stretch:normal;text-align:center;line-height:125%;letter-spacing:0;word-spacing:0;writing-mode:lr-tb;text-anchor:middle;fill:#fff;fill-opacity:1;stroke:none;font-family:Six Caps;-inkscape-font-specification:Six Caps" id="text3028-2"><path style="line-height:125%;font-family:Six Caps;-inkscape-font-specification:Six Caps;fill:#fff" id="path3051" d="m 137.69313,10.214696 c 0,0.322315 -0.0591,0.572103 -0.17727,0.749364 -0.11818,0.171904 -0.27396,0.298141 -0.46734,0.378711 -0.19339,0.08058 -0.41363,0.128929 -0.66073,0.145038 -0.2471,0.01075 -0.49958,0.01612 -0.75742,0.01611 l 0,6.703983 -1.03138,0 0,-13.9236568 1.03138,0 c 0.51569,1.39e-5 0.9132,0.042988 1.19253,0.1289227 0.27933,0.085962 0.48346,0.1933978 0.61239,0.3223069 0.12892,0.1289361 0.20412,0.2686023 0.22561,0.4189989 0.0215,0.1504228 0.0322,0.290089 0.0322,0.418999 l 0,4.6412183 m -1.03138,-4.6412183 c 0,-0.12891 -0.0188,-0.2282879 -0.0564,-0.2981339 -0.0322,-0.06982 -0.0886,-0.120852 -0.16921,-0.1530958 -0.0806,-0.032217 -0.18802,-0.051019 -0.32231,-0.056404 -0.12893,-0.00536 -0.29008,-0.00804 -0.48346,-0.00806 l 0,5.6726003 c 0.12892,8e-6 0.25516,-0.0027 0.37871,-0.0081 0.12355,-0.0054 0.23367,-0.02417 0.33036,-0.0564 0.0967,-0.03222 0.17458,-0.08326 0.23368,-0.153096 0.0591,-0.06982 0.0886,-0.169203 0.0886,-0.298134 l 0,-4.6412183"/><path style="line-height:125%;font-family:Six Caps;-inkscape-font-specification:Six Caps;fill:#fff" id="path3053" d="m 141.56081,9.956851 c 0,0.386776 -0.0645,0.655365 -0.19338,0.805767 -0.12893,0.150417 -0.32231,0.225622 -0.58015,0.225615 0.12892,7e-6 0.24173,0.02955 0.33842,0.08863 0.0967,0.0591 0.17727,0.136988 0.24173,0.233673 0.0645,0.0967 0.1128,0.20682 0.14504,0.330364 0.0322,0.123558 0.0483,0.249795 0.0483,0.378711 l 0,6.188292 -1.03138,0 0,-6.446138 c 0,-0.128916 -0.0295,-0.228294 -0.0886,-0.298133 -0.0591,-0.06983 -0.13698,-0.120859 -0.23367,-0.153096 -0.0967,-0.03222 -0.20682,-0.05102 -0.33037,-0.0564 -0.12355,-0.0054 -0.24979,-0.0081 -0.37871,-0.0081 l 0,6.961829 -1.03138,0 0,-13.9236568 1.03138,0 c 0.25784,1.39e-5 0.51032,0.00807 0.75742,0.024173 0.2471,0.010758 0.46734,0.056418 0.66073,0.1369804 0.19338,0.08059 0.34916,0.209513 0.46735,0.3867683 0.11817,0.1719102 0.17726,0.4190118 0.17726,0.7413058 l 0,4.3833733 m -1.03138,-4.3833733 c 0,-0.12891 -0.0188,-0.2282879 -0.0564,-0.2981339 -0.0322,-0.06982 -0.0886,-0.120852 -0.16921,-0.1530958 -0.0806,-0.032217 -0.18802,-0.051019 -0.32231,-0.056404 -0.12892,-0.00536 -0.29008,-0.00804 -0.48346,-0.00806 l 0,5.6726003 c 0.12892,8e-6 0.25516,-0.0027 0.37871,-0.0081 0.12355,-0.0054 0.23367,-0.02417 0.33037,-0.0564 0.0967,-0.03222 0.17458,-0.08326 0.23367,-0.153096 0.0591,-0.06982 0.0886,-0.169203 0.0886,-0.298134 l 0,-4.6412183"/><path style="line-height:125%;font-family:Six Caps;-inkscape-font-specification:Six Caps;fill:#fff" id="path3055" d="m 144.91281,5.0577867 -1.28923,0 0,5.4147553 1.03138,0 0,0.773536 -1.03138,0 0,6.188292 1.28923,0 0,0.773537 -2.32061,0 0,-13.9236568 2.32061,0 0,0.7735365"/><path style="line-height:125%;font-family:Six Caps;-inkscape-font-specification:Six Caps;fill:#fff" id="path3057" d="m 147.49126,14.815627 c 0,-0.569405 -0.0296,-1.058236 -0.0886,-1.466496 -0.0591,-0.40825 -0.13699,-0.762788 -0.23368,-1.063613 -0.0967,-0.306185 -0.20681,-0.572088 -0.33036,-0.797709 -0.12355,-0.225608 -0.24979,-0.437793 -0.37871,-0.636556 -0.12892,-0.198749 -0.25516,-0.397504 -0.37871,-0.596268 -0.12355,-0.198748 -0.23367,-0.4243625 -0.33037,-0.6768446 -0.0967,-0.2524648 -0.17458,-0.5425407 -0.23367,-0.8702285 -0.0591,-0.3330406 -0.0886,-0.730552 -0.0886,-1.1925354 l 0,-1.9418988 c 0,-0.12891 0.0188,-0.273948 0.0564,-0.4351143 0.043,-0.166512 0.12087,-0.3196076 0.23367,-0.4592873 0.11281,-0.1450244 0.26859,-0.2658894 0.46735,-0.3625952 0.20412,-0.1020499 0.46734,-0.1530817 0.78965,-0.1530958 0.32231,1.41e-5 0.58284,0.051046 0.78159,0.1530958 0.20413,0.096706 0.3626,0.2175708 0.47541,0.3625952 0.1128,0.1396797 0.18801,0.2927753 0.22561,0.4592873 0.043,0.1611663 0.0645,0.3062043 0.0645,0.4351143 l 0,3.6098368 -1.03138,0 0,-3.6098368 c 0,-0.12891 -0.0161,-0.2336597 -0.0483,-0.3142492 -0.0269,-0.085935 -0.0645,-0.1503968 -0.11281,-0.1933842 -0.0483,-0.048333 -0.10475,-0.080563 -0.16921,-0.096692 -0.0591,-0.021474 -0.12087,-0.032217 -0.18533,-0.032231 -0.0645,1.33e-5 -0.12892,0.010757 -0.19338,0.032231 -0.0591,0.016129 -0.11281,0.048359 -0.16116,0.096692 -0.0483,0.042987 -0.0886,0.1074487 -0.12086,0.1933842 -0.0269,0.08059 -0.0403,0.1853392 -0.0403,0.3142492 l 0,1.5712459 c 0,0.6070217 0.051,1.1146545 0.1531,1.5228999 0.10206,0.4082645 0.22829,0.7654876 0.37871,1.0716704 0.15578,0.3008281 0.3223,0.5747881 0.49957,0.8218821 0.17727,0.24711 0.34111,0.515698 0.49152,0.805768 0.15578,0.28471 0.2847,0.617761 0.38677,0.999151 0.10206,0.37603 0.15309,0.84606 0.15309,1.410092 l 0,3.142492 c 0,0.06446 -0.008,0.182642 -0.0242,0.354538 -0.0161,0.166526 -0.0725,0.338423 -0.16921,0.515691 -0.0967,0.177269 -0.24979,0.33305 -0.45929,0.467345 -0.2095,0.139666 -0.50763,0.209499 -0.8944,0.209499 -0.38677,0 -0.6849,-0.06983 -0.8944,-0.209499 -0.2095,-0.134295 -0.3626,-0.290076 -0.45929,-0.467345 -0.0967,-0.177268 -0.15309,-0.349165 -0.16921,-0.515691 -0.0161,-0.171896 -0.0242,-0.290075 -0.0242,-0.354538 l 0,-4.641219 1.03138,0 0,4.641219 c 0,0.06446 0.003,0.142354 0.008,0.233673 0.005,0.08595 0.0242,0.169212 0.0564,0.249788 0.0322,0.08058 0.0833,0.15041 0.1531,0.209499 0.0698,0.05372 0.16921,0.08058 0.29813,0.08058 0.12892,0 0.2283,-0.02686 0.29813,-0.08058 0.0698,-0.05909 0.12087,-0.128922 0.1531,-0.209499 0.0322,-0.08058 0.051,-0.163839 0.0564,-0.249788 0.005,-0.09132 0.008,-0.16921 0.008,-0.233673 l 0,-2.103052"/><path style="line-height:125%;font-family:Six Caps;-inkscape-font-specification:Six Caps;fill:#fff" id="path3059" d="m 151.61679,5.0577867 -1.28923,0 0,5.4147553 1.03138,0 0,0.773536 -1.03138,0 0,6.188292 1.28923,0 0,0.773537 -2.32061,0 0,-13.9236568 2.32061,0 0,0.7735365"/><path style="line-height:125%;font-family:Six Caps;-inkscape-font-specification:Six Caps;fill:#fff" id="path3061" d="m 155.48447,18.207907 -1.03138,0 -1.28923,-10.3138199 0,10.3138199 -0.77354,0 0,-13.9236568 1.03139,0 1.28922,10.3138198 0,-10.3138198 0.77354,0 0,13.9236568"/><path style="line-height:125%;font-family:Six Caps;-inkscape-font-specification:Six Caps;fill:#fff" id="path3063" d="m 159.35215,4.2842502 0,0.7735365 -1.03138,0 0,13.1501203 -1.03138,0 0,-13.1501203 -1.03138,0 0,-0.7735365 3.09414,0"/><path style="line-height:125%;font-family:Six Caps;-inkscape-font-specification:Six Caps;fill:#fff" id="path3065" d="m 161.93061,14.815627 c 0,-0.569405 -0.0296,-1.058236 -0.0886,-1.466496 -0.0591,-0.40825 -0.13698,-0.762788 -0.23367,-1.063613 -0.0967,-0.306185 -0.20681,-0.572088 -0.33036,-0.797709 -0.12356,-0.225608 -0.24979,-0.437793 -0.37871,-0.636556 -0.12893,-0.198749 -0.25516,-0.397504 -0.37871,-0.596268 -0.12356,-0.198748 -0.23368,-0.4243625 -0.33037,-0.6768446 -0.0967,-0.2524648 -0.17458,-0.5425407 -0.23367,-0.8702285 -0.0591,-0.3330406 -0.0886,-0.730552 -0.0886,-1.1925354 l 0,-1.9418988 c 0,-0.12891 0.0188,-0.273948 0.0564,-0.4351143 0.043,-0.166512 0.12086,-0.3196076 0.23367,-0.4592873 0.11281,-0.1450244 0.26859,-0.2658894 0.46734,-0.3625952 0.20413,-0.1020499 0.46735,-0.1530817 0.78966,-0.1530958 0.3223,1.41e-5 0.58283,0.051046 0.78159,0.1530958 0.20413,0.096706 0.36259,0.2175708 0.4754,0.3625952 0.11281,0.1396797 0.18801,0.2927753 0.22562,0.4592873 0.043,0.1611663 0.0645,0.3062043 0.0645,0.4351143 l 0,3.6098368 -1.03138,0 0,-3.6098368 c 0,-0.12891 -0.0161,-0.2336597 -0.0483,-0.3142492 -0.0269,-0.085935 -0.0645,-0.1503968 -0.11281,-0.1933842 -0.0483,-0.048333 -0.10475,-0.080563 -0.16921,-0.096692 -0.0591,-0.021474 -0.12086,-0.032217 -0.18532,-0.032231 -0.0645,1.33e-5 -0.12893,0.010757 -0.19339,0.032231 -0.0591,0.016129 -0.11281,0.048359 -0.16115,0.096692 -0.0483,0.042987 -0.0886,0.1074487 -0.12087,0.1933842 -0.0269,0.08059 -0.0403,0.1853392 -0.0403,0.3142492 l 0,1.5712459 c -10e-6,0.6070217 0.051,1.1146545 0.15309,1.5228999 0.10206,0.4082645 0.2283,0.7654876 0.37871,1.0716704 0.15578,0.3008281 0.32231,0.5747881 0.49958,0.8218821 0.17726,0.24711 0.3411,0.515698 0.49152,0.805768 0.15577,0.28471 0.2847,0.617761 0.38676,0.999151 0.10206,0.37603 0.1531,0.84606 0.1531,1.410092 l 0,3.142492 c 0,0.06446 -0.008,0.182642 -0.0242,0.354538 -0.0161,0.166526 -0.0725,0.338423 -0.16921,0.515691 -0.0967,0.177269 -0.2498,0.33305 -0.45929,0.467345 -0.2095,0.139666 -0.50764,0.209499 -0.8944,0.209499 -0.38677,0 -0.68491,-0.06983 -0.8944,-0.209499 -0.20951,-0.134295 -0.3626,-0.290076 -0.45929,-0.467345 -0.0967,-0.177268 -0.1531,-0.349165 -0.16921,-0.515691 -0.0161,-0.171896 -0.0242,-0.290075 -0.0242,-0.354538 l 0,-4.641219 1.03139,0 0,4.641219 c -10e-6,0.06446 0.003,0.142354 0.008,0.233673 0.005,0.08595 0.0242,0.169212 0.0564,0.249788 0.0322,0.08058 0.0833,0.15041 0.15309,0.209499 0.0698,0.05372 0.16921,0.08058 0.29814,0.08058 0.12892,0 0.2283,-0.02686 0.29813,-0.08058 0.0698,-0.05909 0.12086,-0.128922 0.1531,-0.209499 0.0322,-0.08058 0.051,-0.163839 0.0564,-0.249788 0.005,-0.09132 0.008,-0.16921 0.008,-0.233673 l 0,-2.103052"/></g></g></svg>