<svg xmlns="http://www.w3.org/2000/svg" xmlns:svg="http://www.w3.org/2000/svg" id="Layer_1" width="187.084" height="120.054" x="0" y="0" enable-background="new 0 0 331.334 254.218" version="1.1" viewBox="0 0 187.084 120.054" xml:space="preserve"><metadata id="metadata8828"/><g id="g8688" transform="matrix(0.81963393,0,0,0.81963393,-51.774775,-79.295825)"><g id="g8690"><path id="path8692" d="m 93.46,205.027 c 0,0 -0.302,3.102 1.795,5.456 2.096,2.354 39.71,31.052 43.678,32.354 3.968,1.305 4.288,-1.25 4.288,-1.25 L 93.46,205.027 Z" style="fill:#99938f"/><path id="path8694" d="m 281.737,220.235 c 0,0 1.886,-0.985 0.621,3.175 -1.192,3.916 -120.129,18.68 -138.377,19.635 -0.692,0.035 -2.553,0.289 -3.872,0.109 -0.826,-0.111 -0.331,-3.943 -0.331,-3.943 l 141.959,-18.976 z" style="fill:#a39d98"/><path id="path8696" d="m 76.957,124.562 c 0.043,-0.035 16.929,81.01 16.929,81.01 0,0 -1.858,0.725 -3.291,-1.521 -3.094,-11.266 -15.852,-74.182 -15.691,-76.073 0.172,-2.05 1.674,-3.124 2.053,-3.416 z" style="fill:#99938f"/><path id="path8698" d="m 76.412,126.856 c 2.333,13.912 17.039,79.462 17.039,79.462 0,0 44.39,33.682 46.091,34.217 1.701,0.533 3.417,0.057 4.247,-0.018 0.83,-0.075 133.231,-18.28 134.792,-18.622 1.871,-0.41 3.375,-0.953 3.941,-2.308 0.846,-2.021 -42.83,-29.602 -42.979,-30.01 -2.162,-6.012 -10.518,-68.502 -11.445,-72.934 -0.93,-4.431 -2.099,-4.391 -5.474,-4.681 -3.375,-0.29 -129.024,9.026 -144.626,11.834 -1.187,0.217 -1.831,1.601 -1.586,3.06 z" style="fill:#b2aaa3"/><path id="path8700" d="m 87.731,133.511 c 1.621,8.673 11.178,56.531 11.911,58.535 0.733,2.004 3.006,1.295 4.495,1.086 1.489,-0.207 120.473,-12.33 121.98,-12.77 1.507,-0.44 2.825,-0.482 2.667,-1.711 -0.159,-1.229 -7.842,-54.897 -8,-56 -0.159,-1.103 -2.062,-1.653 -3.489,-1.498 -1.327,0.146 -112.548,7.805 -128.057,10.346 -1.182,0.194 -1.666,1.165 -1.507,2.012 z" style="fill:#44403c"/><path id="path8702" d="m 101.306,204.479 c 0,0 131.462,-14.552 133.455,-15.043 1.991,-0.492 2.76,0.894 2.76,0.894 l -134.951,15.296 -1.264,-1.147 z" style="fill:#7f7b75"/></g><g id="g8704" display="none" style="display:none"><path id="path8706" d="m 146.367,182.818 c 0,0 5.75,-6 4.75,-8.75 -1,-2.75 0.5,-3.25 2,-8.25 1.5,-5 4.25,-6.5 5.25,-9 0,0 -0.75,5.5 1.5,4 2.25,-1.5 4.25,-5.75 4.25,-9.5 0,-3.75 0.25,-4 3.75,-7.25 3.5,-3.25 10.25,-10 12.75,-14 2.5,-4 3.5,-5 3.5,-5 0,0 -1.75,8.75 -2,12.25 -0.25,3.5 -1.75,7.75 0.25,8.5 2,0.75 6,3.75 5,8.25 -1,4.5 -1.5,11.75 0,12 0,0 4.25,-5 5.5,-9.75 1.25,-4.75 3.75,-8.5 5,-12.25 0,0 -1.25,6.5 0,9 1.25,2.5 0.5,7 -0.75,10 -1.25,3 -4,5.25 -4,9.25 0,4 -1,6.5 -3.25,7.25 -2.25,0.75 -14.5,0 -18.25,0.75 -3.75,0.75 -6.25,2.5 -11.25,2.5 -5,0 -8.75,-0.25 -14,0 z" display="inline" style="display:inline;fill:#ff6229"/><path id="path8708" d="m 138.867,182.318 c 0,0 -1,-6.5 4.5,-10 5.5,-3.5 8.5,-8.25 9.25,-13 0.75,-4.75 3.5,-9 4.75,-11.75 1.25,-2.75 1.5,-3 4.75,-3.75 0,0 -2.25,3.75 -1.25,8.25 1,4.5 -2,7.5 0.25,7 2.25,-0.5 2.25,0.75 2.5,2.75 0.25,2 -2.5,7.25 -1.5,7.75 1,0.5 0.75,-0.5 3,-4 2.25,-3.5 2.75,-4.75 5.75,-7.5 3,-2.75 2.5,-4.25 3.25,-7 0.75,-2.75 1,-2.75 2,-3.5 0,0 -1,3.75 -0.5,6 0.5,2.25 2.25,6.75 0.25,11.75 -2,5 -2.25,7.75 0.75,8 0,0 0,4.75 -4,6.5 -4,1.75 -4,-0.25 -7.25,1.5 -3.25,1.75 -4.75,2.5 -14,1.75 -9.25,-0.75 -12.5,-0.75 -12.5,-0.75 z" display="inline" style="display:inline;fill:#ff8a29"/><path id="path8710" d="m 128.867,184.818 c 0,0 2.25,-2.75 2,-5.75 -0.25,-3 -1.25,-8 2.5,-11 3.75,-3 5,-4.25 6.25,-6.25 1.25,-2 4,-7.75 6.5,-8.75 0,0 -1,2.25 -0.75,5.25 0.25,3 1,7.25 -1.25,8.25 -2.25,1 -3.25,3.5 -2.75,4.75 0.5,1.25 0.25,3 0.25,3 0,0 -1.25,4 3,1.75 4.25,-2.25 4,-6.75 8.5,-8.25 0,0 -2.25,5.25 -1.5,9.25 0.75,4 -0.25,6.5 -3.25,8 -3,1.5 -15.75,2.5 -17,1.75 -1.25,-0.75 -2.5,-2 -2.5,-2 z" display="inline" style="display:inline;fill:#ffaf45"/></g><g id="g8712"><path id="path8714" d="m 117.367,209.81 c 0.253,-0.818 10,-1.396 11,-1.163 1,0.233 4.5,3.258 3.5,3.491 -1,0.232 -10.253,1.675 -11.75,0.931 -1.497,-0.743 -3.003,-2.441 -2.75,-3.259 z" style="fill:#99938f"/><path id="path8716" d="m 135.559,207.396 c -0.857,0.529 2.431,3.604 3.909,3.113 1.478,-0.484 11.496,-0.358 11.445,-1.391 -0.051,-1.031 -0.652,-3.068 -3.149,-2.945 -2.497,0.123 -11.476,0.773 -12.205,1.223 z" style="fill:#99938f"/><path id="path8718" d="m 155.439,205.125 c -1.225,0.53 1.583,3.178 3.07,3.133 1.487,-0.043 10.893,-0.817 10.616,-1.803 -0.276,-0.982 -1.043,-1.705 -4.521,-1.851 -3.478,-0.146 -9.165,0.521 -9.165,0.521 z" style="fill:#99938f"/><path id="path8720" d="m 172.433,203.048 c -1.766,0.291 2.846,3.854 4.611,3.563 1.764,-0.29 11.607,-1.237 9.814,-2.507 -1.791,-1.271 -1.773,-1.7 -3.644,-1.93 -1.869,-0.229 -10.781,0.874 -10.781,0.874 z" style="fill:#99938f"/><path id="path8722" d="m 190.117,201.312 c 0,0 2.276,3.506 3.543,3.256 1.265,-0.25 10.882,-0.751 10.123,-1.753 -0.761,-1.002 -2.025,-2.755 -4.304,-2.505 -2.277,0.25 -9.362,1.002 -9.362,1.002 z" style="fill:#99938f"/><path id="path8724" d="m 208.034,199.503 c 0,0 1.22,2.969 3.416,2.697 2.197,-0.27 10.494,0 10.25,-1.349 -0.244,-1.351 -1.953,-2.97 -4.393,-2.7 -2.44,0.272 -9.273,1.352 -9.273,1.352 z" style="fill:#99938f"/><path id="path8726" d="m 224.571,197.136 c -0.928,0.248 1.465,2.707 3.031,3.097 1.39,-0.164 10.9,-0.55 10.301,-1.458 -0.6,-0.906 -1.524,-2.736 -3.728,-2.619 -2.199,0.115 -9.604,0.98 -9.604,0.98 z" style="fill:#99938f"/><path id="path8728" d="m 125.367,215.318 c -0.5,1.25 3.25,4 4.5,4 1.25,0 14.5,-1.25 14.5,-1.25 0,0 -0.75,-2.75 -4,-3.25 -3.25,-0.5 -15,0.5 -15,0.5 z" style="fill:#99938f"/><path id="path8730" d="m 146.617,213.318 c -0.75,0.25 2.25,4.25 4.25,4 2,-0.25 11.583,-0.502 12,-1.5 0.417,-0.998 -1.25,-4.25 -4.75,-3.75 -3.5,0.5 -11.5,1.25 -11.5,1.25 z" style="fill:#99938f"/><path id="path8732" d="m 165.367,210.568 c 0,0 2,4 3.75,3.75 1.75,-0.25 11,-0.25 11,-1 0,-0.75 -1.75,-4 -3.5,-3.75 -1.75,0.25 -11.25,1 -11.25,1 z" style="fill:#99938f"/><path id="path8734" d="m 183.367,209.384 c 0,0 2.5,3.685 3.75,3.685 1.25,0 9.75,-0.789 9.75,-0.789 0,0 -1.25,-4.474 -3.75,-4.21 -2.5,0.262 -9.75,1.314 -9.75,1.314 z" style="fill:#99938f"/><path id="path8736" d="m 199.617,207.361 c -0.75,0.264 2,4.482 3.75,3.955 1.75,-0.527 7.5,-0.264 8.25,-1.318 0.75,-1.054 -0.25,-3.164 -2.25,-3.428 -2,-0.264 -9.75,0.791 -9.75,0.791 z" style="fill:#99938f"/><path id="path8738" d="m 214.867,205.273 c -1.5,0.238 2.75,4.534 4.5,4.295 1.75,-0.238 8.25,-1.191 9.25,-1.67 1,-0.479 -1.25,-3.58 -2.5,-3.58 -1.25,0 -11.25,0.955 -11.25,0.955 z" style="fill:#99938f"/><path id="path8740" d="m 230.867,203.177 c -0.5,0.922 2.5,4.373 4.5,4.143 2,-0.23 11.5,-1.381 12.75,-2.07 1.25,-0.689 -4.5,-3.912 -6,-3.682 -1.5,0.23 -11.25,1.609 -11.25,1.609 z" style="fill:#99938f"/><path id="path8742" d="m 242.367,209.73 c 0,0 3,3.043 4.5,2.84 1.5,-0.201 6,-0.811 7,-1.42 1,-0.607 -2,-2.637 -3.25,-2.84 -1.25,-0.202 -9,0.609 -8.25,1.42 z" style="fill:#99938f"/><path id="path8744" d="m 231.415,211.507 c -0.521,0.619 1.777,2.703 3.227,2.791 1.449,0.086 6.279,0.375 7.068,-0.659 0.789,-1.034 -2.704,-3.408 -4.167,-3.279 -1.461,0.128 -6.128,1.147 -6.128,1.147 z" style="fill:#99938f"/><path id="path8746" d="m 218.2,213.082 c 0,0 1.27,2.986 3.047,2.986 1.777,0 7.107,-0.229 7.615,-0.919 0.509,-0.69 0.255,-2.297 -1.522,-2.757 -1.777,-0.458 -9.14,0.69 -9.14,0.69 z" style="fill:#99938f"/><path id="path8748" d="m 183.117,217.436 c 0,0 0.75,4.069 4.5,3.392 3.75,-0.679 27.68,-3.634 28.651,-3.884 0.771,-0.198 -2.281,-3.004 -3.528,-3.252 -1.248,-0.248 -29.623,3.744 -29.623,3.744 z" style="fill:#99938f"/><path id="path8750" d="m 171.288,219.046 c -1.243,0.578 1.457,3.193 2.727,2.818 1.27,-0.371 6.848,-0.156 7.203,-1.334 0.355,-1.178 -1.095,-2.395 -3.221,-2.548 -2.125,-0.15 -6.709,1.064 -6.709,1.064 z" style="fill:#99938f"/><path id="path8752" d="m 159.284,219.901 c 0,0 0.419,3.75 2.304,3.75 1.885,0 7.121,-0.75 7.75,-1 0.629,-0.25 0.209,-3 -1.676,-3.5 -1.885,-0.5 -8.378,0.75 -8.378,0.75 z" style="fill:#99938f"/><path id="path8754" d="m 134.216,222.593 c 0,0 1.127,2.921 3.608,3.074 2.481,0.154 7.184,0.203 8.379,-0.664 1.197,-0.866 -0.658,-3.483 -2.646,-3.662 -1.986,-0.175 -9.341,1.252 -9.341,1.252 z" style="fill:#99938f"/><path id="path8756" d="m 147.315,221.5 c -0.649,0.328 1.96,3.799 3.948,3.371 1.987,-0.428 5.02,-0.367 6.338,-0.744 1.318,-0.379 -0.976,-4.152 -2.629,-3.75 -1.653,0.401 -7.657,1.123 -7.657,1.123 z" style="fill:#99938f"/><path id="path8758" d="m 186.367,224.068 c -0.56,1.118 5.25,7.25 7.75,6.75 2.5,-0.5 30.25,-3.25 31.5,-4.25 1.25,-1 -6.75,-6.5 -8,-6.5 -1.25,0 -30.5,2.5 -31.25,4 z" style="fill:#99938f"/></g></g><g id="g8808" display="none" transform="translate(-116.825,-75.859376)" style="display:none"><path id="path8810" d="m 155.816,113.608 c 0,0 2.244,2.086 2.244,8.342 0,6.256 -1.122,19.811 -5.609,11.47 -4.487,-8.342 -6.731,-7.3 -6.731,-12.513 0,0 10.097,16.684 0,20.854 0,0 -11.219,-2.085 -11.219,-7.82 0,0 -0.001,10.949 8.975,15.119 0,0 8.976,-0.521 8.976,6.257 0,0 -3.366,8.863 3.365,13.557 6.731,4.691 2.244,7.82 0,11.991 -2.244,4.17 4.487,7.3 6.731,12.514 0,0 -5.609,-6.257 1.122,-8.344 6.731,-2.085 5.609,9.907 5.609,9.907 0,0 -0.001,-19.292 7.854,-18.248 0,0 17.954,-9.385 5.611,-16.685 -12.343,-7.299 -13.466,-10.427 -12.343,-16.684 1.122,-6.256 8.976,-14.076 1.122,-19.291 0,0 -1.122,12.512 -6.731,10.949 0,0 -4.488,-6.257 -2.244,-11.991 2.244,-5.734 -2.244,-5.213 -6.732,-9.384 z" display="inline" style="display:inline;fill:#ff7c28"/><path id="path8812" d="m 131.5,193.609 c 0,0 1.333,-9.999 -1.333,-13.333 -2.666,-3.334 -5.333,-9.334 -2.667,-17.334 2.666,-8 -1.333,-13.333 -1.333,-13.333 0,0 6,6.667 6.667,10.667 l -0.667,-7.334 c 0,0 9.334,12.001 8.667,15.334 -0.667,3.333 2,10 4,5.333 2,-4.667 2,-4.667 2,-4.667 0,0 4,0.001 4.667,3.334 0.667,3.333 -10.667,3.333 -8,11.333 0,0 -7.333,0.001 -9.333,-7.333 -0.001,0 0.666,13.333 -2.668,17.333 z" display="inline" style="display:inline;fill:#ff743f"/><path id="path8814" d="m 134.834,122.942 c 0,0 -6,7.333 -4.667,10.667 1.333,3.334 6,8.667 5.333,16 -0.667,7.333 -1.333,10.667 2,18 0,0 -2,-12.666 4,-17.333 6,-4.667 2,-1.334 -1.333,-11.334 -3.333,-10 -7.333,-9.333 -5.333,-16 z" display="inline" style="display:inline;fill:#ffca3f"/><path id="path8816" d="m 168.654,109.664 c 0,0 -3.773,12.171 1.509,17.936 5.282,5.766 -0.755,5.124 2.264,8.968 3.019,3.844 3.019,1.281 5.282,-8.328 2.264,-9.608 -3.773,-4.483 1.509,-14.092 5.282,-9.608 11.319,-13.452 7.546,-17.295 0,0 7.546,5.765 -2.264,21.139 0,0 -5.281,6.406 0,12.812 5.281,6.404 0.754,1.921 3.772,-7.047 3.018,-8.968 10.53,-10.641 5.546,-19.061 -4.984,-8.42 -6.317,-18.42 3.509,-26.42 0,0 -8.664,5.467 0.755,14.733 9.419,9.266 1.509,26.904 3.772,20.499 0,0 3.02,3.843 0.755,8.967 -2.264,5.125 6.792,2.563 6.792,-2.562 0,0 3.019,7.687 -2.264,12.812 -5.283,5.125 0,19.217 0,19.217 0,0 -3.774,7.046 -8.302,11.53 -4.528,4.484 -18.864,6.406 -22.637,12.172 -3.772,5.765 -13.582,-19.217 -13.582,-28.186 0,-8.969 -6.036,-11.53 -3.018,-18.576 3.019,-7.047 3.02,-10.89 9.056,-19.218 z" display="inline" style="display:inline;fill:#ff653f"/><path id="path8818" d="m 150.167,200.942 c 0,0 5.333,-7.334 3.333,-18 -2,-10.666 -6.667,-9.334 -2,-22 4.667,-12.666 14,-15.999 9.333,-25.333 0,0 7.333,10.667 0,28 0,0 0.667,17.333 2,11.333 1.333,-6 2.667,-11.333 4.667,-17.333 2,-6 3.999,-11.333 0.666,-20 0,0 8.001,16.001 5.334,22.667 -2.667,6.666 -4,23.999 -2,20.666 2,-3.333 2,-7.999 5.333,-8.666 3.333,-0.667 6.667,-1.333 6.667,-10 0,-8.667 3.333,-7.334 3.333,-14.667 0,0 -0.666,10.667 0.667,16 1.333,5.333 -0.667,10.001 1.333,12.667 2,2.666 4.001,3.332 2.667,-5.334 0,0 2.667,0.668 0,11.334 -2.667,10.666 5.999,14 8.666,13.333 2.667,-0.667 -13.333,2.667 -13.333,8.667 0.667,6.666 -14,6 -14,6 0,0 -10,6.666 -10.667,-5.334 -0.667,-12 -1.999,0 -11.999,-4 z" display="inline" style="display:inline;fill:#ffb83f"/></g><g id="g9389" transform="matrix(0.84236725,-0.27755012,0.27755012,0.84236725,-59.295035,39.702254)"><path style="fill:#7a402d;fill-opacity:1" id="path8762" d="m 221.76758,90.292969 -8.66211,0.8125 -3.83789,1.521484 c 0,0 3.14746,-0.524869 6.97656,-0.513672 3.8291,0.0112 8.19109,1.955151 10.66797,2.910157 7.68089,2.96013 20.77096,8.846932 21.81055,9.093752 7.80082,1.85136 30.26768,11.3335 31.02148,11.46093 2.05869,0.34897 14.77159,5.73831 22.29843,8.88924 2.49123,0.57027 2.66448,-2.81034 -0.55859,-4.16015 -3.76554,-1.51919 -4.22911,-1.70914 -6.02109,-2.24862 -2.83194,-0.85255 -13.23828,-5.33398 -13.23828,-5.33398 l -2.21289,-4.15625 -1.83399,-1.42969 1.10938,4.58789 -18.0332,-6.125 -19.89649,-7.730466 z" transform="matrix(1.0708739,0.35284038,-0.35284038,1.0708739,-20.832534,-144.05083)"/><g id="g8778" transform="matrix(0.81963393,0,0,0.81963393,29.880796,19.781238)"><path id="path8780" d="m 181.334,21.554 c 0,0 -4.999,4 3.667,11.667 8.666,7.667 12.333,15.333 21.333,7.667 9,-7.666 15.333,-11.333 10,-16.667 -5.333,-5.334 -8.666,-8 -12.333,-11.333 -3.667,-3.333 -6.668,-4.333 -12.334,0 -5.666,4.333 -10.333,8.666 -10.333,8.666 z" style="fill:#e6cdb1"/><path id="path8782" d="m 182.235,27.855 c 0.896,0.524 9.14,1.921 11.275,-0.566 2.139,-2.489 2.859,7.874 8.817,5.709 5.958,-2.164 9.685,-0.702 9.685,-0.702 0,0 -5.615,9.442 -10.3,11.715 -4.684,2.272 -21.006,-17.049 -19.477,-16.156 z" style="fill:#e0b890"/></g><g id="g8784" transform="matrix(0.81963393,0,0,0.81963393,29.880796,19.781238)"><path id="path8786" d="m 208.667,46.554 c -2.333,3.333 -1.334,5 4,9.667 5.334,4.667 12.666,17 20,9 7.334,-8 15.333,-15.333 11,-20.333 -4.333,-5 -13.332,-18.667 -18.666,-14.333 C 219.667,34.889 211,43.22 208.667,46.554 Z" style="fill:#e6cdb1"/><path id="path8788" d="m 213.334,42.887 c 0,0 -3.666,4.667 -5,5.667 -1.334,1 -1.666,3 1,5 2.666,2 12.333,13.334 16.333,13.667 4,0.333 7.333,-2.667 9.333,-5.667 2,-3 0.001,-5 0.334,-8 0.333,-3 -0.668,-4.667 -7.334,-6 -6.666,-1.333 -14.999,-3 -14.666,-4.667 z" style="fill:#e0b890"/></g></g><g style="fill:#e6e6e6;fill-opacity:1" id="g12709" transform="matrix(0.12776745,0.02031203,0,0.12776745,31.455215,9.4510081)"><path style="fill:#e6e6e6;fill-opacity:1" id="path12711" d="m 245.942,109.81 c 3.029,-0.092 6.558,0.69 8.558,4.19 4,7 1.5,60 3,58 1.5,-2 14.533,-6.587 14.624,-8.495 0.616,-12.896 3.873,-63.278 17.376,-68.505 15.5,-6 25.5,2.5 27,30.5 1.5,28 -25.5,46.5 -25.5,46.5 0,0 0,3 -1.5,36.5 -1.5,33.5 5.5,29.5 14,24.5 8.5,-5 8.5,-0.5 -1,10 -9.5,10.5 -23.5,4.5 -31,-6.5 -7.5,-11 -2,-50.5 -2,-50.5 l -12.5,8.5 c 0,0 0,14 -5.5,35.5 -5.5,21.5 -20,36 -34.5,33.5 -14.5,-2.5 -21.5,-21 -21.5,-43 0,-22 37.5,-39.5 37.5,-39.5 0,0 -0.142,-7.764 0.934,-41.098 1.076,-33.334 8.98,-30 12.008,-30.092 z M 222,227 c -3,16 2,22 6,23 4,1 4.5,-43.5 4.5,-43.5 0,0 -7.5,4.5 -10.5,20.5 z m 72,-71.5 c 0,0 19.5,-17.5 10.5,-44.5 0,0 -9,12 -10.5,44.5 z"/><path style="fill:#e6e6e6;fill-opacity:1" id="path12713" d="m 339.014,160.996 c -3.333,3.667 -6.333,11.667 -10.333,23.667 -4,12 -3.667,29.333 2.667,30.667 6.334,1.334 8.667,-2 13.333,-12.667 4.666,-10.667 1.33,-41.333 1.664,-44.333 0.334,-3 3.667,-5.333 9,-5.333 5.333,0 8,5.667 8,5.667 0,9 -1,39.667 2.667,43.333 3.667,3.666 13.333,-20.333 13.333,-20.333 0.334,-3 -0.667,-15.333 5,-29.667 5.667,-14.334 17.666,-19.333 25,-19.667 7.334,-0.334 14,3 14,9 0,6 1.666,14 -6.667,15 -8.333,1 -6.667,-9.667 -6.667,-9.667 -1.334,-2.333 -4.333,-4.667 -6.333,20.333 -2,25 2.667,27 7.333,28.333 4.666,1.333 12.667,-9.667 20,-23.333 7.333,-13.666 15.999,-43.667 15.999,-43.667 0,0 -2.334,-46 -1.334,-60 1,-14 8,-16 14.334,-15.667 6.334,0.333 14.333,13 17,25.333 2.667,12.333 -10.667,42.333 -10.667,42.333 1.667,6.667 3.998,36.333 3.998,36.333 5,-5 14.159,-20.159 15,-29.333 0,0 -2.841,-0.493 -5,-3.667 -2.666,-5.667 4.333,-19.333 12.666,-20 5.16,-0.826 12.493,1.507 14.334,11.667 2.159,15.84 -19,40 -19,40 0,0 -2.334,-1 11.333,1.667 13.667,2.667 25.98,10.31 39.333,13.333 13.354,3.023 23.667,1 36,-4.667 12.333,-5.667 19,2.333 17.667,9.667 -1.333,7.334 -8.994,16.747 -23.333,20.333 -14.339,3.586 -35.229,-0.764 -42.921,-5.263 -7.692,-4.499 -16.938,-13.14 -26.178,-19.021 -9.24,-5.881 -21.242,-7.381 -21.242,-7.38 -1.666,1.333 -8.334,6.667 -8.334,6.667 0,0 0.501,6.837 -0.333,11.333 0.333,5.333 -2.501,7.829 -9.667,14 -12.499,7.171 -11.719,-5.056 -11.979,-7.184 -0.827,-6.785 -1.021,-19.148 -1.021,-19.148 0,0 -11.666,19.333 -13.666,22.333 -2,3 -9.666,12.667 -23.333,15 -13.667,2.333 -24.332,-6.666 -24.332,-6.666 0,0 -5.334,12.333 -14,15.667 -8.666,3.334 -22.667,-7 -22.667,-7 -2.667,11.333 -10,19.333 -24.667,17.667 -14.667,-1.666 -18.333,-14.333 -18,-27.667 0.333,-13.334 7.333,-28 17.333,-40.333 10,-12.333 19.333,-6 19.333,-6 2.022,0.947 -1.32,4.664 -4.653,8.33 z M 465.333,90.333 c 0,0 4.668,-16.667 1.334,-19.333 -3.334,-2.666 -1.334,19.333 -1.334,19.333 z"/><path style="fill:#e6e6e6;fill-opacity:1" id="path12715" d="m 266.667,275 c 0,0 -0.667,19.333 11.333,15.333 12,-4 11.333,-19.333 8,-26 -3.333,-6.667 -24,-10.667 -32,-4 -8,6.667 -27.333,24.667 -30,57.334 -2.667,32.667 3.333,54.667 19.333,68.667 16,14 31.333,5.332 38,-1.334 6.667,-6.666 22,-40.666 24,-46 2,-5.333 1.333,-21.333 -10.667,1.334 -12,22.666 -22,47.999 -30.667,30.666 -8.667,-17.333 -12.667,-32 -12,-55.333 0.667,-23.333 4,-39.333 8.667,-42 4.667,-2.667 6.001,1.333 6.001,1.333 z"/><path style="fill:#e6e6e6;fill-opacity:1" id="path12717" d="m 340,297 c -2.799,1.866 -8.889,10.069 -11.526,26.451 -2.637,16.382 0.696,25.382 5.654,27.77 C 341.836,353.166 350,339 350,339 c 0,0 -2.667,-9.333 -4,-23.333 -1.333,-14 2,-21.333 4.667,-26.667 2.667,-5.334 7.333,-2 10.667,0.667 3.334,2.667 3.333,16 4.667,35.333 1.334,19.333 8,15.334 9.333,10 1.333,-5.334 5.164,-15.832 7.333,-30.666 1.169,-7.168 4.502,-17.834 6.667,-22.667 7.333,-14 19.333,-4 19.333,-4 12.666,-29.333 30,-12 30,-12 8.167,-20.167 21.167,-19.833 30.667,-11.333 8,6.667 8,43.333 10.667,41.333 2.667,-2 12.666,-40 12.666,-40 0.666,-4.667 -4.666,-14 -0.666,-18 4,-4 16.666,-2.667 16.666,-2.667 4.666,-16 18.667,-14.667 26.667,-12.667 22.331,4.999 23.664,39.333 18.667,52 -7.003,21.666 -36.667,35.333 -36.667,35.333 0.667,2.667 0,80 0.667,96 0.667,16 -4.667,10 -12.667,6.667 -8,-3.333 -7.333,-44 -7.333,-63.334 0,-19.334 -3.334,-66.667 -3.334,-66.667 0,0 -1.333,6 -8.666,22 -5.833,11.501 -16.167,14.499 -20.667,14 -4.5,-0.499 -6,-10.667 -6.667,-20.667 -0.667,-10 -2,-22 -6,-29.333 -4,-7.333 -9.263,2.249 -9.15,3.836 0.448,6.351 3.571,30.669 3.111,37.667 -0.254,3.866 -1.505,8.518 -3.686,12.272 -1.394,2.463 -3.894,5.471 -6.331,7.363 -2.092,1.342 -3.218,-0.705 -4.062,-4.777 -0.844,-4.074 -1.406,-10.172 -2.37,-16.93 -1.929,-13.514 -2.261,-19.85 -6.845,-27.432 -4.584,-7.582 -9.105,0.188 -9.881,6.438 0.689,7.272 3.844,26.779 2.82,37.505 -1.273,12.976 -7.746,18.208 -11.01,17.592 -3.264,-0.616 -3.514,-3.616 -3.604,-5.318 0.341,-10.548 -1.933,-24.103 -2.671,-27.075 -0.738,-2.972 -1.815,-0.05 -2.477,2.883 C 394,323.5 388,339.5 376.001,351 c -8.499,5.5 -22,-4.666 -22,-4.666 -8.667,25.334 -29.167,19.166 -33.333,14.666 -4.166,-4.5 -11.168,-15.832 -8.667,-34.666 2.501,-18.834 10.667,-30.166 17.333,-36 6.666,-5.834 16,-0.667 16,-0.667 0,0 -1.334,4.666 -5.334,7.333 z m 177.334,-3.333 c 0,0 14.667,-2.667 16,-20 1.333,-17.333 -0.169,-41.167 -8.667,-40.667 -5.169,0.834 -11.332,7.333 -10.666,24 0.666,16.667 3.333,36.667 3.333,36.667 z"/></g><g id="g8790" transform="matrix(0.36455888,-0.06915193,0.06915193,0.36455888,30.907175,40.623214)"><path id="path8792" d="m 95.251,195.483 c 0,0 -2.392,-8.357 1.196,-17.698 3.589,-9.342 9.569,-17.697 8.97,-23.598 0,0 4.785,14.258 1.794,17.698 -2.991,3.44 1.794,7.375 1.794,7.375 0,0 4.187,-0.493 3.588,-13.768 -0.598,-13.272 -1.795,-27.038 2.391,-36.87 4.187,-9.832 10.167,-14.749 10.167,-19.173 0,0 5.979,9.834 1.195,16.716 0,0 3.589,-6.393 5.98,-26.056 -1.748,-14.541 8.97,-26.056 8.97,-26.056 0,0 -2.999,12.202 1.909,21.958 4.908,9.756 -0.361,24.362 -4.899,29.171 -9.076,9.618 -8.369,21.267 -3.589,28.514 4.78,7.247 30.499,25.564 25.117,40.312 -5.382,14.749 -8.372,21.139 -5.979,27.039 2.394,5.899 -55.016,-12.781 -58.604,-25.564 z" style="fill:#ff721c"/><path id="path8794" d="m 141.647,94.407 c 0,0 -1.617,31.873 6.233,38.191 7.851,6.317 8.724,22.979 7.851,31.02 -0.872,8.04 2.617,24.701 10.468,24.126 7.851,-0.575 2.617,-10.342 -1.746,-10.915 0,0 7.85,-3.448 11.339,0 3.489,3.446 14.83,6.895 11.341,-14.935 -3.489,-21.828 7.85,-17.81 4.361,-25.276 -3.489,-7.467 -6.979,-12.063 -8.724,-22.977 -1.743,-10.914 -7.85,-15.51 2.617,-35.041 5.889,-11.966 9.262,-9.122 6.106,-23.296 0,0 8.721,15.253 4.362,24.444 -4.362,9.191 -0.876,25.275 2.616,25.275 3.488,0 0,-6.893 3.488,-12.637 3.489,-5.745 9.595,-13.212 9.595,-18.957 0,0 3.944,18.178 11.341,-4.32 7.27,21.165 -1.746,27.296 3.487,29.02 5.234,1.723 7.854,14.936 8.726,18.382 0.872,3.446 -8.726,10.916 -0.875,24.702 7.85,13.787 12.216,14.935 8.725,27.572 -3.489,12.638 -13.088,17.233 -3.489,22.403 9.595,5.17 10.466,3.444 4.36,11.488 -6.105,8.042 -40.997,13.786 -34.891,21.829 6.105,8.042 -36.635,-4.595 -47.975,-10.914 -11.34,-6.319 -8.722,-14.36 -20.935,-20.68 -12.212,-6.32 -18.317,-18.956 -15.701,-28.724 2.617,-9.765 7.098,-18.78 4.361,-26.998 -4.021,-12.08 7.979,-25.58 12.959,-42.782 z" style="fill:#ff8b30"/><path id="path8796" d="m 239.685,159.978 c 0,0 20.568,13.064 11.469,29.753 -9.099,16.688 -8.733,17.979 -3.454,25.805 5.275,7.827 -21.3,-10.209 -15.837,-23.481 5.459,-13.278 12.735,-20.102 7.822,-32.077 z" style="fill:#ff5b2b"/><path id="path8798" d="m 162.015,166.804 c 4.802,-4.589 7.145,-6.674 12.04,0.766 4.894,7.438 0,0 7.488,-4.811 7.493,-4.81 8.333,3.257 8.8,4.708 0,0 0.457,-15.748 10.628,-14.557 0,0 3.754,-7.073 -3.248,-13.257 -7.003,-6.185 -13.048,-13.85 -10.702,-19.049 2.35,-5.198 -3.916,-16.304 -3.916,-16.304 0,0 -2.749,10.144 -6.498,14.104 -3.749,3.96 -6.804,11.651 -1.326,20.125 5.476,8.473 -2.596,12.249 -2.596,12.249 0,0 0.013,-6.223 -2.435,-9.942 0,0 -0.713,5.605 -8.322,10.83 -12.958,8.894 -9.479,8.55 -7.274,13.31 1.629,3.518 2.561,6.415 7.361,1.828 z" style="fill:#ffa923"/><path id="path8800" d="m 220.956,121.25 c 0,0 -6.631,5.46 -9.579,12.014 -2.95,6.554 4.417,16.385 -5.16,31.13 -9.578,14.745 -19.157,13.654 -18.42,8.193 0.736,-5.462 11.052,-13.108 6.632,-26.216 -4.421,-13.107 -13.261,-18.57 -11.788,-20.754 0,0 2.207,10.376 1.473,16.385 -0.738,6.008 -8.105,18.021 -13.264,19.115 -5.158,1.093 -15.65,0.802 -16.386,6.264 -0.736,5.461 -2.035,19.952 12.702,21.589 14.736,1.64 8.841,10.925 16.948,10.925 8.104,0 14.737,-9.831 20.631,-6.009 5.894,3.822 16.212,12.017 27.263,17.478 11.051,5.46 30.21,7.645 30.946,3.822 0.736,-3.823 -5.858,-4.745 -4,-12.562 3.214,-13.516 -3.286,-23.016 -11.578,-28.944 0,0 4.292,13.929 -3.579,18.93 -5.766,3.663 -4.421,8.377 0,17.116 0,0 -8.843,-1.096 -11.789,-8.739 -2.945,-7.646 -5.156,-18.57 -2.945,-24.577 0,0 -8.109,12.015 -7.371,-3.276 0.738,-15.292 4.421,-20.206 2.211,-28.946 -2.213,-8.739 -8.107,-13.653 -2.947,-22.938 z" style="fill:#ff743f"/><path id="path8802" d="m 221.048,208.491 c 0,0 -13.591,-11.569 -8.794,-22.427 4.798,-10.859 5.6,-0.572 4.798,-8.002 0,0 -1.601,12.572 3.198,13.145 0,0 -1.601,3.998 0.799,-10.859 2.398,-14.855 11.995,-25.142 6.399,-35.999 0,0 11.993,4.571 7.195,32.57 0,0 -4.797,9.146 2.396,11.43 7.198,2.284 1.601,7.998 5.598,15.999 4.001,8 14.394,15.428 18.393,15.428 0,-0.001 -38.863,-1.167 -39.982,-11.285 z" style="fill:#ffae49"/><path id="path8804" d="m 142.831,102.601 c 0,0 -10.28,13.518 -1.871,25.417 8.411,11.899 8.411,12.98 6.542,20.009 -1.868,7.03 11.213,-11.356 5.606,-21.09 -5.607,-9.734 -11.212,-14.061 -10.277,-24.336 z" style="fill:#ff5b2b"/><path id="path8806" d="m 135.286,205.978 c 0,0 -18.37,-3.605 -13.047,-11.34 2.429,-3.529 -3.071,-9.029 2.893,-13.903 0,0 0.368,14.278 5.262,14.699 0,0 -1.632,2.95 0.814,-8.015 2.446,-10.963 12.233,-18.554 6.526,-26.566 0,0 12.232,3.372 7.34,24.037 0,0 -4.893,6.748 2.444,8.436 7.341,1.687 1.632,5.901 5.709,11.806 4.081,5.905 14.679,11.388 18.759,11.388 -10e-4,-0.001 -22.835,2.529 -36.7,-10.542 z" style="fill:#ffb642"/></g><g id="g9398" transform="matrix(0.87903963,-0.11792367,0.11792367,0.87903963,59.168645,-3.8118199)"><path style="fill:#7a402d;fill-opacity:1" id="path8764" d="m 200.23438,75.859375 -7.13868,5.113281 -2.99218,1.38086 c 0,0 -10.37154,6.525342 -11.74805,7.199218 -1.37652,0.673877 -10.25922,5.531169 -12.74024,7.085938 -2.481,1.554768 -13.18945,7.392578 -13.18945,7.392578 l -12.01953,6.99219 c 0,0 -6.64395,3.3362 -7.98828,4.25 -1.34433,0.9138 -4.89579,3.59096 -8.41602,6.50781 -2.25557,1.86896 -2.85465,2.41824 -5.53035,3.7007 -2.41279,1.72349 -1.84779,3.54194 -0.38477,3.375 1.08951,-0.53317 2.13676,-1.21767 2.74911,-1.51711 0.6883,-0.33658 8.00195,-5.96289 8.00195,-5.96289 l 7.20117,-4.63476 c 0,0 14.87062,-7.61747 15.73438,-8.4668 0.86376,-0.84933 19.2539,-11.384765 19.2539,-11.384765 l 15.25391,-8.402344 9.89063,-6.460937 z" transform="matrix(1.1174943,0.1499125,-0.1499125,1.1174943,-185.87107,-106.89638)"/><g id="g8766" transform="matrix(0.81963393,0,0,0.81963393,-103.25929,-27.531043)"><path id="path8768" d="m 74.667,64.554 c 0,0 -3.334,3.333 -0.667,10.333 2.667,7 4.333,15 12.333,13 8,-2 30,-7.667 27.667,-15.333 -2.333,-7.666 -4.666,-20.333 -14.333,-17.333 -9.667,3 -21,7.666 -25,9.333 z" style="fill:#e6cdb1"/><path id="path8770" d="m 110.759,63.887 c 0,0 4.547,10.52 3.248,11.835 C 112.708,77.037 87.695,89.53 83.797,87.557 79.898,85.584 76,79.009 76,79.009 c 0,0 12.02,2.63 15.268,-0.986 3.248,-3.616 7.146,-4.274 12.344,-6.904 5.198,-2.629 7.147,-7.232 7.147,-7.232 z" style="fill:#e0b890"/></g><g id="g8772" transform="matrix(0.81963393,0,0,0.81963393,-103.25929,-27.531043)"><path id="path8774" d="m 115,58.887 c 3.333,9.667 5.333,18 15.333,14 10,-4 23.333,-7 20.333,-14.667 -3,-7.667 -3,-19.667 -13.667,-15.333 -10.667,4.334 -25.332,6.334 -21.999,16 z" style="fill:#e6cdb1"/><path id="path8776" d="m 119.815,66.23 c 0,0 2.557,8.261 7.793,6.906 5.234,-1.354 21.464,-8.487 21.326,-10.443 -0.139,-1.957 -0.578,-8.159 -0.578,-8.159 0,0 -6.116,3.716 -10.675,3.055 -4.558,-0.66 -5.507,2.03 -9.064,3.921 -3.557,1.891 -9.947,3.655 -9.947,3.655 l 1.145,1.065 z" style="fill:#e0b890"/></g></g></svg>