<svg xmlns="http://www.w3.org/2000/svg" xmlns:svg="http://www.w3.org/2000/svg" id="svg2" width="477.461" height="287.085" version="1.2"><defs id="defs4"><linearGradient id="linearGradient4075"><stop id="stop4077" offset="0" style="stop-color:#fff;stop-opacity:1"/></linearGradient></defs><metadata id="metadata7"/><g id="layer1" transform="translate(-46.572426,-421.50894)"><rect style="fill:#333;fill-opacity:1;stroke:none" id="rect3862" width="477.461" height="287.085" x="46.572" y="421.509"/><path style="font-size:medium;font-style:normal;font-variant:normal;font-weight:400;font-stretch:normal;text-indent:0;text-align:start;text-decoration:none;line-height:normal;letter-spacing:normal;word-spacing:normal;text-transform:none;direction:ltr;block-progression:tb;writing-mode:lr-tb;text-anchor:start;baseline-shift:baseline;color:#000;fill:#b3b3b3;fill-opacity:1;stroke:none;stroke-width:17.35547447;marker:none;visibility:visible;display:inline;overflow:visible;enable-background:accumulate;font-family:Sans;-inkscape-font-specification:Sans" id="rect3812-3" d="m 189.99135,440.76397 0,33.0625 -78.21874,0 c -23.725252,0 -43.031258,19.30601 -43.031258,43.03125 l 0,98.53125 c 0,23.72524 19.306006,43.03125 43.031258,43.03125 l 82.31249,0 c -0.99881,2.53771 -1.5,5.36253 -1.5,8.46875 0,5.258 1.16298,9.71532 3.53125,13.34375 2.38999,3.62845 5.65307,6.33117 9.78125,8.15625 4.12815,1.80336 8.76908,2.71875 13.875,2.71875 l 20.84375,0 0,-14 -14.71875,0 c -2.99839,10e-6 -5.26037,-0.0979 -6.78125,-0.25 -1.52093,-0.15208 -3.00353,-0.4214 -4.4375,-0.8125 -1.43402,-0.39107 -2.65682,-1.17999 -3.65625,-2.375 -0.99947,-1.19498 -1.54763,-3.18765 -1.65625,-5.96875 0.15207,-2.86797 0.70024,-4.87016 1.65625,-6 0.95598,-1.12978 2.04278,-1.9187 3.28125,-2.375 1.23843,-0.45624 2.66389,-0.77317 4.25,-0.96875 1.58606,-0.19551 4.04118,-0.31247 7.34375,-0.3125 l 14.71875,0 0,-14 -7.9375,0 -12.90625,0 c -1.5426,2e-5 -3.06066,0.1145 -4.53125,0.28125 l -103.46874,0 c -16.164184,0 -28.937508,-12.77332 -28.937508,-28.9375 l 0,-98.53125 c 0,-16.16418 12.773324,-28.9375 28.937508,-28.9375 l 80.49999,0 0,-0.0937 13.03125,0 0,-16.9375 12.3125,0 0,16.9375 15.34375,0 15.625,0 2.96875,-8.46875 13.96875,0 2.96875,8.46875 17.8125,0 -15.75,-47.0625 -23.375,0 -14.21875,43.25 0,-43.25 -15.34375,0 0,16.21875 -12.3125,0 0,-16.21875 z m 121.25,0 c -3.69365,5e-5 -7.18796,0.48155 -10.46875,1.4375 -3.25909,0.93431 -6.16715,2.37882 -8.6875,4.3125 -2.52036,1.91203 -4.47226,4.30734 -5.90625,7.21875 -1.41227,2.88975 -2.125,6.1814 -2.125,9.875 0,5.258 1.19423,9.71532 3.5625,13.34375 2.38999,3.62845 5.62182,6.33117 9.75,8.15625 4.12815,1.80336 8.76908,2.71875 13.875,2.71875 l 20.84375,0 0,-14 -14.71875,0 c -2.99839,1e-5 -5.26037,-0.0979 -6.78125,-0.25 -1.52093,-0.15208 -3.00353,-0.4214 -4.4375,-0.8125 -1.43402,-0.39107 -2.65682,-1.17999 -3.65625,-2.375 -0.99947,-1.19498 -1.54763,-3.18765 -1.65625,-5.96875 0.15207,-2.86797 0.70024,-4.87016 1.65625,-6 0.95598,-1.12978 2.04278,-1.9187 3.28125,-2.375 1.23843,-0.45624 2.66389,-0.77317 4.25,-0.96875 1.58606,-0.19551 4.04118,-0.28122 7.34375,-0.28125 l 14.71875,0 0,-14.03125 -7.9375,0 z m 22.8125,0 0,47.0625 15.3125,0 0,-14 11.84375,14 7.125,0 0,0.0937 95.78125,0 c 16.16418,0 28.9375,12.77332 28.9375,28.9375 l 0,98.53125 c 0,16.16418 -12.77332,28.9375 -28.9375,28.9375 l -94.90625,0 c -1.33247,-0.16865 -2.75279,-0.26807 -4.3125,-0.28125 l -32.125,0 0,47.0625 29.6875,0 c 4.2585,0.0435 7.89833,-0.22587 10.875,-0.8125 2.99831,-0.58663 5.42219,-1.838 7.3125,-3.75 1.91194,-1.91199 2.87495,-4.72214 2.875,-8.4375 -5e-5,-1.17325 -0.26937,-2.37701 -0.8125,-3.59375 -0.54323,-1.21671 -1.3131,-2.29398 -2.3125,-3.25 -0.97777,-0.9777 -2.20057,-1.80471 -3.65625,-2.5 -1.45577,-0.71697 -3.03359,-1.18895 -4.75,-1.40625 l 0,-0.125 c 3.49804,-1.15152 6.0103,-2.62459 7.53125,-4.40625 1.00232,-1.17416 1.61817,-2.64696 1.875,-4.40625 l 82.71875,0 c 23.72524,0 43.03125,-19.30601 43.03125,-43.03125 l 0,-98.53125 c 0,-23.72524 -19.30601,-43.03125 -43.03125,-43.03125 l -84.3125,0 -11.46875,0 -2.625,0 -7.8125,-9.53125 17.53125,-23.53125 -15.3125,0 -10.75,15.3125 0,-15.3125 z m -75.125,10.4375 6.21875,18.625 -12.96875,0 z m -146.59374,41.28125 c -13.751422,0 -25.093758,11.34234 -25.093758,25.09375 l 0,97.28125 c 0,13.75141 11.342336,25.09375 25.093758,25.09375 l 350.56249,0 c 13.75141,0 25.09375,-11.34234 25.09375,-25.09375 l 0,-97.28125 c 0,-13.75141 -11.34234,-25.09375 -25.09375,-25.09375 l -284.92493,0 0,17.375 284.92493,0 c 4.43669,0 7.75,3.28206 7.75,7.71875 l 0,97.28125 c 0,4.43667 -3.31331,7.71875 -7.75,7.71875 l -350.56249,0 c -4.43669,0 -7.71876,-3.28208 -7.71876,-7.71875 l 0,-97.28125 c 0,-4.43669 3.28207,-7.71875 7.71876,-7.71875 l 1.125,0 0,-17.375 z m 130.24999,151.5625 0,47.0625 40.78125,0 0,-14 -25.46875,0 0,-33.0625 z m 41.125,0 0,27.625 c 0,3.95437 0.58625,7.16984 1.78125,9.625 1.21672,2.45518 2.94007,4.4669 5.15625,6.03125 2.23789,1.56436 4.83586,2.73003 7.8125,3.46875 2.99834,0.717 5.95401,1.09107 8.84375,1.15625 3.47633,-0.0869 6.61293,-0.56841 9.4375,-1.4375 2.84623,-0.86909 5.22517,-2.09189 7.09375,-3.65625 1.89022,-1.56435 3.43948,-3.48768 4.65625,-5.8125 1.2384,-2.34653 1.87227,-5.49534 1.9375,-9.40625 l 0,-27.59375 -15.3125,0 0,27.84375 c 0.0869,3.08528 -0.6449,5.25888 -2.1875,6.5625 -1.54266,1.30364 -3.44694,1.98781 -5.75,2.03125 -2.86801,-0.0869 -4.99668,-0.76154 -6.34375,-2 -1.3471,-1.23844 -1.94288,-3.42156 -1.8125,-6.59375 l 0,-27.84375 z m 65.3125,11.40625 11.375,0 c 0.4997,4e-5 1.10499,0.25983 1.84375,0.78125 0.76042,0.52149 1.19431,1.43688 1.28125,2.71875 -0.0435,1.10812 -0.42976,1.98274 -1.125,2.65625 -0.6953,0.65185 -1.33869,0.96878 -1.96875,0.96875 l -11.40625,0 z m 0,17.4375 10.4375,0 c 2.17269,2e-5 3.87699,0.40534 5.09375,1.1875 1.23842,0.7822 1.78658,1.84995 1.65625,3.21875 -4e-5,1.23846 -0.65295,2.27765 -2,3.125 -1.34712,0.84737 -2.94667,1.22144 -4.75,1.15625 l -10.4375,0 z"/><path style="font-size:medium;font-style:normal;font-variant:normal;font-weight:400;font-stretch:normal;text-indent:0;text-align:start;text-decoration:none;line-height:normal;letter-spacing:normal;word-spacing:normal;text-transform:none;direction:ltr;block-progression:tb;writing-mode:lr-tb;text-anchor:start;baseline-shift:baseline;color:#000;fill:#ccc;fill-opacity:1;stroke:none;stroke-width:17.35547447;marker:none;visibility:visible;display:inline;overflow:visible;enable-background:accumulate;font-family:Sans;-inkscape-font-specification:Sans" id="rect3812" d="m 185.71875,-7.96875 -14.21875,43.25 0,-12.4375 -6.4375,16.25 6.4375,0 15.625,0 2.96875,-8.46875 13.96875,0 2.96875,8.46875 3.28125,0 7.875,-19.875 -9.09375,-27.1875 -23.375,0 z m 64.0625,0 c -0.72162,9.2e-6 -1.4187,0.02579 -2.125,0.0625 L 231.21875,33.625 c 1.40971,1.06484 2.97219,1.991658 4.6875,2.75 4.12815,1.803359 8.76908,2.71875 13.875,2.71875 l 20.84375,0 0,-14 -14.71875,0 c -2.99839,1.4e-5 -5.26037,-0.0979 -6.78125,-0.25 -1.52093,-0.152076 -3.00353,-0.421396 -4.4375,-0.8125 -1.43402,-0.391074 -2.65682,-1.179987 -3.65625,-2.375 -0.99947,-1.194978 -1.54763,-3.187647 -1.65625,-5.96875 0.15207,-2.867965 0.70024,-4.870157 1.65625,-6 0.95598,-1.1297842 2.04278,-1.9186973 3.28125,-2.375 1.23843,-0.4562391 2.66389,-0.7731726 4.25,-0.96875 1.58606,-0.1955119 4.04118,-0.281217 7.34375,-0.28125 l 14.71875,0 0,-14.03125 -7.9375,0 -12.90625,0 z m 22.8125,0 0,47.0625 1.71875,0 13.59375,-34.375 0,-12.6875 -15.3125,0 z m 39.25,0 -2.40625,6.09375 4.53125,-6.09375 -2.125,0 z m -114.375,10.4375 6.21875,18.625 -12.96875,0 6.75,-18.625 z m 103.09375,18.125 -5.25,13.25 4.4375,5.25 7.125,0 0,0.09375 31.59375,0 5.5625,-14.09375 -25.6875,0 -11.46875,0 -2.625,0 -3.6875,-4.5 z M 163.21875,43.75 156.375,61.125 l 45.25,0 6.84375,-17.375 -45.25,0 z m 64,0 -6.875,17.375 45.25,0 6.875,-17.375 -45.25,0 z m 64.15625,0 -6.875,17.375 45.28125,0 6.875,-17.375 -45.28125,0 z m -179.59375,130.09375 -6.875,17.375 45.25,0 6.875,-17.375 -45.25,0 z m 63.96875,0 -6.84375,17.375 45.25,0 6.84375,-17.375 -45.25,0 z m 64.1875,0 -6.875,17.375 45.28125,0 6.875,-17.375 -45.28125,0 z m -72.65625,21.46875 -5.5625,14.0625 c 0.87196,-0.0221 1.67769,-0.0625 2.71875,-0.0625 l 14.71875,0 0,-14 -7.9375,0 -3.9375,0 z m 13.84375,0 0,47.0625 12.78125,0 5.53125,-14 -3,0 0,-33.0625 -15.3125,0 z m 50.3125,0 -9.1875,23.21875 0,4.40625 c 0,3.95437 0.58625,7.16984 1.78125,9.625 1.21672,2.45518 2.94007,4.4669 5.15625,6.03125 2.23789,1.56436 4.83586,2.73003 7.8125,3.46875 2.99834,0.717 5.95401,1.09107 8.84375,1.15625 3.47633,-0.0869 6.61293,-0.56841 9.4375,-1.4375 1.3166,-0.40202 2.51264,-0.88531 3.625,-1.4375 l 10.0625,-25.4375 0,-19.59375 -15.3125,0 0,27.84375 c 0.0869,3.08528 -0.6449,5.25888 -2.1875,6.5625 -1.54266,1.30364 -3.44694,1.98781 -5.75,2.03125 -2.86801,-0.0869 -4.99668,-0.76154 -6.34375,-2 -1.3471,-1.23844 -1.94288,-3.42156 -1.8125,-6.59375 l 0,-27.84375 -6.125,0 z m 39.875,0 0,13.65625 5.40625,-13.65625 -5.40625,0 z m -168.125,0.28125 -5.59375,14.09375 35.03125,0 c -0.99881,2.53771 -1.5,5.36253 -1.5,8.46875 0,5.0561 1.09287,9.35597 3.28125,12.90625 l 14.03125,-35.46875 -45.25,0 z m 51.3125,32 -5.40625,13.65625 c 2.87179,0.74117 5.95434,1.125 9.21875,1.125 l 20.84375,0 0,-14 -14.71875,0 c -2.99839,1e-5 -5.26037,-0.0979 -6.78125,-0.25 -1.07639,-0.10763 -2.12191,-0.30457 -3.15625,-0.53125 z m 63.875,0.78125 -5.5625,14 9.09375,0 0,-14 -3.53125,0 z" transform="translate(61.478788,448.70862)"/><flowRoot id="flowRoot3761" xml:space="preserve" style="font-size:40px;font-style:normal;font-weight:400;line-height:125%;letter-spacing:0;word-spacing:0;fill:#000;fill-opacity:1;stroke:none;font-family:Sans"><flowRegion id="flowRegion3763"><rect id="rect3765" width="141.674" height="46.467" x="333.35" y="229.845"/></flowRegion><flowPara id="flowPara3767"/></flowRoot><path id="text3769-4-2" d="m 117.00253,492.57175 -0.01,17.36017 15.35137,-0.0658 -0.42239,60.09359 17.69119,0.008 0.42239,-60.09361 24.32043,0.01 -0.14627,-17.07162 z m 278.31698,24.37155 c -15.61966,-0.007 -23.23567,11.54351 -23.34824,27.55636 -0.11636,16.55438 6.78803,25.99202 22.484,25.99868 6.202,0.003 11.11368,-1.27586 14.26216,-2.5896 l -2.70322,-8.67514 c -2.84114,1.15914 -6.40058,2.19865 -9.99921,2.19711 -8.11599,-0.003 -10.48562,-7.25901 -10.41165,-17.77953 0.0772,-10.98468 3.06773,-17.64243 9.65246,-17.63963 2.67981,10e-4 5.2256,0.92385 8.03408,4.4061 l 6.94398,-7.0611 c -2.88613,-3.32759 -6.72168,-6.40979 -14.91431,-6.41326 z m -234.08596,0.55801 -0.36836,52.4053 12.68285,0.005 0.15772,-22.44063 17.8863,0.008 -0.15773,22.44064 12.58528,0.005 0.36837,-52.40527 -12.58529,-0.005 -0.14457,20.56784 -17.8863,-0.008 0.14457,-20.56786 z m 52.65043,0.0223 -0.36836,52.4053 34.0813,0.0144 0.0658,-9.36395 -21.39836,-0.009 0.0931,-13.24096 15.44728,0.007 1.56059,-9.19904 -16.94304,-0.007 0.079,-11.23675 20.32532,0.009 0.0658,-9.36396 z m 59.70733,0.0253 -0.36834,52.40529 12.61778,0.005 0.15775,-22.44062 17.95131,0.008 -0.15772,22.44064 12.55276,0.005 0.36836,-52.40529 -12.55278,-0.005 -0.14457,20.56784 -17.95132,-0.008 0.14459,-20.56783 z m 67.47969,0.0286 -20.07568,52.39694 12.5853,0.005 4.0889,-12.64787 16.74794,0.007 3.7485,12.65118 12.78038,0.005 -18.65603,-52.41335 z m 74.89432,0.0317 -0.36835,52.40528 12.6178,0.005 0.36836,-52.40528 z m 27.86993,0.0118 c -2.52843,11.13837 -5.53345,18.39042 -14.5993,22.79596 l -0.006,0.8871 17.45672,28.72361 14.04878,0.006 -17.69243,-27.57374 c 5.54326,-4.32966 10.33303,-10.21431 13.34534,-24.83353 z m -97.5556,13.06828 c 1.12191,3.79099 3.38236,11.21701 5.40722,17.25173 l -11.08951,-0.005 c 2.10919,-5.95563 4.50599,-13.30232 5.68222,-17.24704 z m -215.61436,46.8272 c -6.60584,-0.003 -12.45233,4.19611 -12.49922,10.87007 -0.0426,6.05705 3.64284,9.13771 10.0632,11.83244 3.26567,1.34742 5.25097,2.46859 5.23204,5.16063 -0.0188,2.69207 -1.47356,4.1721 -4.58219,4.17078 -2.94202,-0.001 -7.93127,-3.15128 -8.98086,-3.88082 l -3.03852,6.63564 c 2.65309,1.62757 7.40193,4.01158 13.17506,4.01402 8.10448,0.003 13.27461,-5.51563 13.32307,-12.41396 0.0402,-5.72054 -2.84693,-8.38564 -8.76884,-10.91192 -4.70425,-2.02102 -6.41111,-3.41626 -6.56029,-5.88402 0.0114,-1.62643 1.30375,-2.82507 3.85728,-2.82399 2.831,10e-4 6.26437,2.10484 7.97852,3.059 l 3.29521,-6.14271 c -2.48577,-1.73964 -7.1654,-3.6829 -12.49446,-3.68516 z m 171.21955,0.0725 c -6.60584,-0.003 -12.48483,4.19608 -12.53174,10.87006 -0.0426,6.05705 3.6754,9.13772 10.09574,11.83246 3.26568,1.3474 5.25098,2.46859 5.23203,5.16063 -0.0189,2.69203 -1.47357,4.17209 -4.58218,4.17077 -2.94201,-0.001 -7.96379,-3.15129 -9.01341,-3.88083 l -3.0385,6.63564 c 2.65308,1.62758 7.43445,4.0116 13.20759,4.01404 8.10448,0.003 13.24207,-5.51566 13.29056,-12.41398 0.0402,-5.72054 -2.84694,-8.38563 -8.76886,-10.91191 -4.70423,-2.02103 -6.37858,-3.41625 -6.52778,-5.88402 0.0114,-1.62643 1.27125,-2.82508 3.82478,-2.82399 2.83099,0.001 6.29688,2.10484 8.01101,3.05901 l 3.2627,-6.14272 c -2.48576,-1.73966 -7.13291,-3.68289 -12.46193,-3.68521 z m 113.95127,0.0483 c -11.32427,-0.005 -16.80703,8.39288 -16.88863,20.0022 -0.0843,12.00193 4.94346,18.79578 16.32317,18.80058 4.49641,0.002 8.00673,-0.88312 10.28938,-1.83557 l -1.93961,-6.27633 c -2.05982,0.84038 -4.62154,1.57514 -7.23057,1.57402 -5.88403,-0.002 -7.63744,-5.32109 -7.58382,-12.94851 0.056,-7.96388 2.20997,-12.74722 6.98392,-12.74519 1.94287,8.2e-4 3.79485,0.69772 5.83103,3.22235 l 5.04438,-5.15626 c -2.09246,-2.4125 -4.88956,-4.63477 -10.82922,-4.63729 z m -227.61283,0.33076 c -2.44247,-10e-4 -10.26864,0.0942 -11.5454,0.0936 l -0.26674,37.94867 9.13826,0.004 0.11293,-16.06658 0.97559,4.2e-4 c 3.83037,0.002 4.97547,5.58103 9.67569,16.07071 l 9.82112,0.004 c -3.82112,-9.1994 -5.84985,-15.12242 -10.21746,-17.64803 3.89797,-1.73696 6.43997,-4.7584 6.47349,-9.52553 0.05,-7.12265 -4.73065,-10.87737 -14.1675,-10.88137 z m 157.20328,0.0666 c -2.33145,-0.001 -10.21312,0.0942 -11.5454,0.0936 l -0.26673,37.94867 c 1.60985,6.8e-4 8.81694,0.0694 10.92637,0.0703 10.60244,0.004 15.9605,-3.62812 16.00979,-10.6386 0.0303,-4.31846 -2.59057,-7.60723 -8.13023,-9.23599 4.67394,-1.56838 7.15426,-4.59443 7.18107,-8.40811 0.0426,-6.05707 -4.84904,-9.82603 -14.17488,-9.82998 z m -200.29341,0.0137 -0.0476,6.76833 8.94315,0.004 -0.21916,31.18032 9.20327,0.004 0.21917,-31.18034 8.61797,0.004 1.2183,-6.76782 z m 64.81303,0.0274 -0.26673,37.94866 9.20327,0.004 0.26672,-37.94867 z m 16.06509,0.007 -0.26673,37.94867 9.17075,0.004 0.26674,-37.94868 z m 20.16271,0.009 c -1.83312,8.0753 -3.94968,13.29527 -10.52243,16.48929 l -0.005,0.68998 12.602,20.77037 10.21131,0.004 -12.83542,-19.94906 c 4.01885,-3.13902 7.53614,-7.4021 9.72004,-18.00103 z m 15.25193,0.006 -0.26674,37.94867 24.71546,0.0105 0.0476,-6.76834 -15.54483,-0.007 0.0675,-9.59395 11.21957,0.005 1.15233,-6.63644 -12.32513,-0.005 0.0575,-8.18113 14.76416,0.006 0.0476,-6.76834 z m 115.08944,0.0487 -14.51063,37.94262 9.10573,0.004 2.92576,-9.09989 12.16257,0.005 2.73277,9.10229 9.26831,0.004 -13.5544,-37.95451 z m 54.27644,0.023 -0.26672,37.94866 9.20327,0.004 0.26673,-37.94866 z m 20.19524,0.009 c -1.83312,8.07531 -3.94969,13.29528 -10.52244,16.48929 l -0.005,0.68998 12.60201,20.77037 10.24384,0.004 -12.86798,-19.9491 c 4.01886,-3.139 7.47113,-7.4021 9.65502,-18.00104 z m -265.21233,5.80181 2.04876,8.6e-4 c 3.77484,0.002 4.92655,2.35629 4.90683,5.16049 -0.0239,3.42113 -2.07673,5.0261 -4.68574,5.025 l -2.34146,-10e-4 z m 158.17841,0.13268 c 0.41203,-0.009 0.89401,3.8e-4 1.36586,5.7e-4 3.27505,10e-4 4.63676,1.94432 4.61507,5.02895 -0.0263,3.75763 -2.18123,4.89461 -4.45717,4.89366 l -2.56908,-10e-4 0.0693,-9.85679 c 0.22224,-0.028 0.5641,-0.056 0.97607,-0.0653 z m 36.33302,3.53097 c 0.81336,2.74848 2.44449,8.07895 3.9124,12.45412 l -7.99992,-0.003 c 1.52913,-4.31781 3.23476,-9.59081 4.08753,-12.45073 z m -34.94772,12.20767 c 4.21887,0.002 5.57509,2.61943 5.55541,5.42361 -0.0259,3.70158 -2.33672,4.76315 -5.3343,4.76187 l -2.76422,-10e-4 0.0709,-10.08679 c 0.49998,-0.0558 1.47303,-0.0979 2.47222,-0.0975 z" style="font-size:40px;font-style:normal;font-weight:400;line-height:125%;letter-spacing:0;word-spacing:0;fill:#db4b4f;fill-opacity:1;stroke:none;font-family:Sans"/></g></svg>