<svg xmlns="http://www.w3.org/2000/svg" xmlns:svg="http://www.w3.org/2000/svg" id="svg2" width="452.525" height="235.844" version="1.2"><defs id="defs4"><linearGradient id="linearGradient4075"><stop id="stop4077" offset="0" style="stop-color:#fff;stop-opacity:1"/></linearGradient></defs><metadata id="metadata7"/><g id="layer1" transform="translate(-61.478788,-448.70862)"><path style="fill:#242424;fill-opacity:1;stroke:none" id="rect3004-3" d="M 64.4375,62.253522 C 53.77976,62.217485 48.47521,67.23911 46.21875,75.6875 l -0.9375,3.5 -1.5625,0 C 32.33571,79.18361 22.15846,90.40772 19.1875,101.53125 L -23.125,259.9375 c -2.254479,8.44095 5.077178,22.18553 18.625,22.15625 l 245.30385,-0.44286 0.0383,2.0186 c -0.0344,6.87419 4.23591,15.91513 14.29397,16.16265 l 78.28125,-0.125 c 10.05806,0.24753 19.84963,-4.76677 21.85355,-12.26961 l 1.65625,-6.09375 9.0527,-0.0312 c 12.42602,-0.0269 19.10742,-7.0728 24.0625,-25.625 l 38.39544,-151.7813 C 431.40873,92.78272 422.10203,79.3165 410.71901,79.3125 l -252.75616,0.08303 4.05897,-3.884788 c 5.35235,-4.760674 2.29238,-12.919511 -5.16224,-12.944717 z" transform="translate(85.007103,385.42764)"/><flowRoot id="flowRoot3761" xml:space="preserve" style="font-size:40px;font-style:normal;font-weight:400;line-height:125%;letter-spacing:0;word-spacing:0;fill:#000;fill-opacity:1;stroke:none;font-family:Sans"><flowRegion id="flowRegion3763"><rect id="rect3765" width="141.674" height="46.467" x="333.35" y="229.845"/></flowRegion><flowPara id="flowPara3767"/></flowRoot><path id="text3769-4-2" d="m 132.89611,494.07175 -4.26845,15.36017 18.48807,0.43417 -16.10478,60.09359 17.6891,0.008 16.10478,-60.09361 23.69282,0.01 4.5424,-15.57162 z m 71.50498,0.24539 -4.58761,15.57165 279.01411,0.1189 4.17366,-15.57374 z m 203.8433,22.62616 c -15.61783,-0.007 -26.24813,11.54351 -30.53951,27.55636 -4.43649,16.55438 0.005,25.99202 15.69923,25.99868 6.20121,0.003 11.44663,-1.27586 14.93796,-2.5896 l -0.43931,-8.67514 c -3.14363,1.15914 -6.97435,2.19865 -10.57258,2.19711 -8.11521,-0.003 -8.59126,-7.25901 -5.7718,-17.77953 2.94383,-10.98468 7.67181,-17.64243 14.25581,-17.63963 2.67955,10e-4 4.98451,0.92385 6.88424,4.4061 l 8.78668,-7.0611 c -2.01774,-3.32759 -5.04894,-6.40979 -13.24066,-6.41326 z m -234.23158,0.55801 -14.04436,52.4053 12.68154,0.005 6.01397,-22.44063 17.88421,0.008 -6.01398,22.44064 12.58398,0.005 14.04436,-52.40527 -12.58398,-0.005 -5.51208,20.56784 -17.88421,-0.008 5.51208,-20.56786 z m 52.64461,0.0223 -14.04436,52.4053 34.07754,0.0144 2.5095,-9.36395 -21.39601,-0.009 3.54849,-13.24096 15.44546,0.007 3.96122,-9.19904 -16.94121,-0.007 3.01138,-11.23675 20.32297,0.009 2.50948,-9.36396 z m 59.70073,0.0253 -14.04434,52.40529 12.61648,0.005 6.01398,-22.44062 17.94923,0.008 -6.01397,22.44064 12.55146,0.005 14.04436,-52.40529 -12.55148,-0.005 -5.51207,20.56784 -17.94924,-0.008 5.5121,-20.56783 z m 67.47223,0.0286 -33.7495,52.39694 12.58399,0.005 7.38957,-12.64787 16.74611,0.007 0.44697,12.65118 12.77908,0.005 -4.97793,-52.41335 z m 74.88604,0.0317 -14.04434,52.40528 12.61649,0.005 14.04436,-52.40528 z m 27.86685,0.0118 c -5.43516,11.13837 -10.33272,18.39042 -20.54827,22.79596 l -0.2377,0.8871 9.96083,28.72361 14.04722,0.006 -10.49662,-27.57374 c 6.67315,-4.32966 12.99862,-10.21431 19.82605,-24.83353 z M 355.6173,530.68929 c 0.13259,3.79099 0.4551,11.21701 0.9051,17.25173 l -11.0882,-0.005 c 3.6634,-5.95563 7.97744,-13.30232 10.18311,-17.24704 z m -227.83467,46.8272 c -6.60506,-0.003 -13.54737,4.19611 -15.33594,10.87007 -1.62324,6.05705 1.25821,9.13771 6.97534,11.83244 2.91403,1.34742 4.60675,2.46859 3.88529,5.16063 -0.72133,2.69207 -2.56234,4.1721 -5.67063,4.17078 -2.94175,-0.001 -7.10889,-3.15128 -7.96809,-3.88082 l -4.7702,6.63564 c 2.22835,1.62757 6.35504,4.01158 12.12754,4.01402 8.10369,0.003 14.714,-5.51563 16.56269,-12.41396 1.53309,-5.72054 -0.65856,-8.38564 -5.9212,-10.91192 -4.17683,-2.02102 -5.51958,-3.41626 -5.02476,-5.88402 0.43587,-1.62643 2.041,-2.82507 4.59424,-2.82399 2.83074,10e-4 5.71508,2.10484 7.18023,3.059 l 4.89825,-6.14271 c -2.03179,-1.73964 -6.20429,-3.6829 -11.53276,-3.68516 z m 171.20063,0.0725 c -6.60506,-0.003 -13.57987,4.19608 -15.36846,10.87006 -1.62323,6.05705 1.29077,9.13772 7.00787,11.83246 2.91406,1.3474 4.60676,2.46859 3.88528,5.16063 -0.72142,2.69203 -2.56234,4.17209 -5.67061,4.17077 -2.94175,-0.001 -7.14141,-3.15129 -8.00064,-3.88083 l -4.77018,6.63564 c 2.22834,1.62758 6.38756,4.0116 12.16006,4.01404 8.1037,0.003 14.68147,-5.51566 16.53019,-12.41398 1.53307,-5.72054 -0.65857,-8.38563 -5.92122,-10.91191 -4.17681,-2.02103 -5.48706,-3.41625 -4.99225,-5.88402 0.43587,-1.62643 2.0085,-2.82508 4.56174,-2.82399 2.83073,0.001 5.74759,2.10484 7.21272,3.05901 l 4.86574,-6.14272 c -2.03177,-1.73966 -6.1718,-3.68289 -11.50022,-3.68521 z m 113.93866,0.0483 c -11.32296,-0.005 -18.99728,8.39288 -22.10852,20.0022 -3.21645,12.00193 0.0384,18.79578 11.41686,18.80058 4.49588,0.002 8.23719,-0.88312 10.7684,-1.83557 l -0.3017,-6.27633 c -2.27913,0.84038 -5.0326,1.57514 -7.64134,1.57402 -5.88351,-0.002 -6.24881,-5.32109 -4.2047,-12.94851 2.13428,-7.96388 5.53656,-12.74722 10.30998,-12.74519 1.94266,8.2e-4 3.61277,0.69772 4.99011,3.22235 l 6.38999,-5.15626 c -1.46288,-2.4125 -3.68004,-4.63477 -9.61905,-4.63729 z m -227.69914,0.33076 c -2.44221,-10e-4 -10.29323,0.0942 -11.56983,0.0936 l -10.17005,37.94867 9.13721,0.004 4.30576,-16.06658 0.97549,4.2e-4 c 3.82984,0.002 3.51901,5.58103 5.48178,16.07071 l 9.82007,0.004 c -1.42039,-9.1994 -1.90341,-15.12242 -5.61192,-17.64803 4.35126,-1.73696 7.68175,-4.7584 8.95933,-9.52553 1.9088,-7.12265 -1.89203,-10.87737 -11.32783,-10.88137 z m 157.1859,0.0666 c -2.33119,-0.001 -10.23771,0.0942 -11.56983,0.0936 l -10.17004,37.94867 c 1.60967,6.8e-4 8.79883,0.0694 10.90802,0.0703 10.6014,0.004 16.90732,-3.62812 18.7861,-10.6386 1.1573,-4.31846 -0.60534,-7.60723 -5.71995,-9.23599 5.08324,-1.56838 8.35325,-4.59443 9.3753,-8.40811 1.62325,-6.05707 -2.28478,-9.82603 -11.60958,-9.82998 z m -200.29699,0.0137 -1.81387,6.76833 8.9421,0.004 -8.35616,31.18032 9.20223,0.004 8.35617,-31.18034 8.61693,0.004 2.98447,-6.76782 z m 64.80588,0.0274 -10.17004,37.94866 9.20223,0.004 10.17003,-37.94867 z m 16.06326,0.007 -10.17004,37.94867 9.16971,0.004 10.17005,-37.94868 z m 20.16037,0.009 c -3.9405,8.0753 -7.4193,13.29527 -14.82558,16.48929 l -0.1849,0.68998 7.18164,20.77037 10.21026,0.004 -7.62939,-19.94906 c 4.83803,-3.13902 9.46784,-7.4021 14.4177,-18.00103 z m 15.25036,0.006 -10.17005,37.94867 24.71272,0.0105 1.81388,-6.76834 -15.543,-0.007 2.57114,-9.59395 11.21827,0.005 2.88422,-6.63644 -12.32383,-0.005 2.1925,-8.18113 14.76259,0.006 1.81387,-6.76834 z m 115.07673,0.0487 -24.41236,37.94262 9.10468,0.004 5.30052,-9.09989 12.16127,0.005 0.35738,9.10229 9.26727,0.004 -3.64957,-37.95451 z m 54.27044,0.023 -10.17003,37.94866 9.20222,0.004 10.17004,-37.94866 z m 20.19289,0.009 c -3.9405,8.07531 -7.41931,13.29528 -14.82558,16.48929 l -0.18491,0.68998 7.18165,20.77037 10.2428,0.004 -7.66194,-19.9491 c 4.83803,-3.139 9.40282,-7.4021 14.35268,-18.00104 z m -266.72641,5.80181 2.04854,8.6e-4 c 3.77432,0.002 4.31164,2.35629 3.56012,5.16049 -0.91675,3.42113 -3.38837,5.0261 -5.9971,5.025 l -2.3412,-10e-4 z m 158.14379,0.13268 c 0.41438,-0.009 0.89391,3.8e-4 1.36571,5.7e-4 3.27479,10e-4 4.12936,1.94432 3.30269,5.02895 -1.00697,3.75763 -3.45856,4.89461 -5.73425,4.89366 l -2.56882,-10e-4 2.64156,-9.85679 c 0.22954,-0.028 0.57871,-0.056 0.99311,-0.0653 z m 35.41156,3.53097 c 0.0961,2.74848 0.33615,8.07895 0.66229,12.45412 l -7.99913,-0.003 c 2.65593,-4.31781 5.73763,-9.59081 7.33674,-12.45073 z m -38.13351,12.20767 c 4.21835,0.002 4.89151,2.61943 4.14003,5.42361 -0.99187,3.70158 -3.57974,4.76315 -6.57699,4.76187 l -2.76395,-10e-4 2.70324,-10.08679 c 0.51454,-0.0558 1.49857,-0.0979 2.49766,-0.0975 z m -239.644729,22.75147 -4.559591,15.7883 352.17971,0.14859 4.56281,-15.86839 z" style="font-size:40px;font-style:normal;font-weight:400;line-height:125%;letter-spacing:0;word-spacing:0;fill:#e8e1cf;fill-opacity:1;stroke:none;font-family:Sans"/><path id="rect2985-5-0-9" d="m 157.92076,479.97886 -8.11386,-0.003 2.42927,-8.58869 -6.49108,-0.003 -2.4291,8.5887 -6.6843,-0.003 -0.022,0.0784 -3.3547,-10e-4 c -9.92062,-0.15882 -12.57093,4.25783 -15.90824,12.52663 L 78.541108,640.06263 c -1.978547,6.99868 1.89149,12.53896 8.819547,12.53683 l 264.125295,-0.12382 c 0.012,-9.2e-4 0.0255,6.1e-4 0.0368,5.2e-4 0.47462,-0.0305 0.95526,-0.0386 1.44062,-0.0384 l 6.68431,0.003 2.64502,0.001 -2.07594,7.33965 -6.16084,-0.003 c -1.71293,-8.3e-4 -2.97903,0.0524 -3.83069,0.15463 -0.85167,0.10267 -1.63589,0.26771 -2.34578,0.50652 -0.70998,0.23883 -1.39011,0.65644 -2.05339,1.2483 -0.66345,0.5919 -1.26803,1.62004 -1.77205,3.12306 -0.35576,1.45754 -0.33588,2.49687 0.005,3.12338 0.34129,0.62652 0.85415,1.04467 1.53982,1.25022 0.68581,0.20563 1.39186,0.35012 2.15824,0.43012 0.76632,0.08 1.92766,0.11803 3.48291,0.1188 l 6.0516,0.003 -2.0868,7.37853 -9.21992,-0.004 c -2.64833,-10e-4 -4.90415,-0.50157 -6.77799,-1.44756 -1.87063,-0.95753 -3.14514,-2.39456 -3.84696,-4.29655 -0.6905,-1.90196 -0.65746,-4.23322 0.1219,-6.9888 0.50192,-1.77424 1.25705,-3.34232 2.27437,-4.76244 l -252.418145,0.12857 c -10.715028,0.002 -16.929857,-8.85965 -13.869561,-19.68411 l 38.806576,-147.4897 c 5.37963,-15.27036 10.00958,-20.10408 24.98866,-19.6289 l 1.92484,8.1e-4 4.75907,-16.82573 4e-5,0 8.11386,0.003 -2.31866,8.19831 6.49091,0.003 2.31867,-8.19832 8.11385,0.003 -6.20517,21.94021 -0.54109,1.91272 8.26847,0.003 2.76007,-4.29347 7.41826,0.003 0.33076,4.29479 9.42755,0.004 -1.59931,-23.85646 -12.32499,-0.005 -13.7397,21.93702 m 47.58589,-21.92265 c -1.95231,-8e-4 -3.85279,0.21645 -5.72386,0.70009 -1.85678,0.47315 -3.60689,1.20493 -5.21632,2.18449 -1.60608,0.96866 -2.99203,2.19273 -4.16742,3.6683 -1.16068,1.46466 -2.0043,3.12424 -2.53397,4.9965 -0.75371,2.6654 -0.74859,4.91475 -0.0169,6.75468 0.74299,1.83994 2.037,3.25335 3.95714,4.17929 1.92352,0.91532 4.2559,1.36846 6.95464,1.36957 l 9.31169,0.004 2.26105,-7.10498 -6.31742,-0.003 c -1.58475,-6.5e-4 -2.77826,-0.0413 -3.56014,-0.1179 -0.78197,-0.0778 -1.53364,-0.23181 -2.2356,-0.43053 -0.70154,-0.19835 -1.23264,-0.60488 -1.58924,-1.21098 -0.35705,-0.60604 -0.34149,-1.59662 9e-5,-3.00642 0.49145,-1.45366 1.04373,-2.47211 1.71125,-3.04475 0.66706,-0.57236 1.36083,-0.97832 2.08089,-1.20945 0.72006,-0.23106 1.5183,-0.40766 2.38454,-0.5066 0.86613,-0.0998 2.18975,-0.11534 3.93562,-0.1146 l 6.27807,0.003 2.26106,-7.10511 -2.97498,-10e-4 -6.80016,-0.003 z m 12.05493,0.005 -6.74671,23.85294 8.07512,0.003 2.00983,-7.10509 4.2881,7.10776 9.07994,0.004 0.73395,3.1e-4 253.56643,-0.12735 c 6.92819,-0.001 10.79821,5.53817 8.8197,12.53684 l -38.75106,147.48875 c -2.43998,10.80982 -7.72297,12.5251 -15.90821,12.52637 l -16.19876,0.0302 -0.0374,3.7e-4 -14.14131,-0.006 -6.97821,24.67288 12.9435,0.005 c 2.20242,0.0243 4.09311,-0.12053 5.72363,-0.42701 1.64207,-0.30678 3.12456,-0.98778 4.38853,-1.98939 1.27509,-1.00165 2.16515,-2.46377 2.71584,-4.41083 0.17357,-0.61496 0.20628,-1.23635 0.10493,-1.87412 -0.10235,-0.6377 -0.33514,-1.21695 -0.71181,-1.71825 -0.36252,-0.51261 -0.86605,-0.96341 -1.51801,-1.32815 -0.64852,-0.376 -1.41598,-0.58946 -2.27358,-0.70444 l 0.022,-0.0783 c 1.9852,-0.60266 3.50081,-1.3683 4.55404,-2.30164 0.78959,-0.70001 1.40389,-1.59598 1.80513,-2.69328 l 7.58244,-0.0339 c 16.37257,6e-4 20.89786,-3.92059 24.99936,-19.66768 l 38.7513,-147.48914 c 3.06022,-10.82447 -3.16553,-19.64767 -13.88055,-19.64492 l -253.56641,0.12736 -0.73428,-3.3e-4 -6.72274,-0.003 -2.76517,-4.84277 12.64067,-11.90288 -8.0752,-0.003 -7.9156,7.76635 2.19732,-7.76877 -3.1296,-0.001 z m -41.21003,5.25348 0.61234,9.44872 -6.83893,-0.003 z m 187.89524,191.03987 -6.97817,24.67327 19.44804,0.10202 2.08687,-7.3784 -11.489,-0.10055 4.89142,-17.29451 z m 21.51453,0.009 -4.09659,14.4839 c -0.58605,2.07205 -0.75293,3.74944 -0.497,5.03653 0.26705,1.28669 0.85402,2.34289 1.77171,3.1633 0.92865,0.8202 2.11459,1.40949 3.54878,1.79736 1.44899,0.37655 2.93202,0.59186 4.4213,0.62647 1.81575,-0.046 3.5229,-0.28459 5.11666,-0.73951 1.60522,-0.45503 3.01054,-1.09207 4.21169,-1.91153 1.21227,-0.81913 2.29193,-1.86475 3.26778,-3.08289 0.99,-1.22937 1.82098,-2.86905 2.43445,-4.91863 l 4.08527,-14.44473 -7.95923,-0.003 -4.11838,14.56182 c -0.41231,1.61694 -1.10988,2.79138 -2.10327,3.47417 -0.99336,0.68273 -2.11084,1.03034 -3.31183,1.05279 -1.47474,-0.0473 -2.47088,-0.40631 -2.98592,-1.05546 -0.51533,-0.64955 -0.48264,-1.81268 0.0554,-3.47502 l 4.1184,-14.56183 z m 30.84968,5.98688 5.91156,0.002 c 0.25896,1.3e-4 0.54952,0.11676 0.85552,0.39081 0.31706,0.27348 0.3931,0.7729 0.2481,1.4447 -0.18691,0.58081 -0.51656,1.05261 -0.97693,1.40544 -0.45739,0.34119 -0.86007,0.50716 -1.18671,0.50701 l -5.91159,-0.002 1.06003,-3.74795 z m -2.58387,9.13532 5.40939,0.002 c 1.12694,4.9e-4 1.97411,0.21565 2.4893,0.62563 0.5262,0.41043 0.64562,0.9617 0.37522,1.67934 -0.1827,0.64916 -0.68268,1.19533 -1.50692,1.63898 -0.82434,0.44366 -1.72378,0.65809 -2.64957,0.62348 l -5.40933,-0.002 z" style="font-size:medium;font-style:normal;font-variant:normal;font-weight:400;font-stretch:normal;text-indent:0;text-align:start;text-decoration:none;line-height:normal;letter-spacing:normal;word-spacing:normal;text-transform:none;direction:ltr;block-progression:tb;writing-mode:lr-tb;text-anchor:start;baseline-shift:baseline;color:#000;fill:#db4b4f;fill-opacity:1;stroke:#e8e1cf;stroke-width:1.49160862;stroke-miterlimit:4;stroke-opacity:1;stroke-dasharray:none;marker:none;visibility:visible;display:inline;overflow:visible;enable-background:accumulate;font-family:Sans;-inkscape-font-specification:Sans"/></g></svg>