<svg width="256" height="256" viewBox="0 0 256 256" fill="none" xmlns="http://www.w3.org/2000/svg">
<g id="icon-progress-rounded" clip-path="url(#clip0)">
<mask id="mask0" mask-type="alpha" maskUnits="userSpaceOnUse" x="0" y="0" width="256" height="256">
<path id="Vector" fill-rule="evenodd" clip-rule="evenodd" d="M128 256C230.4 256 256 230.4 256 128C256 25.6 230.4 0 128 0C25.6 0 0 25.6 0 128C0 230.4 25.6 256 128 256Z" fill="black"/>
</mask>
<g mask="url(#mask0)">
<g id="Group 1">
<path id="Rectangle 9" d="M-109.618 49.983L313.367 -39.9254L319.189 -12.5373L-103.797 77.3711L-109.618 49.983Z" fill="#FFADBD"/>
<path id="Rectangle 10" d="M-103.797 77.3711L319.189 -12.5373L325.01 14.8508L-97.9755 104.759L-103.797 77.3711Z" fill="#85D2F8"/>
<path id="Rectangle 11" d="M-97.9755 104.759L325.01 14.8508L330.832 42.239L-92.1539 132.147L-97.9755 104.759Z" fill="black"/>
<path id="Rectangle 12" d="M-92.1539 132.147L330.832 42.239L336.653 69.6271L-86.3324 159.536L-92.1539 132.147Z" fill="#654321"/>
<path id="Rectangle 13" d="M-86.3324 159.536L336.653 69.6271L342.475 97.0153L-80.5109 186.924L-86.3324 159.536Z" fill="#EC3750"/>
<path id="Rectangle 14" d="M-80.5109 186.924L342.475 97.0153L348.296 124.403L-74.6893 214.312L-80.5109 186.924Z" fill="#FF8C37"/>
<path id="Rectangle 15" d="M-74.6893 214.312L348.296 124.403L354.118 151.792L-68.8678 241.7L-74.6893 214.312Z" fill="#F1C40F"/>
<path id="Rectangle 16" d="M-68.8678 241.7L354.118 151.792L359.939 179.18L-63.0463 269.088L-68.8678 241.7Z" fill="#33D6A6"/>
<path id="Rectangle 17" d="M-63.0463 269.088L359.939 179.18L365.761 206.568L-57.2247 296.476L-63.0463 269.088Z" fill="#338EDA"/>
<path id="Rectangle 18" d="M-57.2247 296.476L365.761 206.568L371.583 233.956L-51.4032 323.864L-57.2247 296.476Z" fill="#A633D6"/>
<path id="Rectangle 19" d="M-115.44 22.5949L307.546 -67.3135L313.367 -39.9254L-109.618 49.983L-115.44 22.5949Z" fill="white"/>
<path id="Rectangle 10_2" d="M-115.465 22.4795L307.521 -67.4289L313.343 -40.0408L-109.643 49.8676L-115.465 22.4795Z" fill="white"/>
</g>
<g id="Vector_2" filter="url(#filter0_ii)">
<path fill-rule="evenodd" clip-rule="evenodd" d="M128 256C230.4 256 256 230.4 256 128C256 25.6 230.4 0 128 0C25.6 0 0 25.6 0 128C0 230.4 25.6 256 128 256Z" fill="url(#paint0_linear)" fill-opacity="0.2" style="mix-blend-mode:soft-light"/>
</g>
<g id="path3866" filter="url(#filter1_ddi)">
<path d="M112.84 43.8822C112.84 42.6392 111.718 41.6972 110.494 41.9124L72.6538 48.5636C71.6974 48.7317 71 49.5625 71 50.5334L71 222C71 223.105 71.8954 224 73 224H110.84C111.945 224 112.84 223.105 112.84 222V160.049C112.84 139.465 123.755 126.714 132.851 126.714C141.037 126.714 143.402 134.911 143.402 147.298V222C143.402 223.105 144.297 224 145.402 224H183.424C184.529 224 185.424 223.105 185.424 222V141.287C185.424 113.233 174.873 95.1992 147.404 95.1992C136.074 95.1992 125.024 98.0027 116.341 104.224C114.933 105.233 112.84 104.277 112.84 102.545V43.8822Z" fill="white"/>
</g>
</g>
</g>
<defs>
<filter id="filter0_ii" x="-6" y="-6" width="268" height="268" filterUnits="userSpaceOnUse" color-interpolation-filters="sRGB">
<feFlood flood-opacity="0" result="BackgroundImageFix"/>
<feBlend mode="normal" in="SourceGraphic" in2="BackgroundImageFix" result="shape"/>
<feColorMatrix in="SourceAlpha" type="matrix" values="0 0 0 0 0 0 0 0 0 0 0 0 0 0 0 0 0 0 127 0" result="hardAlpha"/>
<feOffset dx="6" dy="6"/>
<feGaussianBlur stdDeviation="4"/>
<feComposite in2="hardAlpha" operator="arithmetic" k2="-1" k3="1"/>
<feColorMatrix type="matrix" values="0 0 0 0 1 0 0 0 0 1 0 0 0 0 1 0 0 0 0.2 0"/>
<feBlend mode="normal" in2="shape" result="effect1_innerShadow"/>
<feColorMatrix in="SourceAlpha" type="matrix" values="0 0 0 0 0 0 0 0 0 0 0 0 0 0 0 0 0 0 127 0" result="hardAlpha"/>
<feOffset dx="-6" dy="-6"/>
<feGaussianBlur stdDeviation="4"/>
<feComposite in2="hardAlpha" operator="arithmetic" k2="-1" k3="1"/>
<feColorMatrix type="matrix" values="0 0 0 0 0 0 0 0 0 0 0 0 0 0 0 0 0 0 0.1 0"/>
<feBlend mode="normal" in2="effect1_innerShadow" result="effect2_innerShadow"/>
</filter>
<filter id="filter1_ddi" x="55" y="37.8817" width="146.424" height="214.118" filterUnits="userSpaceOnUse" color-interpolation-filters="sRGB">
<feFlood flood-opacity="0" result="BackgroundImageFix"/>
<feColorMatrix in="SourceAlpha" type="matrix" values="0 0 0 0 0 0 0 0 0 0 0 0 0 0 0 0 0 0 127 0"/>
<feOffset dy="12"/>
<feGaussianBlur stdDeviation="8"/>
<feColorMatrix type="matrix" values="0 0 0 0 0 0 0 0 0 0 0 0 0 0 0 0 0 0 0.25 0"/>
<feBlend mode="normal" in2="BackgroundImageFix" result="effect1_dropShadow"/>
<feColorMatrix in="SourceAlpha" type="matrix" values="0 0 0 0 0 0 0 0 0 0 0 0 0 0 0 0 0 0 127 0"/>
<feOffset dy="4"/>
<feGaussianBlur stdDeviation="4"/>
<feColorMatrix type="matrix" values="0 0 0 0 0 0 0 0 0 0 0 0 0 0 0 0 0 0 0.125 0"/>
<feBlend mode="normal" in2="effect1_dropShadow" result="effect2_dropShadow"/>
<feBlend mode="normal" in="SourceGraphic" in2="effect2_dropShadow" result="shape"/>
<feColorMatrix in="SourceAlpha" type="matrix" values="0 0 0 0 0 0 0 0 0 0 0 0 0 0 0 0 0 0 127 0" result="hardAlpha"/>
<feOffset dy="-2"/>
<feGaussianBlur stdDeviation="3"/>
<feComposite in2="hardAlpha" operator="arithmetic" k2="-1" k3="1"/>
<feColorMatrix type="matrix" values="0 0 0 0 0 0 0 0 0 0 0 0 0 0 0 0 0 0 0.25 0"/>
<feBlend mode="normal" in2="shape" result="effect3_innerShadow"/>
</filter>
<linearGradient id="paint0_linear" x1="128" y1="0" x2="128" y2="256" gradientUnits="userSpaceOnUse">
<stop offset="0.328125" stop-color="white"/>
<stop offset="1" stop-opacity="0.1"/>
</linearGradient>
<clipPath id="clip0">
<rect width="256" height="256" fill="white" transform="translate(256) rotate(90)"/>
</clipPath>
</defs>
</svg>
