<?xml version="1.0" encoding="utf-8"?>
<!-- Generator: Adobe Illustrator 15.0.0, SVG Export Plug-In . SVG Version: 6.00 Build 0)  -->
<!DOCTYPE svg PUBLIC "-//W3C//DTD SVG 1.1//EN" "http://www.w3.org/Graphics/SVG/1.1/DTD/svg11.dtd">
<svg version="1.1" id="Layer_1" xmlns="http://www.w3.org/2000/svg" xmlns:xlink="http://www.w3.org/1999/xlink" x="0px" y="0px"
	 width="288.613px" height="131.896px" viewBox="37.817 33.847 288.613 131.896"
	 enable-background="new 37.817 33.847 288.613 131.896" xml:space="preserve">
<path fill="#FFFFFF" stroke="#000000" stroke-width="3" stroke-miterlimit="10" d="M41.333,34c0,0-5.667,55.333,2,75.667
	s20,21.333,20,21.333s61-41,60.667-39.667s-1-5-8-16.667s-7.667-35-7.667-40.667"/>
<path fill="#FFFFFF" stroke="#000000" stroke-width="3" stroke-miterlimit="10" d="M124.334,92.516c0,0-9.097-11.242-38.406,5.952
	c-29.309,17.193-25.941,30.089-22.571,32.402c3.369,2.313,11.118,5.62,41.101-6.613S124.334,92.516,124.334,92.516z"/>
<path fill="#FFFFFF" stroke="#000000" stroke-width="3" stroke-miterlimit="10" d="M83.438,133c0,0,74.448-61,75.887-61.667
	s4.676,0,4.676,0l-75.978,63.144L83.438,133z"/>
<path fill="#FFFFFF" stroke="#000000" stroke-width="3" stroke-miterlimit="10" d="M91.667,131c0,0-2-9.667-6.333-12.333
	s4,0,6.333,0s12.334,5.667,10.667,10.667s-10,6.667-16,3.667S91.667,131,91.667,131z"/>
<path fill="#FFFFFF" stroke="#000000" stroke-width="3" stroke-miterlimit="10" d="M112.667,103.333
	c0.667,1.667,7.542,8.567,3.771,9.617s-2.437,9.471,4.896,7.594S131.003,109,124.001,105S112.667,103.333,112.667,103.333z"/>
<path fill="#FFFFFF" stroke="#000000" stroke-width="3" stroke-miterlimit="10" d="M104.667,123.333c0,0-0.992-3.666-3.667-9.667
	s7,0,7,0s12,5.309,7.333,12.32c-4.667,7.013-10.995,1.791-12.813,0C100.702,124.197,100.333,121.666,104.667,123.333z"/>
<linearGradient id="SVGID_1_" gradientUnits="userSpaceOnUse" x1="150.3979" y1="718.0703" x2="340.7236" y2="718.0703" gradientTransform="matrix(0.9997 0.025 -0.025 0.9997 3.1286 -610.188)">
	<stop  offset="0.0061" style="stop-color:#FE4C55"/>
	<stop  offset="1" style="stop-color:#E94D74"/>
</linearGradient>
<path fill="url(#SVGID_1_)" stroke="#000000" stroke-width="3" stroke-miterlimit="10" d="M167.71,63.024
	c0,0,23.585-6.061,58.907,35.685c35.316,41.747,94.346,31.824,95.033,31.609c0.687-0.215-16.346,11.502-16.346,11.502
	s9.145,6.689,18.692,8.488c9.55,1.803-56.392,26.405-100.486,5.672c-23.889-10.354-41.325-25.855-52.771-41.045
	c-4.118-4.973-16.902-21.963-34.677-24.819L167.71,63.024z"/>
<image display="none" overflow="visible" enable-background="new    " width="373" height="198" xlink:href="D3958235.png"  transform="matrix(1 0 0 1 2 34)">
</image>
<path fill="#FFFFFF" stroke="#FFFFFF" stroke-width="0.25" stroke-miterlimit="10" d="M174.732,74.564
	c-1.816,2.28-4.938,6.21-9.748,10.78c-8.472,6.961-1.3,8.86,2.42,6.114c2.221-1.492,4.475-3.07,4.475-3.069l4.568,5.193
	c0,0-1.864,2.332-3.436,4.24c-4.749,4.611,0.866,6.753,4.499,3.342c1.816-1.764,9.47-9.032,12.863-13.28
	c2.876-2.381,0.024-7.348-4.472-3.537c-2.01,1.283-5.725,4.25-5.725,4.25s-3.775-4.274-3.73-4.468
	c0.133-0.582,1.32-1.481,1.938-2.674C182.279,73.386,177.157,71.524,174.732,74.564z"/>
<path fill="#FFFFFF" stroke="#FFFFFF" stroke-width="0.25" stroke-miterlimit="10" d="M195.656,93.675
	c2.838-2.375,4.846-2.059,6.035-1.368c0.52,0.301,0.789,1.709,0.851,3.096c-1.335,8.031-10.612,19.623-11.532,20.259
	c-3.505,2.424-6.893,0.203-3.896-2.861c1.596-1.896,3.264-3.599,3.264-3.599l-4.438-2.641c-6.879,5.486-8.811,1.074-5.547-1.158
	C183.95,102.761,191.908,96.811,195.656,93.675z M190.038,102.245l4.294,2.821c0,0,4.975-7.588,3.113-7.312L190.038,102.245z"/>
<path fill="#FFFFFF" stroke="#FFFFFF" stroke-width="0.25" stroke-miterlimit="10" d="M216.559,111.16
	c1.385-1.487,1.871-5.883-2.975-7.247c-6.564-2.87-13.883,7.424-13.883,7.424c0-0.001-3.494,5.006-3.495,9.448
	c-0.062,4.312,3.673,5.953,4.356,6.361c4.826,0.67,4.65-2.866,3.963-3.236c-0.877-0.473-2.231-0.881-2.862-2.104
	c-1.122-2.181,0.717-5.507,2-7.166c2.282-2.789,7.08-8.199,9.481-5.324C213.997,112.449,215.751,112.023,216.559,111.16z"/>
<path fill="#FFFFFF" stroke="#FFFFFF" stroke-width="0.25" stroke-miterlimit="10" d="M220.615,112.841
	c-2.713,3.007-2.912,7.248-8.698,12.562c-1.44,1.322-4.407,3.541-4.827,3.865c-2.933,2.271-0.496,5.438,5.424,1.864
	c1.387-0.847,3.701-3.433,3.701-3.433l1.646,0.501c0,0-1.34,6.51-2.105,9.11c-0.764,2.601,2.965,5.899,5.186,1.103
	c0.57-1.666,0.994-4.203,1.229-7.487c0,0,0.177-2.373-0.38-2.992c0,0,7.029-2.596,8.375-4.278c1.346-1.688,1.07-3.497-4.171-2.007
	c-5.243,1.492-6.138,2.33-6.138,2.33s2.722-3.58,3.931-6.656C225.441,114.369,222.873,110.471,220.615,112.841z"/>
<path fill="#FFFFFF" stroke="#FFFFFF" stroke-width="0.25" stroke-miterlimit="10" d="M237.993,126.445
	c-2.308,0.848-4.66,3.341-6.527,7.871c-2.786,6.758-1.604,11.771,3.489,13.139c5.093,1.365,5.492-2.497,5.163-2.807
	c-0.327-0.31-0.267-0.68-2.525-0.808c-2.261-0.127-3.413-1.646-3.319-5.123c0.062-2.341,1.394-6.463,3.783-7.907
	c0.686-0.447,1.235-0.482,1.518-0.518c1.094-0.129,1.8,0.729,1.894,1.001c1.681,2.888,3.104,1.133,2.896-1.012
	C243.672,127.08,241.609,125.588,237.993,126.445z"/>
<path fill="#FFFFFF" stroke="#FFFFFF" stroke-width="0.25" stroke-miterlimit="10" d="M247.691,133.025
	c1.117-2.522,4.641-3.396,3.06,2.748c-0.521,4.172-1.998,11.838-2.474,12.856c0,0,1.183,1.431,5.75,2.392
	c0,0,1.97,0.666,1.063,1.621c-0.903,0.957-1.955,0.621-2.245,0.61c-0.289-0.011-10.607-2.336-10.218-3.739
	c0.39-1.404,1.011-1.869,2.304-6.25C246.17,137.568,246.575,135.548,247.691,133.025z"/>
<path fill="#FFFFFF" stroke="#FFFFFF" stroke-width="0.25" stroke-miterlimit="10" d="M258.868,137.117
	c0.61-1.922,3.034-2.186,3.239,0.238c0.16,1.908-1.812,9.021-1.688,12.386c0.266,1.446,1.762,2.344,2.898,1.614
	c1.561-1.252,2.721-5.34,3.531-8.765c0.289-1.688,0.707-2.897,1.172-3.711c1.545-2.688,3.633-0.987,3.396,2.37
	c-0.584,3.582-2.352,9.139-3.592,10.729c-1.241,1.59-2.693,3.584-5.301,3.119c-0.674-0.121-6.019-1.615-5.271-7.867
	C258.006,140.982,258.256,139.038,258.868,137.117z"/>
<path fill="#FFFFFF" stroke="#FFFFFF" stroke-width="0.25" stroke-miterlimit="10" d="M277.381,138.193
	c3.906-0.43,6.489-0.076,8.061,1.416c0.817,1.104,0.636,3.182-0.274,4.565c-0.942,1.149-1.966,1.974-1.966,1.974
	c1.736,0.984,1.588,2.856,1.588,2.856c-0.143,7.267-3.975,6.86-8.822,6.312c-1.544-0.254-3.096-0.944-2.918-1.453
	c0.335-0.958,1.904-13.907,1.904-13.907C275.029,139.312,274.991,138.35,277.381,138.193z M277.73,140.779l-0.106,4.289
	c0,0,4.455,0.221,4.926-2.022C283.021,140.805,280.113,140.945,277.73,140.779z M277.029,148.061c0,0-0.951,4.897-0.842,4.643
	c0.109-0.256,5.688,0.633,5.771-2.692C282.044,146.684,277.029,148.061,277.029,148.061z"/>
</svg>
