<?xml version="1.0" encoding="utf-8"?>
<!-- Generator: Adobe Illustrator 15.0.0, SVG Export Plug-In . SVG Version: 6.00 Build 0)  -->
<!DOCTYPE svg PUBLIC "-//W3C//DTD SVG 1.1//EN" "http://www.w3.org/Graphics/SVG/1.1/DTD/svg11.dtd">
<svg version="1.1" id="Layer_1" xmlns="http://www.w3.org/2000/svg" xmlns:xlink="http://www.w3.org/1999/xlink" x="0px" y="0px"
	 width="538.053px" height="206.305px" viewBox="23.002 28.773 538.053 206.305"
	 enable-background="new 23.002 28.773 538.053 206.305" xml:space="preserve">
<linearGradient id="SVGID_1_" gradientUnits="userSpaceOnUse" x1="218.2969" y1="112.8208" x2="430.8796" y2="72.7947" gradientTransform="matrix(1 0 0 -1 0 261)">
	<stop  offset="0" style="stop-color:#FE4C55"/>
	<stop  offset="0.27" style="stop-color:#FA4C5B"/>
	<stop  offset="0.7181" style="stop-color:#F14D6A"/>
	<stop  offset="1" style="stop-color:#E94D74"/>
</linearGradient>
<path fill="url(#SVGID_1_)" stroke="#000000" stroke-width="6" stroke-miterlimit="10" d="M555.123,180.016
	c0,0-43.829-30.658-60.823-36.687c-7.981-2.552-43.381-20.497-98.988,0c0,0-27.43,10.717-65.593,20.362l-5.207,3.216
	c0.106,33.081,0.071,32.812,1.63,43.94c3.131,11.254,7.419,27.864,40.682,18.219c33.261-9.646,66.654-26.793,108.396-12.86
	s70.066,17.992,79.905,14.892c0,0-21.467-19.18-28.622-34.183C526.5,196.915,550.354,189.908,555.123,180.016z"/>
<path fill="#F1F2F2" stroke="#F1F2F2" stroke-width="0.25" stroke-miterlimit="10" d="M379.734,173.377
	c0,0-1.549-4.714,5.853-11.809c7.4-7.099,14.972-3.442,16.425-0.717c1.452,2.726,4.071,8.313-1.433,20.78
	c-2.496,5.533-3.959,8.033-7.496,13.875c-2.759,5.81,5.096-2.614,14.194-2.612c9.1,0.002,6.52,8.086,3.927,8.197
	c-23.177,4.729-26.642,12.254-29.52,7.032c-2.877-5.224-0.142-10.521,1.843-13.796c1.981-3.271,16.431-22.913,9.785-26.324
	c-2.104-1.214-4.067,1.066-5.655,3.428c-1.3,2.014-1.773,3.797-3.818,5.012C381.956,176.766,380.388,175.418,379.734,173.377z"/>
<path fill="#F1F2F2" stroke="#F1F2F2" stroke-width="0.25" stroke-miterlimit="10" d="M442.925,157.432
	c3.892,7.016,3.009,20.967-0.993,32.451c-4,11.481-18.076,9.395-22.238,4.706c-4.16-4.687-7.838-20.55-5.577-32.915
	c2.263-12.365,11.3-13.104,13.59-13.677C433.615,147.66,439.035,150.417,442.925,157.432z M427.887,156.973
	c-6.221,1.076-5.74,10.221-5.053,16.021c1.466,10.46,3.251,14.94,4.846,16.646c1.969,1.797,3.602,1.596,5.783-1.015
	c1.146-1.592,1.746-4.376,1.985-8.136c0.319-3.676,0.146-7.105,0.146-7.105S435.352,156.057,427.887,156.973z"/>
<path fill="#F1F2F2" stroke="#F1F2F2" stroke-width="0.25" stroke-miterlimit="10" d="M461.878,146.957
	c-1.927-0.439-4.58,0.074-7.178,4.219c-4.926,7.859-6.202,5.299-4.121,10.829c0,0,3.812,3.474,6.296,0.175
	c0,0-0.605,1.803-0.524,14.575c0.082,12.771-3.029,23.204,3.853,22.134s6.03-2.777,6.377-12.447
	c0.349-9.67-0.388-32.748-0.567-34.948C465.834,149.292,464.583,147.541,461.878,146.957z"/>
<path fill="#F1F2F2" stroke="#F1F2F2" stroke-width="0.25" stroke-miterlimit="10" d="M494.773,163.572
	c-10.565,1.719-8.414,13.267-8.414,13.267c3.784-3.087,6.942-3.313,10.347-0.791c3.877,2.993,4.811,10.024,4.775,13.117
	c-0.122,10.539-4.005,20.604-15.781,17.548c-14.626-6.852-10.445-34.611-9.278-39.568c1.168-4.955,6.48-10.992,13.812-12.261
	c3.376-0.583,5.624,0.138,7.067,1.084c1.577,0.911,2.366,2.054,2.451,3.207S499.809,162.402,494.773,163.572z M486.491,182.98
	c0,0-1.626,13.689,3.725,15.576c5.351,1.885,4.394-4.785,4.488-7.668C495.122,182.915,493.031,179.495,486.491,182.98z"/>
<linearGradient id="SVGID_2_" gradientUnits="userSpaceOnUse" x1="212.7153" y1="124.7041" x2="448.0812" y2="80.3882" gradientTransform="matrix(1 0 0 -1 0 261)">
	<stop  offset="0" style="stop-color:#FE4C55"/>
	<stop  offset="0.27" style="stop-color:#FA4C5B"/>
	<stop  offset="0.7181" style="stop-color:#F14D6A"/>
	<stop  offset="1" style="stop-color:#E94D74"/>
</linearGradient>
<path fill="url(#SVGID_2_)" stroke="#000000" stroke-width="6" stroke-miterlimit="10" d="M326.869,211.416
	c0,0,0.722-9.739,16.272-14.557c18.851-6.336,25.16-5.532,26.486-13.391c1.326-7.854,2.697-66.558,1.349-70.574
	c-1.349-4.017-11.105,16.065-33.41,23.716c0,0-12.575,0.63-12.908,15.302c-0.287,12.668-0.073,50.804,0.774,55.821
	C326.214,210.934,326.869,211.416,326.869,211.416z"/>
<linearGradient id="SVGID_3_" gradientUnits="userSpaceOnUse" x1="229.7178" y1="146.7656" x2="446.9737" y2="105.8596" gradientTransform="matrix(1 0 0 -1 0 261)">
	<stop  offset="0" style="stop-color:#FE4C55"/>
	<stop  offset="0.27" style="stop-color:#FA4C5B"/>
	<stop  offset="0.7181" style="stop-color:#F14D6A"/>
	<stop  offset="1" style="stop-color:#E94D74"/>
</linearGradient>
<path fill="url(#SVGID_3_)" stroke="#000000" stroke-width="6" stroke-miterlimit="10" d="M214.69,31.868
	c55.327,3.385,99.856,17.94,126.083,32.482c4.405,2.444,24.409,13.529,29.035,22.224c3.595,4.099,1.121,83.67,0.122,90.554
	c-0.062,4.524,0.067,3.05-1.107,0.356c-7.128-13.881-47.516-27.285-67.98-33.514c-20.81-5.967-51.003-14.443-101.604-11.361
	c-52.604,3.078-101.403,13.63-133.726,20.433c-19.941,4.197-38.041,5.676-38.041,5.676l-1.437-92.363
	C26.034,66.356,126.542,29.666,214.69,31.868z"/>
<path fill="#F1F2F2" stroke="#F1F2F2" stroke-width="0.25" stroke-miterlimit="10" d="M113.023,75.213
	c1.021,2.953,2.753,8.382,6.575,19.855c1.661,4.986,3.466,12.293,3.466,12.293s3.484,11.652,0.893,13.436
	c-1.646,2.208-5.36,1.083-7.007-0.817c-2.172-3.097-4.029-10.147-4.935-14.033c-0.378-1.62-1.017-3.188-1.352-3.459
	c-1.552-0.951-4.59,0.166-6.38,0.82c-2.363,0.861-4.892,2.062-5.795,2.602c-2.058,8.714,0.716-4.126-2.058,8.714
	c-1.228,5.682-1.542,8.435-2.047,9.961c-0.637,1.925-5.958,8.308-9.4,0.502c-0.25-2.221,0.273-4.762,0.273-4.762
	s1.738-20.378,7.138-40.153c5.401-19.774,11.458-16.976,11.458-16.976C105.906,63.095,108.471,63.758,113.023,75.213z M98.132,95.75
	c0,0,9.546-1.868,10.505-3.461c0.96-1.594-2.93-17.51-4.754-18.082C102.06,73.637,99.11,81.207,98.132,95.75z"/>
<path fill="#F1F2F2" stroke="#F1F2F2" stroke-width="0.25" stroke-miterlimit="10" d="M157.004,70.134c0,0,3.754-5.022-5.006-12.179
	c-8.761-7.156-15.332-1.926-17.834,0c-2.503,1.927-6.57,15.415-6.257,39.912c0,0-0.156,22.295,14.94,20.918
	c15.096-1.376,16.348-9.909,17.287-14.038c0.938-4.129-1.252-6.331-3.442-6.331s-4.068,0.908-5.632,5.133
	c-1.564,4.226-6.57,10.281-11.264,4.501c0,0-3.754-9.634-1.251-28.076c2.503-18.441,4.273-14.312,5.578-15.414
	c1.305-1.101,4.434,1.102,5.373,4.404C149.495,68.966,153.562,74.331,157.004,70.134z"/>
<path fill="#F1F2F2" stroke="#F1F2F2" stroke-width="0.25" stroke-miterlimit="10" d="M176.062,52.164c0,0-5.491-3.111-7.116,1.685
	c-0.676,5.008-0.554,31.096-0.649,35.102c-0.379,2.332-0.732,14.3-1.201,23.553c0.519,1.499,1.342,2.455,2.582,2.543
	c6.291,0.452,6.438-2.695,6.994-4.034c0.556-1.338,1.048-15.7,1.664-15.892c0.617-0.192,4.554-2.757,5.437-3.85
	c0.717-0.888,4.66,12.737,10.114,18.648c4.345,4.527,10.147,3,7.453-3.083c-0.667-1.982-1.669-4.104-2.32-5.734
	c-1.806-4.522-7.363-14.464-7.262-14.919c0.05-0.229,2.385-4.155,2.385-4.155s4.686-9.455,5.811-11.24
	c1.705-2.707,7.888-16.119,7.097-19.218c-0.79-3.098-1.783-4.092-3.957-3.716c-2.174,0.377-2.75,1.312-5.296,6.489
	c-2.545,5.179-7.758,15.435-11.309,20.821c0,0-4.761,7.056-8.713,9.359c0,0,1.052-9.738,1.138-19.949
	C178.311,53.222,176.062,52.164,176.062,52.164z"/>
<path fill="#F1F2F2" stroke="#F1F2F2" stroke-width="0.25" stroke-miterlimit="10" d="M196.333,142.525"/>
<path fill="#F1F2F2" stroke="#F1F2F2" stroke-width="0.25" stroke-miterlimit="10" d="M256.946,66.94c0,0,4.077-1.896-2.9-11.164
	c-6.977-9.267-16.17-4.487-16.17-4.487s-9.82,3.729-10.895,22.703c-0.742,13.1-1.126,23.625,0.342,30.27
	c1.885,6.028,6.455,8.466,8.137,9.096c7.579,2.836,15.692,0.945,19.135-3.337c0,0,3.428-2.358,3.413-10.493
	c-1.155-4.581-3.8-5.198-6.544-3.249c-2.745,1.949-1.421,10.738-6.73,10.017c-3.345-0.587-4.884-2.251-5.587-4.409
	c-1.328-3.359-1.75-12.214-1.6-19.505c0.083-4.042,0.286-13.216,1.964-17.289c0.561-1.918,1.321-3.49,2.339-4.512
	c3.099-1.281,4.297,0.135,4.892,2.046c0.446,1.433,1.707,5.022,2.416,5.414C251.283,69.219,254.828,69.941,256.946,66.94z"/>
<path fill="#F1F2F2" stroke="#F1F2F2" stroke-width="0.25" stroke-miterlimit="10" d="M272.518,57.173
	c-1.82-0.249-4.352,1.919-4.852,20.311c-0.667,24.521-2,30.594-2,30.594s-4.333,9.109,8.333,10.765c12.667,1.656,13,3.588,15,1.932
	c2-1.655,2.332-4.569,0-6.563c-2.333-1.993-8.853-2.185-11.211-4.477c0,0,1.543-30.915,1.543-35.606
	c0-3.776,1.454-9.438,0.048-12.576C279.04,60.789,276.874,57.826,272.518,57.173z"/>
<path fill="#F1F2F2" stroke="#F1F2F2" stroke-width="0.25" stroke-miterlimit="10" d="M295.857,73.658
	c-1.004,10.571-1.676,40.221,1.674,46.259c2.742,4.947,6.32,7.474,9.147,9.184c7.494,3.398,14.827,2.217,18.636-7.038
	c3.347-8.347,3.676-20.27,4.516-34.523c1.511-14.282-7.489-14.451-7.528-7.491c-0.67,11.412-0.669,38.674-8.368,42.014
	c-7.698,3.336-9.037-12.798-9.037-29.21c0-16.413,0-19.607-0.336-23.646C304.225,65.167,296.861,63.087,295.857,73.658z"/>
<path fill="#F1F2F2" stroke="#F1F2F2" stroke-width="0.25" stroke-miterlimit="10" d="M355.429,94.731
	c1.158,2.359,1.812,5.612,1.327,11.13c-0.93,10.571-4.392,11.7-4.392,11.7c4.214,2.482,4.729,8.598,0.639,19.737
	c-4.094,11.144-17.426,2.032-18.392,1.642c-0.971-0.391,1.054-16.572,0.984-38.51c-0.036-10.738,0.659-15.373,1.379-17.306
	c0.748-2.016,2.656-0.921,3.239-0.772c1.284,0.327,2.61,0.84,3.91,1.487c4.165,2.069,7.071,4.883,8.94,7.248
	C354.25,92.579,355.018,93.895,355.429,94.731z M344.729,91.629c0,0-1.641,4.551-1.435,20.824c0,0,8.009,2.333,7.333-9.064
	C349.949,91.991,344.729,91.629,344.729,91.629z M343.336,117.971c-1.512-0.637-0.931,15.895-0.931,15.895s5.044,4.397,5.942-3.522
	C349.246,122.423,349.477,120.561,343.336,117.971z"/>
<path fill="#F1F2F2" stroke="#F1F2F2" stroke-width="0.25" stroke-miterlimit="10" d="M49.162,82.284
	c-0.386,8.505,0.106,23.554-0.268,27.771c-0.35,3.94-0.403,13.996-0.347,20.817c-0.583,9.241,8.216,8.229,8.565,2.221
	c0.349-6.008,1.02-14.367,1.02-14.367s10.403-4.647,10.104-5.433c-0.299-0.787-1.049,18.416,1.08,19.211s8.074,1.219,8.585-6.226
	c0.511-7.445,1.373-21.077,1.386-22.816c0.013-1.739,2.339-27.987,0.833-30.608c-1.651-6.691-9.629-4.28-9.997,2.499
	c-0.623,3.161,0.084,6.846-0.315,10.511c-0.653,6.006-0.422,16.184-1.2,18.277c0,0-7.488,2.188-9.943,4.266
	c0,0,1.196-17.632,0.772-22.208c-0.318-3.432,0.475-6.416-0.964-9.025C57.993,76.305,51.249,71.389,49.162,82.284z"/>
</svg>
