<?xml version="1.0" encoding="utf-8"?>
<!-- Generator: Adobe Illustrator 15.0.0, SVG Export Plug-In . SVG Version: 6.00 Build 0)  -->
<!DOCTYPE svg PUBLIC "-//W3C//DTD SVG 1.1//EN" "http://www.w3.org/Graphics/SVG/1.1/DTD/svg11.dtd">
<svg version="1.1" id="Layer_1" xmlns="http://www.w3.org/2000/svg" xmlns:xlink="http://www.w3.org/1999/xlink" x="0px" y="0px"
	 width="288.683px" height="163px" viewBox="33.366 9.45 288.683 163" enable-background="new 33.366 9.45 288.683 163"
	 xml:space="preserve">
<path fill="#FFFFFF" stroke="#000000" stroke-width="3" stroke-miterlimit="10" d="M34.121,146.244c0,0,17.797,10.361,33.869,17.495
	c16.071,7.133,34.297,7.206,34.297,7.206s22.686-69.909,23.246-68.654c0.089,0.198-0.969-3.197-18.416-6.395
	c-8.604-1.574-18.453-3.559-27.459-6.188c-9.256-2.704-44.903-20.941-44.903-20.941"/>
<path fill="#FFFFFF" stroke="#000000" stroke-width="3" stroke-miterlimit="10" d="M126.526,103.016c0,0-14.096-3.229-26.542,28.391
	c-12.446,31.617-1.837,39.685,2.243,39.425c4.079-0.26,12.216-2.438,28.255-30.572C146.519,112.124,126.526,103.016,126.526,103.016
	z"/>
<path fill="#FFFFFF" stroke="#000000" stroke-width="3" stroke-miterlimit="10" d="M119.339,160.109
	c0,0,20.921-93.945,21.641-95.358c0.721-1.413,3.679-2.886,3.679-2.886l-20.801,96.576L119.339,160.109z"/>
<path fill="#FFFFFF" stroke="#000000" stroke-width="3" stroke-miterlimit="10" d="M124.58,153.457c0,0-7.541-6.371-12.596-5.794
	c-5.054,0.577,3.147-2.47,4.983-3.909c1.835-1.439,13.202-3.154,14.976,1.809c1.775,4.963-3.752,11.418-10.325,12.763
	C115.046,159.666,124.58,153.457,124.58,153.457z"/>
<path fill="#FFFFFF" stroke="#000000" stroke-width="3" stroke-miterlimit="10" d="M124.024,118.729
	c1.554,0.898,11.222,2.084,8.903,5.238c-2.318,3.153,3.929,8.954,8.54,2.951c4.611-6.003,0.481-15.05-7.496-13.875
	S124.024,118.729,124.024,118.729z"/>
<path fill="#FFFFFF" stroke="#000000" stroke-width="3" stroke-miterlimit="10" d="M130.075,139.4c0,0-3.043-2.271-8.852-5.342
	c-5.809-3.072,5.507-4.322,5.507-4.322s12.718-3.229,13.375,5.168c0.656,8.396-7.545,8.195-10.081,7.908
	C127.489,142.527,125.636,140.766,130.075,139.4z"/>
<linearGradient id="SVGID_1_" gradientUnits="userSpaceOnUse" x1="-266.9668" y1="-552.374" x2="-76.6455" y2="-552.374" gradientTransform="matrix(0.802 -0.5974 -0.5974 -0.802 31.1257 -491.5059)">
	<stop  offset="0.0061" style="stop-color:#FE4C55"/>
	<stop  offset="1" style="stop-color:#E94D74"/>
</linearGradient>
<path fill="url(#SVGID_1_)" stroke="#000000" stroke-width="3" stroke-miterlimit="10" d="M142.449,53.038
	c0,0,14.815-19.327,68.374-8.285c53.554,11.046,93.87-33.197,94.278-33.79c0.407-0.594-5.762,19.139-5.762,19.139
	s11.324-0.381,19.946-4.86c8.626-4.477-28.065,55.583-75.56,66.486c-25.186,6.601-48.473,5.168-66.854,0.28
	c-6.308-1.368-26.854-6.847-42.603,1.877L142.449,53.038z"/>
<image display="none" overflow="visible" enable-background="new    " width="373" height="198" xlink:href="5ACA6F52.png"  transform="matrix(1 0 0 1 2 34)">
</image>
<path fill="#FFFFFF" stroke="#FFFFFF" stroke-width="0.25" stroke-miterlimit="10" d="M155.097,57.783
	c-0.022,2.915-0.052,7.934-1.015,14.497c-2.369,10.707,4.447,7.771,5.679,3.316c0.826-2.544,1.625-5.177,1.625-5.177l6.8,1.267
	c0,0-0.027,2.985-0.086,5.457c-0.89,6.559,4.849,4.779,5.603-0.147c0.34-2.508,1.874-12.951,1.923-18.388
	c0.793-3.648-4.516-5.796-5.7-0.023c-0.79,2.25-1.881,6.877-1.881,6.877s-5.608-1.032-5.694-1.212c-0.255-0.54,0.125-1.98-0.125-3.3
	C160.307,52.197,155.128,53.894,155.097,57.783z"/>
<path fill="#FFFFFF" stroke="#FFFFFF" stroke-width="0.25" stroke-miterlimit="10" d="M183.355,59.903
	c0.767-3.621,2.541-4.611,3.901-4.802c0.597-0.084,1.677,0.857,2.58,1.911c3.907,7.143,3.765,21.989,3.433,23.056
	c-1.263,4.071-5.297,4.414-4.83,0.154c0.084-2.478,0.346-4.847,0.346-4.847l-5.121,0.664c-2.025,8.562-6.27,6.283-5.079,2.513
	C179.753,74.278,182.343,64.684,183.355,59.903z M184.227,70.114l5.119-0.432c0,0-0.771-9.04-2.062-7.673L184.227,70.114z"/>
<path fill="#FFFFFF" stroke="#FFFFFF" stroke-width="0.25" stroke-miterlimit="10" d="M210.594,60.758
	c0.172-2.025-2.158-5.783-6.812-3.865c-6.938,1.793-6.343,14.41-6.343,14.41c0-0.001,0.343,6.095,3.082,9.59
	c2.615,3.432,6.564,2.417,7.354,2.316c4.211-2.452,1.892-5.126,1.12-4.992c-0.98,0.169-2.299,0.685-3.551,0.111
	c-2.229-1.021-2.834-4.774-2.85-6.872c0.072-3.604,0.51-10.821,4.174-10.042C209.374,63.353,210.491,61.936,210.594,60.758z"/>
<path fill="#FFFFFF" stroke="#FFFFFF" stroke-width="0.25" stroke-miterlimit="10" d="M214.822,59.576
	c-0.278,4.041,2.183,7.5,0.91,15.252c-0.317,1.929-1.281,5.506-1.412,6.021c-0.906,3.596,2.967,4.584,5.418-1.882
	c0.568-1.522,0.794-4.985,0.794-4.985l1.604-0.621c0,0,2.963,5.948,3.967,8.467c1.004,2.517,5.975,2.812,4.76-2.333
	c-0.579-1.663-1.812-3.92-3.654-6.649c0,0-1.326-1.976-2.146-2.12c0,0,3.931-6.382,3.947-8.537c0.018-2.157-1.314-3.413-4.521,0.997
	c-3.203,4.411-3.39,5.621-3.39,5.621s-0.068-4.496-1.02-7.663C219.562,57.8,215.137,56.318,214.822,59.576z"/>
<path fill="#FFFFFF" stroke="#FFFFFF" stroke-width="0.25" stroke-miterlimit="10" d="M236.893,59.553
	c-1.293,2.091-1.604,5.505-0.275,10.222c1.979,7.037,6.004,10.252,10.854,8.184c4.85-2.07,2.779-5.355,2.329-5.395
	c-0.446-0.042-0.629-0.37-2.483,0.924c-1.856,1.296-3.703,0.811-5.772-1.981c-1.396-1.88-2.896-5.945-1.903-8.558
	c0.262-0.774,0.674-1.142,0.873-1.343c0.78-0.776,1.866-0.537,2.106-0.381c3.104,1.235,3.142-1.024,1.651-2.583
	C241.752,56.548,239.208,56.646,236.893,59.553z"/>
<path fill="#FFFFFF" stroke="#FFFFFF" stroke-width="0.25" stroke-miterlimit="10" d="M248.584,58.744
	c-0.678-2.674,1.555-5.537,4.104,0.273c2.166,3.604,5.734,10.547,5.99,11.643c0,0,1.812,0.395,5.999-1.668
	c0,0,1.962-0.692,1.839,0.619c-0.121,1.311-1.154,1.696-1.39,1.867c-0.233,0.17-9.788,4.709-10.349,3.364
	c-0.561-1.347-0.357-2.094-2.045-6.339C250.191,63.258,249.264,61.418,248.584,58.744z"/>
<path fill="#FFFFFF" stroke="#FFFFFF" stroke-width="0.25" stroke-miterlimit="10" d="M259.902,55.064
	c-0.705-1.889,1.039-3.593,2.697-1.812c1.303,1.403,4.141,8.216,6.315,10.787c1.103,0.974,2.832,0.756,3.276-0.52
	c0.455-1.947-1.155-5.88-2.631-9.075c-0.812-1.506-1.232-2.717-1.369-3.643c-0.441-3.068,2.248-3.02,4.137-0.232
	c1.751,3.179,3.79,8.641,3.797,10.659c0.005,2.017,0.096,4.482-2.245,5.726c-0.604,0.321-5.729,2.443-9.002-2.938
	C261.609,58.638,260.607,56.954,259.902,55.064z"/>
<path fill="#FFFFFF" stroke="#FFFFFF" stroke-width="0.25" stroke-miterlimit="10" d="M275.133,44.484
	c2.809-2.75,5.059-4.065,7.215-3.861c1.326,0.365,2.465,2.111,2.604,3.763c-0.032,1.487-0.329,2.765-0.329,2.765
	c1.977-0.297,3.014,1.269,3.014,1.269c4.373,5.803,1.108,7.85-3.045,10.412c-1.371,0.753-3.02,1.167-3.191,0.658
	c-0.328-0.961-7.088-12.118-7.088-12.118C273.973,46.816,273.35,46.082,275.133,44.484z M277.004,46.303l2.562,3.44
	c0,0,3.643-2.576,2.627-4.632C281.182,43.057,278.98,44.963,277.004,46.303z M280.945,52.464c0,0,2.275,4.44,2.203,4.171
	c-0.07-0.269,4.867-3.013,2.881-5.681C284.042,48.286,280.945,52.464,280.945,52.464z"/>
</svg>
