<?xml version="1.0" encoding="utf-8"?>
<!-- Generator: Adobe Illustrator 15.0.0, SVG Export Plug-In . SVG Version: 6.00 Build 0)  -->
<!DOCTYPE svg PUBLIC "-//W3C//DTD SVG 1.1//EN" "http://www.w3.org/Graphics/SVG/1.1/DTD/svg11.dtd">
<svg version="1.1" id="Layer_1" xmlns="http://www.w3.org/2000/svg" xmlns:xlink="http://www.w3.org/1999/xlink" x="0px" y="0px"
	 width="533.227px" height="206.292px" viewBox="3.2 0.012 533.227 206.292" enable-background="new 3.2 0.012 533.227 206.292"
	 xml:space="preserve">
<linearGradient id="SVGID_1_" gradientUnits="userSpaceOnUse" x1="193.668" y1="-443.0994" x2="406.2489" y2="-483.1252" gradientTransform="matrix(1 0 0 -1 0 -323.6948)">
	<stop  offset="0" style="stop-color:#FE4C55"/>
	<stop  offset="0.27" style="stop-color:#FA4C5B"/>
	<stop  offset="0.7181" style="stop-color:#F14D6A"/>
	<stop  offset="1" style="stop-color:#E94D74"/>
</linearGradient>
<path fill="url(#SVGID_1_)" stroke="#000000" stroke-width="6" stroke-miterlimit="10" d="M530.493,151.242
	c0,0-43.828-30.658-60.822-36.688c-7.979-2.553-43.381-20.497-98.988,0c0,0-27.43,10.717-65.594,20.361l-5.207,3.217
	c0.107,33.081,0.072,32.812,1.631,43.939c3.131,11.254,7.418,27.863,40.683,18.219c33.262-9.646,66.653-26.793,108.396-12.859
	s70.066,17.992,79.904,14.893c0,0-21.467-19.181-28.621-34.184C501.87,168.142,525.724,161.135,530.493,151.242z"/>
<path fill="#F1F2F2" stroke="#F1F2F2" stroke-width="0.25" stroke-miterlimit="10" d="M355.104,144.604c0,0-1.549-4.714,5.854-11.81
	c7.4-7.1,14.971-3.441,16.424-0.717c1.453,2.727,4.072,8.312-1.432,20.779c-2.496,5.533-3.959,8.033-7.496,13.875
	c-2.76,5.811,5.096-2.613,14.193-2.611c9.1,0.002,6.52,8.086,3.928,8.196c-23.178,4.729-26.644,12.255-29.521,7.032
	c-2.877-5.225-0.141-10.521,1.845-13.796c1.979-3.271,16.432-22.913,9.784-26.324c-2.104-1.214-4.065,1.065-5.653,3.429
	c-1.301,2.014-1.773,3.797-3.818,5.012C357.327,147.992,355.759,146.645,355.104,144.604z"/>
<path fill="#F1F2F2" stroke="#F1F2F2" stroke-width="0.25" stroke-miterlimit="10" d="M418.296,128.658
	c3.894,7.017,3.008,20.967-0.994,32.45c-4,11.481-18.074,9.396-22.235,4.706c-4.16-4.688-7.841-20.55-5.578-32.915
	c2.264-12.364,11.301-13.104,13.59-13.677C408.985,118.887,414.405,121.644,418.296,128.658z M403.257,128.199
	c-6.221,1.075-5.738,10.221-5.053,16.021c1.467,10.46,3.252,14.939,4.846,16.646c1.972,1.797,3.604,1.596,5.783-1.016
	c1.146-1.592,1.746-4.376,1.986-8.136c0.317-3.677,0.145-7.105,0.145-7.105S410.722,127.283,403.257,128.199z"/>
<path fill="#F1F2F2" stroke="#F1F2F2" stroke-width="0.25" stroke-miterlimit="10" d="M437.249,118.184
	c-1.928-0.438-4.58,0.074-7.178,4.219c-4.927,7.859-6.203,5.3-4.121,10.829c0,0,3.811,3.475,6.295,0.176
	c0,0-0.605,1.803-0.523,14.574s-3.028,23.204,3.854,22.135c6.881-1.07,6.029-2.777,6.377-12.447s-0.389-32.748-0.568-34.947
	C441.204,120.519,439.954,118.768,437.249,118.184z"/>
<path fill="#F1F2F2" stroke="#F1F2F2" stroke-width="0.25" stroke-miterlimit="10" d="M470.144,134.799
	c-10.563,1.719-8.413,13.267-8.413,13.267c3.782-3.087,6.94-3.312,10.348-0.791c3.877,2.993,4.811,10.024,4.774,13.117
	c-0.122,10.539-4.006,20.604-15.78,17.548c-14.627-6.853-10.445-34.61-9.279-39.567c1.168-4.955,6.48-10.992,13.812-12.262
	c3.377-0.583,5.625,0.139,7.065,1.084c1.578,0.911,2.367,2.055,2.451,3.207C475.208,131.555,475.179,133.628,470.144,134.799z
	 M461.862,154.206c0,0-1.627,13.688,3.725,15.576c5.353,1.885,4.396-4.785,4.488-7.668
	C470.493,154.142,468.401,150.722,461.862,154.206z"/>
<linearGradient id="SVGID_2_" gradientUnits="userSpaceOnUse" x1="188.0859" y1="-431.217" x2="423.4518" y2="-475.5329" gradientTransform="matrix(1 0 0 -1 0 -323.6948)">
	<stop  offset="0" style="stop-color:#FE4C55"/>
	<stop  offset="0.27" style="stop-color:#FA4C5B"/>
	<stop  offset="0.7181" style="stop-color:#F14D6A"/>
	<stop  offset="1" style="stop-color:#E94D74"/>
</linearGradient>
<path fill="url(#SVGID_2_)" stroke="#000000" stroke-width="6" stroke-miterlimit="10" d="M302.239,182.643
	c0,0,0.723-9.739,16.271-14.558c18.853-6.336,25.16-5.531,26.486-13.392c1.326-7.854,2.697-66.558,1.35-70.573
	c-1.35-4.018-11.104,16.064-33.41,23.716c0,0-12.573,0.631-12.907,15.303c-0.287,12.668-0.072,50.804,0.772,55.82
	C301.585,182.16,302.239,182.643,302.239,182.643z"/>
<linearGradient id="SVGID_3_" gradientUnits="userSpaceOnUse" x1="205.0889" y1="-409.156" x2="422.3447" y2="-450.0621" gradientTransform="matrix(1 0 0 -1 0 -323.6948)">
	<stop  offset="0" style="stop-color:#FE4C55"/>
	<stop  offset="0.27" style="stop-color:#FA4C5B"/>
	<stop  offset="0.7181" style="stop-color:#F14D6A"/>
	<stop  offset="1" style="stop-color:#E94D74"/>
</linearGradient>
<path fill="url(#SVGID_3_)" stroke="#000000" stroke-width="6" stroke-miterlimit="10" d="M1.406,37.581
	c0,0,106.989-36.526,188.654-34.486c55.327,3.385,99.856,17.939,126.083,32.481c4.404,2.443,24.408,13.528,29.035,22.225
	c3.597,4.099,1.121,83.67,0.121,90.554c-0.061,4.523,0.068,3.051-1.104,0.355c-7.129-13.881-47.519-27.284-67.98-33.515
	c-20.81-5.967-51.003-14.442-101.604-11.36c-52.604,3.078-101.403,13.631-133.726,20.434c-19.941,4.197-38.041,5.676-38.041,5.676"
	/>
<path fill="#F1F2F2" stroke="#F1F2F2" stroke-width="0.25" stroke-miterlimit="10" d="M88.394,46.44
	c1.021,2.953,2.753,8.383,6.575,19.854c1.661,4.986,3.466,12.293,3.466,12.293s3.484,11.652,0.893,13.437
	c-1.646,2.208-5.36,1.083-7.007-0.816c-2.172-3.098-4.029-10.146-4.935-14.032c-0.378-1.62-1.017-3.188-1.352-3.46
	c-1.552-0.95-4.59,0.166-6.38,0.82c-2.363,0.86-4.892,2.062-5.795,2.603c-2.058,8.714,0.716-4.126-2.058,8.714
	c-1.228,5.683-1.542,8.436-2.047,9.961c-0.637,1.925-5.958,8.309-9.4,0.502c-0.25-2.221,0.273-4.762,0.273-4.762
	s1.738-20.379,7.138-40.153c5.401-19.773,11.458-16.977,11.458-16.977C81.276,34.323,83.842,34.985,88.394,46.44z M73.502,66.977
	c0,0,9.546-1.868,10.505-3.461c0.96-1.595-2.93-17.511-4.754-18.082C77.431,44.865,74.48,52.434,73.502,66.977z"/>
<path fill="#F1F2F2" stroke="#F1F2F2" stroke-width="0.25" stroke-miterlimit="10" d="M151.433,23.391c0,0-5.491-3.11-7.116,1.686
	c-0.676,5.008-0.554,31.096-0.649,35.103c-0.379,2.332-0.732,14.3-1.201,23.553c0.519,1.499,1.342,2.455,2.582,2.543
	c6.291,0.452,6.438-2.694,6.994-4.033s1.048-15.7,1.664-15.893c0.617-0.191,4.554-2.757,5.437-3.851
	c0.717-0.889,4.66,12.736,10.114,18.647c4.345,4.527,10.147,3,7.453-3.083c-0.667-1.981-1.669-4.104-2.32-5.733
	c-1.806-4.521-7.363-14.464-7.262-14.919c0.05-0.229,2.385-4.155,2.385-4.155s4.686-9.454,5.811-11.239
	c1.705-2.707,7.888-16.119,7.097-19.219c-0.79-3.098-1.783-4.092-3.957-3.716c-2.174,0.377-2.75,1.312-5.296,6.488
	c-2.545,5.18-7.758,15.436-11.309,20.821c0,0-4.761,7.057-8.713,9.358c0,0,1.052-9.737,1.138-19.948
	C153.682,24.448,151.433,23.391,151.433,23.391z"/>
<path fill="#F1F2F2" stroke="#F1F2F2" stroke-width="0.25" stroke-miterlimit="10" d="M171.704,113.751"/>
<path fill="#F1F2F2" stroke="#F1F2F2" stroke-width="0.25" stroke-miterlimit="10" d="M232.316,38.166c0,0,4.077-1.896-2.9-11.164
	s-16.17-4.486-16.17-4.486s-9.82,3.729-10.895,22.703c-0.742,13.1-1.126,23.625,0.342,30.271c1.885,6.027,6.455,8.466,8.137,9.096
	c7.579,2.836,15.692,0.945,19.135-3.337c0,0,3.428-2.357,3.413-10.493c-1.155-4.58-3.8-5.197-6.544-3.249
	c-2.745,1.949-1.421,10.738-6.73,10.018c-3.345-0.587-4.884-2.251-5.587-4.408c-1.328-3.359-1.75-12.215-1.6-19.506
	c0.083-4.042,0.286-13.216,1.964-17.289c0.561-1.918,1.321-3.489,2.339-4.512c3.099-1.281,4.297,0.135,4.892,2.046
	c0.446,1.434,1.707,5.021,2.416,5.414C226.654,40.446,230.199,41.167,232.316,38.166z"/>
<path fill="#F1F2F2" stroke="#F1F2F2" stroke-width="0.25" stroke-miterlimit="10" d="M247.889,28.4
	c-1.82-0.249-4.353,1.919-4.853,20.312c-0.667,24.521-2,30.595-2,30.595s-4.333,9.108,8.333,10.765c12.667,1.656,13,3.589,15,1.933
	c2-1.654,2.332-4.568,0-6.562c-2.333-1.992-8.854-2.186-11.211-4.478c0,0,1.543-30.915,1.543-35.605
	c0-3.775,1.454-9.438,0.048-12.575C254.411,32.016,252.245,29.053,247.889,28.4z"/>
<path fill="#F1F2F2" stroke="#F1F2F2" stroke-width="0.25" stroke-miterlimit="10" d="M271.228,44.885
	c-1.004,10.57-1.676,40.221,1.674,46.259c2.742,4.947,6.32,7.475,9.146,9.185c7.494,3.397,14.828,2.217,18.637-7.038
	c3.349-8.348,3.676-20.271,4.517-34.522c1.512-14.282-7.488-14.451-7.527-7.491c-0.67,11.412-0.67,38.675-8.368,42.015
	c-7.697,3.336-9.035-12.798-9.035-29.21c0-16.413,0-19.606-0.336-23.646C279.597,36.394,272.231,34.314,271.228,44.885z"/>
<path fill="#F1F2F2" stroke="#F1F2F2" stroke-width="0.25" stroke-miterlimit="10" d="M330.8,65.957
	c1.158,2.358,1.812,5.611,1.326,11.13c-0.93,10.571-4.391,11.7-4.391,11.7c4.213,2.481,4.729,8.599,0.639,19.736
	c-4.094,11.145-17.426,2.032-18.393,1.643c-0.972-0.392,1.055-16.571,0.983-38.51c-0.037-10.738,0.658-15.373,1.379-17.307
	c0.748-2.017,2.656-0.921,3.238-0.771c1.285,0.326,2.611,0.84,3.91,1.486c4.166,2.069,7.072,4.884,8.94,7.248
	C329.62,63.806,330.388,65.121,330.8,65.957z M320.099,62.856c0,0-1.641,4.552-1.434,20.824c0,0,8.008,2.333,7.332-9.063
	C325.319,63.218,320.099,62.856,320.099,62.856z M318.706,89.198c-1.512-0.638-0.93,15.896-0.93,15.896s5.043,4.396,5.94-3.521
	C324.616,93.65,324.847,91.787,318.706,89.198z"/>
<path fill="#F1F2F2" stroke="#F1F2F2" stroke-width="0.25" stroke-miterlimit="10" d="M24.533,53.511
	c-0.386,8.505,0.106,23.554-0.268,27.771c-0.35,3.939-0.403,13.995-0.347,20.816c-0.583,9.24,8.216,8.229,8.565,2.221
	c0.349-6.008,1.02-14.366,1.02-14.366s10.403-4.646,10.104-5.434s-1.049,18.416,1.08,19.211s8.074,1.22,8.585-6.227
	c0.511-7.444,1.373-21.076,1.386-22.815c0.013-1.738,2.339-27.986,0.833-30.607c-1.651-6.69-9.629-4.279-9.997,2.499
	c-0.623,3.161,0.084,6.847-0.315,10.512c-0.653,6.006-0.422,16.184-1.2,18.276c0,0-7.488,2.188-9.943,4.267
	c0,0,1.196-17.633,0.772-22.208c-0.318-3.433,0.475-6.416-0.964-9.025C33.364,47.531,26.62,42.615,24.533,53.511z"/>
<path fill="#F1F2F2" stroke="#F1F2F2" stroke-width="0.25" stroke-miterlimit="10" d="M132.375,41.361c0,0,3.754-5.021-5.006-12.179
	c-8.761-7.156-15.332-1.927-17.834,0c-2.503,1.927-6.57,15.415-6.257,39.912c0,0-0.156,22.295,14.94,20.918
	c15.096-1.376,16.348-9.909,17.287-14.038c0.938-4.129-1.252-6.331-3.442-6.331s-4.068,0.908-5.632,5.133
	c-1.564,4.227-6.57,10.281-11.264,4.501c0,0-3.754-9.634-1.251-28.075c2.503-18.44,7.361-19.549,10.951-11.011
	C124.866,40.193,128.933,45.558,132.375,41.361z"/>
</svg>
