<?xml version="1.0" encoding="utf-8"?>
<!-- Generator: Adobe Illustrator 15.1.0, SVG Export Plug-In  -->
<!DOCTYPE svg PUBLIC "-//W3C//DTD SVG 1.1//EN" "http://www.w3.org/Graphics/SVG/1.1/DTD/svg11.dtd" [
	<!ENTITY ns_flows "http://ns.adobe.com/Flows/1.0/">
]>
<svg version="1.1"
	 xmlns="http://www.w3.org/2000/svg" xmlns:xlink="http://www.w3.org/1999/xlink" xmlns:a="http://ns.adobe.com/AdobeSVGViewerExtensions/3.0/"
	 x="0px" y="0px" width="260px" height="123px" viewBox="0 0.10986 260 123" enable-background="new 0 0.10986 260 123"
	 xml:space="preserve">
<defs>
</defs>
<g>
	<rect x="30.30664" y="41.64258" fill="none" width="198.66602" height="36.44922"/>
	<path fill="#D3595D" d="M43.56689,54.6416c1.75049-1.55029,4.10059-2.25049,6.55078-2.25049
		c5.2002,0,7.2002,3.40039,7.2002,8.70068v16.75098h-7.95068V62.24219c0-2.35059-0.44971-3.90039-2-3.90039
		c-1.75,0-3.80029,2.3999-3.80029,6.30078v13.2002H35.6665V42.94043l7.90039-1.3501V54.6416z"/>
	<path fill="#D3595D" d="M83.76758,65.79199c0,7.90039,2.75,10.4502,2.75,10.4502l-6.3501,2.00098
		c0,0-1.80029-1.7002-2.40039-5.00098c-1.1001,3.10059-3.25,4.90039-6.85059,4.90039c-6.55029,0-9.65039-4.9502-9.65039-12.45117
		c0-7.6499,5.1001-13.30029,12.55078-13.30029c4.15039,0,9.85059,1.4502,9.95068,1.4502V65.79199z M75.86719,64.39258V58.5918
		c-0.4502-0.2002-1.4502-0.40039-2.05029-0.40039c-3.25,0-4.15039,2.9502-4.15039,7c0,3.70117,0.1499,7.15137,2.55029,7.15137
		C74.26709,72.34277,75.86719,68.5918,75.86719,64.39258z"/>
	<path fill="#D3595D" d="M104.0166,59.8418c-0.7998-0.9502-1.5498-1.7002-2.8999-1.7002c-1.65039,0-4.25049,0.6499-4.25049,7.00098
		c0,6.2998,2.80029,7.2002,4.9502,7.2002c1.6001,0,4.05029-0.9502,4.20068-1l1.44971,5.25c-0.0498,0.0498-3,1.7002-7.4502,1.7002
		c-8.15039,0-11.55078-4.9502-11.55078-12.30078c0-9.00049,5.2002-13.75098,12.15088-13.75098c3.25,0,5.75,1.4502,7.30029,3.55029
		L104.0166,59.8418z"/>
	<path fill="#D3595D" d="M118.81592,41.59033v13.10107c1.25-1.1499,3.25-2.30029,6.55078-2.30029
		c4.15039,0,7.3501,2.50049,7.3501,6.65039c0,5.95068-5.25049,7.6499-5.25049,7.6499l7.00049,11.15137h-9.00049
		c-2.90039-4.90039-4.75-9.00098-5.40039-12.50098l-0.0498-0.75c0.9502-0.15039,4.85059-1.15039,4.85059-4
		c0-1.55029-0.85059-2.40039-2.05078-2.40039c-3.09961,0-4,3.40039-4,4.15039v15.50098h-7.90039V42.94043L118.81592,41.59033z"/>
	<path fill="#D3595D" d="M137.61523,43.99072h21.55078v6.05029h-13.30078v7.25049h11.05078l-0.94922,5.95068h-10.10156v8.5498
		h14.00195v6.05078h-22.25195V43.99072z"/>
	<path fill="#D3595D" d="M163.81445,43.99072c0.94922,0,7.45117-0.1001,11.15039-0.1001
		c11.30078,0,16.30078,7.20068,16.30078,17.30127c0,10.3501-5.09961,16.75049-16.45117,16.75049
		c-3.79883,0-6.09961-0.09961-11-0.09961V43.99072z M172.06445,49.74121v22.35156c0.85156,0.0498,1.35156,0.0498,2.55078,0.0498
		c5.84961,0,7.75-4.15039,7.75-10.85059c0-7.70068-2.5-11.60107-7.75-11.60107
		C173.51563,49.69092,173.11523,49.74121,172.06445,49.74121z"/>
	<path fill="#D3595D" d="M203.86523,43.99072v20.15186c0,5.7998,2.69922,7.64941,6.19922,7.64941
		c3.55078,0,5.55078-2.59961,5.55078-7.64941V43.99072h8.25V64.5918c0,7.15039-3.79883,13.55078-14.45117,13.55078
		c-10.19922,0-13.75-6.4502-13.75-13.55078V43.99072H203.86523z"/>
</g>
<rect id="_x3C_Slice_x3E__1_" fill="none" width="260" height="123"/>
</svg>
