<svg xmlns="http://www.w3.org/2000/svg" xmlns:xlink="http://www.w3.org/1999/xlink" id="Layer_1" x="0" y="0" enable-background="new 0 0 428.5 92.3" version="1.0" viewBox="0 0 428.5 92.3" xml:space="preserve"><switch><g><rect width="500.8" height="164.5" x="-36.1" y="-36.1" fill="#FFF"/><g><circle cx="46.1" cy="46.1" r="46.1" fill="#F5BB60"/><circle cx="41.5" cy="41.5" r="41.5" fill="#E86F32"/><circle cx="47" cy="36" r="36" fill="#E53D42"/><circle cx="49.9" cy="38.8" r="33.1" fill="#BFD141"/><circle cx="47.5" cy="41.3" r="30.7" fill="#6DB64C"/><circle cx="42.6" cy="36.4" r="25.8" fill="#AFDBE7"/><circle cx="46.8" cy="32.2" r="21.6" fill="#57BADF"/><circle cx="49.5" cy="34.8" r="19" fill="#02B2D6"/><radialGradient id="SVGID_1_" cx="46.729" cy="37.575" r="16.238" gradientUnits="userSpaceOnUse"><stop offset="0" style="stop-color:#797979"/><stop offset="1" style="stop-color:#4c4c4c"/></radialGradient><circle cx="46.7" cy="37.6" r="16.2" fill="url(#SVGID_1_)"/><circle cx="46.7" cy="37.6" r="16.2" fill="#231F20"/><ellipse cx="53.2" cy="31.7" fill="#FFF" rx="3.2" ry="5" transform="matrix(0.9124 0.4094 -0.4094 0.9124 17.6285 -19.0074)"/></g><path fill="#382F27" d="M107.1,28.5c0-0.3,0.2-0.5,0.6-0.5h14.5c8.3,0,12.2,3.8,12.2,9.6c0,4.1-2.1,6.4-4.5,7.6v0.1 c2.4,0.8,5.2,3.7,5.2,8.1c0,7.2-4.9,10.6-13.4,10.6h-14c-0.3,0-0.6-0.2-0.6-0.5V28.5z M122,43c3.4,0,5.6-1.9,5.6-4.7 c0-2.9-2.1-4.8-5.6-4.8h-7.8c-0.2,0-0.3,0.1-0.3,0.3v8.9c0,0.2,0.1,0.3,0.3,0.3H122z M114.2,58.5h8.2c3.8,0,5.9-2,5.9-5 c0-3-2.1-5-5.9-5h-8.2c-0.2,0-0.3,0.1-0.3,0.3v9.4C113.9,58.4,114,58.5,114.2,58.5z"/><path fill="#382F27" d="M139.8,64.1c-0.3,0-0.6-0.2-0.6-0.5V39c0-0.3,0.2-0.5,0.6-0.5h5.3c0.3,0,0.6,0.2,0.6,0.5v2.2h0.1 c1.3-2,3.7-3.3,7.2-3.3c2.2,0,4.4,0.8,5.8,2.1c0.3,0.3,0.3,0.5,0.1,0.7l-3,3.6c-0.2,0.3-0.5,0.3-0.8,0.1c-1.3-0.7-2.6-1.2-4.1-1.2 c-3.6,0-5.2,2.4-5.2,6.5v13.9c0,0.3-0.2,0.5-0.6,0.5H139.8z"/><path fill="#382F27" d="M159.9,57.6c-0.6-1.8-0.9-3.5-0.9-6.3s0.3-4.5,0.9-6.3c1.6-4.5,5.8-7.1,11.4-7.1c5.6,0,9.8,2.6,11.4,7.1 c0.6,1.8,0.9,3.5,0.9,6.3s-0.3,4.5-0.9,6.3c-1.6,4.5-5.8,7.1-11.4,7.1C165.7,64.6,161.5,62,159.9,57.6z M176.5,56 c0.5-1.3,0.6-2.5,0.6-4.7s-0.1-3.3-0.6-4.7c-0.8-2.1-2.6-3.3-5.2-3.3c-2.6,0-4.4,1.2-5.2,3.3c-0.5,1.4-0.6,2.5-0.6,4.7 s0.1,3.4,0.6,4.7c0.8,2.1,2.6,3.3,5.2,3.3C173.9,59.3,175.7,58.1,176.5,56z"/><path fill="#382F27" d="M211.5,64.1c-0.3,0-0.6-0.2-0.7-0.5l-5.3-16.4h-0.1l-5.4,16.4c-0.1,0.3-0.3,0.5-0.7,0.5h-4.7 c-0.3,0-0.6-0.2-0.7-0.5L185.1,39c-0.1-0.3,0.1-0.5,0.4-0.5h5.5c0.4,0,0.6,0.2,0.7,0.5l5.3,16.9h0.1l5.3-16.9 c0.1-0.3,0.4-0.5,0.7-0.5h4.1c0.3,0,0.6,0.2,0.7,0.5l5.6,16.9h0.1l5.1-16.9c0.1-0.4,0.3-0.5,0.7-0.5h5.5c0.3,0,0.5,0.2,0.4,0.5 l-8.7,24.5c-0.1,0.3-0.3,0.5-0.7,0.5H211.5z"/><path fill="#382F27" d="M226.7,60.6c-0.2-0.2-0.2-0.5,0-0.7l3.3-3.2c0.2-0.2,0.6-0.2,0.8,0c2,1.7,5.2,2.9,8.1,2.9 c3.4,0,5.1-1.3,5.1-3c0-1.5-1-2.5-4.6-2.8l-3-0.3c-5.6-0.5-8.5-3.2-8.5-7.5c0-4.9,3.8-8.1,10.7-8.1c4.3,0,7.9,1.3,10.4,3.1 c0.3,0.2,0.3,0.5,0.1,0.7l-2.8,3.1c-0.2,0.3-0.5,0.3-0.8,0.1c-1.7-1.1-4.5-2.1-7.2-2.1c-2.8,0-4.2,1.1-4.2,2.7 c0,1.5,1,2.4,4.5,2.7l3,0.3c5.8,0.5,8.6,3.3,8.6,7.5c0,5.1-4,8.7-11.6,8.7C232.9,64.6,229,62.6,226.7,60.6z"/><path fill="#382F27" d="M254.6,57.5c-0.6-1.6-1-3.6-1-6.3s0.3-4.7,0.9-6.3c1.6-4.5,5.8-7.1,11.3-7.1c5.7,0,9.8,2.7,11.4,7.1 c0.6,1.8,0.9,3.6,0.9,7.7c0,0.3-0.2,0.5-0.6,0.5h-17.1c-0.2,0-0.3,0.1-0.3,0.3c0,0.7,0.2,1.4,0.4,2c0.9,2.5,3.1,3.9,6.2,3.9 c3.1,0,5.1-1.1,6.5-2.4c0.3-0.3,0.6-0.3,0.9-0.1l3.4,2.8c0.3,0.2,0.3,0.5,0.1,0.7c-2.4,2.5-6.3,4.4-11.4,4.4 C260.3,64.6,256.2,62,254.6,57.5z M271.3,46.2c-0.7-2.1-2.8-3.3-5.4-3.3c-2.6,0-4.7,1.2-5.5,3.3c-0.2,0.6-0.3,1.3-0.3,2.2 c0,0.2,0.1,0.3,0.3,0.3h10.9c0.2,0,0.3-0.1,0.3-0.3C271.7,47.5,271.6,46.8,271.3,46.2z"/><path fill="#382F27" d="M282.9,64.1c-0.3,0-0.6-0.2-0.6-0.5V39c0-0.3,0.2-0.5,0.6-0.5h5.3c0.3,0,0.6,0.2,0.6,0.5v2.2h0.1 c1.3-2,3.7-3.3,7.2-3.3c2.2,0,4.4,0.8,5.8,2.1c0.3,0.3,0.3,0.5,0.1,0.7l-3,3.6c-0.2,0.3-0.5,0.3-0.8,0.1c-1.3-0.7-2.6-1.2-4.1-1.2 c-3.6,0-5.2,2.4-5.2,6.5v13.9c0,0.3-0.2,0.5-0.6,0.5H282.9z"/><path fill="#382F27" d="M302.9,59.9c-0.2-0.2-0.3-0.5-0.1-0.8l3.6-3.8c0.2-0.3,0.6-0.3,0.8-0.1c2.5,1.9,6.3,3.8,10.6,3.8 c4.7,0,7.4-2.2,7.4-5.2c0-2.6-1.7-4.3-7.1-5l-2.1-0.3c-7.5-1-11.8-4.3-11.8-10.3c0-6.5,5.2-10.9,13.2-10.9c4.9,0,9.5,1.4,12.6,3.6 c0.3,0.2,0.3,0.4,0.1,0.7l-2.8,3.9c-0.2,0.3-0.5,0.3-0.8,0.2c-3.2-1.9-6.1-2.8-9.4-2.8c-4,0-6.1,2-6.1,4.8c0,2.5,1.9,4.2,7.2,4.9 l2.1,0.3c7.5,1,11.7,4.2,11.7,10.5c0,6.4-5,11.2-14.7,11.2C311.5,64.6,306,62.5,302.9,59.9z"/><path fill="#382F27" d="M343.9,64.5c-5.6,0-7.7-2.5-7.7-7.5V43.5c0-0.2-0.1-0.3-0.3-0.3H334c-0.3,0-0.6-0.2-0.6-0.5v-3.6 c0-0.3,0.2-0.5,0.6-0.5h1.8c0.2,0,0.3-0.1,0.3-0.3v-7c0-0.3,0.2-0.5,0.6-0.5h5.3c0.3,0,0.6,0.2,0.6,0.5v7c0,0.2,0.1,0.3,0.3,0.3 h3.7c0.3,0,0.6,0.2,0.6,0.5v3.6c0,0.3-0.2,0.5-0.6,0.5H343c-0.2,0-0.3,0.1-0.3,0.3v13.3c0,1.8,0.8,2.4,2.6,2.4h1.4 c0.3,0,0.6,0.2,0.6,0.5V64c0,0.3-0.2,0.5-0.6,0.5H343.9z"/><path fill="#382F27" d="M368.2,64.1c-0.3,0-0.6-0.2-0.6-0.5v-1.9h-0.1c-1.3,1.8-3.9,3-7.8,3c-5.1,0-9.3-2.4-9.3-7.8 c0-5.6,4.2-8.1,11.1-8.1h5.6c0.2,0,0.3-0.1,0.3-0.3v-1.2c0-2.9-1.5-4.2-6.1-4.2c-3.1,0-5,0.8-6.3,1.8c-0.3,0.2-0.6,0.2-0.8-0.1 l-2.1-3.5c-0.2-0.3-0.1-0.5,0.1-0.7c2.2-1.5,5.3-2.5,9.8-2.5c8.4,0,11.5,2.7,11.5,8.9v16.7c0,0.3-0.2,0.5-0.6,0.5H368.2z M367.6,55.5v-2c0-0.2-0.1-0.3-0.3-0.3h-4.6c-4.1,0-6,1.1-6,3.5c0,2.1,1.7,3.2,4.8,3.2C365.4,59.8,367.6,58.4,367.6,55.5z"/><path fill="#382F27" d="M378.7,57.6c-0.6-1.6-0.9-3.6-0.9-6.3s0.3-4.7,0.9-6.3c1.6-4.6,5.9-7.1,11.4-7.1c4.1,0,7.4,1.5,9.6,4 c0.2,0.2,0.2,0.5-0.1,0.7l-3.6,2.9c-0.3,0.2-0.6,0.2-0.8-0.1c-1.4-1.4-2.8-2.2-5.1-2.2c-2.5,0-4.4,1.1-5.2,3.3 c-0.5,1.3-0.6,2.8-0.6,4.7s0.1,3.5,0.6,4.8c0.8,2.2,2.7,3.3,5.2,3.3c2.3,0,3.7-0.8,5.1-2.2c0.2-0.3,0.5-0.3,0.8-0.1l3.6,2.9 c0.3,0.2,0.2,0.5,0.1,0.7c-2.2,2.4-5.5,3.9-9.6,3.9C384.5,64.6,380.3,62.1,378.7,57.6z"/><path fill="#382F27" d="M422.1,64.1c-0.4,0-0.7-0.2-0.9-0.5l-7-10.7l-3.7,4v6.7c0,0.3-0.2,0.5-0.6,0.5h-5.3 c-0.3,0-0.6-0.2-0.6-0.5V28.5c0-0.3,0.2-0.5,0.6-0.5h5.3c0.3,0,0.6,0.2,0.6,0.5v20.8l9.5-10.3c0.3-0.4,0.6-0.5,1.1-0.5h5.9 c0.3,0,0.5,0.3,0.2,0.5l-8.8,9.3l10.1,15.2c0.2,0.2,0.1,0.5-0.3,0.5H422.1z"/></g></switch></svg>