<svg width="534" height="207" viewBox="0 0 534 207" fill="none" xmlns="http://www.w3.org/2000/svg">
<g clip-path="url(#clip0)">
<path d="M529.5 151.2C529.5 151.2 485.7 120.5 468.7 114.5C460.7 111.9 425.3 94 369.7 114.5C369.7 114.5 342.3 125.2 304.1 134.9L298.9 138.1C299 171.2 299 170.9 300.5 182C303.6 193.3 307.9 209.9 341.2 200.2C374.5 190.6 407.9 173.4 449.6 187.3C491.3 201.2 519.7 205.3 529.5 202.2C529.5 202.2 508 183 500.9 168C500.9 168.1 524.7 161.1 529.5 151.2Z" fill="#E42D40" stroke="black" stroke-width="6" stroke-miterlimit="10"/>
<path d="M354.1 144.6C354.1 144.6 352.6 139.9 360 132.8C367.4 125.7 375 129.4 376.4 132.1C377.9 134.8 380.5 140.4 375 152.9C372.5 158.4 371 160.9 367.5 166.8C364.7 172.6 372.6 164.2 381.7 164.2C390.8 164.2 388.2 172.3 385.6 172.4C362.4 177.1 359 184.7 356.1 179.4C353.2 174.2 356 168.9 357.9 165.6C359.9 162.3 374.3 142.7 367.7 139.3C365.6 138.1 363.6 140.4 362 142.7C360.7 144.7 360.2 146.5 358.2 147.7C356.3 148 354.8 146.6 354.1 144.6Z" fill="#F1F2F2" stroke="#F1F2F2" stroke-width="0.25" stroke-miterlimit="10"/>
<path d="M417.3 128.7C421.2 135.7 420.3 149.7 416.3 161.1C412.3 172.6 398.2 170.5 394.1 165.8C389.9 161.1 386.3 145.2 388.5 132.9C390.8 120.5 399.8 119.8 402.1 119.2C408 118.9 413.4 121.6 417.3 128.7ZM402.3 128.2C396.1 129.3 396.6 138.4 397.2 144.2C398.7 154.7 400.5 159.1 402 160.8C404 162.6 405.6 162.4 407.8 159.8C408.9 158.2 409.5 155.4 409.8 151.7C410.1 148 409.9 144.6 409.9 144.6C409.9 144.6 409.7 127.3 402.3 128.2Z" fill="#F1F2F2" stroke="#F1F2F2" stroke-width="0.25" stroke-miterlimit="10"/>
<path d="M436.2 118.2C434.3 117.8 431.6 118.3 429 122.4C424.1 130.3 422.8 127.7 424.9 133.2C424.9 133.2 428.7 136.7 431.2 133.4C431.2 133.4 430.6 135.2 430.7 148C430.8 160.8 427.7 171.2 434.6 170.1C441.5 169 440.6 167.3 441 157.7C441.4 148.1 440.6 125 440.4 122.8C440.2 120.5 439 118.8 436.2 118.2Z" fill="#F1F2F2" stroke="#F1F2F2" stroke-width="0.25" stroke-miterlimit="10"/>
<path d="M455.993 169.447C466.593 167.747 464.393 156.147 464.393 156.147C460.593 159.247 457.493 159.447 454.093 156.947C450.193 153.947 449.293 146.947 449.293 143.847C449.393 133.347 453.293 123.247 465.093 126.347C479.693 133.247 475.493 160.947 474.393 165.947C473.193 170.947 467.893 176.947 460.593 178.247C457.193 178.847 454.993 178.147 453.493 177.147C451.893 176.247 451.093 175.047 450.993 173.947C450.893 172.647 450.893 170.647 455.993 169.447ZM464.193 150.047C464.193 150.047 465.793 136.347 460.493 134.447C455.093 132.547 456.093 139.247 455.993 142.147C455.593 150.147 457.693 153.547 464.193 150.047Z" fill="#F1F2F2" stroke="#F1F2F2" stroke-width="0.25" stroke-miterlimit="10"/>
<path d="M301.2 182.6C301.2 182.6 301.9 172.9 317.5 168C336.4 161.7 342.7 162.5 344 154.6C345.3 146.7 346.7 88 345.4 84C344 80 334.3 100.1 312 107.7C312 107.7 299.4 108.3 299.1 123C298.8 135.7 299 173.8 299.9 178.8C300.6 182.2 301.2 182.6 301.2 182.6Z" fill="#E42D40" stroke="black" stroke-width="6" stroke-miterlimit="10"/>
<path d="M0.399994 37.6C0.399994 37.6 107.4 1.10001 189.1 3.10001C244.4 6.50001 289 21 315.2 35.6C319.6 38 339.6 49.1 344.2 57.8C347.8 61.9 345.3 141.5 344.3 148.4C344.2 152.9 344.4 151.5 343.2 148.8C336.1 134.9 295.7 121.5 275.2 115.3C254.4 109.3 224.2 100.9 173.6 103.9C121 107 72.2 117.5 39.9 124.3C20 128.5 1.89999 130 1.89999 130" fill="#E42D40"/>
<path d="M0.399994 37.6C0.399994 37.6 107.4 1.10001 189.1 3.10001C244.4 6.50001 289 21 315.2 35.6C319.6 38 339.6 49.1 344.2 57.8C347.8 61.9 345.3 141.5 344.3 148.4C344.2 152.9 344.4 151.5 343.2 148.8C336.1 134.9 295.7 121.5 275.2 115.3C254.4 109.3 224.2 100.9 173.6 103.9C121 107 72.2 117.5 39.9 124.3C20 128.5 1.89999 130 1.89999 130" stroke="black" stroke-width="6" stroke-miterlimit="10"/>
<path d="M87.4 46.4C88.4 49.4 90.2 54.8 94 66.3C95.7 71.3 97.5 78.6 97.5 78.6C97.5 78.6 101 90.3 98.4 92C96.8 94.2 93 93.1 91.4 91.2C89.2 88.1 87.4 81.1 86.5 77.2C86.1 75.6 85.5 74 85.1 73.7C83.5 72.8 80.5 73.9 78.7 74.5C76.3 75.4 73.8 76.6 72.9 77.1C70.8 85.8 73.6 73 70.8 85.8C69.6 91.5 69.3 94.2 68.8 95.8C68.2 97.7 62.8 104.1 59.4 96.3C59.2 94.1 59.7 91.5 59.7 91.5C59.7 91.5 61.4 71.1 66.8 51.3C72.2 31.5 78.3 34.3 78.3 34.3C80.3 34.3 82.8 35 87.4 46.4ZM72.5 67C72.5 67 82 65.1 83 63.5C84 61.9 80.1 46 78.2 45.4C76.4 44.9 73.5 52.4 72.5 67Z" fill="#F1F2F2" stroke="#F1F2F2" stroke-width="0.25" stroke-miterlimit="10"/>
<path d="M150.4 23.4C150.4 23.4 144.9 20.3 143.3 25.1C142.6 30.1 142.7 56.2 142.7 60.2C142.3 62.5 142 74.5 141.5 83.8C142 85.3 142.8 86.3 144.1 86.3C150.4 86.8 150.5 83.6 151.1 82.3C151.7 81 152.1 66.6 152.8 66.4C153.4 66.2 157.4 63.6 158.2 62.5C158.9 61.6 162.9 75.2 168.3 81.1C172.6 85.6 178.4 84.1 175.8 78C175.1 76 174.1 73.9 173.5 72.3C171.7 67.8 166.1 57.8 166.2 57.4C166.3 57.2 168.6 53.2 168.6 53.2C168.6 53.2 173.3 43.7 174.4 42C176.1 39.3 182.3 25.9 181.5 22.8C180.7 19.7 179.7 18.7 177.5 19.1C175.3 19.5 174.7 20.4 172.2 25.6C169.7 30.8 164.4 41 160.9 46.4C160.9 46.4 156.1 53.5 152.2 55.8C152.2 55.8 153.3 46.1 153.3 35.9C152.7 24.4 150.4 23.4 150.4 23.4Z" fill="#F1F2F2" stroke="#F1F2F2" stroke-width="0.25" stroke-miterlimit="10"/>
<path d="M231.3 38.2C231.3 38.2 235.4 36.3 228.4 27C221.4 17.7 212.2 22.5 212.2 22.5C212.2 22.5 202.4 26.2 201.3 45.2C200.6 58.3 200.2 68.8 201.6 75.5C203.5 81.5 208.1 84 209.7 84.6C217.3 87.4 225.4 85.5 228.8 81.3C228.8 81.3 232.2 78.9 232.2 70.8C231 66.2 228.4 65.6 225.7 67.6C223 69.5 224.3 78.3 219 77.6C215.7 77 214.1 75.3 213.4 73.2C212.1 69.8 211.6 61 211.8 53.7C211.9 49.7 212.1 40.5 213.8 36.4C214.4 34.5 215.1 32.9 216.1 31.9C219.2 30.6 220.4 32 221 33.9C221.4 35.3 222.7 38.9 223.4 39.3C225.7 40.4 229.2 41.2 231.3 38.2Z" fill="#F1F2F2" stroke="#F1F2F2" stroke-width="0.25" stroke-miterlimit="10"/>
<path d="M246.9 28.4C245.1 28.2 242.5 30.3 242 48.7C241.3 73.2 240 79.3 240 79.3C240 79.3 235.7 88.4 248.3 90.1C261 91.8 261.3 93.7 263.3 92C265.3 90.3 265.6 87.4 263.3 85.4C261 83.4 254.4 83.2 252.1 80.9C252.1 80.9 253.6 50 253.6 45.3C253.6 41.5 255.1 35.9 253.6 32.7C253.4 32 251.2 29.1 246.9 28.4Z" fill="#F1F2F2" stroke="#F1F2F2" stroke-width="0.25" stroke-miterlimit="10"/>
<path d="M270.2 44.9C269.2 55.5 268.5 85.1 271.9 91.2C274.6 96.1 278.2 98.7 281 100.4C288.5 103.8 295.8 102.6 299.6 93.4C302.9 85.1 303.3 73.1 304.1 58.9C305.6 44.6 296.6 44.4 296.6 51.4C295.9 62.8 295.9 90.1 288.2 93.4C280.5 96.7 279.2 80.6 279.2 64.2C279.2 47.8 279.2 44.6 278.9 40.6C278.6 36.4 271.2 34.3 270.2 44.9Z" fill="#F1F2F2" stroke="#F1F2F2" stroke-width="0.25" stroke-miterlimit="10"/>
<path d="M329.8 66C331 68.4 331.6 71.6 331.1 77.1C330.2 87.7 326.7 88.8 326.7 88.8C330.9 91.3 331.4 97.4 327.3 108.5C323.2 119.6 309.9 110.5 308.9 110.1C307.9 109.7 310 93.5 309.9 71.6C309.9 60.9 310.6 56.2 311.3 54.3C312 52.3 314 53.4 314.5 53.5C315.8 53.8 317.1 54.3 318.4 55C322.6 57.1 325.5 59.9 327.3 62.2C328.6 63.8 329.4 65.1 329.8 66ZM319.1 62.9C319.1 62.9 317.5 67.5 317.7 83.7C317.7 83.7 325.7 86 325 74.6C324.3 63.2 319.1 62.9 319.1 62.9ZM317.7 89.2C316.2 88.6 316.8 105.1 316.8 105.1C316.8 105.1 321.8 109.5 322.7 101.6C323.6 93.7 323.8 91.8 317.7 89.2Z" fill="#F1F2F2" stroke="#F1F2F2" stroke-width="0.25" stroke-miterlimit="10"/>
<path d="M23.5 53.5C23.1 62 23.6 77.1 23.2 81.3C22.8 85.2 22.8 95.3 22.9 102.1C22.3 111.3 31.1 110.3 31.5 104.3C31.8 98.3 32.5 89.9 32.5 89.9C32.5 89.9 42.9 85.3 42.6 84.5C42.3 83.7 41.6 102.9 43.7 103.7C45.8 104.5 51.8 104.9 52.3 97.5C52.8 90.1 53.7 76.4 53.7 74.7C53.7 73 56 46.7 54.5 44.1C52.8 37.4 44.9 39.8 44.5 46.6C43.9 49.8 44.6 53.4 44.2 57.1C43.5 63.1 43.8 73.3 43 75.4C43 75.4 35.5 77.6 33.1 79.7C33.1 79.7 34.3 62.1 33.9 57.5C33.6 54.1 34.4 51.1 32.9 48.5C32.4 47.5 25.6 42.6 23.5 53.5Z" fill="#F1F2F2" stroke="#F1F2F2" stroke-width="0.25" stroke-miterlimit="10"/>
<path d="M131.4 41.4C131.4 41.4 135.2 36.4 126.4 29.2C117.6 22 111.1 27.3 108.6 29.2C106.1 31.1 102 44.6 102.3 69.1C102.3 69.1 102.1 91.4 117.2 90C132.3 88.6 133.5 80.1 134.5 76C135.4 71.9 133.2 69.7 131.1 69.7C129 69.7 127 70.6 125.5 74.8C123.9 79 118.9 85.1 114.2 79.3C114.2 79.3 110.4 69.7 112.9 51.2C115.4 32.8 120.3 31.7 123.9 40.2C123.9 40.2 127.9 45.6 131.4 41.4Z" fill="#F1F2F2" stroke="#F1F2F2" stroke-width="0.25" stroke-miterlimit="10"/>
</g>
<defs>
<clipPath id="clip0">
<rect width="534" height="207" fill="white"/>
</clipPath>
</defs>
</svg>
